<svg xmlns="http://www.w3.org/2000/svg" xml:space="preserve" style="enable-background:new 0 0 60 60" viewBox="0 0 60 60"><style>.st5{fill:#50bfc3}</style><path id="XMLID_14_" d="M60 30c0 16.6-13.4 30-30 30S0 46.6 0 30 13.4 0 30 0s30 13.4 30 30" style="fill:#fff"/><path id="XMLID_13_" d="M27.5 56.9c.3-.3.4-.7.5-1.2v-1.3c0-.8 0-1.7.1-2.5.2-2.3.2-4.6.4-6.9-1.8 0-3.4 0-3.7.1-.8 0-1.4.2-2 .4-.2.1-.4.1-.6.2-.2 0-.3.1-.8.1-.3 0 .1.1-.4.1.1 0 .2.1-.1.1-1 0-1.5-.5-2.5-.4-.3 0-.7.3-1.1.4-.8.1-.5-.4-.9-.4 0 0-1 .4-1.5.5-.1 0-.1 0-.1.1 0 0-.1 0-.1.1h.1-.1s-.1 0 0 0c0 0-.2 0 .1-.1-.1 0-.4-.1-.3-.1l-.2-.1-.1-.1c.1 0-.2 0 .1-.1 0 0-.4 0-.2-.1-.1 0-.2 0-.2-.1l-.1-.1s-.1-.1 0-.1-.2-.1 0-.1c-.2 0-.4-.1-.4-.1l-.1-.1s-.1-.1 0-.1l-.1-.1c-.1 0-.1-.1-.1-.1s0-.1-.1-.1v-.1s-.1-.1 0-.1c.1-.1-.2-.1-.1-.2s-.1-.1.3-.2c-.2-.1-.5-.1-.1-.2 0 0-.4-.1.1-.1 0 0-.4 0 .1-.1h.1s-.3 0 0 0c0 0-.3 0 0 0 0 0-.3 0 0 0 0 0-.2 0 0 0 0 0-.2 0 0 0 0 0-.2 0 0 0 0 0-.2 0 0 0h-.3c-.2 0-.2-.1-.1-.2 0 0 0-.1.1-.1-.1 0 0-.1.2-.1 0-.1-.2-.1 0-.2 0-.1-.1-.1.1-.2.1-.1-.1-.1 0-.2-.1-.1-.1-.1 0-.2 0-.1 0-.1.2-.2-.1-.1-.1-.1 0-.2s0-.1.1-.2v-.2l.1-.1.1-.1c-.6.2-1.2.9-1.7 1.2-.4.3-.8.7-1.2 1.2-.2.8-.5.6-.6 1.2-.1.5-.4-.1-.3 1.3-.2.6-.3.6-.2 1.6v.4c4.2 4.6 10 7.7 16.5 8.6.4.1.8.1 1.1-.1" style="fill:#9ac550"/><path id="XMLID_12_" d="M47.6 47.6c-.1 0-.3-.2-.6-.5-.2.6-.6-.6-.8-.1-.5 0-1 .5-1.6.1-.6-.2-1.1.5-1.7 0-.5.4-1.1 0-1.6-.2-.3-.3-.4 0-.7-.4 0 .1-.2 0-.4-.2s-.3-.4-.5-.5l-.1-.1c-.9-.3-1.8.2-2.8-.7-.6-.5-1.1.6-2 0-.3-.2-2.2-.2-4.4-.2v.8c-.3 2.9-.2 5.9-.1 8.8 0 0 .1 1.2.4 1.9.2.5.6.7 1.3.6 6.6-.5 12.5-3.3 16.9-7.7l-.4-.4c-.1.2-.5-.8-.9-1.2" style="fill:#99c44e"/><path id="XMLID_11_" d="M6 41.4c0-.9 0-.5-.2-1.5 0 .2-.2-.5-.4-1.6 0 .5-.1-.8-.1-1.7 0-.5.1-1.6.3-1.8.1-1.2.5-.7.7-1.6.2-.6.4-1 .7-.9.2-.3.5-.5.7-.9.4-.1.7-.3.9-1.6.2-1.2.4-1.6.8-1.7 0-.5.5-.9 1.1-1.3.6-1.1 1.4-1.2 1.9-2.3.6-.7 1-1.2 1-1.2.5-.6 1.2-1.5 2-.9.8.3 1.6.1 2.3-.2.1-.5.9-.4 1.6-.5.7-.3 1.4-.6 1.2-.7.1.1.3.1.4-.1.1-.1.3-.3.4-.3.2.1.5-.3.7-.2.3-.1.5-.4.7-.3.6-.3 1.6-.8 2.3-1.3.1-.1.2-.1.3-.2.3-.1.1-.2.4-.2-.1-.1-.2-.2 0-.3 0-.1-.1-.2-.1-.3.1-.1-.1-.2 0-.3-.1-.1-.3-.2-.1-.3 0-.1-.3-.1-.4-.2l-.2-.2c-.1-.1-.3-.2-.3-.3-.2-.1-.5-.2-.7-.3.1-.1-.3-.2.1-.3-.2-.1-.7-.2-.5-.3-.2-.1-.4-.2-.3-.4-.1-.2-.3-.5 0-.7.1-.2-.3-.5 0-.7-.1-.2-.2-.5 0-.7.1-.2 0-.4.2-.7.1-.2.2-.4.4-.6 1-1.5 2.5-2.7 3.6-3.8.4-.4 3-3.1 4.5-4.5.8-.8-.6-.8-2.2-.8-14.8.1-27 12.3-27 27.3 0 4.6 1.1 8.9 3.1 12.7.3-.1.3-.4.2-1.3" style="fill:#df2831"/><path id="XMLID_10_" d="M50.9 27.8c-1.4-1-2.4-2-4-2.4-.7-.1-1.2.8-1.8 1-.3.3-.6.1-.9 1.2-.3-.2-.6.4-1 1-.2-.8-.4.9-.6.3-.7-.1-1.4 1.4-2.2 1-.7-.2-1.5.6-2.2.8l-1.8.6s.1.1 0 .1c0 .1 0 .1-.4.1h-.5.1-.1s.1 0 0 0h.1-.2.2-.2.1-.1s.2 0 0 0h-.2c0 .1.1.1 0 .2-.1.2 0 .3.1.4.1.2.5.3.8.3h.8s.2 0 0 0h.2-.1.1s.1 0 0 0h.1s.2 0 0 0h.1s.1 0 0 0h.2-.1.1s.1 0 0 0h.1s.1 0 0 0h.2-.1s.1 0 0 0c0 0 .2 0 0 0h.1s.1 0 0 0h-.1s.2 0 0 0c0 0 .2 0 0 0 0 0 .3 0 0 0 0 0 .2 0 0 0 0 0 .2 0 0 0h.4c.2 0 .4.1.4.1s.2.1.3.1c0 0 .1.1.1.2 0 0 0 .1.1.1v.3l-.1.1c-.1 0 0 .1-.1.2 0 0 0 .1-.1.1 0 0 .1.1-.2.1 0 0 .3.1 0 .1l.2.1v.1s0 .1-.1.1 0 .1-.1.1 0 .1-.1.1c0 0 .1.1 0 .1 0 0 .1.1 0 .1 0 0 .1.1 0 .1 0 0 .1.1 0 .1 0 .1 0 .1-.1.2 0 .1 0 .1-.1.1v.1h-.6c-1.3.3-3.6.4-4.8.8-.7-.7-1.9.3-3 1-.1.1-.2.1-.4.2-.4.1-.3.1-.8.2-.4.2-.1.3-.3.1-.1-.1-.2-.1-.4-.1-.8.1-2.2 1.2-3.2 1.8-.3 0-.4.1-.7.1-.5.2-.2.3-.6.3-.1-.2 0-.3 0-.4-.1-.1-.2-.3-.3-.4-.4.1-1 1.4-.8 1.7.3.5 2.4.2 2.8.1.8-.1 1.6-.2 2.4-.2 0-.2.5-.2 1.3-.1.1-.4.1-.7.2-1.1 0-.1.2-.2.3-.4 0-.1.2-.1.3-.2-.1-.1.2-.1.2-.2s.1-.1.2-.2c.1 0 .2-.1.3-.1.1 0 .1-.1.1-.1.2.1.1.1.1.2.2.1.1.1.1.2v2c.3 0 .7.1 1 .1 1.5.1 3.4-.1 4.8.5.6.2 2 .7 2.6.8.6.1 1.8-.4 2.2.2.1.1.1.4-.4.7.1.3.4.5 0 .5 0 0 .3.1.1.4-.1.2.1.5-.1.7-.2.3.2.6-.1.8 0 .2.2.4-.1.5v.2c.2.4.4.1.7.4.5.2 1.1.6 1.6.2.6.4 1.1-.3 1.7 0 .6.4 1.1-.1 1.6-.1.2-.6.6.6.8.1.3.3.4.5.6.5.4.4.7 1.4 1 1.5.1.2.2.3.4.4 5.1-4.9 8.2-11.9 8.2-19.5v-.3c-.6-.1-1.1-.3-1.7-.4-1.6.5-3.2.4-4.6-.7" style="fill:#fecb3b"/><path id="XMLID_9_" d="M29.9 23.7c0-.1-.1-.2-.2-.3-.1-.2-.3-.3-.6-.3-.4.1-1 .2-1.2.2-1 .2-.2-.2-1.1-.4-.2 0-.5.1-.7.2-.4.2-.7.5-.9.5-.3 0-1 .3-1.5.4h-.2s-.1 0 0 0h.1-.1c-.1 0-.2 0-.1-.1-.1 0-.3-.1-.1-.1l-.3-.1s-.1-.1-.1-.2c0 0-.2-.1 0-.1 0 0-.2-.1-.1-.1 0 0-.1-.1 0-.1 0 0-.2-.1 0-.1-.1 0-.3-.1-.1-.1 0 0-.3-.1-.1-.1 0-.1-.3-.1-.1-.2 0 0-.3 0-.1-.1 0 0-.1 0 .1-.1h-.1s-.1 0 0 0c-.1 0-.1 0 0-.1h-.1.1s-.2-.1-.1-.1-.1-.1.1-.1c0-.1-.2-.1.1-.2.1-.1-.3-.1-.2-.2.1-.1 0-.1.2-.2.1-.1-.2-.1 0-.2.1-.1 0-.1.1-.2 0-.1-.1-.1.2-.2.1 0-.1-.1.1-.2-.1-.1-.1-.1-.1-.2v-.2c0-.1 0-.1.1-.2v-.1l.1-.1v-.1c-.1 0-.1 0-.1-.1v-.1s0-.1.1-.1 0-.1.1-.1l.1-.1c-.2-.1-.5.2-.7.3-.3-.1-.5.3-.7.2-.1 0-.3.2-.4.3-.1.1-.3.2-.4.1.1.1-.5.4-1.2.7-.7.1-1.5.1-1.6.5-.7.4-1.5.5-2.3.2-.8-.6-1.5.4-2 .9 0 0-.4.5-1 1.2-.5 1.1-1.4 1.2-1.9 2.3-.6.5-1.1.8-1.1 1.3-.4 0-.6.4-.8 1.7-.2 1.3-.5 1.5-.9 1.6-.2.4-.5.6-.7.9-.3-.1-.5.3-.7.9-.3.8-.6.4-.7 1.6-.2.2-.3 1.3-.3 1.8 0 1 .1 2.3.1 1.7.2 1.1.3 1.7.4 1.6-.3 1.7-.3 1.3-.3 2.2.1.8 0 1.1-.1 1.3.2.4.4.7.6 1.1 1 1.7 2.1 3.2 3.4 4.6V48c-.1-1 0-1 .1-1.4-.1-1.5.2-.8.3-1.3.1-.6.4-.4.6-1.2.3-.5.7-.9 1.2-1.2.4-.3 1.1-1.1 1.7-1.2l.1-.1h.1l.1-.1c.5-.2 1.3-.5 2-.9.1-.1.2-.2.3-.2.6-.1.2-.2.5-.3.1-.4.2-.3.4-.2.1.1.2.3.4.3.1 0 .4-.2.8-.5.7-.5 1.7-1.2 2.1-1.5.1-.1.1-.1.3-.1 0-.1-.1-.2 0-.3 0-.1-.2-.2-.1-.2 0-.1-.3-.1.1-.1h.1-.1c-.3 0-.8-.1-.8-.1-.1 0-.2 0-.2-.1 0 0-.1 0 0-.1-.1 0-.3-.1-.3-.1s-.1-.1 0-.1c-.1 0-.2-.1-.2-.1s-.2-.1 0-.2c0-.1-.2-.1 0-.2l-.1-.1s-.1-.1.1-.1c.2-.1-.1-.1 0-.2-.1 0-.1-.1-.1-.1v-.1s0-.1.1-.1v-.1c.1 0 0 0 .1-.1 0 0-.1-.1 0-.1v-.1c.1 0 0-.1.1-.1 0 0 0-.1.1-.1 0 0 0-.1.1-.1s0 0 .1-.1h.1c.2 0-.1-.1.2-.1 0 0-.2-.1 0-.1 0 0 0-.1.1-.1s.1-.1.2-.1.1-.1.2-.1 0-.1.1-.1l.1-.1s0-.1.1-.1c.4-.3.5-.7-.1-1.4-.1-.2-.3-.3-.4-.4l-.1-.1s-.1-.1.2-.1c0 0-.4-.1-.3-.1l-.2-.1c-.1 0-.1-.1-.1-.1s-.1-.1 0-.1c0 0-.1-.1 0-.1 0 0-.1-.1-.2-.1v-.4c.1-.1 0-.1.2-.2.1 0-.2-.1.1-.1-.1 0-.3-.1-.2-.1 0 0-.1-.1 0-.1v-.1l.1-.1c.1 0-.1-.1.2-.1 0 0-.3-.1-.1-.1 0-.1-.1-.1 0-.2 0-.1 0-.1.1-.2 0 0 0-.1.1-.1 0 0 .1-.1.2-.1h.6-.1s-.1 0 0 0c0 0-.2 0 0 0 0 0-.2 0 0 0h.3s-.1 0 0 0h.1s-.1 0 0 0c0 0-.1 0 0 0 0 0-.1 0 0 0h.6c.1 0 .3 0 .3-.1.1 0 .2-.1.4-.2.1-.1-.1-.1 0-.2 0-.1-.1-.2 0-.2 0-.1-.1-.2-.1-.3v-.2s0-.1.1-.1c.4 0 0-.1.5-.1.1 0-.5-.1-.2-.1 0 0-.3-.1 0-.1 0 0-.4-.1-.1-.1.1 0-.4-.1.3-.1-.2 0-.7-.1-.5-.1 0 0-.2-.1.2-.1h.1s-.4 0 0 0h.1s-.4 0 0 0h-.4c-.1 0-.1 0 0 0-.1 0-.2-.1-.1-.1-.1 0-.2 0-.1-.1 0 0 .1 0 .1-.1 0 0-.1-.1 0-.1 0-.1 0-.1.1-.2 0 0 0-.1.2-.1.1 0 0-.1.3-.1.2 0-.2-.1.3-.1.1 0-.3-.1.1-.1 0 0-.3-.1.1-.1 0 0-.2 0 0 0 0 0-.1 0 0 0 0 0-.1 0 0 0h.4s-.2 0 0 0c0 0-.2 0 0 0 0 0-.2 0 0 0 0 0-.1 0 0 0v-.1l1.2-.3c.8-.2 1.5-.2 2.2-.5.1-.1.3-.1.6-.2.2-.1.2-.1.3-.1.1 0 .2.1.5.1.1 0 .2 0 .2-.1.1-.1.1-.2.4-.3.5-1.2.3-1.3.4-1.4" class="st5"/><path id="XMLID_8_" d="M55.4 20c-2.9-7.3-8.8-13-16.1-15.6-.8-.3-1.5-.5-2.3-.7-2-.5-1.9.4-3.4 2.4 0 0 .1 0 0 .1 0 0 .2 0 0 .1 0 0 .1 0 0 .1 0 0 .2 0 0 0h-.1s.2 0 0 0c0 0 .1 0 0 0 0 0 .2 0 0 0h-.1s-.1 0-.1.1c-.3.1-.6.3-.8.8-.1.3-.3.5-.6.5.1.1 0 .1-.2.1s-.5-.1-.7.2c-.3.4-3.6 4.3-3.7 4.1.4 1.1 4.6-1.3 7-2 .1 0 .3-.1.4-.1.1 0 .2 0 .2-.1h.1c.1 0 .1 0 0 0h.1-.1c.1 0 .4 0 0 0h-.1s.4 0 0 0c0 0 .3 0 0 0 0 0 .4 0 0 0 0 0 .3 0 0 0 0 0 .3 0 0 0h.4s.4 0 0 0c0 0 .4 0 0 0h.2-.1s.4 0 .1.1c0 0 .3.1.2.1-.1 0 .2.1-.1.2.2.1.3.1.2.2 0 0 .2.1-.1.1 0 0 .3.1 0 .1l.3.1c-.1 0 .1.1-.1.1 0 0 .1.1-.1.1.1 0 .2.1.1.1 0 0 .1.1 0 .1.1 0 .2.1.1.1s.1.1 0 .1.1.1-.1.1c.1 0 .2.1-.1.1 0 0 .2.1.1.1.1 0 .2.1-.1.1 0 0 .3.1 0 .1 0 .1.3.1.1.2 0 .1.2.1 0 .2 0 0 .1.1 0 .1 0 .1.2.1.1.1l-.1.1s-.1 0-.1.1c0 0-.1 0-.1.1-.5.3-1 .8-1.6 1l.5.5c-.1.1.3.2.1.4.2.1.7.3.8.4 0 0 .1 0 .1.1 0 0 .1 0 .1.1l.1.1s.1 0 .1.1c0 0 .1 0-.1.1.1 0 .3 0 .3.1 0 0 .1 0 .1.1 0 0 .1 0 .1.1.1 0 .1.1.1.1.1 0 .1.1.1.1s.2.1.1.1c0 0 .1 0 0 .1h-.1.1s.1 0 0 0c.1 0 .2 0 0 0 0 0 .1 0 .1.1.1 0 .1 0 0 0 0 0 .1 0 0 0s0 0 0 .1l-.1.1-.1.1-.1.1h-.1c-.1 0 .1 0 0 .1l-.1.1c-.4.4-.9.8-1.2 1.2 0 .1-.1.1-.1.2-.1.1-.1.1-.2.1-.1.1 0 .2-.2.4 0 .1.1.1 0 .2s0 .1-.2.2c.1.1.2.1.4.2.1.1.2.1.3.2.3.4.6.8.9.8l.1-.1s.5-.1.6-.1h.1s.1.1 0 .1l.1.1v.1c0 .1.1.1.1.2v.6c0 .1 0 .1-.2.2 0 .1.2.1.1.2.1.1.1.1.1.2s0 .1-.1.2c0 .1 0 .1-.1.2 0 .1 0 .1-.1.2s0 .1-.2.2c0 .1.1.1 0 .2-.5-.1-.4-.1-.6 0v.2c0 .1-.1.1-.1.2s0 .1-.1.2c0 .1-.1.1-.1.2s0 .1-.1.2v.2c0 .1 0 .1-.1.2v.2c-.1.2-.1.4-.2.6l-.1.1c.1.3.3.5 0 .6.2.1.2.2-.2.2v.1s-.1.1-.3.2c.1.1.2.2.1.3 0 .1.1.1 0 .2v.2c-.1.2.6 1.4.8 1.5.2.1.3-.2.6-.3 0 0 .1 0 .1-.1h.1s.1 0 .1.1l.1.1s.1.1 0 .2c.1 0 .2.1.2.1l.1.1c0 .1.1.1 0 .1 0 0 .1.1 0 .1 0 0 .2.1.1.1.1 0 .2.1.1.1.1.1.2.1.1.1.1 0 .1.1 0 .1 0 0 .1.1 0 .1 0 0 0 .1-.1.2-.1 0 0 .1-.3.1-.1 0 .2.1-.1.1 0 0 .2.1-.1.1 0 0 .2 0 0 0 0 0 .1 0 .1.1 0 0 .1.1 0 .1.1 0 .2.1.1.1s.1.1 0 .1c0 0 .1.1 0 .1v.1c-.1 0 0 .1-.1.1 0 0 .1.1-.1.1 0 0 .2.1 0 .1 0 0 .2.1 0 .1 0 .1.1.2 0 .2 0 0 .1.1 0 .1l1.8-.6c.7-.3 1.5-1 2.2-.8.7.3 1.5-1.2 2.2-1 .2.5.4-1.1.6-.3.4-.6.7-1.2 1-1 .3-1.1.6-.9.9-1.2.6-.2 1.1-1.2 1.8-1 1.6.3 2.7 1.3 4 2.4 1.4 1.1 2.9 1.2 4.6 1.5.6.1 1.2.3 1.7.4 0-3.4-.7-6.7-1.8-9.8" class="st5"/></svg>