<svg xmlns="http://www.w3.org/2000/svg" width="18" height="18" fill="none"><path stroke="#212529" d="m10.867 9.08-.117.14v.905a2.75 2.75 0 0 0 2.75 2.75h1.046c.047.017.119.045.211.087.185.084.452.226.76.45.6.436 1.362 1.188 1.983 2.452v1.011c0 .346-.28.625-.625.625H1.125a.624.624 0 0 1-.625-.625v-1.01c.621-1.265 1.384-2.017 1.983-2.453.308-.224.575-.366.76-.45.092-.042.164-.07.21-.086l.001-.001H4.5a2.75 2.75 0 0 0 2.75-2.75v-.928l-.116-.14a4.942 4.942 0 0 1-.922-1.647l-.002-.006a1.493 1.493 0 0 1-.027-.088 1.65 1.65 0 0 0-.05-.147.863.863 0 0 0-.282-.377c-.29-.247-.377-.727-.188-1.07l.008-.015.006-.011a.484.484 0 0 1 .01-.017l.007-.009.057-.086a.774.774 0 0 0 .125-.46V4.41c-.002-.424-.002-.844.004-1.268.024-.56.164-1.093.452-1.515l.002-.003c.322-.482.858-.825 1.451-.975h.001a5.168 5.168 0 0 1 2.232-.05c.562.106 1.076.35 1.438.733.444.469.65 1.158.666 1.877.003.456.003.912.002 1.37v.595a.718.718 0 0 0 .118.404l.051.075.004.005c.006.009.01.013.01.015l.004.007.007.01c.199.32.145.79-.122 1.057l-.006.006-.005.006-.006.005a.888.888 0 0 1-.022.02l-.007.005c-.019.017-.052.045-.082.074a.785.785 0 0 0-.226.384 5.183 5.183 0 0 1-.975 1.834Zm-7.356 3.776Zm10.978 0Z"/></svg>