<svg aria-hidden="true" style="position: absolute; width: 0; height: 0; overflow: hidden;" version="1.1" xmlns="http://www.w3.org/2000/svg" xmlns:xlink="http://www.w3.org/1999/xlink">
<defs>
<symbol id="icon-calendar" viewBox="0 0 32 32">
<path fill="#f2f5f7" style="fill: var(--color1, #f2f5f7)" d="M4.612 3.919l-0.019 0.987-1 0.031c-0.975 0.031-1.013 0.037-1.406 0.231-0.663 0.325-1.137 0.869-1.369 1.569-0.125 0.356-0.131 0.525-0.131 2.544v2.156h28.688v7.95c0 7.563-0.006 7.969-0.119 8.206-0.137 0.313-0.494 0.631-0.8 0.719-0.169 0.050-3.906 0.063-12.931 0.050l-12.694-0.019-0.225-0.175c-0.125-0.094-0.306-0.275-0.4-0.4l-0.175-0.225-0.019-7.4-0.013-7.394h-1.313l0.012 7.45 0.019 7.456 0.144 0.363c0.3 0.738 0.925 1.306 1.694 1.544 0.388 0.125 0.625 0.125 13.131 0.125 12.512 0 12.744 0 13.137-0.125 0.756-0.231 1.387-0.813 1.694-1.563l0.137-0.344v-20.75l-0.2-0.419c-0.262-0.563-0.744-1.063-1.262-1.319-0.4-0.194-0.438-0.2-1.413-0.231l-1-0.031-0.038-1.975-1.275 0.038-0.012 0.969-0.006 0.969-1.944 0.019-1.944 0.013v-2h-1.306l-0.019 0.981-0.019 0.987h-3.875l-0.038-1.975-1.256 0.038-0.006 0.969-0.012 0.969-1.95 0.019-1.956 0.013v-2h-1.313v2l-1.95-0.013-1.956-0.019-0.013-0.969-0.006-0.969-1.256-0.038-0.019 0.988zM4.612 7.206l0.019 0.987 1.256-0.037 0.006-0.969 0.013-0.969 1.956-0.019 1.95-0.013v2h1.313v-2l1.956 0.013 1.95 0.019 0.012 0.969 0.006 0.969 1.256 0.037 0.038-1.975 1.956-0.019 1.95-0.013v2h1.313v-2l1.944 0.013 1.944 0.019 0.006 0.969 0.012 0.969 1.275 0.037 0.038-1.975h0.813c0.75 0 0.831 0.013 1.094 0.156 0.15 0.088 0.363 0.281 0.469 0.425l0.188 0.275 0.038 3.050h-27.387l0.019-1.519 0.019-1.525 0.169-0.256c0.337-0.506 0.7-0.638 1.675-0.619l0.719 0.013 0.019 0.987z"></path>
<path fill="#f2f5f7" style="fill: var(--color1, #f2f5f7)" d="M8.738 12.931l-0.206 0.181-0.019 1.494c-0.025 1.625 0.006 1.8 0.338 1.95 0.1 0.044 0.681 0.069 1.65 0.069h1.5l0.2-0.181 0.206-0.181v-3.15l-0.206-0.181-0.2-0.181h-3.063l-0.2 0.181zM11.125 14.688v0.625h-1.313v-1.25h1.313v0.625zM13.938 12.931l-0.188 0.181v3.15l0.363 0.363h1.569c1.562 0 1.562 0 1.737-0.15l0.175-0.15v-1.631c0-1.613 0-1.631-0.144-1.769-0.137-0.144-0.169-0.144-1.738-0.162l-1.594-0.019-0.181 0.188zM16.313 14.688v0.625h-1.281v-1.25h1.281v0.625zM19.275 12.819c-0.306 0.15-0.337 0.313-0.337 1.869 0 1.575 0.031 1.719 0.356 1.869 0.094 0.044 0.7 0.069 1.644 0.069h1.5l0.2-0.181 0.206-0.181v-3.15l-0.206-0.181-0.2-0.181-1.519 0.006c-0.881 0-1.569 0.031-1.644 0.063zM21.563 14.688v0.625h-1.313v-1.25h1.313v0.625zM24.375 12.931l-0.188 0.181v3.15l0.188 0.181 0.181 0.188 1.594-0.019c1.569-0.019 1.6-0.019 1.738-0.163 0.144-0.137 0.144-0.156 0.144-1.762s0-1.625-0.144-1.762c-0.137-0.144-0.169-0.144-1.738-0.162l-1.594-0.019-0.181 0.188zM26.75 14.688v0.625h-1.313v-1.25h1.313v0.625zM3.712 18c-0.075 0.025-0.194 0.131-0.269 0.225-0.125 0.163-0.131 0.231-0.131 1.688v1.525l0.181 0.2 0.181 0.206h3.15l0.181-0.206 0.181-0.2v-3.075l-0.425-0.425-1.456 0.006c-0.806 0-1.525 0.025-1.594 0.056zM5.888 19.906v0.625l-1.263 0.038v-1.325l1.263 0.038v0.625zM8.863 18.038c-0.331 0.175-0.363 0.325-0.363 1.869 0 2.063-0.094 1.969 1.969 1.969 1.556 0 1.694-0.025 1.875-0.375 0.075-0.144 0.094-0.456 0.094-1.594 0-2.063 0.094-1.969-1.981-1.969-1.137 0.006-1.463 0.025-1.594 0.1zM11.125 19.906v0.656h-1.313v-1.313h1.313v0.656zM14.050 18.044c-0.088 0.056-0.194 0.169-0.231 0.25-0.044 0.094-0.069 0.712-0.069 1.644v1.5l0.181 0.2 0.181 0.206h3.15l0.181-0.206 0.181-0.2v-3.063l-0.181-0.2-0.181-0.206-1.525-0.019c-1.331-0.012-1.537 0-1.688 0.094zM16.313 19.906v0.663l-1.262-0.038 0.006-0.613c0-0.331 0-0.619 0.006-0.637 0-0.019 0.281-0.031 0.625-0.031h0.625v0.656zM19.3 18.038c-0.331 0.175-0.363 0.325-0.363 1.869 0 2.063-0.094 1.969 1.969 1.969 1.137 0 1.45-0.019 1.594-0.094 0.35-0.181 0.375-0.319 0.375-1.875 0-2.063 0.094-1.969-1.981-1.969-1.137 0.006-1.462 0.025-1.594 0.1zM21.563 19.906v0.656h-1.313v-1.313h1.313v0.656zM24.488 18.044c-0.087 0.056-0.194 0.169-0.231 0.25-0.094 0.206-0.094 3.025 0 3.231 0.15 0.331 0.325 0.363 1.95 0.337l1.494-0.019 0.181-0.206 0.181-0.2v-3.063l-0.181-0.2-0.181-0.206-1.525-0.019c-1.331-0.012-1.538 0-1.688 0.094zM26.75 19.906v0.663l-1.281-0.038-0.019-0.556c-0.012-0.306-0.006-0.594 0.012-0.644 0.025-0.063 0.194-0.081 0.663-0.081h0.625v0.656zM3.494 23.375l-0.188 0.181 0.019 1.594c0.019 1.569 0.019 1.6 0.163 1.738 0.138 0.144 0.156 0.144 1.769 0.144h1.631l0.15-0.175c0.15-0.175 0.15-0.175 0.15-1.738v-1.569l-0.362-0.363h-3.15l-0.181 0.188zM5.906 25.125v0.625h-1.281v-1.25h1.281v0.625zM8.831 23.262c-0.069 0.031-0.181 0.15-0.238 0.262-0.088 0.169-0.1 0.387-0.081 1.681l0.019 1.494 0.206 0.181 0.2 0.181h3.063l0.2-0.181 0.206-0.181 0.019-1.475c0.019-1.613-0.012-1.819-0.338-1.969-0.2-0.087-3.063-0.087-3.256 0.006zM11.125 25.125v0.625h-1.313v-1.25h1.313v0.625zM13.931 23.369l-0.181 0.181v1.569c0 1.563 0 1.563 0.15 1.738l0.15 0.175h1.631c1.612 0 1.631 0 1.769-0.144 0.144-0.137 0.144-0.156 0.144-1.769v-1.631l-0.175-0.15c-0.175-0.15-0.175-0.15-1.738-0.15h-1.569l-0.181 0.181zM16.313 25.125v0.625h-1.281v-1.25h1.281v0.625zM19.275 23.256c-0.306 0.156-0.337 0.313-0.337 1.9v1.481l0.425 0.425h1.531c2.106 0 2 0.113 1.969-2.056l-0.019-1.456-0.206-0.181-0.2-0.181-1.519 0.006c-0.881 0-1.569 0.031-1.644 0.063zM21.563 25.125v0.625h-1.313v-1.25h1.313v0.625z"></path>
</symbol>
<symbol id="icon-faq" viewBox="0 0 32 32">
<path fill="#f2f5f7" style="fill: var(--color1, #f2f5f7)" d="M15.912 1.069c-0.387 0.094-0.956 0.425-1.231 0.725-0.137 0.15-0.344 0.462-0.45 0.694l-0.2 0.419v13.694l0.238 0.475c0.275 0.569 0.637 0.913 1.231 1.2l0.406 0.194 6.594 0.038v3.188l0.156 0.15c0.1 0.1 0.219 0.156 0.356 0.156 0.181 0 0.381-0.175 1.956-1.744l1.75-1.75 1.188-0.019c1.188-0.019 1.188-0.019 1.606-0.219 0.581-0.275 0.944-0.625 1.225-1.194l0.231-0.475v-13.7l-0.231-0.475c-0.281-0.569-0.644-0.919-1.225-1.194l-0.419-0.2-6.469-0.012c-3.775-0.006-6.569 0.019-6.713 0.050zM29.019 2.1c0.356 0.119 0.8 0.581 0.906 0.95 0.106 0.356 0.106 13.044 0 13.4-0.038 0.137-0.194 0.387-0.344 0.55-0.406 0.45-0.606 0.5-2.075 0.5h-1.219l-2.788 2.775v-1.231c0-1.231 0-1.238-0.156-1.387l-0.15-0.156h-3.45c-2.525 0-3.519-0.019-3.706-0.075-0.344-0.1-0.863-0.619-0.963-0.962-0.106-0.375-0.106-13.050 0-13.425 0.094-0.319 0.619-0.856 0.925-0.956 0.15-0.050 2.106-0.069 6.475-0.075 5.563-0.006 6.288 0.006 6.544 0.094z"></path>
<path fill="#f2f5f7" style="fill: var(--color1, #f2f5f7)" d="M21.125 3.1c-1.106 0.237-2.175 1.069-2.681 2.087-0.337 0.688-0.444 1.213-0.444 2.206 0 0.769 0.006 0.806 0.156 0.95 0.15 0.156 0.163 0.156 1.331 0.156 1.55 0 1.469 0.056 1.512-1.050 0.031-0.881 0.075-1 0.462-1.288 0.144-0.112 0.281-0.138 0.9-0.15 0.419-0.013 0.825 0.006 0.956 0.044 0.288 0.088 0.6 0.431 0.656 0.731 0.087 0.469-0.038 0.656-1.188 1.831-0.663 0.675-1.15 1.231-1.269 1.444-0.256 0.45-0.45 1.106-0.494 1.656-0.038 0.387-0.025 0.456 0.1 0.606l0.131 0.175h2.488l0.125-0.162c0.075-0.094 0.131-0.25 0.131-0.35 0-0.319 0.181-0.556 1.188-1.581 1.069-1.088 1.275-1.356 1.519-1.969 0.431-1.094 0.381-2.162-0.15-3.244-0.512-1.044-1.569-1.862-2.712-2.1-0.563-0.119-2.163-0.119-2.719 0.006zM23.637 4.069c1.581 0.331 2.625 1.925 2.294 3.506-0.156 0.744-0.375 1.063-1.538 2.244-0.756 0.775-1.119 1.194-1.212 1.394l-0.125 0.287h-1.006l0.038-0.206c0.019-0.106 0.125-0.381 0.238-0.606 0.156-0.325 0.413-0.625 1.3-1.531 1.262-1.287 1.344-1.425 1.344-2.219 0-0.569-0.206-1.050-0.606-1.406-0.488-0.444-0.7-0.5-1.863-0.5-0.919 0-1.063 0.013-1.319 0.131-0.725 0.338-1.125 0.956-1.169 1.813l-0.031 0.525h-0.981v-0.406c0-1.45 0.925-2.681 2.269-3.006 0.406-0.1 1.931-0.112 2.369-0.019zM21.156 13.656c-0.156 0.15-0.156 0.162-0.156 1.344 0 1.606-0.106 1.5 1.5 1.5s1.5 0.106 1.5-1.5 0.106-1.5-1.5-1.5c-1.181 0-1.194 0-1.344 0.156zM23 15v0.5h-1v-1h1v0.5zM7.525 6.556c-0.294 0.075-0.831 0.388-1 0.588-0.088 0.106-0.231 0.331-0.325 0.506l-0.169 0.319-0.019 9.012-0.013 9.019h1l0.013-8.931c0.019-8.912 0.019-8.938 0.15-9.106 0.069-0.094 0.206-0.231 0.3-0.3 0.169-0.125 0.256-0.131 2.856-0.15l2.681-0.019v-0.994l-2.638 0.006c-1.456 0.006-2.731 0.025-2.838 0.050z"></path>
<path fill="#f2f5f7" style="fill: var(--color1, #f2f5f7)" d="M8 9v0.5h1v-1h-1v0.5zM10 9v0.5h1v-1h-1v0.5zM12 9v0.5h1v-1h-1v0.5zM4.525 10.556c-0.294 0.075-0.831 0.387-1 0.588-0.087 0.106-0.231 0.331-0.325 0.506l-0.169 0.319-0.019 7.519-0.013 7.512h-0.85c-0.819 0-0.85 0.006-1 0.163l-0.162 0.156 0.025 1.106 0.019 1.106 0.212 0.394c0.238 0.438 0.431 0.625 0.906 0.875l0.319 0.169h27.063l0.319-0.169c0.475-0.25 0.669-0.438 0.906-0.875l0.212-0.394 0.019-1.106 0.025-1.106-0.163-0.156c-0.15-0.156-0.181-0.163-1.006-0.163h-0.844v-7.5h-1v7.494l-8.344 0.038-0.313 0.144c-0.169 0.081-0.444 0.256-0.606 0.394-0.519 0.431-0.506 0.431-2.738 0.431s-2.219 0-2.738-0.431c-0.162-0.137-0.431-0.313-0.606-0.394l-0.313-0.144-8.344-0.038v-7.344c0-6.056 0.013-7.375 0.088-7.544 0.106-0.269 0.425-0.531 0.694-0.581l0.219-0.037v-0.494c0-0.544 0-0.55-0.475-0.438zM12.213 28.087c0.119 0.050 0.369 0.212 0.556 0.369 0.625 0.512 0.637 0.512 3.231 0.512s2.606 0 3.231-0.512c0.6-0.488 0.194-0.456 5.775-0.456h5.006l-0.025 0.681c-0.019 0.738-0.075 0.881-0.45 1.156l-0.169 0.131h-26.738l-0.169-0.131c-0.375-0.275-0.431-0.419-0.45-1.156l-0.025-0.681h5.006c4.169 0 5.044 0.012 5.219 0.087zM8 11v0.5h5v-1h-5v0.5z"></path>
<path fill="#f2f5f7" style="fill: var(--color1, #f2f5f7)" d="M9.006 13.588c-0.331 0.119-0.694 0.463-0.856 0.813-0.275 0.594-0.169 1.144 0.319 1.638 0.637 0.644 1.575 0.6 2.169-0.1 0.525-0.606 0.481-1.387-0.106-1.969-0.438-0.444-0.981-0.581-1.525-0.381zM9.844 14.656c0.313 0.306 0.094 0.844-0.344 0.844-0.256 0-0.5-0.244-0.5-0.5s0.244-0.5 0.5-0.5c0.119 0 0.25 0.056 0.344 0.156zM12 14v0.5h1v-1h-1v0.5zM12 16v0.5h1v-1h-1v0.5zM9.006 17.587c-0.331 0.119-0.694 0.462-0.856 0.813-0.275 0.594-0.169 1.144 0.319 1.637 0.637 0.644 1.575 0.6 2.169-0.1 0.525-0.606 0.481-1.387-0.106-1.969-0.438-0.444-0.981-0.581-1.525-0.381zM9.844 18.656c0.313 0.306 0.094 0.844-0.344 0.844-0.119 0-0.25-0.056-0.344-0.156-0.1-0.094-0.156-0.225-0.156-0.344s0.056-0.25 0.156-0.344c0.094-0.1 0.225-0.156 0.344-0.156s0.25 0.056 0.344 0.156zM12 18v0.5h1.5v-1h-1.5v0.5zM12 20v0.5h9.5v-1h-9.5v0.5zM9.006 21.587c-0.331 0.119-0.694 0.462-0.856 0.813-0.275 0.594-0.169 1.144 0.319 1.637 0.637 0.644 1.575 0.6 2.169-0.1 0.525-0.606 0.481-1.387-0.106-1.969-0.438-0.444-0.981-0.581-1.525-0.381zM9.844 22.656c0.313 0.306 0.094 0.844-0.344 0.844-0.119 0-0.25-0.056-0.344-0.156-0.1-0.094-0.156-0.225-0.156-0.344s0.056-0.25 0.156-0.344c0.094-0.1 0.225-0.156 0.344-0.156s0.25 0.056 0.344 0.156zM12 22v0.5h9.5v-1h-9.5v0.5zM25 23.75v2.25h1v-4.5h-1v2.25zM12 24v0.5h7v-1h-7v0.5zM20 24v0.5h3v-1h-3v0.5z"></path>
</symbol>
<symbol id="icon-82" viewBox="0 0 32 32">
<path  d="M18.112 6.368c0.32 0 0.64-0.032 0.928-0.128 0.416 0.512 1.024 0.8 1.664 0.8 0.544 0 1.024-0.192 1.408-0.544 0.384 0.512 1.024 0.832 1.664 0.832 0.8 0 1.504-0.448 1.856-1.12 0.288 0.096 0.608 0.128 0.928 0.128 1.376 0 2.432-0.8 2.432-1.824s-1.088-1.824-2.432-1.824c0 0 0 0-0.032 0-0.16-1.152-1.152-2.016-2.368-2.016-0.832 0-1.568 0.416-1.984 1.088-0.288-0.32-0.704-0.544-1.152-0.544-0.704 0-1.28 0.448-1.504 1.12-0.096-0.032-0.192-0.032-0.288-0.032-0.672 0-1.248 0.448-1.44 1.056-1.184 0.064-2.048 0.704-2.048 1.504 0.064 0.832 1.056 1.504 2.368 1.504zM18.112 4.032c0 0 0 0 0 0 0.16 0 0.288-0.128 0.32-0.288 0.032-0.416 0.416-0.736 0.864-0.736 0.128 0 0.256 0.032 0.384 0.096 0.096 0.032 0.192 0.032 0.288 0 0.096-0.064 0.16-0.16 0.16-0.256 0.032-0.512 0.448-0.928 0.96-0.928 0.384 0 0.768 0.256 0.896 0.64 0.032 0.128 0.16 0.224 0.288 0.224s0.256-0.096 0.288-0.224c0.224-0.704 0.896-1.184 1.664-1.184 0.96 0 1.76 0.768 1.76 1.728 0 0.096 0.032 0.192 0.096 0.256s0.16 0.096 0.256 0.096c0.096 0 0.192-0.032 0.288-0.032 0.992 0 1.824 0.544 1.824 1.184s-0.832 1.184-1.824 1.184c-0.352 0-0.672-0.064-0.992-0.192-0.064-0.032-0.16-0.032-0.256 0-0.064 0.032-0.128 0.096-0.16 0.192-0.224 0.576-0.768 0.992-1.408 0.992-0.576 0-1.088-0.32-1.344-0.832-0.064-0.096-0.128-0.16-0.256-0.192 0 0-0.032 0-0.032 0-0.096 0-0.192 0.032-0.256 0.128-0.288 0.384-0.736 0.608-1.216 0.608-0.544 0-1.024-0.256-1.28-0.704-0.064-0.128-0.224-0.192-0.384-0.128-0.288 0.096-0.608 0.16-0.96 0.16-0.96 0-1.664-0.448-1.664-0.832 0.032-0.512 0.736-0.96 1.696-0.96zM19.488 25.888c-0.224 0-0.416-0.192-0.416-0.416s0.192-0.416 0.416-0.416h5.92c0.224 0 0.416 0.192 0.416 0.416s-0.192 0.416-0.416 0.416h-5.92zM31.648 27.392c0 0.224-0.192 0.416-0.416 0.416h-6.976c-0.224 0-0.416-0.192-0.416-0.416s0.192-0.416 0.416-0.416h6.976c0.256 0 0.416 0.192 0.416 0.416zM27.392 29.76c0 0.224-0.192 0.416-0.416 0.416h-4.48c-0.224 0-0.416-0.192-0.416-0.416s0.192-0.416 0.416-0.416h4.48c0.224 0 0.416 0.16 0.416 0.416zM12.16 22.432h-4.8c-0.192 0-0.32-0.128-0.32-0.32s0.128-0.32 0.32-0.32h4.8c0.192 0 0.32 0.128 0.32 0.32s-0.128 0.32-0.32 0.32zM13.984 20.832h-2.976c-0.192 0-0.32-0.128-0.32-0.32s0.128-0.32 0.32-0.32h2.976c0.192 0 0.32 0.128 0.32 0.32s-0.16 0.32-0.32 0.32zM10.464 24c0-0.192 0.128-0.32 0.32-0.32h2.976c0.192 0 0.32 0.128 0.32 0.32s-0.128 0.32-0.32 0.32h-2.976c-0.192 0-0.32-0.16-0.32-0.32zM21.888 31.296c0.128 0.192 0 0.448-0.256 0.448h-21.632v-5.216c0-0.128 0-0.224 0-0.32 0 0 0 0 0-0.032v-10.048c0.096-1.184 0.064-2.368 0-3.584v-3.904c0 0 0 0 0.032-0.032 0.064-0.032 0.128-0.064 0.192-0.064 0.576-0.096 1.152-0.064 1.76 0 0 0 0.96-1.344 0.96-1.344h-1.28l1.568-2.208h-0.96l1.504-2.144h-0.8l1.824-2.56 1.824 2.56h-0.8l1.504 2.144h-0.96l1.568 2.208h-1.28l1.792 2.528c0.608 0.16 1.216 0.32 1.824 0.512l0.544-0.928h-1.024l1.472-2.4h-0.768l1.76-2.88 1.76 2.88h-0.768l1.472 2.4h-1.024l1.408 2.464c1.152 0.544 2.912 1.568 4.224 2.752 0.256 0.224 0.672 0.704 0.288 1.024-0.16 0.128-0.352 0.16-0.544 0.224-0.48 0.096-0.96 0.224-1.472 0.32-5.44 0.896-11.616 2.784-15.52 6.688-0.256 0.256-0.512 0.576-0.704 0.896 3.776 0.352 7.488 1.12 11.104 2.4 3.072 1.12 7.040 2.432 9.248 4.96 0.064 0.096 0.128 0.16 0.16 0.256zM32 13.984v9.088h-15.616c-0.448-0.64 0.128-1.376 0.704-1.92 0.512-0.48 1.024-0.928 1.568-1.376l1.6-2.976h-1.056l1.664-2.72h-0.896l2.016-3.2 2.016 3.232h-0.896l1.248 2.048c0.096-0.032 0.192-0.096 0.256-0.128l1.408-2.048h-1.28l1.568-2.272h-0.96l1.504-2.208h-0.8l1.824-2.624 1.824 2.624h-0.8l1.504 2.208h-0.96c0 0 1.472 2.112 1.472 2.144 0.128 0.096 0.704-0.064 1.088 0.128 0 0 0 0 0 0z"></path>
</symbol>
<symbol id="icon-21" viewBox="0 0 32 32">
<path  d="M5.056 28.16h4.576v1.792c0 0.384-0.32 0.672-0.672 0.672h-3.2c-0.384 0-0.672-0.32-0.672-0.672v-1.792zM22.368 29.952c0 0.384 0.32 0.672 0.672 0.672h3.2c0.384 0 0.672-0.32 0.672-0.672v-1.792h-4.544v1.792zM32 9.792v5.248c0 0.448-0.352 0.8-0.8 0.8h-1.632c-0.448 0-0.8-0.352-0.8-0.8v-5.248c0-0.448 0.352-0.8 0.8-0.8h0.256c-0.096-0.832-0.352-1.472-0.768-1.888-0.32-0.32-0.736-0.512-1.216-0.608v20c0 0.544-0.448 1.024-1.024 1.024h-21.632c-0.544 0-1.024-0.448-1.024-1.024v-20c-0.48 0.096-0.896 0.288-1.216 0.608-0.416 0.416-0.672 1.088-0.768 1.888h0.256c0.448 0 0.8 0.352 0.8 0.8v5.248c0 0.448-0.352 0.8-0.8 0.8h-1.632c-0.448 0-0.8-0.352-0.8-0.8v-5.248c0-0.448 0.352-0.8 0.8-0.8h0.384c0.096-1.088 0.448-1.984 1.056-2.592 0.512-0.512 1.152-0.8 1.952-0.896v-1.728c-0.032-1.568 1.248-2.816 2.784-2.816h18.048c1.536 0 2.816 1.248 2.816 2.816v1.728c0.768 0.096 1.44 0.384 1.952 0.896 0.608 0.608 0.96 1.504 1.056 2.624h0.384c0.416-0.032 0.768 0.352 0.768 0.768zM8.48 3.296c0 0.736 0.576 1.312 1.312 1.312h12.448c0.736 0 1.312-0.576 1.312-1.312s-0.576-1.312-1.312-1.312h-12.48c-0.704 0-1.28 0.576-1.28 1.312zM8.48 23.84c0-0.768-0.64-1.408-1.408-1.408s-1.408 0.64-1.408 1.408c0 0.768 0.64 1.408 1.408 1.408s1.408-0.64 1.408-1.408zM11.776 23.84c0-0.768-0.64-1.408-1.408-1.408s-1.408 0.64-1.408 1.408c0 0.768 0.64 1.408 1.408 1.408s1.408-0.64 1.408-1.408zM23.008 23.84c0-0.768-0.64-1.408-1.408-1.408s-1.408 0.64-1.408 1.408c0 0.768 0.64 1.408 1.408 1.408 0.768-0.032 1.408-0.64 1.408-1.408zM26.304 23.84c0-0.768-0.64-1.408-1.408-1.408s-1.408 0.64-1.408 1.408c0 0.768 0.64 1.408 1.408 1.408 0.768-0.032 1.408-0.64 1.408-1.408zM26.336 6.464c0-0.48-0.384-0.896-0.896-0.896h-18.88c-0.48 0-0.896 0.384-0.896 0.896v12.352c0 0.448 0.384 0.832 0.832 0.832h19.008c0.448 0 0.832-0.384 0.832-0.832v-12.352z"></path>
</symbol>
<symbol id="icon-28" viewBox="0 0 32 32">
<path  d="M20.416 14.688c0 0.576 0.576 1.024 1.312 1.024 0.672 0 1.216-0.416 1.312-0.928 0.896-0.224 1.696-0.64 2.208-1.312-0.032 0.256-0.096 0.512-0.128 0.768-1.088 2.112-2.944 3.488-5.056 3.488-2.144 0-4.064-1.472-5.152-3.648-0.384-2.72-0.288-5.376 2.048-7.104 0.704-0.512 1.472-0.864 2.304-1.216 0.288-0.128 0.576-0.256 0.832-0.384 0.032 0 1.568-0.864 2.464-1.728 0.288 0.672 0.64 1.28 1.024 1.856 0.288 0.48 0.608 0.992 0.864 1.504 0.64 1.376 0.96 2.88 0.96 4.416 0 0.32-0.032 0.672-0.064 0.992-0.288 1.024-1.248 1.696-2.368 1.984-0.16-0.448-0.64-0.768-1.248-0.768-0.704 0-1.312 0.48-1.312 1.056zM9.216 13.472c-0.096 0.992 0.128 1.504 0.864 2.24 0.288 0.288 0.8 0.768 0.8 1.408 0 0.48-0.288 0.864-0.512 1.184-0.096 0.128-0.16 0.224-0.256 0.352-0.512 0.832-0.288 2.080 0.48 2.688s2.016 0.576 2.752-0.064c1.216-1.12 1.6-3.264 1.088-6.336-0.512-3.008-0.64-6.368 2.208-8.512 0.768-0.576 1.632-0.96 2.432-1.312 0.288-0.128 0.544-0.256 0.832-0.384 0.544-0.256 1.056-0.64 1.536-0.992 0.512-0.384 0.992-0.768 1.344-1.312 0.224 0.448 0.48 0.864 0.704 1.312 0.48 1.024 1.216 1.92 1.696 2.976 0.672 1.472 1.024 3.072 1.024 4.704 0 1.024-0.128 1.984-0.288 2.912-0.192 1.312-0.384 2.56-0.16 3.968s1.12 2.624 2.464 3.2c0.608 0.256 1.248 0.256 1.856-0.032 0.672-0.32 1.184-0.96 1.376-1.696 0.32-1.28-0.544-2.24-1.088-2.688l-0.096-0.096c-0.256-0.224-0.608-0.48-0.64-0.896-0.064-0.576 0.416-0.928 0.768-1.216 0.096-0.064 0.192-0.128 0.288-0.224 0.64-0.544 0.704-1.536 0.512-2.24-0.224-0.832-0.736-1.536-1.312-2.24l-0.096-0.096c-0.544-0.704-1.12-1.408-1.408-2.272-0.192-0.512-0.32-1.056-0.448-1.536-0.16-0.736-0.352-1.44-0.704-2.144-0.544-1.056-1.312-1.984-2.24-2.656-1.44-0.992-3.072-1.472-4.704-1.472-1.312 0-2.656 0.32-3.808 0.992-1.472 0.832-2.656 2.24-3.328 3.904-0.256 0.608-0.384 1.28-0.544 1.952-0.256 1.152-0.512 2.368-1.344 3.36-0.224 0.256-0.448 0.512-0.672 0.736-0.672 0.736-1.28 1.376-1.376 2.528zM20.064 18.24c-0.896 0-1.76-0.224-2.528-0.672v2.176c0.032 0.064-0.608 0.224-1.12 0.352l2.336 5.472h2.752l2.336-5.472c-0.032 0-0.064-0.032-0.128-0.032-0.128-0.032-1.152-0.128-1.152-0.288 0 0 0-2.176 0-2.176-0.736 0.384-1.6 0.64-2.496 0.64zM3.328 11.328c0.032 0.128 0.16 0.224 0.32 0.192l6.944-1.696c0.128-0.032 0.192-0.192 0.064-0.288l-2.656-2.24 1.312-3.328c0.064-0.128-0.064-0.256-0.192-0.224l-6.944 1.664c-0.128 0.032-0.224 0.16-0.192 0.32l1.344 5.6zM8.064 31.968c0.768-0.128 1.536-0.512 2.272-1.024 1.12-0.8 2.208-1.664 3.296-2.56 0.128 1.12 0.288 2.304 0.384 3.456 0 0.096 0.096 0.192 0.192 0.192h12.096c0.096 0 0.192-0.096 0.192-0.192 0-0.384 0-0.8 0.064-1.184 0 0 0.128 0.48 0.256 1.184 0.032 0.096 0.096 0.16 0.192 0.16l3.392-0.032c0.128 0 0.224-0.096 0.192-0.224-0.192-1.248-0.384-2.496-0.64-3.744-0.256-1.408-0.704-2.88-1.408-4.224-0.736-1.376-1.76-2.528-3.168-3.2-0.32-0.128-0.608-0.224-0.928-0.32l-2.272 5.312h1.056c0.192 0 0.32 0.16 0.32 0.32v3.552c0 0.192-0.16 0.32-0.32 0.32h-6.208c-0.192 0-0.32-0.16-0.32-0.32v-3.552c0-0.192 0.16-0.32 0.32-0.32h1.056l-2.272-5.312c0 0 0 0 0 0-2.112 0.704-3.552 2.528-4.8 4.288-0.864 1.184-1.76 2.368-2.688 3.52 0.032-0.864-0.256-1.632-0.544-2.464-0.256-0.8-0.576-1.568-0.896-2.336-0.192-0.48-0.448-0.96-0.608-1.472-0.288-0.736-0.384-1.152-0.096-1.952 0.16-0.416 0.352-0.896 0.32-1.344-0.032-0.288-0.224-0.576-0.512-0.672 0.096-0.192 0.096-0.416 0-0.576-0.096-0.192-0.256-0.32-0.48-0.352 0.096-0.352-0.16-0.736-0.512-0.8-0.032 0-0.096-0.032-0.096-0.064-0.032-0.032-0.032-0.064-0.032-0.096 0-0.192-0.096-0.384-0.288-0.48-0.16-0.064-0.352-0.064-0.512 0-0.096 0.032-0.16 0.096-0.224 0.16-0.032 0.032-0.192 0.16-0.192 0.192 0-0.224-0.064-0.48-0.128-0.704-0.032-0.064-0.064-0.128-0.096-0.224l-2.208-9.056c-0.032-0.16-0.224-0.256-0.384-0.224s-0.256 0.224-0.224 0.384l2.208 9.056c0 0.064 0 0.128 0 0.192 0 0.352-0.16 0.704-0.256 1.056-0.416 1.408 0.192 2.368 0.704 3.616 1.344 3.2 0.8 6.784 1.824 10.048 0.384 1.216 1.056 1.824 1.888 1.984h1.088z"></path>
</symbol>
<symbol id="icon-33" viewBox="0 0 32 32">
<path  d="M29.344 16.384c0.672 1.248 1.056 2.88 1.056 4.576v6.24l-5.536-3.616v-14.784c0-0.256-0.032-0.512-0.032-0.768l4.512 8.352zM24.384 8.8v14.592h-18.816v-14.592c0-1.792 1.472-3.264 3.264-3.264h3.68c0.032-0.832 0.704-1.472 1.536-1.472h1.888c0.832 0 1.504 0.672 1.536 1.472h3.648c1.824 0 3.264 1.472 3.264 3.264zM13.504 6.4c0 0.832 0.672 1.472 1.472 1.472 0.832 0 1.472-0.672 1.472-1.472s-0.672-1.472-1.472-1.472c-0.832 0-1.472 0.64-1.472 1.472zM12.576 22.144c-0.704-0.416-1.312-0.928-1.792-1.536-0.384-0.48-0.928-0.768-1.536-0.768h-1.984c-0.448 0-0.576 0.256-0.448 0.448 0.288 0.416 0.64 0.8 1.024 1.152 0.544 0.48 1.248 0.736 1.984 0.736l2.752-0.032zM22.72 19.808h-1.984c-0.608 0-1.152 0.288-1.536 0.768-0.512 0.608-1.12 1.152-1.792 1.536h2.752c0.736 0 1.44-0.256 1.984-0.736 0.384-0.352 0.736-0.736 1.024-1.152 0.128-0.16 0-0.416-0.448-0.416zM23.2 11.392c0-1.216-0.992-2.176-2.176-2.176h-12.064c-1.216 0-2.176 0.992-2.176 2.176v6.336c0 0.416 0.352 0.768 0.768 0.768h14.912c0.416 0 0.768-0.352 0.768-0.768v-6.336zM22.784 26.848l1.6-2.88h-18.816l1.6 2.88c0.224 0.416 0.672 0.672 1.152 0.672h13.344c0.448 0 0.896-0.256 1.12-0.672zM30.4 27.36v0.992h-5.28c-0.896 0-1.792 0.192-2.848 0.64-0.096 0.032-0.16 0.064-0.224 0.096-0.064 0.32-0.384 0.576-0.736 0.576h-0.448c-0.544 0.32-1.056 0.64-1.504 0.992 0.16 0.128 0.256 0.352 0.256 0.576 0 0.416-0.32 0.736-0.736 0.736h-16.544c-0.256 0-0.48-0.128-0.608-0.32-0.096-0.096-0.128-0.224-0.128-0.384 0-0.416 0.32-0.736 0.736-0.736h0.256c0.416-0.512 0.928-0.96 1.44-1.408 0-0.064-0.032-0.128-0.032-0.16 0-0.416 0.32-0.736 0.736-0.736h0.576c0.48-0.288 1.024-0.576 1.6-0.8 0.288 0.32 0.672 0.544 1.12 0.608-0.032 0-0.064 0.032-0.064 0.032-0.128 0.064-0.256 0.128-0.416 0.192h13.728c0.096 0 0.16 0.032 0.224 0.032 0.128-0.064 0.224-0.096 0.352-0.16 1.152-0.48 2.176-0.704 3.2-0.704 0 0 0.032 0 0.032 0h5.312zM19.040 29.696h-14.112c-0.352 0.256-0.672 0.544-0.96 0.832h14.080c0.32-0.32 0.64-0.576 0.992-0.832zM25.088 26.88h3.936l-4.16-2.72-1.632 2.912c0 0-0.032 0.032-0.032 0.032 0.64-0.128 1.248-0.224 1.888-0.224zM9.76 1.28h1.344l1.984 2.496c0.288-0.16 0.608-0.224 0.96-0.224h0.128l-1.824-2.272h5.152l2.976 3.776h0.64c0.224 0 0.448 0.032 0.672 0.064l-3.040-3.84h1.44v-0.064l0.96-1.216h-12.352l0.96 1.216v0.064z"></path>
</symbol>
<symbol id="icon-39" viewBox="0 0 32 32">
<path  d="M0 12.288c-0.096-0.352 0.256-0.64 0.608-0.544 0.992 0.256 2.112 0.384 3.072 0.608 1.6 0.352 3.232 0.736 4.832 1.088 1.44 0.32 2.912 0.672 4.352 0.992-0.16 0.032-0.256 0.064-0.256 0.064-0.288 0.064-6.784 1.408-9.12 3.008-0.256 0.16-0.48 0.352-0.736 0.512-0.448-0.352-0.736-0.96-0.736-1.6 0-0.384 0.096-0.736 0.256-1.056-0.928-0.704-1.984-1.888-2.272-3.072zM17.536 12.672c0.16 0.096 0.416 0.224 0.768 0.352 1.088-0.32 2.272-0.64 3.456-0.992-1.632-0.288-3.232-0.608-4.832-0.96-0.096-0.032-0.16 0.032-0.192 0.128-0.064 0.672 0.288 1.152 0.8 1.472zM31.872 19.168c-0.896 0.64-1.888 1.184-2.88 1.6-1.28 0.512-2.624 0.544-4.032 0.384-0.704-0.096-1.408-0.224-2.112-0.384-0.096 1.216-0.992 2.144-2.048 2.144-1.152 0-2.080-1.056-2.080-2.368 0-0.288 0.032-0.544 0.128-0.768-0.416-0.096-0.8-0.16-1.184-0.192-0.224-0.064-0.416-0.096-0.64-0.16-0.224 0.128-0.416 0.256-0.64 0.352-1.344 0.768-2.688 1.472-4.064 2.112-1.184 0.512-2.24 1.248-3.456 1.664-1.376 0.48-2.72 0.736-4.192 0.736-1.216 0.032-2.464-0.192-3.648-0.544-0.32-0.096-0.64-0.224-0.832-0.48-0.352-0.448-0.192-1.088 0.032-1.6 0.416-0.96 1.024-1.824 1.792-2.528 0.512-0.48 1.12-0.896 1.696-1.312 2.304-1.6 8.96-2.976 8.96-2.976s4.832-1.216 9.856-2.72c0.064-0.032 0.128-0.064 0.192-0.096 0.064-0.064 0.096-0.128 0.096-0.192 0.448-1.152 0.768-2.336 1.216-3.488 0.064-0.16 0.128-0.32 0.224-0.448 0.128-0.16 0.288-0.32 0.48-0.448 0.128-0.096 2.080-1.504 1.984-0.896-0.32 2.048-0.704 4.096-1.152 6.112l5.28 0.96c0.128 0.032 0.192 0.192 0.128 0.32-0.544 0.64-1.632 0.96-2.656 0.992-0.384 0-1.76-0.192-3.392-0.48-0.064 0.064-0.16 0.128-0.224 0.192-0.864 0.64-1.792 1.248-2.72 1.824 1.6 0.352 3.168 0.736 4.768 1.088 1.536 0.352 3.488 0.576 5.024 1.024 0.256 0.096 0.288 0.448 0.096 0.576zM8.576 18.88c0-0.032-0.032-0.032-0.064-0.064-0.064-0.032-0.16 0-0.224 0.032-0.48 0.16-1.024 0.16-1.536 0.192-0.736 0.032-1.472-0.032-2.176-0.128-0.352-0.064-0.704-0.16-1.024-0.224 0 0-0.032 0-0.064-0.032-0.416 0.288-0.832 0.608-1.184 0.928-0.256 0.256-0.512 0.512-0.736 0.768 0.352 0.16 0.704 0.288 1.12 0.352 0.8 0.128 1.632 0.224 2.432 0.192 0.768-0.032 1.568-0.128 2.24-0.512 0.32-0.192 0.64-0.448 0.864-0.736 0.096-0.096 0.48-0.576 0.352-0.768z"></path>
</symbol>
<symbol id="icon-44" viewBox="0 0 32 32">
<path  d="M11.52 22.944c0.608 0.352 1.056 0.992 1.056 1.76s-0.416 1.408-1.056 1.76c0.608 0.352 1.056 0.992 1.056 1.76 0 1.12-0.896 2.016-2.016 2.016h-6.912c-2.016 0-3.648-1.632-3.648-3.648v-7.296c0-2.016 1.632-3.68 3.648-3.68h6.88c1.12 0 2.016 0.896 2.016 2.016 0 0.768-0.416 1.408-1.056 1.76 0.608 0.352 1.056 0.992 1.056 1.76 0.032 0.768-0.416 1.44-1.024 1.792zM1.152 15.872c0.704-0.512 1.568-0.832 2.496-0.832h2.848c0.64-2.848 0.448-6.048-2.304-7.136-0.672-0.256-1.76-0.384-2.016 0.64-0.064 0.288-0.032 0.576-0.032 0.864 0.096 1.408 0.192 2.72-0.256 4.096-0.256 0.8-0.512 1.6-0.736 2.368zM12.064 10.336c-0.352 0.32-0.352 0.864-0.064 1.152l4.576 4.672-0.352 0.352c-0.256 0.256-0.288 0.672-0.064 0.896 0.224 0.256 0.64 0.256 0.896 0l0.384-0.352 0.352 0.352c0.32 0.32 0.832 0.288 1.152-0.032 0.352-0.32 0.352-0.864 0.064-1.152l-0.32-0.32 5.408-5.088c0.256-0.256 0.288-0.672 0.064-0.896-0.224-0.256-0.64-0.256-0.896 0l-5.44 5.088-4.608-4.736c-0.288-0.288-0.8-0.288-1.152 0.064zM18.464 7.712v-2.432c0-0.448-0.352-0.832-0.832-0.832-0.448 0-0.832 0.352-0.832 0.832v2.432c0 0.448 0.352 0.832 0.832 0.832 0.448-0.032 0.832-0.384 0.832-0.832zM28.352 16.832c0.448 0 0.832-0.352 0.832-0.832 0-0.448-0.352-0.832-0.832-0.832h-2.432c-0.448 0-0.832 0.352-0.832 0.832 0 0.448 0.352 0.832 0.832 0.832h2.432zM17.632 1.632c-5.024 0-9.472 2.592-12.032 6.528 0.416 0.352 0.768 0.768 1.024 1.28 2.24-3.744 6.336-6.24 11.008-6.24 7.072 0 12.832 5.76 12.832 12.832s-5.76 12.832-12.832 12.832c-1.6 0-3.168-0.288-4.576-0.864 0 0.096 0.032 0.16 0.032 0.256 0 0.48-0.128 0.896-0.352 1.28 1.536 0.576 3.2 0.864 4.928 0.864 7.904-0.032 14.336-6.464 14.336-14.4s-6.432-14.368-14.368-14.368zM17.632 23.488c-0.448 0-0.832 0.352-0.832 0.832v2.432c0 0.448 0.352 0.832 0.832 0.832 0.448 0 0.832-0.352 0.832-0.832v-2.432c0-0.48-0.384-0.832-0.832-0.832z"></path>
</symbol>
<symbol id="icon-45" viewBox="0 0 32 32">
<path  d="M6.304 5.184c-1.152 1.856-1.216 5.888-0.064 10.624 0 0-1.376-0.096-3.072 0.48s-2.88 1.568-2.88 1.568c-1.12-5.152 1.28-10.4 6.016-12.672zM9.376 4.224c2.048 0.8 4.512 3.968 6.432 8.448 0 0 1.024-0.928 2.688-1.504 1.696-0.576 3.232-0.48 3.232-0.48-2.176-4.768-7.2-7.488-12.352-6.464zM13.536 23.392c0.384 0 0.768 0.064 1.088 0.128l-3.296-9.952c2.016-0.608 3.712-0.704 3.84-0.704-2.080-4.8-4.896-8.224-6.848-8.288l-0.576-1.696c-0.096-0.256-0.384-0.416-0.64-0.32s-0.416 0.384-0.32 0.64l0.576 1.696c-1.504 1.184-1.728 5.632-0.48 10.752 0.096-0.064 1.536-1.024 3.488-1.76l3.168 9.504zM31.328 28.128c-0.544-0.384-1.248-0.608-1.696-0.704-0.48-0.096-0.928-0.352-1.056-0.896-0.064-0.256-0.032-0.512 0.096-0.768 0.32-0.576 0.864-0.608 1.248-0.48 0.288 0.096 0.864 0.32 0.448-0.448-0.224-0.48-0.768-1.024-2.368-0.864-1.632 0.16-3.552 1.856-4.704 3.104-0.608 0.64-1.664 0.512-2.112-0.16-0.064-0.096-0.128-0.224-0.16-0.352-0.064-0.256-0.032-0.512 0.096-0.768 0.256-0.448 0.608-0.544 0.928-0.544 0.096 0 0.224 0.032 0.32 0.064 0.032 0 0.064 0.032 0.096 0.032 0.32 0.096 0.736 0.224 0.384-0.48-0.192-0.416-0.64-0.896-1.824-0.896-0.16 0-0.352 0-0.544 0.032-1.632 0.16-3.552 1.856-4.704 3.104-0.256 0.288-0.608 0.416-0.96 0.416-0.576 0-1.152-0.32-1.28-0.928-0.064-0.256-0.032-0.512 0.096-0.768 0.256-0.416 0.704-0.608 1.216-0.512 0.416 0.096 0.8 0.16 0.512-0.448-0.544-1.056-2.016-1.024-2.976-0.736-1.216 0.352-2.144 1.152-3.072 1.984-0.416 0.384-0.8 0.896-1.28 1.184-0.736 0.416-1.792 0.16-2.016-0.736-0.064-0.256-0.032-0.512 0.096-0.768 0.32-0.576 0.864-0.608 1.248-0.48 0.288 0.096 0.768 0.192 0.448-0.448-0.224-0.48-1.184-0.992-2.368-0.864-2.048 0.224-3.968 2.144-4.96 3.84-0.064 0.032-0.48 0.96-0.48 0.96s7.776 0 7.776 0h24.224v-0.064c-0.192-0.256-0.416-0.448-0.672-0.608zM31.744 16.32c0.032-0.032 0.224-0.384 0.192-0.384-0.128 0.064-0.256 0.128-0.352 0.224-0.064 0.064-0.128 0.128-0.224 0.192-0.384 0.352-0.928 0.768-1.472 0.832-0.64 0.096-1.408 0.192-1.984 0.416-0.288 0.128-0.512 0.32-0.736 0.512-0.384 0.352-0.768 0.736-1.12 1.12-0.192 0.192-0.384 0.384-0.64 0.448-0.288-0.352-0.544-0.736-0.768-1.152-0.256-0.416-0.608-0.896-0.928-1.28-0.576-0.672-1.056-1.088-1.92-1.344-1.312-0.384-2.656-0.608-3.968-0.96-0.48-0.128-0.992-0.192-1.472-0.32-0.448-0.096-0.864-0.32-1.28-0.416-0.064 0-0.064 0-0.064 0.032 0 0 0 0.032 0 0.032 0.096 0.096 0.16 0.192 0.256 0.288 0.992 0.864 2.4 1.472 3.616 1.984 0.48 0.192 0.992 0.384 1.472 0.608 0.832 0.448 1.152 1.152 1.664 1.888 0.416 0.544 0.864 1.056 1.376 1.504-0.32 0.064-0.544 0.256-0.832 0.352-0.32 0.096-0.608 0.16-0.928 0.16-0.896 0-1.76 0.096-2.656 0.256-0.032 0-0.064 0.032-0.032 0.064 0.288 0.128 0.576 0.256 0.864 0.288 0.544 0.064 1.088-0.16 1.632-0.032 0.608 0.128 1.184 0.32 1.792 0.416 0.512 0.096 0.992 0.256 1.504 0.32s0.992-0.192 1.472-0.384c0.448-0.192 0.928-0.448 1.312-0.768 0.032-0.032 0.064-0.064 0.096-0.064 0.128 0.032 0.256 0.096 0.352 0.128 0.192 0.032 0.384 0.192 0.608 0.192 0.064 0 0.096-0.064 0.096-0.128-0.128-0.256-0.416-0.48-0.64-0.672 0.032-0.064 0.032-0.16 0.032-0.256-0.032-0.256-0.128-0.48-0.352-0.608s-0.448-0.096-0.704-0.16c0.384-0.448 0.768-0.928 1.28-1.248 0.576-0.384 1.408-0.48 2.080-0.672 0.16-0.032 0.352-0.096 0.48-0.192 0.096-0.064 0.192-0.16 0.288-0.256 0.096-0.128 0.192-0.256 0.288-0.384 0.096-0.192 0.192-0.384 0.32-0.576z"></path>
</symbol>
<symbol id="icon-46" viewBox="0 0 32 32">
<path  d="M24.096 14.624l-3.52-0.896c0.288-0.736 0.992-1.248 1.824-1.248 1.088 0 1.952 0.896 1.952 1.952 0 0.096 0 0.192-0.032 0.256-0.064 0-0.16-0.032-0.224-0.064zM32 10.784c0 0-0.128 2.848-1.248 7.488-0.576 2.336-1.536 4.608-2.72 6.688-0.48 0.832-0.928 1.248-1.632 1.44-0.288 0.064-0.608 0.096-0.992 0.096-1.312 0-2.656-0.064-3.968-0.128 0.48-0.736 0.896-1.472 1.28-2.24 0.16-0.32 0.32-0.64 0.448-0.96 0 0.032 0 0.064 0.032 0.128 0.064 0.16 0.224 0.256 0.384 0.256 0.064 0 0.128 0 0.192-0.032 0.288-0.16 0.608-0.32 0.864-0.48 0.192-0.128 0.256-0.384 0.128-0.608-0.128-0.192-0.384-0.256-0.608-0.128-0.256 0.16-0.512 0.32-0.8 0.448 0 0 0 0-0.032 0.032 1.504-3.392 1.888-5.856 1.952-6.208 0.064-0.224 0.032-0.48 0-0.704 0.16-0.544 0.256-1.024 0.256-1.408 0-0.064 0-0.128 0-0.192 0-0.032 0-0.032 0-0.064 0-1.6-1.408-2.88-3.168-2.88-1.472 0-2.688 0.896-3.040 2.112l-6.336-1.632c0.064-0.608 0.096-1.216 0.128-1.856 0.032-0.512 0.544-0.928 1.152-0.896l16.672 0.768c0.608-0.032 1.088 0.416 1.056 0.96zM26.528 20.672c-0.192-0.16-0.448-0.128-0.608 0.064s-0.352 0.384-0.512 0.576l-0.096 0.096c-0.16 0.16-0.192 0.448 0 0.608 0.096 0.096 0.192 0.128 0.32 0.128 0.096 0 0.224-0.032 0.288-0.128 0.032-0.032 0.064-0.064 0.096-0.096 0.192-0.192 0.384-0.416 0.576-0.64 0.16-0.192 0.128-0.448-0.064-0.608zM27.744 18.528c-0.224-0.096-0.48-0.032-0.576 0.192-0.128 0.288-0.288 0.544-0.448 0.8-0.128 0.192-0.064 0.48 0.16 0.608 0.064 0.032 0.16 0.064 0.224 0.064 0.16 0 0.288-0.064 0.384-0.224 0.16-0.288 0.32-0.576 0.48-0.864 0.096-0.192 0-0.448-0.224-0.576zM28.448 16.64c-0.224-0.064-0.48 0.064-0.544 0.288-0.064 0.16-0.096 0.32-0.16 0.448-0.096 0.224 0.032 0.48 0.256 0.544 0.064 0.032 0.096 0.032 0.16 0.032 0.192 0 0.352-0.096 0.416-0.288 0.064-0.16 0.128-0.32 0.16-0.48 0.064-0.224-0.064-0.448-0.288-0.544zM12.736 19.456c1.088 0 1.952-0.896 1.952-1.952 0-1.088-0.896-1.952-1.952-1.952-1.088 0-1.952 0.896-1.952 1.952s0.864 1.952 1.952 1.952zM22.176 23.872c-1.088 2.144-2.528 4.128-4.16 5.92-0.64 0.704-1.184 1.024-1.92 1.024-0.288 0-0.608-0.032-0.992-0.128-4.672-1.12-9.088-2.848-13.568-4.544-0.384-0.16-0.768-0.288-1.088-0.576-0.704-0.64-0.576-1.408 0.064-1.984 3.2-3.008 5.216-7.68 6.4-11.84 0.128-0.512 0.736-0.8 1.312-0.64l15.68 4.064c0.576 0.16 0.96 0.704 0.8 1.216 0.032 0.032-0.384 3.2-2.528 7.488zM9.568 17.28c0 0.064 0 0.128 0 0.192 0 1.888 2.432 6.176 3.040 7.168 0.064 0.096 0.224 0.096 0.256 0 0.608-0.992 3.040-5.28 3.040-7.168 0-0.064 0-0.128 0-0.192 0-0.032 0-0.032 0-0.064 0-1.6-1.408-2.88-3.168-2.88s-3.168 1.28-3.168 2.88c0 0 0 0.032 0 0.064zM3.36 23.584c-0.16-0.192-0.416-0.224-0.608-0.064-0.128 0.128-0.256 0.224-0.384 0.352-0.16 0.16-0.192 0.448-0.032 0.608 0.096 0.096 0.192 0.128 0.32 0.128 0.096 0 0.224-0.032 0.288-0.128 0.096-0.096 0.224-0.192 0.352-0.32 0.192-0.096 0.224-0.384 0.064-0.576zM5.696 22.336c-0.096-0.224-0.352-0.32-0.576-0.256-0.32 0.128-0.672 0.288-0.992 0.48-0.224 0.128-0.288 0.384-0.16 0.608 0.096 0.128 0.224 0.224 0.384 0.224 0.064 0 0.16-0.032 0.224-0.064 0.288-0.16 0.608-0.32 0.896-0.416 0.192-0.096 0.32-0.352 0.224-0.576zM8 21.792c-0.352-0.096-0.768-0.128-1.184-0.096-0.256 0.032-0.416 0.224-0.416 0.48 0.032 0.256 0.256 0.416 0.48 0.416 0.32-0.032 0.608 0 0.896 0.064 0.032 0 0.064 0 0.096 0 0.192 0 0.384-0.128 0.416-0.32 0.096-0.256-0.064-0.512-0.288-0.544zM9.984 24.32c0.224-0.096 0.32-0.352 0.224-0.576s-0.192-0.416-0.288-0.544c-0.096-0.16-0.192-0.288-0.32-0.416-0.16-0.192-0.448-0.192-0.608-0.032-0.192 0.16-0.192 0.448-0.032 0.608 0.096 0.096 0.16 0.192 0.256 0.32 0.064 0.128 0.16 0.256 0.224 0.448 0.064 0.16 0.224 0.256 0.384 0.256 0.032-0.032 0.096-0.032 0.16-0.064zM11.552 25.568c-0.256-0.128-0.48-0.288-0.672-0.512-0.16-0.192-0.416-0.192-0.608-0.064-0.192 0.16-0.224 0.416-0.064 0.608 0.256 0.32 0.608 0.576 0.992 0.736 0.064 0.032 0.128 0.032 0.192 0.032 0.16 0 0.32-0.096 0.384-0.256 0.096-0.192 0-0.448-0.224-0.544zM14.336 25.632c-0.096-0.224-0.352-0.32-0.576-0.192-0.288 0.128-0.576 0.224-0.864 0.288-0.224 0.032-0.384 0.256-0.352 0.512 0.032 0.224 0.224 0.352 0.416 0.352 0.032 0 0.064 0 0.064 0 0.384-0.064 0.736-0.192 1.12-0.352 0.224-0.128 0.32-0.384 0.192-0.608zM16.288 23.808c-0.192-0.16-0.448-0.128-0.608 0.032-0.256 0.288-0.48 0.512-0.704 0.704-0.16 0.16-0.192 0.448-0.032 0.608 0.096 0.096 0.192 0.128 0.32 0.128 0.096 0 0.224-0.032 0.288-0.128 0.256-0.224 0.48-0.48 0.736-0.768 0.192-0.16 0.16-0.416 0-0.576zM17.92 21.696c-0.192-0.16-0.448-0.128-0.608 0.064-0.192 0.224-0.384 0.48-0.576 0.736l-0.064 0.096c-0.16 0.192-0.128 0.448 0.064 0.608 0.064 0.064 0.16 0.096 0.256 0.096 0.128 0 0.256-0.064 0.352-0.16l0.064-0.096c0.192-0.224 0.384-0.48 0.544-0.704 0.192-0.192 0.16-0.48-0.032-0.64zM19.872 19.904c-0.128-0.192-0.416-0.224-0.608-0.096-0.288 0.192-0.544 0.448-0.832 0.704-0.16 0.16-0.16 0.448 0 0.608 0.096 0.096 0.192 0.128 0.32 0.128 0.096 0 0.224-0.032 0.32-0.128 0.256-0.256 0.512-0.448 0.736-0.64 0.16-0.128 0.224-0.384 0.064-0.576zM21.92 19.296c-0.032-0.256-0.224-0.416-0.48-0.384-0.192 0.032-0.384 0.064-0.544 0.096-0.224 0.064-0.384 0.288-0.32 0.544 0.064 0.192 0.224 0.32 0.416 0.32 0.032 0 0.064 0 0.096 0 0.128-0.032 0.288-0.064 0.416-0.064 0.256-0.064 0.416-0.256 0.416-0.512zM11.84 6.784h0.48c0.544 0 1.024-0.448 1.024-1.024v-3.552c0-0.544-0.448-1.024-1.024-1.024h-0.48c-0.544 0-1.024 0.448-1.024 1.024v3.552c0 0.544 0.448 1.024 1.024 1.024zM25.6 6.784h0.48c0.544 0 1.024-0.448 1.024-1.024v-3.552c0-0.544-0.448-1.024-1.024-1.024h-0.48c-0.544 0-1.024 0.448-1.024 1.024v3.552c0.032 0.544 0.48 1.024 1.024 1.024zM12.416 11.616c0.064-0.544 0.096-1.12 0.128-1.728 0.032-0.416 0.224-0.8 0.576-1.088 0.32-0.256 0.736-0.384 1.184-0.384l15.552 0.704v-3.552c0-0.704-0.576-1.28-1.28-1.28h-0.928v1.472c0 0.864-0.704 1.6-1.6 1.6h-0.448c-0.864 0-1.6-0.704-1.6-1.6v-1.472h-10.112v1.472c0 0.864-0.704 1.6-1.6 1.6h-0.448c-0.864 0-1.6-0.704-1.6-1.6v-1.472h-0.928c-0.704 0-1.28 0.576-1.28 1.28v4.96c0.128 0 0.256 0.032 0.352 0.064l4.032 1.024z"></path>
</symbol>
<symbol id="icon-78" viewBox="0 0 32 32">
<path  d="M27.2 0h-22.4c-1.6 0-2.912 1.312-2.912 2.912v26.176c0 1.6 1.312 2.912 2.912 2.912h22.4c1.6 0 2.912-1.312 2.912-2.912v-26.176c0-1.6-1.312-2.912-2.912-2.912zM7.968 4.544v0 0 0zM4.896 6.016c0-0.384 0.16-0.736 0.416-0.992l0.416 0.608c-0.064 0.128-0.128 0.256-0.128 0.384v2.016c0 0.416 0.352 0.768 0.768 0.768h2.016c0.416 0 0.768-0.352 0.768-0.768v-0.864l0.704-0.992v1.856c0 0.8-0.64 1.44-1.44 1.44h-2.016c-0.8 0-1.44-0.64-1.44-1.44v-2.016zM7.968 13.728v0 0 0zM4.896 15.2c0-0.384 0.16-0.736 0.416-0.992l0.416 0.608c-0.064 0.128-0.128 0.256-0.128 0.384v2.016c0 0.416 0.352 0.768 0.768 0.768h2.016c0.416 0 0.768-0.352 0.768-0.768v-0.864l0.704-0.992v1.856c0 0.8-0.64 1.44-1.44 1.44h-2.016c-0.8 0-1.44-0.64-1.44-1.44v-2.016zM7.968 22.944v0 0 0zM9.792 26.4c0 0.8-0.64 1.44-1.44 1.44h-2.016c-0.8 0-1.44-0.64-1.44-1.44v-2.016c0-0.384 0.16-0.736 0.416-0.992l0.416 0.608c-0.064 0.128-0.128 0.256-0.128 0.384v2.016c0 0.416 0.352 0.768 0.768 0.768h2.016c0.416 0 0.768-0.352 0.768-0.768v-0.864l0.704-0.992v1.856zM10.592 22.592l-2.080 2.88c-0.128 0.192-0.352 0.288-0.576 0.288 0 0 0 0 0 0-0.224 0-0.448-0.128-0.576-0.288l-1.568-2.272c-0.224-0.32-0.128-0.768 0.192-0.96 0.32-0.224 0.768-0.128 0.96 0.192l0.992 1.44 1.504-2.048c0.224-0.32 0.64-0.384 0.96-0.16 0.32 0.192 0.416 0.608 0.192 0.928zM10.592 13.408l-2.080 2.88c-0.128 0.192-0.352 0.288-0.576 0.288 0 0 0 0 0 0-0.224 0-0.448-0.128-0.576-0.288l-1.568-2.272c-0.224-0.32-0.128-0.768 0.192-0.96 0.32-0.224 0.768-0.128 0.96 0.192l0.992 1.44 1.504-2.048c0.224-0.32 0.64-0.384 0.96-0.16 0.32 0.16 0.416 0.608 0.192 0.928zM10.592 4.224l-2.080 2.88c-0.128 0.192-0.352 0.288-0.576 0.288 0 0 0 0 0 0-0.224 0-0.448-0.128-0.576-0.288l-1.568-2.272c-0.224-0.32-0.128-0.768 0.192-0.96 0.32-0.224 0.768-0.128 0.96 0.192l0.992 1.44 1.504-2.048c0.224-0.32 0.64-0.384 0.96-0.16 0.32 0.16 0.416 0.608 0.192 0.928zM26.464 26.976h-13.92c-0.384 0-0.672-0.32-0.672-0.704s0.288-0.704 0.672-0.704h13.92c0.384 0 0.672 0.32 0.672 0.704-0.032 0.384-0.32 0.704-0.672 0.704zM26.464 23.776h-13.92c-0.384 0-0.672-0.32-0.672-0.704s0.288-0.704 0.672-0.704h13.92c0.384 0 0.672 0.32 0.672 0.704-0.032 0.384-0.32 0.704-0.672 0.704zM26.464 17.76h-13.92c-0.384 0-0.672-0.32-0.672-0.704s0.288-0.704 0.672-0.704h13.92c0.384 0 0.672 0.32 0.672 0.704-0.032 0.416-0.32 0.704-0.672 0.704zM26.464 14.592h-13.92c-0.384 0-0.672-0.32-0.672-0.704s0.288-0.704 0.672-0.704h13.92c0.384 0 0.672 0.32 0.672 0.704-0.032 0.384-0.32 0.704-0.672 0.704zM26.464 8.576h-13.92c-0.384 0-0.672-0.32-0.672-0.704s0.288-0.704 0.672-0.704h13.92c0.384 0 0.672 0.32 0.672 0.704-0.032 0.416-0.32 0.704-0.672 0.704zM26.464 5.408h-13.92c-0.384 0-0.672-0.32-0.672-0.704s0.288-0.704 0.672-0.704h13.92c0.384 0 0.672 0.32 0.672 0.704s-0.32 0.704-0.672 0.704z"></path>
</symbol>
<symbol id="icon-47" viewBox="0 0 32 32">
<path  d="M10.816 5.76v-3.552c0-0.544 0.448-1.024 1.024-1.024h0.48c0.544 0 1.024 0.448 1.024 1.024v3.552c0 0.544-0.448 1.024-1.024 1.024h-0.48c-0.576 0-1.024-0.48-1.024-1.024zM25.6 6.784h0.48c0.544 0 1.024-0.448 1.024-1.024v-3.552c0-0.544-0.448-1.024-1.024-1.024h-0.48c-0.544 0-1.024 0.448-1.024 1.024v3.552c0.032 0.544 0.48 1.024 1.024 1.024zM12.416 11.616c0.064-0.544 0.096-1.12 0.128-1.728 0.032-0.416 0.224-0.8 0.576-1.088 0.32-0.256 0.736-0.384 1.184-0.384l15.552 0.704v-3.552c0-0.704-0.576-1.28-1.28-1.28h-0.928v1.472c0 0.864-0.704 1.6-1.6 1.6h-0.448c-0.864 0-1.6-0.704-1.6-1.6v-1.472h-10.112v1.472c0 0.864-0.704 1.6-1.6 1.6h-0.448c-0.864 0-1.6-0.704-1.6-1.6v-1.472h-0.928c-0.704 0-1.28 0.576-1.28 1.28v4.96c0.128 0 0.256 0.032 0.352 0.064l4.032 1.024zM22.176 23.872c-1.088 2.144-2.528 4.128-4.16 5.92-0.64 0.704-1.184 1.024-1.92 1.024-0.288 0-0.608-0.032-0.992-0.128-4.672-1.12-9.088-2.848-13.568-4.544-0.384-0.16-0.768-0.288-1.088-0.576-0.704-0.64-0.576-1.408 0.064-1.984 3.2-3.008 5.216-7.68 6.4-11.84 0.128-0.512 0.736-0.8 1.312-0.64l15.68 4.064c0.576 0.16 0.96 0.704 0.8 1.216 0.032 0.032-0.384 3.2-2.528 7.488zM17.536 20.736l-2.208-1.312c-0.032-0.032-0.064-0.096-0.064-0.128l-0.16-2.56c-0.032-0.416-0.544-0.64-0.864-0.352l-1.92 1.664c-0.032 0.032-0.096 0.064-0.16 0.032l-2.464-0.64c-0.416-0.096-0.768 0.32-0.608 0.704l0.992 2.368c0.032 0.064 0.032 0.096 0 0.16l-1.376 2.144c-0.224 0.352 0.064 0.832 0.48 0.8l2.56-0.224c0.064 0.032 0.096 0.032 0.128 0.064l1.632 1.984c0.288 0.32 0.8 0.192 0.896-0.224l0.576-2.496c0.032-0.032 0.064-0.064 0.096-0.128l2.368-0.928c0.416-0.128 0.48-0.704 0.096-0.928zM30.944 9.76l-16.672-0.768c-0.608-0.032-1.12 0.384-1.152 0.896-0.032 0.64-0.096 1.248-0.128 1.856l11.072 2.88c0.416 0.128 0.768 0.384 1.024 0.736 0.224 0.352 0.32 0.768 0.224 1.184-0.064 0.416-0.544 3.52-2.592 7.616-0.384 0.768-0.8 1.504-1.28 2.24 1.312 0.064 2.656 0.128 3.968 0.128 0.384 0 0.704-0.032 0.992-0.096 0.704-0.16 1.152-0.608 1.632-1.44 1.184-2.080 2.144-4.352 2.72-6.688 1.12-4.64 1.248-7.488 1.248-7.488 0.032-0.576-0.448-1.024-1.056-1.056z"></path>
</symbol>
<symbol id="icon-box" viewBox="0 0 32 32">
<path fill="#606060" style="fill: var(--color1, #606060)" d="M30.446 9.28h-12.846c-0.869 0-1.6 0.686-1.6 1.6v5.714h4.434c0.457 0 0.869 0.137 1.234 0.366 0.32 0.137 0.549 0.411 0.731 0.686 0.274 0.366 0.411 0.823 0.411 1.326v10.88h7.634c0.869 0 1.6-0.686 1.6-1.6v-17.371c0-0.869-0.686-1.6-1.6-1.6z"></path>
<path fill="#606060" style="fill: var(--color1, #606060)" d="M21.622 0.686h-0.914v15.314h0.914v-15.314zM27.428 0.686h-0.914v15.314h0.914v-15.314z"></path>
<path fill="#c1c1c1" style="fill: var(--color2, #c1c1c1)" d="M28.663 0.686c0 0.411-0.32 0.686-0.686 0.686h-7.817c-0.411 0-0.686-0.32-0.686-0.686 0-0.411 0.32-0.686 0.686-0.686h7.771c0.411 0 0.731 0.32 0.731 0.686z"></path>
<path fill="#606060" style="fill: var(--color1, #606060)" d="M25.691 9.874c0 0.046-0.046 0.046-0.046 0.046h-3.2c-0.046 0-0.046-0.046-0.046-0.046v-1.463c0-0.046 0.046-0.046 0.046-0.046h3.2c0.046 0 0.046 0.046 0.046 0.046v1.463zM8.641 14.4h-1.051v3.246h1.051v-3.246zM14.538 14.4h-1.051v3.246h1.051v-3.246z"></path>
<path fill="#606060" style="fill: var(--color1, #606060)" d="M15.086 14.4c0 0.411-0.32 0.731-0.731 0.731h-6.629c-0.411 0-0.731-0.32-0.731-0.731s0.32-0.731 0.731-0.731h6.629c0.411 0 0.731 0.32 0.731 0.731z"></path>
<path fill="#c1c1c1" style="fill: var(--color2, #c1c1c1)" d="M22.034 30.4c0 0.869-0.686 1.6-1.6 1.6h-18.834c-0.869 0-1.6-0.686-1.6-1.6v-11.429c0-0.869 0.686-1.6 1.6-1.6h18.834c0.869 0 1.6 0.686 1.6 1.6v11.429z"></path>
<path fill="#606060" style="fill: var(--color1, #606060)" d="M1.874 18.789c0.457-0.411 0.594-0.869 0.594-1.417h-0.869c-0.869 0-1.6 0.686-1.6 1.6v0.686c0.731 0 1.371-0.411 1.874-0.869zM20.983 19.017c0.32 0.229 0.686 0.366 1.097 0.457v-0.503c0-0.869-0.686-1.6-1.6-1.6h-0.594c0.137 0.64 0.503 1.28 1.097 1.646zM1.966 30.537c-0.457-0.594-1.189-0.869-1.92-0.823v0.686c0 0.869 0.686 1.6 1.6 1.6h0.64c0-0.503 0-1.051-0.32-1.463zM20.069 30.583c-0.366 0.411-0.457 0.914-0.503 1.417h0.869c0.869 0 1.6-0.686 1.6-1.6v-0.686c-0.731-0.091-1.463 0.274-1.966 0.869zM15.817 24.274c0.046 0.183-0.046 0.32-0.229 0.366l-4.206 1.097c-0.183 0.046-0.32-0.046-0.366-0.229l-0.411-1.646c-0.046-0.183 0.046-0.32 0.229-0.366l4.206-1.097c0.183-0.046 0.32 0.046 0.366 0.229l0.411 1.646z"></path>
<path fill="#ffde00" style="fill: var(--color3, #ffde00)" d="M17.28 21.12c0.229 0.823-0.274 1.646-1.097 1.829-0.823 0.229-1.646-0.274-1.829-1.097-0.229-0.823 0.274-1.646 1.097-1.829 0.777-0.183 1.6 0.274 1.829 1.097z"></path>
<path fill="#606060" style="fill: var(--color1, #606060)" d="M16.64 21.303c0.137 0.457-0.137 0.914-0.594 1.051s-0.914-0.137-1.051-0.594c-0.137-0.457 0.137-0.914 0.594-1.051 0.457-0.183 0.914 0.091 1.051 0.594zM8.869 27.246c-0.046 0.183-0.183 0.274-0.366 0.229l-4.48-1.051c-0.183-0.046-0.274-0.183-0.229-0.366l0.137-0.549c0.046-0.183 0.183-0.274 0.366-0.229l4.48 1.051c0.183 0.046 0.274 0.183 0.229 0.366l-0.137 0.549z"></path>
<path fill="#ffde00" style="fill: var(--color3, #ffde00)" d="M28.389 13.394c0.046 0.137-0.046 0.274-0.183 0.32l-3.474 0.914c-0.137 0.046-0.274-0.046-0.32-0.183l-0.366-1.371c-0.046-0.137 0.046-0.274 0.183-0.32l3.474-0.914c0.137-0.046 0.274 0.046 0.32 0.183l0.366 1.371zM26.971 32c1.211 0 2.194-0.901 2.194-2.011s-0.983-2.011-2.194-2.011c-1.212 0-2.194 0.901-2.194 2.011s0.982 2.011 2.194 2.011z"></path>
<path fill="#606060" style="fill: var(--color1, #606060)" d="M28.069 29.989c0 0.549-0.503 1.006-1.097 1.006s-1.097-0.457-1.097-1.006c0-0.549 0.503-1.006 1.097-1.006 0.594-0.046 1.097 0.457 1.097 1.006z"></path>
</symbol>
<symbol id="icon-kubok" viewBox="0 0 25 32">
<path fill="#c1c1c1" style="fill: var(--color2, #c1c1c1)" d="M13.578 16.901h-2.614v6.806h2.614v-6.806z"></path>
<path fill="#c1c1c1" style="fill: var(--color2, #c1c1c1)" d="M12.271 22.13c1.12 0 2.028-0.908 2.028-2.028s-0.908-2.028-2.028-2.028v0c-1.12 0-2.028 0.908-2.028 2.028s0.908 2.028 2.028 2.028v0zM24.44 2.299c-0.090-0.135-0.27-0.18-0.406-0.18h-2.524c-0.27 0-0.496 0.18-0.541 0.451 0 0-0.18 1.037-0.946 1.577 0.045-0.946 0.090-1.938 0.090-2.93 0-0.406 0-0.811-0.045-1.217h-15.549c0 0.406-0.045 0.811-0.045 1.217 0 0.992 0.045 1.983 0.090 2.93-0.721-0.541-0.946-1.532-0.946-1.577-0.045-0.27-0.27-0.451-0.541-0.451h-2.524c-0.135 0-0.316 0.045-0.406 0.18s-0.18 0.27-0.135 0.406c0 0.27 0.496 6.4 3.741 10.186 0.992 1.172 2.434 2.028 3.831 2.434 1.172 1.532 2.704 2.434 4.732 2.434 1.893 0 3.38-0.901 4.552-2.389 1.442-0.361 2.93-1.262 4.011-2.479 3.29-3.786 3.741-9.915 3.741-10.186-0.045-0.135-0.090-0.27-0.18-0.406zM4.564 12.169c-2.479-2.839-3.245-7.301-3.425-8.924h1.487c0.225 0.631 0.766 1.803 2.028 2.254 0.27 3.245 0.901 6.13 1.938 8.248-0.766-0.406-1.487-0.946-2.028-1.577zM19.978 12.169c-0.586 0.676-1.352 1.262-2.163 1.668 1.082-2.163 1.803-5.048 2.073-8.338 1.262-0.451 1.803-1.577 2.028-2.254h1.487c-0.225 1.623-0.992 6.085-3.425 8.924z"></path>
<path fill="#ffde00" style="fill: var(--color3, #ffde00)" d="M12.406 3.245l0.901 1.803c0 0.045 0.045 0.090 0.090 0.090l1.983 0.27c0.135 0 0.18 0.18 0.090 0.225l-1.442 1.397c-0.045 0.045-0.045 0.090-0.045 0.135l0.316 1.938c0 0.135-0.090 0.18-0.225 0.135l-1.758-0.946h-0.135l-1.758 0.946c-0.090 0.045-0.225-0.045-0.225-0.135l0.316-1.938c0-0.045 0-0.090-0.045-0.135l-1.442-1.397c-0.090-0.090-0.045-0.225 0.090-0.225l1.983-0.27c0.045 0 0.090-0.045 0.090-0.090l0.901-1.803c0.090-0.135 0.27-0.135 0.316 0z"></path>
<path fill="#606060" style="fill: var(--color1, #606060)" d="M19.933 23.076h-15.324v7.887h15.324v-7.887z"></path>
<path fill="#606060" style="fill: var(--color1, #606060)" d="M21.33 30.197h-18.118v1.397h18.118v-1.397z"></path>
<path fill="#ffde00" style="fill: var(--color3, #ffde00)" d="M17.184 25.104h-9.825v3.651h9.825v-3.651z"></path>
</symbol>
<symbol id="icon-sociale" viewBox="0 0 36 32">
<path fill="#606060" style="fill: var(--color1, #606060)" d="M15.289 7.162h17.321c1.676 0 2.997 1.321 2.997 2.997v13.003c0 1.676-1.321 2.997-2.997 2.997h-0.914c-0.152 2.235 0.406 3.657 1.879 5.435-3.81-0.102-6.705-1.93-7.975-5.435h-10.311c-1.676 0-2.997-1.321-2.997-2.997v-13.003c0-1.625 1.371-2.997 2.997-2.997z"></path>
<path fill="#919191" style="fill: var(--color4, #919191)" d="M11.073 10.159c0-2.337 1.879-4.216 4.216-4.216h4.775v-3.352c0-1.422-1.168-2.59-2.59-2.59h-14.883c-1.422 0-2.59 1.168-2.59 2.59v11.175c0 1.422 1.168 2.59 2.59 2.59h0.762c0.152 1.93-0.356 3.149-1.625 4.673 3.251-0.102 5.74-1.676 6.857-4.673h2.438v-6.197h0.051z"></path>
<path fill="#ffde00" style="fill: var(--color3, #ffde00)" d="M24.127 13.156l1.016 2.083c0 0.051 0.051 0.102 0.102 0.102l2.337 0.356c0.152 0 0.203 0.203 0.102 0.305l-1.676 1.625c-0.051 0.051-0.051 0.102-0.051 0.152l0.406 2.337c0 0.152-0.102 0.254-0.254 0.152l-2.083-1.117c-0.051-0.051-0.102-0.051-0.152 0l-2.083 1.117c-0.102 0.051-0.254-0.051-0.254-0.152l0.406-2.337c0-0.051 0-0.102-0.051-0.152l-1.676-1.625c-0.102-0.102-0.051-0.254 0.102-0.305l2.337-0.356c0.051 0 0.102-0.051 0.102-0.102l1.016-2.083c0.102-0.102 0.254-0.102 0.356 0z"></path>
</symbol>
<symbol id="icon-users" viewBox="0 0 32 32">
<path fill="#606060" style="fill: var(--color1, #606060)" d="M30.153 24.914c0.046-0.091 0.046-0.229 0.046-0.366v-12.251h-12.891s0 2.103-0.046 2.286c-0.183 1.006-0.869 1.966-0.64 3.063 0.137 0.64 0.503 1.189 0.594 1.829 0.046 0.731-0.137 1.417-0.183 2.149-0.091 1.417 0.366 2.88 1.234 4.023 0.869 1.097 2.606 0.686 3.84 0.64 2.423 0 4.891-0.046 7.223 0.731 0.183-0.64 0.411-1.28 0.731-1.829 0-0.091 0.091-0.183 0.091-0.274z"></path>
<path fill="#c1c1c1" style="fill: var(--color2, #c1c1c1)" d="M26.405 7.314s-1.234-0.549-2.88-0.549c-1.6 0-2.834 0.549-2.834 0.549s-4.617 2.194-1.737 11.429c0.411 1.326 1.646 2.331 2.834 3.063 1.189 0.777 2.423 0.777 3.611 0 1.189-0.731 2.423-1.737 2.834-3.063 2.789-9.234-1.829-11.429-1.829-11.429z"></path>
<path fill="#606060" style="fill: var(--color1, #606060)" d="M26.13 4.937c-1.143-0.32-2.926-0.503-5.211 0.549 0 0-1.509 0.96-1.371 2.103-0.686 0.183-1.234 0.869-1.509 1.463-0.457 0.823-0.64 1.783-0.686 2.743-0.046 0.731-0.046 1.417 0.046 2.149 0 0.183 0 0.457 0.091 0.594 0.046 0.046 0.274 0.046 0.32 0.137 0.229 0.32 0.183 0.869 0.229 1.28 0.091 0.503 0.274 1.006 0.457 1.509-0.594-2.011-0.274-4.709 0.823-6.491 0.686-1.097 1.234-1.966 0.457-3.2 0.32 0.503 0.686 1.051 1.234 1.234 0.914 0.366 1.874-0.046 2.789 0 1.006 0.046 2.103 0.229 2.971 0.731 0.823 0.503 1.234 1.463 1.417 2.377 0.183 1.051-0.366 2.057-0.229 3.109 0.183 1.234 0.823 2.011 0.366 3.291-0.549 1.417-1.189 2.651-0.96 4.251 0.091 0.686 0.274 1.417 0.137 2.149-0.046 0.32-0.183 0.64-0.411 0.869-0.091 0.091-0.869 0.549-0.96 0.411 0.96 1.097 2.789 1.006 3.84 0.091 0.914-0.777 1.326-2.103 1.143-3.291-0.091-0.457-0.229-0.914-0.183-1.371 0.091-0.64 0.503-1.143 0.731-1.691 0.274-0.777 0.137-1.646-0.137-2.469-0.274-0.731-0.64-1.417-0.64-2.194 0-0.503 0.183-1.006 0.274-1.554 0.229-1.371-0.229-2.606-0.594-3.886-0.183-0.64-0.366-1.28-0.64-1.874-0.731-1.554-2.057-2.743-3.794-3.017z"></path>
<path fill="#ffde00" style="fill: var(--color3, #ffde00)" d="M28.645 13.44c-0.046 0-0.137 0-0.183-0.046-0.183-0.091-0.32-0.229-0.549-0.274-0.183-0.046-0.366-0.046-0.549-0.091-0.594-0.046-1.143 0-1.737 0.046 0 0-1.326 0.137-1.783 0.64 0 0-0.091 0.091-0.366 0.183-0.274-0.046-0.366-0.183-0.366-0.183-0.457-0.503-1.783-0.64-1.783-0.64-0.686-0.046-1.417-0.091-2.149 0-0.366 0.046-0.64 0.274-0.96 0.32-0.046 0-0.137 0-0.183 0.046-0.137 0.091-0.046 0.32 0 0.457 0.046 0.091 0.091 0.183 0.183 0.32 0.183 0.32 0.183 0.777 0.229 1.143 0.274 1.463 1.874 1.371 1.874 1.371 2.423 0.091 2.651-1.92 2.651-1.92 0.046-0.091 0.137-0.183 0.229-0.229 0.046 0 0.183-0.046 0.274-0.046h0.091c0.137 0 0.229 0.046 0.274 0.046 0.091 0.046 0.137 0.091 0.229 0.229 0 0 0.274 2.011 2.651 1.92 0 0 1.6 0.091 1.874-1.371 0.046-0.229 0.046-0.457 0.091-0.64 0.046-0.366 0.229-0.64 0.274-0.96 0-0.046 0-0.137-0.046-0.183-0.046-0.091-0.183-0.091-0.274-0.137zM22.519 15.36s-0.64 1.463-2.88 1.006c0 0-0.731-0.091-0.914-1.234 0 0-0.503-1.554 1.051-1.691 0 0 2.469-0.046 2.789 0.457 0 0 0.366 0.274-0.046 1.463zM28.279 15.131c-0.183 1.143-0.914 1.234-0.914 1.234-2.24 0.457-2.88-1.006-2.88-1.006-0.457-1.189-0.046-1.463-0.046-1.463 0.32-0.457 2.789-0.457 2.789-0.457 1.554 0.137 1.051 1.691 1.051 1.691z"></path>
<path fill="#c1c1c1" style="fill: var(--color2, #c1c1c1)" d="M31.205 28.526c-0.091-0.549-0.183-1.143-0.503-1.646-0.64-0.96-1.874-1.326-2.971-1.691-0.731-0.274-1.417-0.594-1.966-1.097-0.64-0.594-0.914-1.28-1.051-2.103h-2.56c-0.137 0.823-0.411 1.509-1.051 2.103-0.549 0.503-1.28 0.823-1.966 1.097-1.097 0.411-2.331 0.731-2.971 1.691-0.32 0.503-0.411 1.051-0.503 1.646-0.137 1.189-0.091 2.331-0.229 3.474h15.817c0.091-1.143 0.137-2.331-0.046-3.474z"></path>
<path fill="#c1c1c1" style="fill: var(--color2, #c1c1c1)" d="M16.439 24.731c-0.411-0.869-1.326-1.417-2.194-1.783s-1.829-0.64-2.606-1.189c-1.051-0.686-1.646-1.829-1.417-3.109h-3.566c0.183 1.28-0.411 2.377-1.417 3.109-0.777 0.549-1.737 0.823-2.606 1.189s-1.737 0.914-2.194 1.783c-0.137 0.32-0.549 3.703-0.411 3.703h16.914c0.091-0.046-0.32-3.383-0.503-3.703zM14.747 10.834c-0.594-0.091-1.143 0.594-1.234 1.509-0.137 0.914 0.229 1.691 0.823 1.783s1.143-0.594 1.234-1.509c0.137-0.869-0.229-1.691-0.823-1.783zM2.13 10.834c-0.594 0.091-0.96 0.869-0.823 1.783s0.686 1.6 1.234 1.509c0.594-0.091 0.96-0.869 0.823-1.783-0.091-0.869-0.686-1.554-1.234-1.509z"></path>
<path fill="#c1c1c1" style="fill: var(--color2, #c1c1c1)" d="M8.485 2.469c-0.046 0-0.046 0 0 0-0.046 0-0.046 0 0 0-1.417 0.091-7.406 0.914-5.943 10.149l0.366 3.84s0.32 0.869 1.371 1.691c0 0 1.829 1.554 3.383 2.24 0 0 0.32 0.091 0.777 0.274 0.457-0.183 0.777-0.274 0.777-0.274 1.554-0.686 3.383-2.24 3.383-2.24 1.143-0.823 1.189-1.691 1.189-1.691l0.594-3.84c1.417-9.234-4.526-10.103-5.897-10.149z"></path>
<path fill="#606060" style="fill: var(--color1, #606060)" d="M13.879 3.566c1.874 2.651 1.051 7.726 1.051 7.726l-0.411 1.189-0.137 1.097h-0.32s0.594-3.566-0.549-4.571c0 0-0.091-3.017-1.417-3.246 0 0-2.377-0.366-3.657-0.229-0.869 0-2.103-0.046-3.52 0.411-1.234 0.366-1.463 3.063-1.463 3.063-1.143 1.051-0.549 4.571-0.549 4.571h-0.32l-0.137-1.097-0.411-1.097s-0.594-5.211 1.143-7.726c0 0 1.143-1.829 4.846-1.92 0 0 3.246 0.32 2.057-1.737 0 0 1.874 0.32 1.874 1.92 0 0 1.234 0 1.006-1.463-0.091 0 1.966 1.417 0.914 3.109z"></path>
<path fill="#606060" style="fill: var(--color1, #606060)" d="M11.41 15.726c1.417-0.183 2.057-1.326 2.651-2.194h0.32l-0.594 2.926s-0.046 0.869-1.143 1.691c0 0-1.829 1.554-3.383 2.24 0 0-0.32 0.091-0.777 0.274-0.457-0.183-0.777-0.274-0.777-0.274-1.554-0.686-3.383-2.24-3.383-2.24-1.051-0.823-1.371-1.691-1.371-1.691l-0.274-2.926h0.274c0.32 0.503 1.737 2.149 2.88 2.194 0 0 1.829-0.091 2.789 0.64-0.091-0.046 0.777-0.686 2.789-0.64z"></path>
<path fill="#ffde00" style="fill: var(--color3, #ffde00)" d="M11.639 22.309c0-0.046-0.046-0.091 0-0.183 0-0.046 0.046-0.091 0.091-0.137 0.183-0.274 0.183-0.686 0.183-1.006s-0.046-0.777-0.411-0.823c-0.229-0.046-0.366 0.046-0.549 0.137-0.64 0.274-1.234 0.64-1.783 1.051-0.046-0.091-0.137-0.183-0.274-0.183h-0.869c-0.137 0-0.229 0.091-0.274 0.183-0.549-0.411-1.143-0.777-1.783-1.051-0.183-0.091-0.366-0.137-0.549-0.137-0.366 0.046-0.411 0.549-0.411 0.823 0 0.32 0 0.731 0.183 1.006 0.046 0.046 0.091 0.091 0.091 0.137v0.183s0 0.046-0.046 0.046c-0.183 0.32-0.183 0.64-0.183 0.96s-0.046 0.731 0.366 0.823c0.229 0.046 0.366-0.046 0.549-0.137 0.64-0.274 1.234-0.64 1.783-1.051 0.046 0.091 0.137 0.183 0.274 0.183h0.869c0.137 0 0.229-0.091 0.274-0.183 0.549 0.411 1.143 0.777 1.783 1.051 0.183 0.091 0.366 0.137 0.549 0.137 0.411-0.046 0.366-0.503 0.366-0.823 0-0.366 0-0.64-0.183-0.96l-0.046-0.046z"></path>
</symbol>
<symbol id="icon-Facebook" viewBox="0 0 32 32">
<path fill="#1877f2" style="fill: var(--color1, #1877f2)" d="M32 16c0 8.837-7.163 16-16 16s-16-7.163-16-16c0-8.837 7.163-16 16-16s16 7.163 16 16z"></path>
<path fill="#fff" style="fill: var(--color2, #fff)" d="M17.219 17.362h2.679l0.511-3.341h-3.187v-2.167c0-0.914 0.447-1.805 1.872-1.805h1.445v-2.844c-0.765-0.131-1.653-0.213-2.559-0.226l-0.013-0c-2.624 0-4.339 1.6-4.339 4.498v2.545h-2.913v3.341h2.916v8.076h3.59z"></path>
</symbol>
<symbol id="icon-Instagram" viewBox="0 0 32 32">
<path fill="#000" style="fill: var(--color3, #000)" d="M32 16c0 8.837-7.163 16-16 16s-16-7.163-16-16c0-8.837 7.163-16 16-16s16 7.163 16 16z"></path>
<path fill="#fff" style="fill: var(--color2, #fff)" d="M16 7.888c2.203 0 2.48 0.009 3.344 0.049 0.711 0.014 1.386 0.151 2.010 0.39l-0.041-0.014c1.092 0.432 1.941 1.28 2.363 2.344l0.010 0.028c0.225 0.582 0.362 1.255 0.376 1.958l0 0.006c0.040 0.865 0.049 1.142 0.049 3.344s-0.009 2.48-0.049 3.344c-0.014 0.711-0.151 1.386-0.39 2.010l0.014-0.041c-0.432 1.092-1.28 1.941-2.344 2.363l-0.028 0.010c-0.582 0.227-1.255 0.365-1.958 0.381l-0.007 0c-0.865 0.040-1.142 0.049-3.344 0.049s-2.48-0.009-3.344-0.049c-0.711-0.014-1.386-0.151-2.010-0.39l0.041 0.014c-1.092-0.432-1.941-1.28-2.363-2.344l-0.010-0.028c-0.227-0.582-0.365-1.255-0.381-1.958l-0-0.007c-0.040-0.865-0.049-1.142-0.049-3.344s0.009-2.48 0.049-3.344c0.014-0.711 0.151-1.386 0.39-2.010l-0.014 0.041c0.431-1.094 1.279-1.944 2.344-2.367l0.028-0.010c0.582-0.225 1.255-0.362 1.958-0.376l0.006-0c0.869-0.040 1.146-0.049 3.349-0.049zM19.274 9.398c-0.854-0.039-1.112-0.048-3.274-0.048s-2.423 0.009-3.274 0.048c-0.543 0.006-1.061 0.107-1.54 0.287l0.031-0.010c-0.711 0.279-1.263 0.831-1.536 1.524l-0.006 0.018c-0.17 0.447-0.272 0.964-0.278 1.503l-0 0.003c-0.039 0.854-0.048 1.112-0.048 3.274s0.009 2.423 0.048 3.274c0.006 0.544 0.107 1.063 0.289 1.543l-0.010-0.031c0.279 0.711 0.831 1.263 1.524 1.536l0.018 0.006c0.447 0.17 0.964 0.272 1.503 0.278l0.003 0c0.854 0.039 1.112 0.048 3.274 0.048s2.423-0.009 3.274-0.048c0.544-0.006 1.063-0.107 1.543-0.289l-0.031 0.010c0.711-0.279 1.263-0.831 1.536-1.524l0.006-0.018c0.17-0.447 0.272-0.964 0.278-1.503l0-0.003c0.039-0.854 0.048-1.112 0.048-3.274s-0.009-2.423-0.048-3.274c-0.006-0.544-0.107-1.063-0.289-1.543l0.010 0.031c-0.279-0.711-0.831-1.263-1.524-1.536l-0.018-0.006c-0.447-0.17-0.964-0.271-1.504-0.277l-0.003-0zM16 18.704c1.494 0 2.704-1.211 2.704-2.704s-1.211-2.704-2.704-2.704c-1.494 0-2.704 1.211-2.704 2.704v0c0.001 1.493 1.211 2.704 2.704 2.704h0zM16 11.834c2.302 0 4.167 1.866 4.167 4.167s-1.866 4.167-4.167 4.167c-2.302 0-4.167-1.866-4.167-4.167v0c0-2.302 1.866-4.167 4.167-4.167v0zM21.303 11.67c0 0.538-0.436 0.973-0.973 0.973s-0.973-0.436-0.973-0.973c0-0.538 0.436-0.973 0.973-0.973v0c0.538 0 0.973 0.436 0.973 0.973v0z"></path>
</symbol>
<symbol id="icon-LinkedIn" viewBox="0 0 32 32">
<path fill="#1d66c2" style="fill: var(--color4, #1d66c2)" d="M32 16c0 8.837-7.163 16-16 16s-16-7.163-16-16c0-8.837 7.163-16 16-16s16 7.163 16 16z"></path>
<path fill="#fff" style="fill: var(--color2, #fff)" d="M9.328 12.668h3.087v9.956h-3.087v-9.956z"></path>
<path fill="#fff" style="fill: var(--color2, #fff)" d="M20.279 12.468c-1.191-0.1-2.289 0.595-2.887 1.594v-1.395h-2.986v9.956h3.085v-4.977c0-1.295 0.298-2.59 1.892-2.59s1.593 1.488 1.593 2.688v4.879h3.087l-0.1-5.376c0-2.688-0.499-4.779-3.684-4.779z"></path>
<path fill="#fff" style="fill: var(--color2, #fff)" d="M12.614 9.482c0 0.99-0.802 1.792-1.792 1.792s-1.792-0.802-1.792-1.792c0-0.99 0.802-1.792 1.792-1.792s1.792 0.802 1.792 1.792z"></path>
</symbol>
<symbol id="icon-Telegram" viewBox="0 0 32 32">
<path fill="#000" style="fill: var(--color3, #000)" d="M32 16c0 8.837-7.163 16-16 16s-16-7.163-16-16c0-8.837 7.163-16 16-16s16 7.163 16 16z"></path>
<path fill="#fff" style="fill: var(--color2, #fff)" d="M7.339 15.725q6.979-3.041 9.307-4.010c4.432-1.843 5.358-2.163 5.953-2.175 0.006-0 0.013-0 0.020-0 0.224 0 0.431 0.070 0.602 0.189l-0.003-0.002c0.124 0.107 0.208 0.258 0.227 0.429l0 0.003c0.021 0.131 0.033 0.282 0.033 0.436 0 0.068-0.002 0.136-0.007 0.203l0-0.009c-0.24 2.53-1.28 8.646-1.808 11.472-0.223 1.191-0.664 1.597-1.091 1.637-0.926 0.085-1.637-0.613-2.53-1.201-1.405-0.921-2.198-1.488-3.562-2.393-1.576-1.042-0.554-1.609 0.344-2.541 0.235-0.244 4.316-3.959 4.397-4.295 0.005-0.020 0.007-0.044 0.007-0.068 0-0.083-0.031-0.158-0.082-0.215l0 0c-0.056-0.035-0.124-0.056-0.196-0.056-0.048 0-0.094 0.009-0.137 0.026l0.003-0.001q-0.21 0.046-6.73 4.449-0.956 0.656-1.731 0.64c-0.57-0.013-1.665-0.323-2.481-0.595-0.999-0.324-1.786-0.496-1.724-1.042q0.055-0.429 1.188-0.88z"></path>
</symbol>
<symbol id="icon-TikTok" viewBox="0 0 32 32">
<path fill="#000" style="fill: var(--color3, #000)" d="M32 16c0 8.837-7.163 16-16 16s-16-7.163-16-16c0-8.837 7.163-16 16-16s16 7.163 16 16z"></path>
<path fill="#25f4ee" style="fill: var(--color5, #25f4ee)" d="M14.035 14.468v-0.674c-0.209-0.035-0.454-0.057-0.703-0.061l-0.004-0c-0.003 0-0.006 0-0.009 0-2.895 0-5.242 2.347-5.242 5.242 0 1.774 0.881 3.342 2.229 4.29l0.017 0.011c-0.874-0.933-1.411-2.191-1.411-3.575 0-2.852 2.28-5.171 5.117-5.233l0.006-0z"></path>
<path fill="#25f4ee" style="fill: var(--color5, #25f4ee)" d="M14.162 22.101c1.286-0.002 2.334-1.015 2.392-2.287l0-0.005v-11.426h2.084c-0.038-0.205-0.060-0.441-0.060-0.682 0-0.015 0-0.029 0-0.044l-0 0.002h-2.852v11.414c-0.049 1.284-1.101 2.307-2.392 2.308h-0c-0.404-0.003-0.784-0.105-1.117-0.282l0.013 0.006c0.439 0.603 1.141 0.991 1.934 0.994h0zM22.538 12.26v-0.636c-0 0-0.001 0-0.001 0-0.804 0-1.552-0.243-2.172-0.661l0.014 0.009c0.55 0.636 1.291 1.094 2.133 1.282l0.026 0.005z"></path>
<path fill="#fe2c55" style="fill: var(--color6, #fe2c55)" d="M20.38 10.974c-0.607-0.689-0.978-1.599-0.978-2.596 0-0 0-0 0-0v0h-0.762c0.209 1.095 0.845 2.011 1.725 2.586l0.015 0.009zM13.328 16.589c-1.319 0.006-2.385 1.077-2.385 2.396 0 0.916 0.514 1.711 1.268 2.115l0.013 0.006c-0.285-0.389-0.455-0.876-0.455-1.404 0-1.32 1.070-2.39 2.39-2.39 0 0 0 0 0 0v0c0.254 0.004 0.496 0.044 0.725 0.116l-0.018-0.005v-2.905c-0.212-0.034-0.456-0.054-0.706-0.055h-0.128v2.206c-0.19-0.054-0.408-0.084-0.633-0.084-0.026 0-0.052 0-0.078 0.001l0.004-0z"></path>
<path fill="#fe2c55" style="fill: var(--color6, #fe2c55)" d="M22.538 12.26v2.209c-1.488-0.003-2.862-0.485-3.978-1.301l0.019 0.013v5.805c-0.004 2.895-2.351 5.24-5.247 5.24-1.127 0-2.171-0.355-3.026-0.96l0.016 0.011c0.96 1.030 2.324 1.673 3.838 1.673 2.894 0 5.241-2.346 5.241-5.241 0-0.002 0-0.003 0-0.005v0-5.784c1.098 0.795 2.471 1.271 3.956 1.271 0.003 0 0.006 0 0.009 0h-0v-2.838c-0.294-0.001-0.58-0.033-0.856-0.093l0.027 0.005z"></path>
<path fill="#fff" style="fill: var(--color2, #fff)" d="M18.579 18.986v-5.805c1.095 0.794 2.466 1.27 3.948 1.27 0.006 0 0.012 0 0.018-0h-0.001v-2.207c-0.869-0.188-1.612-0.639-2.162-1.265l-0.004-0.005c-0.894-0.585-1.53-1.502-1.734-2.571l-0.004-0.025h-2.084v11.431c-0.054 1.28-1.105 2.298-2.394 2.298-0.795 0-1.499-0.387-1.935-0.983l-0.005-0.007c-0.766-0.41-1.278-1.205-1.278-2.119 0-1.319 1.065-2.389 2.382-2.396h0.001c0.253 0.002 0.496 0.042 0.724 0.115l-0.017-0.005v-2.243c-2.856 0.063-5.147 2.393-5.147 5.259 0 1.399 0.546 2.671 1.437 3.613l-0.002-0.002c0.817 0.56 1.827 0.894 2.915 0.894 0.033 0 0.067-0 0.1-0.001l-0.005 0c2.896-0.003 5.244-2.349 5.248-5.245v-0z"></path>
</symbol>
<symbol id="icon-Twitter" viewBox="0 0 32 32">
<path fill="#1da1f2" style="fill: var(--color7, #1da1f2)" d="M32 16c0 8.837-7.163 16-16 16s-16-7.163-16-16c0-8.837 7.163-16 16-16s16 7.163 16 16z"></path>
<path fill="#fff" style="fill: var(--color2, #fff)" d="M13.246 23.010c6.141 0 9.499-5.087 9.499-9.499 0-0.149 0-0.287-0.010-0.43 0.656-0.478 1.208-1.051 1.65-1.704l0.015-0.024c-0.558 0.254-1.206 0.439-1.885 0.522l-0.032 0.003c0.69-0.419 1.209-1.060 1.461-1.823l0.007-0.024c-0.61 0.368-1.32 0.649-2.076 0.802l-0.043 0.007c-0.611-0.648-1.475-1.052-2.434-1.052-1.845 0-3.341 1.496-3.341 3.341 0 0.268 0.032 0.529 0.091 0.778l-0.005-0.023c-2.78-0.143-5.226-1.464-6.866-3.47l-0.013-0.017c-0.284 0.481-0.452 1.060-0.452 1.678 0 1.153 0.585 2.17 1.473 2.77l0.012 0.008c-0.559-0.017-1.078-0.17-1.532-0.427l0.017 0.009v0.042c0 0 0 0 0 0.001 0 1.611 1.14 2.955 2.657 3.27l0.022 0.004c-0.262 0.074-0.563 0.117-0.875 0.117-0.223 0-0.442-0.022-0.653-0.064l0.021 0.004c0.439 1.34 1.668 2.294 3.123 2.319l0.003 0c-1.125 0.892-2.565 1.432-4.132 1.432-0.285 0-0.566-0.018-0.841-0.052l0.033 0.003c1.441 0.938 3.204 1.496 5.097 1.496 0.003 0 0.007 0 0.010 0h-0.001z"></path>
</symbol>
<symbol id="icon-Viber" viewBox="0 0 32 32">
<path fill="#7360f2" style="fill: var(--color8, #7360f2)" d="M32 16c0 8.837-7.163 16-16 16s-16-7.163-16-16c0-8.837 7.163-16 16-16s16 7.163 16 16z"></path>
<path fill="#fff" style="fill: var(--color2, #fff)" d="M22.083 9.947c-0.409-0.38-2.069-1.584-5.764-1.6 0 0-4.358-0.263-6.482 1.686-1.191 1.182-1.598 2.913-1.637 5.060s-0.101 6.166 3.776 7.257v0 1.664s-0.025 0.673 0.418 0.811c0.536 0.165 0.851-0.347 1.363-0.893 0.281-0.298 0.67-0.744 0.961-1.088 2.652 0.223 4.69-0.287 4.922-0.363 0.536-0.173 3.565-0.561 4.057-4.583 0.503-4.15-0.252-6.771-1.615-7.952zM22.529 17.597c-0.415 3.356-2.873 3.572-3.325 3.713-0.984 0.25-2.113 0.394-3.275 0.394-0.338 0-0.673-0.012-1.005-0.036l0.045 0.003s-1.674 2.024-2.198 2.551c-0.052 0.061-0.129 0.1-0.215 0.1-0.010 0-0.020-0-0.029-0.001l0.001 0c-0.089-0.022-0.115-0.128-0.113-0.284 0-0.223 0.013-2.765 0.013-2.765v0c-3.274-0.911-3.087-4.333-3.050-6.125s0.374-3.261 1.374-4.248c1.796-1.628 5.498-1.384 5.498-1.384 3.126 0.013 4.624 0.954 4.971 1.27 1.154 0.988 1.741 3.35 1.311 6.812z"></path>
<path fill="#fff" style="fill: var(--color2, #fff)" d="M17.84 15.207c-0 0-0 0-0 0-0.111 0-0.202-0.087-0.208-0.197l-0-0.001c-0.036-0.71-0.369-1.058-1.051-1.094-0.111-0.006-0.198-0.097-0.198-0.208 0-0.115 0.093-0.209 0.209-0.209 0.004 0 0.007 0 0.011 0l-0-0c0.893 0.048 1.401 0.563 1.447 1.488 0 0.003 0 0.006 0 0.009 0 0.112-0.087 0.203-0.198 0.21l-0.001 0z"></path>
<path fill="#fff" style="fill: var(--color2, #fff)" d="M18.911 15.567v0c-0.113-0.003-0.204-0.096-0.204-0.21 0-0.002 0-0.003 0-0.005v0c0.003-0.042 0.004-0.092 0.004-0.141 0-0.627-0.238-1.199-0.63-1.629l0.002 0.002c-0.435-0.475-1.030-0.732-1.82-0.79-0.109-0.008-0.194-0.098-0.194-0.208 0-0.115 0.094-0.209 0.209-0.209 0.005 0 0.010 0 0.016 0.001l-0.001-0c0.893 0.064 1.596 0.377 2.099 0.926 0.457 0.503 0.738 1.175 0.738 1.912 0 0.052-0.001 0.103-0.004 0.153l0-0.007c-0.002 0.114-0.095 0.205-0.21 0.205-0.002 0-0.003-0-0.005-0h0z"></path>
<path fill="#fff" style="fill: var(--color2, #fff)" d="M20.010 15.996c0 0 0 0 0 0-0.115 0-0.208-0.092-0.208-0.207v-0c-0.010-1.261-0.388-2.264-1.125-2.977-0.696-0.678-1.649-1.096-2.699-1.096-0.026 0-0.052 0-0.078 0.001l0.004-0c-0.108-0.009-0.192-0.099-0.192-0.209s0.084-0.2 0.191-0.209l0.001-0c0.027-0.001 0.059-0.001 0.090-0.001 1.157 0 2.206 0.46 2.975 1.206l-0.001-0.001c0.82 0.799 1.24 1.902 1.25 3.274 0 0.001 0 0.002 0 0.003 0 0.114-0.093 0.207-0.207 0.207 0 0 0 0-0 0v0z"></path>
<path fill="#fff" style="fill: var(--color2, #fff)" d="M16.633 17.798c0.011 0.001 0.023 0.001 0.036 0.001 0.161 0 0.306-0.066 0.41-0.172l0-0 0.31-0.387c0.124-0.137 0.302-0.222 0.5-0.222 0.133 0 0.257 0.038 0.361 0.105l-0.003-0.002c0.301 0.171 0.552 0.333 0.793 0.506l-0.026-0.018c0.232 0.173 0.71 0.57 0.711 0.57 0.132 0.11 0.216 0.275 0.216 0.459 0 0.116-0.033 0.225-0.091 0.316l0.001-0.002c-0.178 0.305-0.392 0.565-0.64 0.788l-0.003 0.003c-0.176 0.161-0.398 0.273-0.644 0.314l-0.007 0.001c-0.014 0.002-0.031 0.003-0.048 0.003s-0.033-0.001-0.050-0.003l0.002 0c-0.002 0-0.003 0-0.005 0-0.097 0-0.19-0.016-0.278-0.045l0.006 0.002v-0.010c-0.329-0.092-0.878-0.324-1.786-0.829-0.578-0.309-1.074-0.633-1.539-0.995l0.023 0.018c-0.248-0.194-0.469-0.389-0.678-0.596l0.001 0.001-0.024-0.022-0.022-0.024-0.022-0.022-0.024-0.022c-0.205-0.208-0.4-0.429-0.582-0.66l-0.013-0.017c-0.353-0.439-0.685-0.931-0.975-1.449l-0.028-0.054c-0.505-0.914-0.744-1.462-0.829-1.786h-0.010c-0.026-0.080-0.042-0.171-0.042-0.267 0-0.004 0-0.007 0-0.011v0.001c-0.002-0.014-0.003-0.031-0.003-0.048s0.001-0.033 0.003-0.050l-0 0.002c0.042-0.261 0.156-0.489 0.321-0.671l-0.001 0.001s0 0 0 0c0.225-0.251 0.486-0.465 0.775-0.635l0.015-0.008c0.089-0.056 0.197-0.089 0.314-0.089 0.183 0 0.347 0.083 0.457 0.213l0.001 0.001s0.399 0.479 0.57 0.711 0.351 0.496 0.5 0.759c0.064 0.102 0.102 0.225 0.102 0.358 0 0.198-0.085 0.377-0.221 0.5l-0.001 0-0.388 0.308c-0.106 0.104-0.171 0.249-0.171 0.409 0 0.013 0 0.026 0.001 0.039l-0-0.002s0.576 2.18 2.724 2.73z"></path>
</symbol>
<symbol id="icon-WhatsApp" viewBox="0 0 32 32">
<path fill="#25d366" style="fill: var(--color9, #25d366)" d="M32 16c0 8.837-7.163 16-16 16s-16-7.163-16-16c0-8.837 7.163-16 16-16s16 7.163 16 16z"></path>
<path fill="#fff" style="fill: var(--color2, #fff)" d="M8.173 23.963l1.124-4.102c-0.664-1.133-1.056-2.496-1.056-3.95 0-4.371 3.544-7.915 7.915-7.915s7.915 3.544 7.915 7.915c0 4.371-3.543 7.915-7.914 7.915h-0c-1.387-0.001-2.69-0.358-3.823-0.985l0.041 0.021zM12.563 21.433l0.241 0.149c0.958 0.576 2.113 0.918 3.349 0.918h0c0 0 0.001 0 0.001 0 3.635 0 6.582-2.947 6.582-6.582s-2.947-6.582-6.582-6.582c-3.635 0-6.582 2.947-6.582 6.582 0 1.297 0.375 2.506 1.022 3.524l-0.016-0.027 0.149 0.249-0.665 2.428z"></path>
<path fill="#fff" style="fill: var(--color2, #fff)" d="M20.144 17.792c-0.049-0.083-0.182-0.132-0.38-0.231s-1.17-0.578-1.351-0.644-0.313-0.098-0.447 0.1-0.511 0.643-0.625 0.775-0.232 0.149-0.429 0.049c-0.609-0.248-1.133-0.579-1.587-0.985l0.005 0.005c-0.425-0.394-0.79-0.845-1.085-1.343l-0.015-0.028c-0.116-0.198-0.013-0.298 0.086-0.403s0.198-0.232 0.298-0.347c0.078-0.095 0.145-0.204 0.195-0.322l0.003-0.009c0.023-0.046 0.036-0.101 0.036-0.158 0-0.070-0.019-0.135-0.053-0.19l0.001 0.002c-0.049-0.098-0.447-1.072-0.61-1.468s-0.323-0.333-0.447-0.341-0.247 0-0.378 0c-0.214 0.004-0.404 0.099-0.535 0.248l-0.001 0.001c-0.427 0.405-0.692 0.977-0.692 1.61 0 0.009 0 0.019 0 0.028v-0.001c0 0.973 0.708 1.914 0.808 2.047s1.395 2.13 3.379 2.986c0.292 0.132 0.666 0.273 1.049 0.395l0.080 0.022c0.236 0.074 0.508 0.117 0.79 0.117 0.161 0 0.319-0.014 0.472-0.041l-0.016 0.002c0.38-0.057 1.17-0.479 1.34-0.941s0.159-0.853 0.11-0.935z"></path>
</symbol>
<symbol id="icon-YouTube" viewBox="0 0 32 32">
<path fill="#f00" style="fill: var(--color10, #f00)" d="M32 16c0 8.837-7.163 16-16 16s-16-7.163-16-16c0-8.837 7.163-16 16-16s16 7.163 16 16z"></path>
<path fill="#fff" style="fill: var(--color2, #fff)" d="M23.893 11.934c-0.197-0.716-0.75-1.269-1.451-1.463l-0.015-0.003c-1.292-0.347-6.479-0.347-6.479-0.347s-5.187 0-6.48 0.347c-0.716 0.198-1.268 0.751-1.463 1.451l-0.003 0.015c-0.347 1.293-0.347 3.992-0.347 3.992s0 2.698 0.347 3.992c0.198 0.715 0.751 1.268 1.451 1.463l0.015 0.003c1.293 0.347 6.48 0.347 6.48 0.347s5.185 0 6.479-0.347c0.716-0.197 1.269-0.75 1.463-1.451l0.003-0.015c0.347-1.293 0.347-3.992 0.347-3.992s0-2.698-0.347-3.992zM14.288 18.413v-4.974l4.316 2.487z"></path>
</symbol>
<svg xmlns="http://www.w3.org/2000/svg" viewBox="0 0 24 24">
  <symbol id="good" viewBox="0 0 24 24">
    <circle cx="12" cy="12" r="10" stroke="#acc945
" stroke-width="2" fill="none" />
    <circle cx="8" cy="10" r="1" class="smile-face" fill="#acc945
" />
    <circle cx="16" cy="10" r="1" class="smile-face" fill="#acc945
" />
    <path d="M8 15 Q12 18 16 15" stroke="#acc945
" stroke-width="2" fill="none" />
  </symbol>
  
  <symbol id="neutral" viewBox="0 0 24 24">
    <circle cx="12" cy="12" r="10" stroke="#acc945
" stroke-width="2" fill="none" />
    <circle cx="8" cy="10" r="1" class="smile-face" fill="#acc945
" />
    <circle cx="16" cy="10" r="1" class="smile-face" fill="#acc945
" />
    <line x1="8" y1="15" x2="16" y2="15" stroke="#acc945
" stroke-width="2" />
  </symbol>
  
  <symbol id="bad" viewBox="0 0 24 24">
    <circle cx="12" cy="12" r="10" stroke="#acc945
" stroke-width="2" fill="none" />
    <circle cx="8" cy="10" r="1" class="smile-face" fill="#acc945
" />
    <circle cx="16" cy="10" r="1" class="smile-face" fill="#acc945
" />
    <path d="M8 15 Q12 12 16 15" stroke="#acc945
" stroke-width="2" fill="none" />
  </symbol>
</svg>
</defs>
</svg>
