<?xml version="1.0" standalone="no"?>
			<!DOCTYPE svg PUBLIC "-//W3C//DTD SVG 1.1//EN" "http://www.w3.org/Graphics/SVG/1.1/DTD/svg11.dtd"><svg xmlns="http://www.w3.org/2000/svg" xmlns:xlink="http://www.w3.org/1999/xlink" version="1.1" fill="#FFF" width="100" height="100" viewBox="0 0 100 100" xml:space="preserve">  <path class="st0" d="M94.1,58.4h-2.9c-0.7,0-1.3-0.6-1.3-1.3c0-0.7,0.6-1.3,1.3-1.3h2.9c0.7,0,1.3,0.6,1.3,1.3  	C95.3,57.9,94.8,58.4,94.1,58.4z M87.3,57.2c0-0.7-0.6-1.3-1.3-1.3H67.8c-0.7,0-1.3,0.6-1.3,1.3c0,0.7,0.6,1.3,1.3,1.3h18.3  	C86.7,58.4,87.3,57.9,87.3,57.2z M30.9,57.2c0-0.7-0.6-1.3-1.3-1.3H2.9c-0.7,0-1.3,0.6-1.3,1.3c0,0.7,0.6,1.3,1.3,1.3h26.7  	C30.4,58.4,30.9,57.9,30.9,57.2z M50.5,37V2.2c0-0.7-0.6-1.3-1.3-1.3C48.6,1,48,1.5,48,2.2V37c0,0.7,0.6,1.3,1.3,1.3  	C49.9,38.3,50.5,37.7,50.5,37z M63.1,43.7l22.4-24.9c0.5-0.5,0.4-1.3-0.1-1.8c-0.5-0.5-1.3-0.4-1.8,0.1L61.2,42  	c-0.5,0.5-0.4,1.3,0.1,1.8c0.2,0.2,0.5,0.3,0.8,0.3C62.5,44.1,62.8,44,63.1,43.7z M18.8,26.4c0.5-0.5,0.5-1.3,0-1.8l-2.9-3  	c-0.5-0.5-1.3-0.5-1.8,0c-0.5,0.5-0.5,1.3,0,1.8l2.9,3c0.2,0.2,0.6,0.4,0.9,0.4C18.2,26.8,18.5,26.7,18.8,26.4z M36.1,43.9  	c0.5-0.5,0.5-1.3,0-1.8L22.4,28.3c-0.5-0.5-1.3-0.5-1.8,0c-0.5,0.5-0.5,1.3,0,1.8l13.7,13.8c0.2,0.2,0.6,0.4,0.9,0.4  	C35.5,44.2,35.8,44.1,36.1,43.9z M66.8,12.8l2.4-6.5c0.2-0.7-0.1-1.4-0.7-1.6c-0.7-0.2-1.4,0.1-1.6,0.7l-2.4,6.5  	c-0.2,0.7,0.1,1.4,0.7,1.6c0.1,0.1,0.3,0.1,0.4,0.1C66.1,13.6,66.6,13.3,66.8,12.8z M57.2,39l8-21.9c0.2-0.7-0.1-1.4-0.7-1.6  	c-0.7-0.2-1.4,0.1-1.6,0.7l-8,21.9c-0.2,0.7,0.1,1.4,0.7,1.6c0.1,0.1,0.3,0.1,0.4,0.1C56.6,39.8,57,39.5,57.2,39z M31.9,50.1  	c0.3-0.6,0-1.4-0.7-1.6l-19.4-7.9c-0.6-0.3-1.4,0-1.6,0.7c-0.3,0.6,0,1.4,0.7,1.6l19.4,7.9c0.2,0.1,0.3,0.1,0.5,0.1  	C31.2,50.9,31.7,50.6,31.9,50.1z M66.9,50.6l20.2-9.1c0.6-0.3,0.9-1,0.6-1.7c-0.3-0.6-1-0.9-1.7-0.6l-20.2,9.1  	c-0.6,0.3-0.9,1-0.6,1.7c0.2,0.5,0.7,0.7,1.1,0.7C66.5,50.8,66.7,50.7,66.9,50.6z M30.8,11.5c0.6-0.3,1-1,0.7-1.6L30.8,8  	c-0.3-0.6-1-1-1.6-0.7c-0.6,0.3-1,1-0.7,1.6l0.7,1.9c0.2,0.5,0.7,0.8,1.2,0.8C30.5,11.6,30.7,11.6,30.8,11.5z M42.2,39.6  	c0.6-0.3,1-1,0.7-1.6l-9.5-23.6c-0.3-0.6-1-1-1.6-0.7c-0.6,0.3-1,1-0.7,1.6l9.5,23.6c0.2,0.5,0.7,0.8,1.2,0.8  	C41.9,39.7,42,39.7,42.2,39.6z M89.1,30.3l2.4-1.7c0.6-0.4,0.7-1.2,0.3-1.8c-0.4-0.6-1.2-0.7-1.8-0.3l-2.4,1.7  	c-0.6,0.4-0.7,1.2-0.3,1.8c0.2,0.3,0.6,0.5,1,0.5C88.6,30.6,88.9,30.5,89.1,30.3z M65.4,47.2L86,32.6c0.6-0.4,0.7-1.2,0.3-1.8  	c-0.4-0.6-1.2-0.7-1.8-0.3L64,45.2c-0.6,0.4-0.7,1.2-0.3,1.8c0.2,0.3,0.6,0.5,1,0.5C64.9,47.5,65.2,47.4,65.4,47.2z M39.1,41.3  	c0.6-0.4,0.8-1.1,0.4-1.7L27.3,20.3c-0.4-0.6-1.1-0.8-1.7-0.4c-0.6,0.4-0.8,1.1-0.4,1.7l12.2,19.2c0.2,0.4,0.6,0.6,1.1,0.6  	C38.7,41.5,38.9,41.4,39.1,41.3z M67.7,54.5L98.5,48c0.7-0.1,1.1-0.8,1-1.5c-0.1-0.7-0.8-1.1-1.5-1l-30.8,6.6  	c-0.7,0.1-1.1,0.8-1,1.5c0.1,0.6,0.6,1,1.2,1C67.5,54.6,67.6,54.5,67.7,54.5z M42,19.2c0.7-0.1,1.1-0.8,1-1.5L42.5,15  	c-0.1-0.7-0.8-1.1-1.5-1c-0.7,0.1-1.1,0.8-1,1.5l0.5,2.7c0.1,0.6,0.6,1,1.2,1C41.9,19.3,42,19.2,42,19.2z M45.7,38.5  	c0.7-0.1,1.1-0.8,1-1.5l-2.8-14.7c-0.1-0.7-0.8-1.1-1.5-1c-0.7,0.1-1.1,0.8-1,1.5l2.8,14.7c0.1,0.6,0.6,1,1.2,1  	C45.6,38.6,45.6,38.6,45.7,38.5z M68.8,27.1l4.4-7.3c0.4-0.6,0.2-1.4-0.4-1.7c-0.6-0.4-1.4-0.2-1.7,0.4l-4.4,7.3  	c-0.4,0.6-0.2,1.4,0.4,1.7c0.2,0.1,0.4,0.2,0.6,0.2C68.1,27.7,68.5,27.5,68.8,27.1z M60.4,41.1l5.6-9.4c0.4-0.6,0.2-1.4-0.4-1.7  	c-0.6-0.4-1.4-0.2-1.7,0.4l-5.6,9.4c-0.4,0.6-0.2,1.4,0.4,1.7c0.2,0.1,0.4,0.2,0.6,0.2C59.7,41.7,60.2,41.5,60.4,41.1z M33.8,46.8  	c0.4-0.6,0.2-1.4-0.3-1.7l-19-12.8c-0.6-0.4-1.4-0.2-1.7,0.3c-0.4,0.6-0.2,1.4,0.3,1.7l19,12.8c0.2,0.1,0.5,0.2,0.7,0.2  	C33.2,47.4,33.6,47.2,33.8,46.8z M31.2,53.6c0.1-0.7-0.3-1.3-1-1.5L9.8,48c-0.7-0.1-1.3,0.3-1.5,1s0.3,1.3,1,1.5l20.4,4.1  	c0.1,0,0.2,0,0.2,0C30.6,54.6,31.1,54.2,31.2,53.6z M5.8,48.5c0.1-0.7-0.3-1.3-1-1.5l-3.3-0.7c-0.7-0.1-1.3,0.3-1.5,1  	c-0.1,0.7,0.3,1.3,1,1.5l3.3,0.7c0.1,0,0.2,0,0.2,0C5.2,49.5,5.7,49.1,5.8,48.5z M54,37.7l4.8-27.1c0.1-0.7-0.3-1.3-1-1.5  	c-0.7-0.1-1.3,0.3-1.5,1l-4.8,27.1c-0.1,0.7,0.3,1.3,1,1.5c0.1,0,0.1,0,0.2,0C53.4,38.7,53.9,38.3,54,37.7z M62.1,58.6  	c0.2-0.8,0.2-1.6,0.2-2.5c0-7.5-6.1-13.6-13.6-13.6c-7.5,0-13.6,6.1-13.6,13.6c0,0.9,0.1,1.7,0.2,2.5H62.1z M95.9,63.2H4.5  	c-2.3,0-4.1,1.8-4.1,4.1c0,2.2,1.7,4,3.9,4.1c-0.6,0.7-1,1.6-1,2.6c0,2.3,1.8,4.1,4.1,4.1H15c-0.6,0.7-0.9,1.6-0.9,2.6  	c0,1.1,0.4,2.1,1.2,2.9H13c-2.3,0-4.1,1.8-4.1,4.1S10.7,92,13,92h6.7c-0.7,0.7-1.2,1.8-1.2,2.9c0,2.3,1.8,4.1,4.1,4.1h18.2  	c2.3,0,4.1-1.8,4.1-4.1c0-1.1-0.4-2.1-1.2-2.9h16.7c2.3,0,4.1-1.8,4.1-4.1c0-1.1-0.4-2.1-1.2-2.9h11.1c2.3,0,4.1-1.8,4.1-4.1  	c0-1-0.4-1.9-0.9-2.6h9.6c2.3,0,4.1-1.8,4.1-4.1c0-1-0.4-1.9-0.9-2.6h5.2c2.3,0,4.1-1.8,4.1-4.1S98.2,63.2,95.9,63.2z"/>  </svg>