<?xml version="1.0" standalone="no"?>
			<!DOCTYPE svg PUBLIC "-//W3C//DTD SVG 1.1//EN" "http://www.w3.org/Graphics/SVG/1.1/DTD/svg11.dtd"><svg xmlns="http://www.w3.org/2000/svg" xmlns:xlink="http://www.w3.org/1999/xlink" version="1.1" fill="#FFF" width="100" height="100" viewBox="0 0 100 100" xml:space="preserve">  <path class="st0" d="M76.1,33.6C72,29.9,64,32.1,58.3,38.4c-5.2,5.8-6.8,13.1-3.9,17.1l-3.7,4.1c1.2,0,2.6-0.1,3.9-0.1l1.9-2.1  	c4.3,2.4,11.4,0.1,16.6-5.7C78.8,45.4,80.2,37.3,76.1,33.6z M71.1,49c-0.3,0.4-0.9,0.4-1.3,0.1c-0.4-0.3-0.4-0.9-0.1-1.3  	c2.5-2.8,3.7-6.3,3.1-8.7c-0.1-0.5,0.2-1,0.7-1.1c0.5-0.1,1,0.2,1.1,0.7C75.4,41.7,74.1,45.8,71.1,49z M42.4,64.6v10.3l-19.9,23  	c-1.8,2-4.5,2.7-5.8,1.5c-1.4-1.2-1-3.9,0.9-6l21.6-22.9c1.4-1.4,2.3-3.2,2.7-5.2c0,0,0,0,0,0C42,65.1,42.2,64.8,42.4,64.6z  	 M5.8,68.9c-2.8-6.2-4.4-13-4.4-20.3C1.3,21.8,23.2,0,50,0c26.8,0,48.7,21.8,48.7,48.7c0,4.9-0.7,9.6-2.1,14  	c-2.4-1.9-6-3.1-10.9-3.1c1.1-3.4,1.6-7.1,1.6-10.9c0-20.6-16.7-37.3-37.3-37.3c-2.2,0-4.3,0.2-6.4,0.6c0-1.1-0.3-2.7-1.5-4.1  	c-0.6-0.7-1.3-1.1-2-1.4c-0.8-0.2-3.4-0.8-5.5,2.5c-0.4,0.6-1.1,2.2-3.6,7.6C20.1,23,12.7,35,12.7,48.7c0,1.7,0.1,3.3,0.3,4.9  	c-0.1,0.5-0.3,0.9-0.5,1.4L5.8,68.9z M38.9,84.3c1.1,0.4,2.3,0.6,3.5,0.9v11.6c-4-0.6-7.8-1.7-11.4-3.3L38.9,84.3z M42.9,45.5  	l-7.1,11.3l1.8,1.1c0.5,0.3-0.1,1.9-0.6,2.2c0,0,0,0,0,0c-1.7,0.9-3.2,2.3-4.2,4l-16.3,27c-1.5,2.3-4,3.4-5.5,2.4  	c-1.6-1-1.6-3.7-0.2-6l17.4-26.3c1.1-1.6,1.7-3.6,1.8-5.5c0,0,0,0,0,0c0-0.6,1.2-1.8,1.7-1.5l1.8,1.1L40.5,44  	c-1.8-1.8-1.7-5.7,0.5-9.1L52.4,17c0.5-0.8,1.4-1.1,2-0.8c0.6,0.4,0.7,1.3,0.2,2.1l-9.8,15.4c-0.5,0.7-0.5,1.6,0,1.9  	c0.5,0.3,1.2-0.1,1.7-0.8l9.8-15.4c0.5-0.8,1.4-1.1,2-0.8l0.1,0.1c0.6,0.4,0.7,1.3,0.2,2.1l-9.8,15.4c-0.5,0.7-0.5,1.6,0,1.9  	c0.5,0.3,1.2-0.1,1.7-0.8l9.8-15.4c0.5-0.8,1.4-1.1,2-0.8c0.6,0.4,0.7,1.3,0.2,2.1L50.9,41.2C48.7,44.6,45.3,46.4,42.9,45.5z  	 M20.6,58.7L8.1,87.6c-1.1,2.5-3.5,3.9-5.1,3.2c-1.7-0.8-2.1-3.4-1-5.9l13.7-28.4c0.9-1.8,1.2-3.8,1-5.7c0,0,0,0,0,0  	c0-0.6,1-1.9,1.5-1.7l1.6,0.7c0.2-0.4,0.4-0.9,0.4-0.9c3.6-7.9,7.2-15.8,10.8-23.6c0.3-0.7,5.8-13.1,6.5-14.3c0.3-0.5,0.9-1.2,1.4-1  	c0.2,0,0.3,0.2,0.5,0.3c0.6,0.7,0.6,1.8,0.6,2.7C40,15,39.6,17.1,39,19.2c-1.4,5-2.5,10.2-4.3,15.1c-1.4,3.9-3.1,8-5.7,11.3  	c-1.9,2.3-4.4,3.4-6.3,5.4l1.9,0.9c0.5,0.2,0.1,1.9-0.3,2.2c0,0,0,0,0,0C22.6,55.3,21.3,56.9,20.6,58.7z M65.1,80.4v-0.1  	c2.7-1.8,4.2-4.3,4.2-8.1c0-5.1-3.5-9.1-12.3-9.1c-4,0-9,0.2-11.1,0.3v36.3c2.1,0.2,7,0.3,10.5,0.3c7.9,0,13.9-3.6,13.9-11.3  	C70.3,84,67.7,81.4,65.1,80.4z M54.3,71.1c0.9-0.1,1.6-0.2,2.6-0.2c2,0,4,1.1,4,3.3c0,2.7-1.7,3.5-3.9,3.5h-2.8V71.1z M57.1,92.2  	c-1.6,0-2.2-0.2-2.8-0.3V85h3.2c2.7,0,4.4,1,4.4,3.3C61.9,90.8,60.3,92.2,57.1,92.2z M93.5,80.4v-0.1c2.7-1.8,4.2-4.3,4.2-8.1  	c0-5.1-3.5-9.1-12.3-9.1c-4,0-9,0.2-11.1,0.3v36.3c2.1,0.2,7,0.3,10.5,0.3c7.9,0,13.9-3.6,13.9-11.3C98.7,84,96.1,81.4,93.5,80.4z  	 M82.7,71.1c0.9-0.1,1.6-0.2,2.6-0.2c2,0,4,1.1,4,3.3c0,2.7-1.7,3.5-3.9,3.5h-2.8V71.1z M85.5,92.2c-1.6,0-2.2-0.2-2.8-0.3V85h3.2  	c2.7,0,4.4,1,4.4,3.3C90.3,90.8,88.7,92.2,85.5,92.2z"/>  </svg>