<?xml version="1.0" standalone="no"?>
			<!DOCTYPE svg PUBLIC "-//W3C//DTD SVG 1.1//EN" "http://www.w3.org/Graphics/SVG/1.1/DTD/svg11.dtd"><svg xmlns="http://www.w3.org/2000/svg" xmlns:xlink="http://www.w3.org/1999/xlink" version="1.1" fill="#FFF" width="100" height="100" viewBox="0 0 100 100" xml:space="preserve">  <path class="st0" d="M86,96.3l-1.4,0.4l0.6,2.3c0.1,0.4-0.1,0.9-0.6,1c-0.1,0-0.1,0-0.2,0c-0.4,0-0.7-0.2-0.8-0.6L83,97.1l-1.4,0.4  	c-0.1,0-0.1,0-0.2,0c-0.4,0-0.7-0.2-0.8-0.6c-0.1-0.4,0.1-0.9,0.6-1l1.4-0.4L69.6,48.9c-0.5,0.2-1,0.3-1.5,0.3  	c-1.6-0.1-1.6-1.2-3.2,0c-0.4,0.2-0.8,0.3-1.2,0.4c-3.5,0.4-7.1,0.6-10.6-0.1c-1.9-0.4-2.7-1.4-3.6-3.1c-1.6-2.9-3.1-5.9-4.3-9  	c-0.4-1.1-0.8-2.3-1.1-3.5c0-0.2-0.2-0.4-0.4-0.4c-0.1,0-0.1,0.1-0.2,0.2c-0.3,0.6,0.1,1.8,0.3,2.4c0.6,2,1.1,3.4,2.3,5.9  	c0.4,0.9,1.1,1.8,1.3,2.8c0.2,1-1.9,8.9-2.9,11.7l5,9.6c1.7,3.3,3.5,6.6,5,10c0.5,1,0.9,2.1,1.1,3.2c0.4,3.9-1.2,7.7-2,11.5  	c-0.4,2-1.1,4.9,1.1,6c0.4,0.2,0.8,0.4,1.2,0.7c0.4,0.2,0.8,0.4,1.1,0.7c0.6,0.5,0.8,1.1,0.6,1.8c-1.7,0-3.3,0-5,0  	c-1,0-2.8,0.1-3.4-0.1c-1.1-0.5-1.1-1.9-1.3-2.9c-0.2-1.4-0.4-2.7-0.5-4.1c-0.2-2.8-0.3-5.6-0.5-8.3c-0.1-0.8-0.1-1.7-0.4-2.5  	c-0.3-0.9-1-1.6-1.6-2.4c-2.5-3-4.7-6.2-6.6-9.6c0.2,0.3-2.8,4.7-3.1,5.2c-1,1.8-2.1,3.7-3.2,5.5c-1.4,2.2-2.9,4.2-4.9,5.9  	c-1.9,1.6-3.7,3.4-5.2,5.4c-0.5,0.7-1.4,1.7-1.6,2.7c-0.3,1.7,0.7,1.6,1.9,2.2c0.7,0.4,1.4,0.9,1.8,1.5c0.2,0.2,0.7,1.4,0,1.4h-8.1  	c-3.7,0.1-2.2-4.3-1.6-6c0.5-1.6,1.1-3.2,1.9-4.6c4.9-9.2,10.4-18.4,11.1-29c0.2-2.7,0.5-5.9,1.4-8.5c1.1-3.2,2.8-6.1,3.8-9.3  	l3.6-11.6c0.7-2.2,1.4-4.4,2.6-6.3c1-1.5,2.6-2.7,4.3-3.2c0.8-0.2,0.9-3.2,0.6-3.8c-0.3-0.6-0.8-1.3-1.1-1.9  	c-0.4-0.9-0.2-2.8-0.3-3.8C42,10.2,41.9,8.6,42.2,7c0.8-4,4.4-7.3,8.7-7c2.6,0.2,5.6,1.3,6.8,3.6c0.5,1.1,0.9,2.1,1,3.2  	c1.7,0.5,3.4,0.9,5.2,1.2c1.3,0.2,2.6,0.4,4,0.4c-0.3,1.3-1.9,3-3,3.6c-1.3,0.7-2.9,1-4.4,0.8c-0.8-0.1-1.6-0.3-2.4-0.4  	c-0.1,0.4-0.3,0.9-0.5,1.3c-0.6,1.6-1.4,3.2-2.3,4.7c-0.8,1.1-1.7,3.2-3.5,2.6c-0.4-0.1-0.6-0.3-1-0.4c-0.6,1-1,2.1-1.6,3.1  	c0-0.1,1.9,3.2,2,3.5c0.4,1.2,0.5,2.5,0.9,3.7c0.9,3.3,2.7,6.3,3.4,9.7c0.1,0.4,0.2,0.8,0.6,1c1.5,0.5,3.1,1,4.6,1.4  	c1.4,0.4,2.9,0.3,4.2,1c0.2,0.1,0.4,0.2,0.6,0.2c0.2,0,0.3-0.1,0.5-0.2c0.4-0.3,1.1-0.7,1.8-1c0,0-0.1-0.1-0.1-0.1  	c-0.2-0.1-0.5-0.2-0.5-0.4c-0.2-0.4,0.6-0.7,0.9-0.9c0.2-0.1,0.4-0.2,0.7-0.2c0.3,0,0.5,0,0.7,0.2c0.1,0.3,0.2,0.7,0.2,1  	c0.6,0.1,1.1,0.4,1.3,1.2c0,0,0,0.1,0,0.1c0.2,0.9,0.4,1.8,0.6,2.7c0.2,0.9,0,1.4-0.4,1.7l13,46.8l1.4-0.4c0.4-0.1,0.9,0.1,1,0.6  	C86.7,95.7,86.4,96.1,86,96.3z M19.6,48c0.4,0.7,0.9,1.4,1.5,1.8c0.7,0.5,1.5,0.6,2.3,0.7c1.4,0.2,2.7,0.4,4.1,0.5  	c0.5-1.5,1.1-2.9,1.8-4.2c0.7-1.6,1.4-3.1,1.9-4.7l3.6-11.6c0.7-2.2,1.4-4.6,2.8-6.6c0.6-0.9,1.4-1.7,2.2-2.4c-1,0-2,0.3-3,0.7  	c-1.9-0.2-3.7-0.5-5.6-0.4c-1.4,0-2.9,0.2-4.3,0.5c-0.3,0.1-0.7,0.1-0.9,0.3c-0.3,0.2-0.4,0.5-0.5,0.9c-0.7,1.8-1.4,3.6-2.2,5.4  	C23.2,29.3,23,29.6,23,30c0,0.4,0.3,0.8,0.4,1.2c0.5,1.5-1.2,4.1-1.9,5.4c-1.3,2.3-2.5,4.6-3.7,7c-0.2,0.3-0.3,0.7-0.3,1  	c0,0.3,0.2,0.6,0.4,0.9C18.5,46.3,19.1,47.2,19.6,48z"/>  </svg>