<?xml version="1.0" standalone="no"?>
			<!DOCTYPE svg PUBLIC "-//W3C//DTD SVG 1.1//EN" "http://www.w3.org/Graphics/SVG/1.1/DTD/svg11.dtd"><svg xmlns="http://www.w3.org/2000/svg" xmlns:xlink="http://www.w3.org/1999/xlink" version="1.1" fill="#FFF" width="100" height="100" viewBox="0 0 100 100" xml:space="preserve">  <path class="st0" d="M11,51.8c-4.6,0-8.9-2.9-10.5-7.5c-2-5.8,1.1-12,6.9-14L85.4,4c5.8-2,12,1.1,14,6.9c2,5.8-1.1,12-6.9,14  	L14.6,51.2C13.4,51.6,12.2,51.8,11,51.8z M95.8,25.2V94c0,1.4-1.1,2.5-2.5,2.5s-2.5-1.1-2.5-2.5v-7.7H75.8V94c0,1.4-1.1,2.5-2.5,2.5  	s-2.5-1.1-2.5-2.5v-60l5.1-1.7v5.3h14.9V27.3l2.4-0.8C94,26.2,94.9,25.7,95.8,25.2z M90.7,71.8H75.8v9.4h14.9V71.8z M90.7,57.3H75.8  	v9.4h14.9V57.3z M90.7,42.7H75.8v9.4h14.9V42.7z M60.2,47.9c-0.5-0.3-1-0.5-1.5-0.7l-13.4-4.5L15.1,52.9c-1.3,0.4-2.7,0.7-4.1,0.7  	c-0.6,0-1.3-0.1-1.9-0.2c0,0.2,0.1,0.3,0.1,0.5l14.5,4.9l29.8-10.1c2.2-0.7,4.5-0.8,6.7-0.3C60.3,48.2,60.2,48,60.2,47.9z  	 M61.3,71.2L14.6,87c-1.2,0.4-2.4,0.6-3.5,0.6c-4.6,0-8.9-2.9-10.5-7.5c-2-5.8,1.1-12,6.9-14l46.7-15.8c5.8-2,12,1.1,14,6.9  	C70.1,63,67,69.2,61.3,71.2z M63.8,55.8c-0.9-2.7-3.8-4.1-6.5-3.2L8.7,69c-0.2,0.1-0.4,0.2-0.5,0.2c-0.1,0-0.2,0.1-0.4,0.2  	c0,0,0,0-0.1,0c-2.6,1.3-4.5,3.9-4.5,7c0,4.3,3.5,7.8,7.8,7.8c2.1,0,4.1-0.8,5.6-2.3c0.7-0.7,1.3-1.6,1.7-2.5  	c0.4-0.9,0.5-1.9,1.1-2.7c0.5-0.7,1.2-1,2-1.3c4.2-1.4,14.8-5,18.9-6.4c4.2-1.4,8.5-2.9,12.7-4.3c2.4-0.8,4.9-1.6,7.3-2.5  	c0.1,0,0.2-0.1,0.3-0.1C63.3,61.3,64.7,58.4,63.8,55.8z M68.5,94.7c-1.6-1.1-3.4-1.6-5.4-2c-1.4-0.3-2.7-1-3-2.6  	c-0.2-0.7-0.1-1.4,0.3-2.2c1-1.7,2.4-1.7,3.6-1.4c0.9,0.2,2.5,1,1.3-1.3c-0.7-1.3-2.2-2.9-6.8-2.5c-4.7,0.4-10.2,5.4-13.5,8.9  	c-2,2.1-5.8,1.3-6.5-1.5c-0.2-0.7-0.1-1.4,0.3-2.2c1-1.7,2.4-1.7,3.6-1.4c0.9,0.2,2.3,0.6,1.3-1.3c-0.7-1.3-2.2-2.9-6.8-2.5  	c-4.7,0.4-10.2,5.4-13.5,8.9c-2,2.1-5.8,1.3-6.5-1.5c-0.2-0.7-0.1-1.4,0.3-2.2l-1.8,0.6c-1.3,0.4-2.7,0.7-4.1,0.7  	c-2.1,0-4-0.5-5.8-1.4c-0.4,0.4-0.7,0.7-1.1,1.1c-4,4.7-4,7.6-4,7.6h70.1v-0.2C69.8,95.7,69.1,95.1,68.5,94.7z"/>  </svg>