<?xml version="1.0" standalone="no"?>
			<!DOCTYPE svg PUBLIC "-//W3C//DTD SVG 1.1//EN" "http://www.w3.org/Graphics/SVG/1.1/DTD/svg11.dtd"><svg xmlns="http://www.w3.org/2000/svg" xmlns:xlink="http://www.w3.org/1999/xlink" version="1.1" fill="#FFF" width="100" height="100" viewBox="0 0 100 100" xml:space="preserve">  <path class="st0" d="M45,61.9H23.8c-2.5,0-4.5-4.5-4.5-4.5v0c0,0,2-4.5,4.5-4.5H45c2.5,0,4.5,4.5,4.5,4.5v0  	C49.4,57.5,47.4,61.9,45,61.9z M46,46.8L46,46.8c0,0-2-4.5-4.5-4.5H28.3c-2.5,0-4.5,4.5-4.5,4.5v0c0,0,2,4.5,4.5,4.5h13.2  	C44,51.2,46,46.8,46,46.8z M74.9,20.4c0.6,2,0.9,4.2,0.7,6.4c-0.7,8.4-7.6,15.3-16,16c-2.3,0.2-4.4-0.1-6.5-0.7  	c-0.5-0.1-0.8,0.4-0.5,0.8c3.4,4,8.7,6.3,14.5,5.6c7.3-0.9,13.2-6.8,14.1-14.1c0.7-5.8-1.6-11.1-5.6-14.5  	C75.3,19.6,74.7,20,74.9,20.4z M71.2,25.8l-1.3,0.7l0.4,1.5l-1.5-0.4l-0.7,1.3l-0.7-1.3L65.9,28l0.4-1.5L65,25.8l1.3-0.7l-0.4-1.5  	l1.5,0.4l0.7-1.3l0.7,1.3l1.5-0.4l-0.4,1.5L71.2,25.8z M63.1,38.7l-1.5-0.6l-0.9,1.4L60,37.9l-1.6,0.3l0.6-1.5l-1.4-0.9l1.5-0.6  	l-0.3-1.6l1.5,0.6l0.9-1.4l0.6,1.5l1.6-0.3l-0.6,1.5l1.4,0.9l-1.5,0.6L63.1,38.7z M60,25.6l-1.3,0.7l0.4,1.4l-1.4-0.4l-0.7,1.3  	l-0.7-1.3L55,27.7l0.4-1.4l-1.3-0.7l1.3-0.7L55,23.6l1.4,0.4l0.7-1.3l0.7,1.3l1.4-0.4L58.7,25L60,25.6z M100,50  	c0-27.6-22.4-50-50-50S0,22.4,0,50s22.4,50,50,50S100,77.6,100,50z M94.7,50c0,24.7-20.1,44.7-44.7,44.7S5.3,74.7,5.3,50  	S25.3,5.3,50,5.3S94.7,25.3,94.7,50z M50,90.5c16.8,0,31.2-10.3,37.4-24.9c-0.2-1-1-1.7-2.1-1.7c-1.2,0-2.1,1-2.1,2.1v0.6  	C81.7,65,79.5,64,77,64H23.8c-2.5,0-4.8,1.1-6.3,2.9V53.7c0-1.2-1-2.1-2.1-2.1c-1.2,0-2.1,1-2.1,2.1c0,0,0,6.3,0,13.2  	C19.6,80.8,33.7,90.5,50,90.5z"/>  </svg>