<?xml version="1.0" standalone="no"?>
			<!DOCTYPE svg PUBLIC "-//W3C//DTD SVG 1.1//EN" "http://www.w3.org/Graphics/SVG/1.1/DTD/svg11.dtd"><svg xmlns="http://www.w3.org/2000/svg" xmlns:xlink="http://www.w3.org/1999/xlink" version="1.1" fill="#FFF" width="100" height="100" viewBox="0 0 100 100" xml:space="preserve">  <path class="st0" d="M100,66.7v24c0,1.6-1.3,2.9-2.9,2.9s-2.9-1.3-2.9-2.9v-6.4H5.8v6.4c0,1.6-1.3,2.9-2.9,2.9S0,92.3,0,90.7V50  	c0-1.6,1.3-2.9,2.9-2.9s2.9,1.3,2.9,2.9v17.7c2.1-2.4,5.1-3.9,8.5-3.9h71.7c3.3,0,6.3,1.4,8.3,3.7v-0.8c0-1.6,1.3-2.9,2.9-2.9  	S100,65.1,100,66.7z M14.3,61.1h28.5c3.3,0,6-6,6-6s-2.7-6-6-6H14.3c-3.3,0-6,6-6,6S11,61.1,14.3,61.1z M64.7,27l-2,0.8l1.8,1.2  	l-0.8,2l2.1-0.4l0.8,2l1.2-1.8l2,0.8l-0.4-2.1l2-0.8l-1.8-1.2l0.8-2l-2.1,0.4l-0.8-2l-1.2,1.8l-2-0.8L64.7,27z M74.3,15.4l-0.6,1.9  	l1.9-0.6l1,1.8l1-1.8l1.9,0.6L79,15.4l1.8-1l-1.8-1l0.6-1.9l-1.9,0.6l-1-1.8l-1,1.8l-1.9-0.6l0.6,1.9l-1.8,1L74.3,15.4z M59.7,15.2  	L59.2,17l1.8-0.5l0.9,1.7l0.9-1.7l1.8,0.5l-0.5-1.8l1.7-0.9l-1.7-0.9l0.5-1.8l-1.8,0.5l-0.9-1.7L61,12.1l-1.8-0.5l0.5,1.8L58,14.3  	L59.7,15.2z M75.3,44.9C85.1,43.7,93,35.8,94.2,26c1-7.8-2.1-14.9-7.5-19.4c-0.5-0.4-1.2,0.1-1,0.7c0.8,2.7,1.2,5.6,0.9,8.6  	c-0.9,11.3-10.1,20.5-21.4,21.4c-3,0.2-5.9-0.1-8.6-0.9c-0.6-0.2-1.1,0.5-0.7,1C60.5,42.7,67.6,45.9,75.3,44.9z"/>  </svg>