<?xml version="1.0" standalone="no"?>
			<!DOCTYPE svg PUBLIC "-//W3C//DTD SVG 1.1//EN" "http://www.w3.org/Graphics/SVG/1.1/DTD/svg11.dtd"><svg xmlns="http://www.w3.org/2000/svg" xmlns:xlink="http://www.w3.org/1999/xlink" version="1.1" fill="#FFF" width="100" height="100" viewBox="0 0 100 100" xml:space="preserve">  <path class="st0" d="M73.2,18.8c-0.7-0.7-0.7-1.8,0-2.5c0.7-0.7,1.8-0.7,2.5,0c0.7,0.7,0.7,1.8,0,2.5C75,19.5,73.9,19.5,73.2,18.8z  	 M73.1,26.8C72,28,72,29.9,73.2,31.1c1.2,1.2,3.1,1.1,4.3-0.1c1.2-1.2,1.1-3.1-0.1-4.3C76.2,25.5,74.3,25.6,73.1,26.8z M92.6,31.2  	c-0.2,0.3-0.5,0.6-0.8,0.7l-11.6,3.7L80.1,43c0,3.6-1.7,6.5-3.9,6.9l-0.1,11.6l1.8,0c0.5,0,0.8,1.5,0.5,1.9c0,0,0,0,0,0  	c-0.9,1.5-1.3,3.2-1.3,4.9l0.4,27.4c0,2.4-1.3,4.3-3,4.3c-1.6,0-2.9-2-2.9-4.4l0.8-27.4c0.1-1.7-0.4-3.4-1.2-4.9c0,0,0,0,0,0  	c-0.2-0.4,0.1-1.9,0.6-1.9l1.8,0l0.1-11.6c-2.2-0.5-3.8-3.4-3.8-7l0-4.1l-7.3,2.3c-0.1,0-0.3,0.1-0.4,0.1c-0.2,0-0.4-0.1-0.6-0.2  	c-0.3-0.2-0.6-0.5-0.7-0.8l-0.7-2.1c-0.1-0.4-0.1-0.8,0.2-1.2c0.2-0.4,0.6-0.6,1-0.6c0.1,0,0.2,0,0.3-0.1c0.4-0.1,0.7-0.4,0.9-0.8  	c0.2-0.4,0.2-0.8,0.1-1.2c-0.1-0.4-0.4-0.7-0.7-0.9c-0.4-0.2-0.8-0.2-1.2-0.1c-0.1,0-0.2,0.1-0.3,0.1c-0.4,0.2-0.8,0.2-1.2,0.1  	c-0.4-0.2-0.7-0.5-0.8-0.9l-6.8-21.5c-0.1-0.4-0.1-0.7,0.1-1.1c0.2-0.3,0.5-0.6,0.8-0.7L56.6,8c0.7-0.2,1.5,0.2,1.8,0.9  	c0.3,1.1,1.5,1.7,2.6,1.3c0.5-0.2,1-0.5,1.2-1c0.3-0.5,0.3-1,0.1-1.6c-0.1-0.4-0.1-0.7,0.1-1.1c0.2-0.3,0.5-0.6,0.8-0.7l18.4-5.8  	c0.7-0.2,1.5,0.2,1.8,0.9l9.2,29.1C92.8,30.5,92.7,30.8,92.6,31.2z M73.8,40.4l0-2.8l-1.7,0.5l0,2.3c0,0.8,0.4,1.4,0.8,1.4  	C73.4,41.7,73.8,41.1,73.8,40.4z M77.9,36.3l-1.7,0.5l0,3.6c0,0.8,0.4,1.4,0.8,1.4c0.5,0,0.9-0.6,0.9-1.4L77.9,36.3z M89.5,29.6  	l-0.9-2.8c-0.1,0-0.2,0.1-0.3,0.1c-1.9,0.6-3.9-0.4-4.5-2.3c-0.6-1.9,0.4-3.9,2.3-4.5c0.1,0,0.2,0,0.3-0.1L81.1,3.2l-3.6,1.1  	c0.4,0.4,0.8,0.9,0.9,1.5c0.2,0.6,0.2,1.2,0.1,1.7c0.9-0.1,1.7,0.4,2,1.3c0.3,1-0.2,2.1-1.3,2.4c-1,0.3-2.1-0.2-2.4-1.3  	c0-0.1,0-0.1,0-0.2c-0.2,0.1-0.4,0.2-0.6,0.2c-1.8,0.6-3.7-0.4-4.3-2.2c-0.2-0.6-0.2-1.2-0.1-1.7l-6.7,2.1c0,0.8-0.2,1.6-0.5,2.3  	c-0.6,1.2-1.6,2-2.9,2.4c-2.1,0.7-4.3-0.2-5.5-1.9l-1.7,0.5l6,18.9c0.2,0,0.3,0,0.5,0c0.7,0,1.4,0.2,2,0.5c1,0.5,1.8,1.4,2.1,2.5  	s0.2,2.3-0.3,3.3c-0.2,0.3-0.3,0.6-0.6,0.8L89.5,29.6z M62.3,18.5c-1.6,1.7-1.6,4.3,0.1,5.9c1.7,1.6,4.3,1.6,5.9-0.1  	c1.6-1.7,1.6-4.3-0.1-5.9C66.5,16.8,63.9,16.9,62.3,18.5z M30,65.9v19.4c0,4.6,2.9,8.7,7.3,10.2c0.1,0,0.1,0,0.2,0.1  	c6.6,2.1,9,1.7,9,4.4c0,0.1-31.7,0-35.5,0c-0.2,0-0.4-0.2-0.3-0.4c0.5-2.3,2.7-2,9-4.1c0.1,0,0.1,0,0.2-0.1  	c4.4-1.5,7.3-5.6,7.3-10.2V65.9c0.2-2.2-2.1-3.8-4-4.9c-1.6-0.9-3.2-1.7-4.9-2.5c-3.2-1.6-6.3-3.4-8.2-6.3C6.5,46.8,7,39.7,8.2,33.4  	c1.3-6.6,3.3-13,5.9-19.2c0.1-0.1,0.1-0.3,0.2-0.4h0.1c0.7-0.9,6.8-1.5,14.3-1.5c7.4,0,13.6,0.7,14.3,1.5H43  	c0.1,0.1,0.1,0.3,0.2,0.4c2.7,6.2,4.6,12.6,5.9,19.2c1.2,6.4,1.7,13.4-1.9,18.8c-1.9,2.9-5,4.6-8.1,6.2c-1.7,0.9-3.4,1.7-5.1,2.6  	C32.1,62,29.9,63.6,30,65.9z M47.5,42c0.1-2.8-0.2-5.7-0.8-8.5c-1.1-5.8-2.9-11.6-5.3-17c0-0.1-0.1-0.2-0.2-0.4h-0.1  	c-0.6-0.8-6.1-1.4-12.7-1.4c-6.6,0-12,0.6-12.7,1.4h-0.1c-0.1,0.1-0.1,0.2-0.2,0.4c-2.4,5.5-4.1,11.2-5.3,17  	C10,36.3,9.6,39.2,9.8,42H47.5z"/>  </svg>