<?xml version="1.0" standalone="no"?>
			<!DOCTYPE svg PUBLIC "-//W3C//DTD SVG 1.1//EN" "http://www.w3.org/Graphics/SVG/1.1/DTD/svg11.dtd"><svg xmlns="http://www.w3.org/2000/svg" xmlns:xlink="http://www.w3.org/1999/xlink" version="1.1" fill="#FFF" width="100" height="100" viewBox="0 0 100 100" xml:space="preserve">  <path class="st0" d="M54.2,47.1h23.6c3,0,5.4-2.4,5.4-5.4V27.8c0-3-2.4-5.4-5.4-5.4H54.2c-3,0-5.4,2.4-5.4,5.4v13.9  	C48.8,44.7,51.2,47.1,54.2,47.1z M52.4,29.2c0-1.5,1.3-2.8,3-2.8h21.3c1.6,0,3,1.3,3,2.8v6.6c0,1.5-1.3,2.8-3,2.8H55.4  	c-1.6,0-3-1.3-3-2.8V29.2z M27.7,47.1H15.8v-0.3c0-2.7,2.2-5,5-5h1.9c2.7,0,5,2.2,5,5C27.7,46.8,27.7,47.1,27.7,47.1z M28.4,28.9  	c0-1.1,0.9-1.9,1.9-1.9H41c1.1,0,1.9,0.9,1.9,1.9c0,1.1-0.9,1.9-1.9,1.9H30.4C29.3,30.9,28.4,30,28.4,28.9z M55.1,14.2V1.9  	c0-1,0.8-1.9,1.9-1.9s2,0.9,2,1.9v12.3c0,1.1-0.9,1.9-1.9,1.9C55.9,16.2,55.1,15.3,55.1,14.2z M33.7,9.9c-0.8-0.7-1-1.9-0.3-2.7  	s1.9-1,2.7-0.3l10.8,8.6c0.8,0.7,1,1.9,0.3,2.7c-0.4,0.5-1,0.7-1.5,0.7c-0.4,0-0.8-0.1-1.2-0.4L33.7,9.9z M68.9,16.2  	c-0.9-0.6-1.1-1.8-0.5-2.7L74.9,4c0.6-0.9,1.8-1.1,2.7-0.5c0.9,0.6,1.1,1.8,0.5,2.7l-6.5,9.5c-0.4,0.6-1,0.8-1.6,0.8  	C69.6,16.6,69.2,16.5,68.9,16.2z M36.4,53.8v41.4c0,2.6-2.2,4.8-4.8,4.8H11.8C9.2,100,7,97.8,7,95.2V53.8c0-2.6,2.2-4.8,4.8-4.8  	h19.9C34.3,49,36.4,51.2,36.4,53.8z M85.9,49H36.5c1.1,1.2,1.9,2.8,1.9,4.5v41.9c0,1.8-0.7,3.4-1.9,4.5h49.3c3.9,0,7.1-3.2,7.1-7.1  	V56.1C93,52.2,89.8,49,85.9,49z M44.8,57.3c0-1.9,1.5-3.5,3.5-3.5c1.9,0,3.5,1.5,3.5,3.5c0,1.9-1.5,3.5-3.5,3.5S44.8,59.2,44.8,57.3  	z M66,90.7c-8.7,0-15.8-7.1-15.8-15.8S57.3,59.2,66,59.2S81.8,66.3,81.8,75S74.7,90.7,66,90.7z"/>  </svg>