<?xml version="1.0" standalone="no"?>
			<!DOCTYPE svg PUBLIC "-//W3C//DTD SVG 1.1//EN" "http://www.w3.org/Graphics/SVG/1.1/DTD/svg11.dtd"><svg xmlns="http://www.w3.org/2000/svg" xmlns:xlink="http://www.w3.org/1999/xlink" version="1.1" fill="#FFF" width="100" height="100" viewBox="0 0 100 100" xml:space="preserve">  <path class="st0" d="M31.2,40.2c-0.3,0-0.6-0.1-0.8-0.4c-0.4-0.5-0.4-1.2,0.1-1.6c0.5-0.5,1.1-0.9,1.7-1.2c0.5-0.3,1.2-0.1,1.5,0.4  	c0.3,0.5,0.1,1.2-0.4,1.5c-0.4,0.2-0.9,0.5-1.2,0.9C31.7,40.1,31.5,40.2,31.2,40.2z M40.3,87.7l-0.3,0c-1.1,0-2.2,0.1-3.3,0.1  	c-0.6,0-1.1,0.6-1.1,1.2c0,0.6,0.5,1.1,1.1,1.1c0,0,0,0,0.1,0C37.8,90,38.9,90,40,90l0.3,0c0.6,0,1.1-0.5,1.1-1.2  	C41.4,88.2,41,87.7,40.3,87.7z M23.9,88.5l-0.8,0c-0.8,0-1.8,0-2.8-0.1c-0.6-0.1-1.1,0.5-1.2,1.1c0,0.6,0.5,1.2,1.1,1.2  	c0.9,0,1.9,0.1,2.8,0.1c0,0,0.1,0,0.1,0l0.8,0c0.6,0,1.1-0.5,1.1-1.1C25,89,24.5,88.4,23.9,88.5z M32,88.1c-1.2,0.1-2.4,0.1-3.6,0.2  	c-0.6,0-1.1,0.6-1.1,1.2c0,0.6,0.5,1.1,1.1,1.1c0,0,0,0,0.1,0c1.2-0.1,2.4-0.1,3.7-0.2c0.6,0,1.1-0.6,1.1-1.2  	C33.2,88.5,32.7,88.1,32,88.1z M17.8,60.5c-0.3-0.6-1-0.8-1.5-0.5c-0.5,0.3-0.8,1-0.5,1.5c0.1,0.2,0.2,0.4,0.4,0.7  	c0.5,0.8,0.8,1.6,0.8,2.3c0,0.6,0.5,1.1,1.1,1.1c0,0,0.1,0,0.1,0c0.6,0,1.1-0.6,1-1.2c-0.1-1.1-0.5-2.2-1.1-3.3  	C18,60.9,17.9,60.7,17.8,60.5z M12.2,68.5c-0.6,0.2-0.9,0.8-0.7,1.4c0.2,0.5,0.6,0.8,1.1,0.8c0.1,0,0.2,0,0.3-0.1  	c0.6-0.2,1.1-0.4,1.6-0.5c0.8-0.3,1.5-0.6,2.1-0.9c0.5-0.3,0.7-1,0.4-1.6c-0.3-0.5-1-0.7-1.5-0.4c-0.5,0.3-1,0.5-1.6,0.7  	C13.2,68.2,12.7,68.3,12.2,68.5z M3.4,78.4c0-0.5,0.1-0.9,0.2-1.4c0.2-0.6-0.2-1.2-0.8-1.4c-0.6-0.2-1.2,0.2-1.4,0.8  	c-0.2,0.6-0.3,1.3-0.3,2c0,0.8,0.1,1.5,0.4,2.3c0.2,0.5,0.6,0.8,1.1,0.8c0.1,0,0.2,0,0.3-0.1c0.6-0.2,0.9-0.8,0.7-1.4  	C3.5,79.5,3.4,78.9,3.4,78.4z M8.5,85.5c-1-0.6-1.9-1.4-2.7-2.1c-0.4-0.4-1.1-0.4-1.6,0c-0.4,0.4-0.4,1.2,0,1.6  	c0.9,0.9,1.9,1.7,3.1,2.4c0.2,0.1,0.4,0.2,0.6,0.2c0.4,0,0.7-0.2,0.9-0.5C9.2,86.6,9.1,85.9,8.5,85.5z M7.8,70.1  	c-1.4,0.6-2.5,1.3-3.4,2c-0.5,0.4-0.6,1.1-0.2,1.6c0.2,0.3,0.5,0.4,0.9,0.4c0.2,0,0.5-0.1,0.7-0.2c0.8-0.6,1.7-1.2,2.9-1.7  	c0.6-0.3,0.8-0.9,0.6-1.5C9,70.1,8.3,69.8,7.8,70.1z M15.8,88c-0.7-0.1-1.4-0.2-2.1-0.3c-0.4-0.1-0.8-0.2-1.3-0.3  	c-0.6-0.2-1.2,0.1-1.4,0.7c-0.2,0.6,0.1,1.2,0.7,1.4c0.5,0.2,1.1,0.3,1.6,0.4c0.7,0.1,1.5,0.3,2.2,0.4c0.1,0,0.1,0,0.1,0  	c0.6,0,1-0.4,1.1-1C16.8,88.7,16.4,88.1,15.8,88z M16.9,52.6c-1.2,1-2,2.3-2.2,3.8c-0.1,0.6,0.3,1.2,0.9,1.3c0.1,0,0.1,0,0.2,0  	c0.5,0,1-0.4,1.1-1c0.1-0.9,0.6-1.7,1.4-2.4c0.5-0.4,0.5-1.1,0.1-1.6C18.1,52.3,17.4,52.2,16.9,52.6z M81,93.4  	c-1.1,0-2.3-0.1-3.6-0.3c-0.6-0.1-1.2,0.4-1.2,1c-0.1,0.6,0.4,1.2,1,1.3c1.3,0.2,2.6,0.2,3.7,0.3c0,0,0,0,0,0c0.6,0,1.1-0.5,1.1-1.1  	C82.1,93.9,81.6,93.4,81,93.4z M28,47.7c0.4,0,0.8-0.2,1-0.7c0.1-0.2,0.2-0.4,0.2-0.6c0.2-0.6,0.3-1.1,0.3-1.6  	c0-0.2,0.1-0.4,0.1-0.6c0.1-0.3,0.1-0.6,0.2-0.9c0.2-0.6-0.2-1.2-0.7-1.4c-0.6-0.2-1.2,0.2-1.4,0.8c-0.1,0.4-0.2,0.8-0.3,1.2  	c0,0.2-0.1,0.5-0.1,0.7c-0.1,0.4-0.1,0.8-0.2,1.2c0,0.1-0.1,0.2-0.1,0.3c-0.3,0.6,0,1.2,0.5,1.5C27.7,47.6,27.8,47.7,28,47.7z  	 M48.6,87.9c-1.2-0.1-2.5-0.1-3.7-0.2c-0.5,0-1.1,0.5-1.1,1.1c0,0.6,0.5,1.1,1.1,1.2c1.2,0,2.4,0.1,3.6,0.2c0,0,0.1,0,0.1,0  	c0.6,0,1.1-0.5,1.1-1.1C49.7,88.4,49.2,87.9,48.6,87.9z M88.9,92.7c-1.1,0.3-2.3,0.5-3.5,0.6c-0.6,0.1-1.1,0.6-1,1.2  	c0.1,0.6,0.5,1,1.1,1c0,0,0.1,0,0.1,0c1.3-0.1,2.5-0.4,3.7-0.7c0.6-0.1,1-0.8,0.8-1.4C90.1,92.9,89.5,92.5,88.9,92.7z M96.1,89.6  	c-0.9,0.6-2,1.2-3.1,1.7c-0.6,0.3-0.8,0.9-0.6,1.5c0.2,0.4,0.6,0.7,1,0.7c0.2,0,0.3,0,0.5-0.1c1.2-0.5,2.3-1.2,3.4-1.9  	c0.5-0.3,0.7-1,0.3-1.6C97.3,89.4,96.6,89.2,96.1,89.6z M21.7,52.8c0.1,0,0.2,0,0.3,0c1.3-0.4,2.5-1,3.6-1.8  	c0.5-0.4,0.6-1.1,0.2-1.6c-0.4-0.5-1.1-0.6-1.6-0.2c-0.9,0.7-1.9,1.2-2.9,1.5c-0.6,0.2-0.9,0.8-0.7,1.4  	C20.8,52.4,21.3,52.8,21.7,52.8z M73,92.4c-1.2-0.2-2.4-0.5-3.5-0.8c-0.6-0.1-1.2,0.2-1.3,0.8c-0.1,0.6,0.2,1.2,0.8,1.4  	c1.2,0.3,2.4,0.5,3.6,0.8c0.1,0,0.1,0,0.2,0c0.5,0,1-0.4,1.1-0.9C74,93.1,73.6,92.5,73,92.4z M56.9,88.8c-1.2-0.2-2.4-0.4-3.7-0.5  	c-0.6-0.1-1.2,0.4-1.2,1c-0.1,0.6,0.4,1.2,1,1.3c1.2,0.1,2.4,0.3,3.6,0.5c0.1,0,0.1,0,0.2,0c0.5,0,1-0.4,1.1-0.9  	C57.9,89.5,57.5,88.9,56.9,88.8z M65,90.6l-0.4-0.1c-1.1-0.3-2.1-0.5-3.2-0.8c-0.6-0.1-1.2,0.3-1.3,0.9c-0.1,0.6,0.2,1.2,0.9,1.3  	c1,0.2,2.1,0.5,3.1,0.7l0.4,0.1c0.1,0,0.2,0,0.3,0c0.5,0,1-0.3,1.1-0.9C66,91.3,65.7,90.7,65,90.6z M100,72.8c0.1,3-0.7,6.3-3,8.4  	c-2.6,2.3-5.9,4-9.2,5.1c-6.6,2.1-13.5-0.4-20.1-2.3c-10.6-2.9-21.5-4-32.4-3.3c-5.8,0.4-12.6,1.9-18.1-0.4  	c-0.4-0.2-0.8-0.4-0.8-0.9c0-0.2,0.1-0.4,0.3-0.6c4.9-7,8.6-15.2,12.3-22.9c2.4-5,4.7-10.3,5.5-15.8l0.1-0.5  	c0.1-0.8,0.2-1.6,0.5-2.4c0.7-2.6,2.8-6.2,4.9-8c-3.4,1-5.8,4.3-8.4,6.6c-4,3.7-8.2,7.5-12.5,11.1c-0.9,0.8-1.9,1.6-2.8,2.3  	C11.9,52.8,7.5,56.4,4.7,61c-0.7,1.2-1.4,2.4-2.1,3.6c-0.3,0.4-1.1,2.4-1.4,2.5c-0.5,0.2-0.9-0.4-0.9-1c-0.5-3.2,0.1-6.9,2-9.5  	c3.1-4.2,7.2-7.6,11.1-10.8c0.9-0.8,1.9-1.5,2.8-2.3c4.2-3.6,8.3-7.3,12.3-11c2-1.9,4.1-3.7,6.2-5.6c0.6-0.6,1.3-1.2,2.3-1.7  	c1.2-0.6,2.5-0.8,3.7-0.9V3.9c0-0.9,0.7-1.6,1.6-1.6c0.8,0,1.5,0.6,1.5,1.4c0.3,0,0.5,0,0.8,0c1,0,1.9-0.1,3,0  	c2.1,0.1,3.9,0.9,5.6,1.7c1.6,0.8,2.9,0.9,4.1,0.9h4.4c0.6,0,1.1,0.5,1.1,1.1v10.8c0,0.6-0.5,1.1-1.1,1.1c-0.6,0-1.2,0-1.8,0.1  	c-0.7,0-1.4,0.1-2,0.1c-1.1,0-2.3-0.1-3.4-0.4c-1-0.3-1.9-0.7-2.7-1.1c-0.9-0.4-1.7-0.9-2.6-1.1c-0.4-0.1-0.7-0.1-1.2-0.2  	c-1.1-0.1-2.1,0-3.2,0c-0.3,0-0.7,0-1,0v7.4c1.7,0,3.4,0.3,4.5,1.9c0.4,0.5,0.7,1,1.1,1.5c5.5,6.1,11.9,10.4,18.1,14.6l19.7,13.3  	c3.7,2.5,8.6,5.2,11.4,8.7c1,1.3,1.3,3,1.4,4.7C100,70.2,100,71.6,100,72.8z M43.8,10.4c1.4,0,2.8-0.1,4.2,0  	c1.9,0.1,3.1,0.6,4.6,1.6c1.1,0.7,2.1,1,3.4,1c1.5,0,3,0,4.5,0V8.6h-3.3c-1.4,0-3.1-0.1-5.1-1.1c-1.4-0.7-3-1.4-4.7-1.5  	c-1-0.1-1.9,0-2.8,0c-0.3,0-0.5,0-0.8,0V10.4z M86.4,60.4c-0.6-0.4-1.1-0.8-1.7-1.2L64.9,45.8c-5.4-3.7-10.9-7.4-15.6-11.9  	c-1.1-1.1-2.1-2.4-3.1-3.5c-1.2-1.3-1.4-0.7-2.4,0.7c-1.7,2.3-3.7,4.6-4.5,7.4c-0.2,0.6-0.2,1.2-0.3,1.8l-0.1,0.5  	c-0.3,2.2-0.9,4.3-1.5,6.4c2,5.3,6.7,9.4,11.9,10c0.4,0,0.8,0.1,1.1-0.2c0.6-0.4,0.6-1.4,0.4-2.2c-0.2-0.8-0.7-1.5-0.6-2.3  	c0.1-1.2,1.2-2,2.3-2.1c1.1,0,2.1,0.5,3,1c4.6,2.7,8.8,6.1,13.5,8.3c0.7,0.3,1.4,0.6,2.1,0.5c0.7-0.1,1.4-0.7,1.5-1.5  	c0.1-0.9-0.5-2.1,0.2-2.4c0.2-0.1,0.5,0,0.7,0.1c2.7,1.1,5.1,3.1,8,3.7C83.1,60.6,84.8,60.5,86.4,60.4z"/>  </svg>