<?xml version="1.0" standalone="no"?>
			<!DOCTYPE svg PUBLIC "-//W3C//DTD SVG 1.1//EN" "http://www.w3.org/Graphics/SVG/1.1/DTD/svg11.dtd"><svg xmlns="http://www.w3.org/2000/svg" xmlns:xlink="http://www.w3.org/1999/xlink" version="1.1" fill="#FFF" width="100" height="100" viewBox="0 0 100 100" xml:space="preserve">  <path class="st0" d="M67.5,19.3c-11.6,0-23.3,0-35,0c-4.2,0-6.3,2.2-6.3,6.4c0,5.8,0,11.5,0,17.4c0,5.8,0,11.7,0,17.5  	c0,4,2.2,6.2,6.1,6.2c11.8,0,23.5,0,35.2,0c4.1,0,6.3-2.2,6.3-6.3c0-11.7,0-23.3,0-35C73.8,21.5,71.6,19.3,67.5,19.3z M50,33.8  	c5,0,9.2,4.3,9.1,9.2c0,5.1-4.3,9.3-9.3,9.2c-5-0.1-9.2-4.3-9.1-9.3C40.9,37.9,45.1,33.8,50,33.8z M68.4,58.5c0,2.2-0.6,2.8-2.8,2.8  	c-5.2,0-10.4,0-15.6,0c-5.1,0-10.3,0-15.5,0c-2.2,0-2.8-0.6-2.8-2.8c0-5.7,0-11.5-0.1-17.3c0-1.6,0.5-2,2-1.9c2.2,0.1,2.2,0.1,2,2.2  	c-0.8,7.4,4.2,14.5,11.5,15.9c7.5,1.4,14.9-3,17-10.2c0.6-2.2,0.8-4.6,0.3-6.8c-0.2-0.8,0-1,0.8-1c3.3-0.2,3.3-0.3,3.3,3.1  	C68.4,47.8,68.4,53.2,68.4,58.5z M63.7,34c-4.7,0-4.7,0-4.7-4.7c0-4.7,0-4.7,4.6-4.7c4.7,0,4.7,0,4.7,4.7C68.4,34,68.4,34,63.7,34z  	 M22.4,51.4c0-5.7-5-10.4-11.2-10.4C5,41,0,45.7,0,51.4c0,0.1,0,0.2,0,0.3c0,0.2,0,0.4,0,0.6C0,59.1,8.6,74.5,10.7,78  	c0.2,0.3,0.7,0.3,1,0c2.1-3.5,10.7-18.9,10.7-25.7c0-0.2,0-0.4,0-0.6C22.4,51.6,22.4,51.5,22.4,51.4z M11.2,59c-3.8,0-7-3.1-7-7  	c0-3.8,3.1-7,7-7c3.8,0,7,3.1,7,7C18.2,55.9,15.1,59,11.2,59z M100,22.5c0-5.7-5-10.4-11.2-10.4c-6.2,0-11.2,4.6-11.2,10.4  	c0,0.1,0,0.2,0,0.3c0,0.2,0,0.4,0,0.6c0,6.8,8.6,22.2,10.7,25.7c0.2,0.3,0.7,0.3,1,0c2.1-3.5,10.7-18.9,10.7-25.7c0-0.2,0-0.4,0-0.6  	C100,22.7,100,22.6,100,22.5z M88.8,30.2c-3.8,0-7-3.1-7-7c0-3.8,3.1-7,7-7c3.8,0,7,3.1,7,7C95.7,27.1,92.6,30.2,88.8,30.2z  	 M41.2,18.1c-0.6,0-1.2-0.4-1.4-1c-0.3-0.8,0.1-1.7,0.9-2c1-0.4,2-0.8,3-1.1c0.8-0.3,1.7,0.1,2,0.9c0.3,0.8-0.1,1.7-0.9,2  	c-0.9,0.3-1.9,0.7-2.8,1.1C41.6,18,41.4,18.1,41.2,18.1z M76.7,16.1c-0.2,0-0.4,0-0.6-0.1l-0.4-0.2c-0.8-0.3-1.2-1.2-0.9-2  	c0.3-0.8,1.2-1.2,2-0.9l0.5,0.2c0.8,0.3,1.2,1.2,0.9,2C77.9,15.7,77.3,16.1,76.7,16.1z M49.8,15.3c-0.7,0-1.3-0.5-1.5-1.2  	c-0.2-0.8,0.3-1.7,1.1-1.9c1-0.3,2.1-0.5,3.1-0.7c0.8-0.2,1.7,0.4,1.8,1.2c0.2,0.8-0.4,1.7-1.2,1.8c-1,0.2-2,0.4-3,0.7  	C50,15.3,49.9,15.3,49.8,15.3z M70.6,14.3c-0.1,0-0.2,0-0.3,0c-1-0.2-2-0.3-3-0.4c-0.9-0.1-1.5-0.9-1.4-1.7c0.1-0.9,0.9-1.5,1.7-1.4  	c1.1,0.1,2.2,0.3,3.2,0.5c0.8,0.2,1.4,1,1.2,1.8C72,13.8,71.4,14.3,70.6,14.3z M58.6,13.8c-0.8,0-1.5-0.6-1.6-1.4  	c-0.1-0.9,0.6-1.6,1.4-1.7c1.1-0.1,2.2-0.1,3.2-0.2c0,0,0,0,0,0c0.8,0,1.5,0.7,1.6,1.5c0,0.9-0.7,1.6-1.5,1.6c-1,0-2,0.1-3,0.2  	C58.7,13.8,58.6,13.8,58.6,13.8z M13.7,38.9c-0.3,0-0.6-0.1-0.9-0.3c-0.7-0.5-0.9-1.5-0.4-2.2c0.6-0.9,1.3-1.7,1.9-2.6  	c0.5-0.7,1.5-0.8,2.2-0.2c0.7,0.5,0.8,1.5,0.2,2.2c-0.6,0.8-1.2,1.6-1.8,2.4C14.7,38.7,14.2,38.9,13.7,38.9z M19.4,32  	c-0.4,0-0.8-0.1-1.1-0.4c-0.6-0.6-0.6-1.6,0-2.2c0.7-0.8,1.5-1.5,2.3-2.2c0.6-0.6,1.6-0.6,2.2,0.1c0.6,0.6,0.6,1.6-0.1,2.2  	c-0.7,0.7-1.5,1.4-2.2,2.1C20.2,31.9,19.8,32,19.4,32z M35.5,89.5c-0.8,0-1.5-0.6-1.6-1.5c0-0.9,0.6-1.6,1.5-1.6l0.8,0  	c0.7-0.1,1.5-0.1,2.2-0.2c0.9-0.1,1.6,0.5,1.7,1.4c0.1,0.9-0.5,1.6-1.4,1.7c-0.8,0.1-1.6,0.2-2.4,0.2L35.5,89.5  	C35.6,89.5,35.5,89.5,35.5,89.5z M29.7,89.5c0,0-0.1,0-0.1,0c-1.1-0.1-2.1-0.2-3.2-0.3c-0.9-0.1-1.4-0.9-1.3-1.8  	c0.1-0.9,0.9-1.5,1.8-1.3c1,0.1,2,0.2,3,0.3c0.9,0.1,1.5,0.8,1.5,1.7C31.2,88.8,30.5,89.5,29.7,89.5z M44.4,88.3  	c-0.7,0-1.4-0.5-1.5-1.2c-0.2-0.8,0.3-1.7,1.2-1.9c1-0.2,2-0.5,2.9-0.7c0.8-0.2,1.7,0.3,1.9,1.1c0.2,0.8-0.3,1.7-1.1,1.9  	c-1,0.3-2.1,0.5-3.1,0.8C44.6,88.2,44.5,88.3,44.4,88.3z M20.9,87.9c-0.2,0-0.3,0-0.5-0.1c-1.1-0.4-2.1-0.8-3.1-1.2  	c-0.8-0.4-1.1-1.3-0.8-2.1c0.4-0.8,1.3-1.1,2.1-0.8c0.9,0.4,1.8,0.8,2.7,1.1c0.8,0.3,1.3,1.1,1,2C22.1,87.4,21.5,87.9,20.9,87.9z  	 M52.9,85.7c-0.6,0-1.2-0.4-1.5-1c-0.3-0.8,0.1-1.7,0.9-2c0.9-0.4,1.9-0.7,2.8-1.2c0.8-0.3,1.7,0,2.1,0.8c0.3,0.8,0,1.7-0.8,2.1  	c-1,0.4-2,0.8-3,1.2C53.3,85.6,53.1,85.7,52.9,85.7z M13,83.6c-0.4,0-0.7-0.1-1-0.4c-0.3-0.3-0.6-0.6-1-0.9c-0.6-0.6-0.6-1.6,0-2.2  	c0.6-0.6,1.6-0.6,2.2,0c0.3,0.3,0.5,0.5,0.8,0.7c0.7,0.6,0.7,1.5,0.2,2.2C13.9,83.4,13.5,83.6,13,83.6z M61.1,81.9  	c-0.6,0-1.1-0.3-1.4-0.8c-0.4-0.8-0.1-1.7,0.6-2.1c0.9-0.5,1.8-1,2.6-1.5c0.7-0.4,1.7-0.2,2.1,0.5c0.4,0.7,0.2,1.7-0.5,2.1  	c-0.9,0.5-1.8,1.1-2.8,1.6C61.6,81.8,61.3,81.9,61.1,81.9z M68.7,77.1c-0.5,0-1-0.2-1.3-0.6c-0.5-0.7-0.3-1.7,0.4-2.2  	c0.8-0.6,1.6-1.2,2.4-1.8c0.7-0.5,1.7-0.4,2.2,0.2c0.5,0.7,0.4,1.7-0.2,2.2c-0.8,0.7-1.7,1.3-2.5,1.9C69.3,77,69,77.1,68.7,77.1z  	 M75.6,71.4c-0.4,0-0.8-0.2-1.1-0.5c-0.6-0.6-0.6-1.6,0.1-2.2c0.7-0.7,1.5-1.4,2.1-2.1c0.6-0.6,1.6-0.6,2.2-0.1  	c0.6,0.6,0.6,1.6,0.1,2.2c-0.7,0.8-1.5,1.5-2.3,2.3C76.3,71.3,75.9,71.4,75.6,71.4z M81.6,64.8c-0.3,0-0.7-0.1-1-0.3  	c-0.7-0.5-0.8-1.5-0.3-2.2c0.6-0.8,1.2-1.6,1.8-2.4c0.5-0.7,1.5-0.9,2.2-0.4c0.7,0.5,0.9,1.5,0.4,2.2c-0.6,0.9-1.2,1.7-1.9,2.6  	C82.5,64.6,82,64.8,81.6,64.8z M86.5,57.3c-0.2,0-0.5-0.1-0.7-0.2c-0.8-0.4-1-1.3-0.6-2.1c0.5-0.9,0.9-1.8,1.3-2.7  	c0.4-0.8,1.3-1.1,2.1-0.8c0.8,0.4,1.1,1.3,0.8,2.1c-0.4,1-0.9,1.9-1.4,2.9C87.6,57,87,57.3,86.5,57.3z"/>  </svg>