<?xml version="1.0" standalone="no"?>
			<!DOCTYPE svg PUBLIC "-//W3C//DTD SVG 1.1//EN" "http://www.w3.org/Graphics/SVG/1.1/DTD/svg11.dtd"><svg xmlns="http://www.w3.org/2000/svg" xmlns:xlink="http://www.w3.org/1999/xlink" version="1.1" fill="#FFF" width="100" height="100" viewBox="0 0 100 100" xml:space="preserve">  <g>  	<path class="st0" d="M99.1,9.7c-0.3-0.1-0.5-0.1-0.8,0c-3.7,0.7-7.3,1.8-10.7,3.4c-0.4,0.2-0.8,0.4-1.2,0.6  		c-1.5,0.7-3.1,1.5-4.7,1.9c0.1,0.2,0.3,0.4,0.4,0.6c1.6-0.4,3.1-1.2,4.6-1.9c0.4-0.2,0.8-0.4,1.2-0.6c2.9-1.4,5.9-2.4,9.1-3.1  		c-1.4,1.4-2.8,4.1-3.9,6.8c-1.5,3.8-2.4,7.9-1.5,9.4c-0.9,0.1-1.9,0.1-2.8,0.2c-1.2,0.1-2.4,0.3-3.5,0.3c-1.6,0.1-3.3-0.1-4.9-0.3  		c-0.1,0.1-0.1,0.3-0.2,0.4c-0.1,0.1-0.1,0.1-0.2,0.2c1.7,0.3,3.5,0.5,5.3,0.4c0.3,0,0.6,0,0.9-0.1c0.9-0.1,1.8-0.2,2.6-0.3  		c0.8-0.1,1.6-0.2,2.5-0.2l-4.7,11.7c-0.2,0.1-0.4,0.1-0.5,0.2c0,0-0.1,0-0.1,0.1c-1,0.7-1.3,1.7-2.6,2c-0.9,0.2-1.8,0.5-2.8,0.6  		c-1.2,0.1-2.8,0.5-4,0.4c-0.8-0.1-1.7-3.2-2-4c-0.1-0.7-0.2-1.4-0.3-2.1c-0.3-1.6-0.9-3.3-0.9-5c0-0.9,0.3-1.5,0.6-2  		c0.3-0.4,0.6-0.9,0.9-1.5c0.7,0.4,1.4,0.9,2.2,0.5c0.7-0.4,1.3-1.1,1.8-1.7c0.9-1.3,1.4-3,1.6-4.6c0-0.3,0-0.6,0.2-0.8  		c0.1-0.1,0.3-0.2,0.4-0.4c0.7-0.7,0.5-2.2,0.2-3.1c-0.2-0.5-0.5-1-0.8-1.4c-0.3-0.3-1.4-0.7-1.5-0.9c0,0.1,0.1,0,0.1-0.1  		c0-0.1-0.1-0.1-0.1-0.2c-1.8-1.5-4.2-2.1-6.6-1.6c-2.4,0.5-4.9,2.2-6.2,4.3c-1.8,3-4,5.8-7.7,6.4c-0.1,0-0.2,0-0.2,0.1  		c0,0,0,0.1,0,0.1c-0.1,1.4,0.6,3,1.5,4.2c0,0.1,0.1,0.1,0.2,0.2c0.1,0,0.1,0.1,0.2,0.1c1.5,0.2,2.9-0.7,4-1.7  		c-0.8,1.2-1.9,2-3.2,2.7c0.1,0.9,1.2,2.1,1.9,2.6c0.2,0.1,0.3,0.2,0.5,0.3c0.3,0.1,0.6,0,0.8-0.2s0.4-0.4,0.6-0.6  		c-0.1,0.5-0.3,0.9-0.7,1.2c0.3,0.3,0.8,0.5,1.2,0.6c-0.2,0-1.1,2.2-1.5,3.2C62,38,60.3,39,58.6,40.1c-0.7-0.6-3.4-2.8-4-3.5  		c-1.3-1.4-2.7-2.9-4-4.3c-0.9-1-2-2.2-3.2-2.7c-0.3-0.1-0.6-0.1-0.9-0.3c0,0,0.6-1.4,0.6-1.5c-1-0.2-1.7-1.2-2.1-2.1  		c0.4,0.5,0.9,1,1.5,1.4c1,0.5,1.9,0.3,2.7-0.3c1.6-1.2,2.7-4,3.1-5.5c0.6-2,0.9-4.2,0.3-6.3c-0.5-1.6-1.8-2.7-3.4-3.1  		c-0.6-0.2-1.2-0.1-1.8-0.1c0,0-0.1,0-0.1,0c-0.5-0.5-1.3-0.4-1.7,0.3c-0.9,0.2-1.8,0.5-2.5,1.1c-1.3,1-1.9,2.7-1.9,4.5  		c-2.1,1.2-4.4,2.3-6.6,3.1c-0.1,0.1-0.2,0.2-0.1,0.4c1.2,1.1,2.9,1.6,4.6,1.4c1-0.1,2.1-0.4,3.2-0.8c0,0,0.1,0,0.1,0.1  		c-0.4,2.4-1,4.7-1.9,6.9c-0.3,0.8-5,1.2-5.7,1.4c-3.3,0.7-6.6,1.5-9.9,2.3c-1.9,0.5-3.6,2.5-4.9,3.9c-1.3,1.3-2.3,2.9-3.6,4.2  		c-1.3,1.2-4.5,3-4.2,5c0,0.1,0,0.1,0,0.2c0,0.1,0,0.1-0.1,0.2c-0.1,0.2,0.1,0.5,0.1,0.8c0,0.1-0.1,0.2-0.1,0.3  		c-0.1,0.3,0.2,0.6,0.2,0.9c-0.1,0.3,0,0.7,0.4,0.7c0.3,0,0.5-0.1,0.8-0.1c-0.1,0-0.2-0.2-0.3-0.3c-0.1-0.3,0-0.8,0.2-1.1  		c0.2-0.4,0.5-0.7,0.7-1.1c0.1,0.8-0.5,0.9-0.7,1.6c-0.1,0.7,0.3,0.8,0.7,0.2c0.2-0.4,0.6-0.6,0.9-0.9c0,0,0.1-0.1,0.1-0.1  		c0.6-0.8,0.5-1.9,1-2.6c0.7-1.2,2.3-2,3.4-2.8c1.5-1.1,3-2.2,4.4-3.5c0.4-0.3,0.8-0.7,1.2-0.8c2.8-0.6,5.6-0.7,8.4-1.2  		c0.1,0,0.3,0,0.4,0.1c0,0.1,0,0.1,0,0.2c-0.8,2.7-3,5.3-4.4,7.6c-0.5,0.9-1.1,1.7-1.8,2.5c-0.5,0.6-1.5,1.3-1.5,2.1  		c0,0.4,0.1,0.8,0.2,1.1c0.1,0.7-1.2,1.9-1.1,2.2c0,0,0-0.1,0-0.1c-0.3,0.4-0.6,0.8-0.9,1.2c-1.9,2.8-3.5,6-4.8,9.1  		c-0.3,0.7-0.6,1.4-1.1,2c-1.3,1.5-4.1,0.8-5.9,0.9c-1.8,0.1-3.6,0.2-5.3,0.9C7,66,6.6,66.3,6.5,66.7c0,0.1,0,0.2-0.1,0.2  		C6.3,67,6.2,67,6.1,67c-0.6,0.1-1.2,0-1.9,0c-1.4-0.2-3-0.8-3.9,0.5c-0.7,0.9-0.2,2-0.1,2.9c0.1,0.4,0,0.8,0,1.2  		c-0.2,2-0.2,3.6,1.3,5.1c0.1,0.1,0.1,0.1,0.2,0.1c0.1,0,0.2,0,0.2-0.1c0.4-0.3,0.8-0.6,0.9-1c0.1-0.7,0-1.2,0.2-1.9  		c0.2-0.5,0.5-1.1,0.8-1.6c0.5-0.7,1.1-1.3,1.9-1.5c0.4-0.1,0.8-0.2,1.1,0c0.3,0.2,0.3,0.7,0.6,0.9c0.1,0.1,0.3,0.1,0.4,0.1  		c3.3,0.1,6.6,0,10,0.2c2.1,0.1,3.8,0.2,5.4-1.2c3.3-3,5.4-7,8.5-10.1c-0.2,0.2,7.8,7.6,8.5,8.2c0.3,0.2,0.6,0.5,0.8,0.8  		c0.2,0.3,0.3,0.6,0.3,0.9c0,0.1,0.1,0.3,0.1,0.4c-1.4,0.4-2.9,0.7-4.3,0.6c-1.4,0-3-0.6-3.8,0.8c-0.6,0.9-0.1,2,0.1,2.9  		c0.1,0.4,0.1,0.8,0.1,1.2c0,2,0.1,3.6,1.8,5c0.1,0.1,0.1,0.1,0.2,0.1c0.1,0,0.2-0.1,0.2-0.1c0.3-0.3,0.7-0.6,0.8-1.1  		c0.1-0.7-0.1-1.2,0.1-1.9c0.2-0.5,0.4-1.1,0.6-1.6c0.9-1.8,2.9-2.1,4.8-2.3c0,0.3,0.1,0.6,0.1,0.9c0.2,1.8,0.7,3.1,1.4,4.7  		c0.1,0.1,0.1,0.3,0.2,0.4c0.3,0.3,0.8,0.4,1.2,0.5c0.7,1.1,0.7,2.5,0.5,3.7c-0.3,2.4,2.6,2.5,4.3,2.9c1.4,0.4,3,0.8,4.4,0.5  		c0.2,0,0.4-0.1,0.5-0.3c0-0.1,0-0.2,0-0.3c0-0.5-0.1-1-0.4-1.4c-0.4-0.4-1-0.5-1.5-0.7c-2.7-0.8-3.8-3.8-4.3-6.2  		c0.9-0.9,0.2-1.3,0-2.5c-0.2-1-0.2-1.9-0.3-2.9c0.6,0,1.1-0.1,1.7-0.1c1.7-0.1,3.9,0.1,5.4-0.8c0.7-0.4,1.2-1,1.7-1.6  		c0.2-0.3,0.6-0.7,0.9-1.1c3.2,1.3,6.8,1.6,10.3,1c1.6-0.3,3.6-0.9,5.5-1.7c0.6,1.6,0.7,3.3,1.2,4.9c1.2,3.7,4,5.9,4.5,10  		c0,0.3,0,0.6-0.1,1C79,87.9,82,87.7,83.6,88c1.5,0.3,3,0.6,4.4,0.1c0.2-0.1,0.4-0.2,0.4-0.3c0-0.1,0-0.2,0-0.3  		c-0.1-0.5-0.2-1-0.5-1.3c-0.4-0.4-1-0.4-1.5-0.5c-2.5-0.5-3.8-2.9-4.5-5.1c-1.2-3.8-2.4-7.7-3-11.6c-0.1-0.8-0.3-1.5-0.6-2.1  		c1.2-1,2.2-2.2,2.8-3.5c-0.7-0.4-1.5-0.9-2.2-1.5l2.6-6.5c0.2-0.1,0.5-0.3,0.7-0.6c0.5-0.7,1-1.6,0.8-2.5c0-0.1,0-0.1-0.1-0.1  		c0,0-0.1-0.1-0.2-0.1l3.5-8.8c0.6-0.3,1.1-0.8,1.3-1.5c0-0.1,0-0.1,0.1-0.2c0,0,0.1-0.1,0.1-0.1c0.2-0.2,0.1-0.5,0.2-0.7  		c0.1-0.1,0.1-0.1,0.2-0.2c0.2-0.2,0-0.6,0.2-0.9c0.2-0.3,0.3-0.6-0.1-0.8c-0.1,0-0.2-0.1-0.3-0.1l4.6-11.4c0.1,0,0.2-0.1,0.2-0.1  		c0.6-0.2,1.3-0.9,2.1-1.9c1.1-1.5,2.2-3.5,3.1-5.9C99.9,15.2,100.8,10.4,99.1,9.7z M61.5,47.2c-0.5,1.4-1.4,2.9-2.2,4.2  		c-1.2,1.5-2.5,2.9-3.9,4.2c-2.6,2.2-4.4,4.6-6.7,7.1c-0.1,0.1-0.1,0.1-0.1,0.2c0,0.1,0,0.1,0,0.1c0,0.1,0.2,0.2,0.3,0.3  		c1.3,0.9,2.4,2.1,3.5,3.2c-0.1,0.2-0.2,0.5-0.2,0.7c-0.1,0.2-0.2,0.5-0.4,0.7C51.4,68,51.2,68,51,68.1c-1.1,0.1-2.1,0.4-3.2,0.7  		c-0.1-0.7-0.2-1.4-0.4-2.1c-1.5-5-5.8-8.3-8.1-12.8c-0.1-0.1-0.1-0.2-0.1-0.4c0-0.4,0.6-0.5,1-0.6c1.6-0.4,2.1-2.7,2.6-4  		c0.7-1.6,1.3-3.2,2-4.8c0.2-0.4,2.7-5.9,2.3-6.2c1.5,0.9,3,2,4.4,3c1.3,1,2.5,1.8,4,2.6c1.8,1,3.4,1,5.2,0c0.6-0.3,1.2-0.7,1.7-1.1  		c0,0,0,0.1,0,0.1C62,44.1,61.9,45.8,61.5,47.2z M77.9,60.9c-2.9-2.9-5.3-7.1-7.2-10.3c0,0,0-0.1,0-0.1c0.7,0.4,1.4,0.7,2.2,1.1  		c1.5,0.8,3,1.5,4.5,2.3c0.6,0.3,1.1,0.5,1.7,0.9c0.3,0.2,0.7,0.4,1,0.6l0,0c0,0,0,0,0,0L77.9,60.9z M81.7,51.4  		c-0.4,0-0.7,0-1.1,0.1c-0.3,0.1-0.5,0.2-0.8,0.2c-0.5,0-1-0.2-1.4-0.4c-2.2-1.2-4-2.9-5.8-4.7c0.2-0.3,0.3-0.5,0.5-0.8  		c0-0.1,0.1-0.1,0.1-0.2c1,1,2.1,1.3,3.6,1c1.9-0.3,4.1-1.2,5.9-2.2c0.7-0.2,1.3-0.4,2-0.5L81.7,51.4z M97.5,19.4  		c-0.9,2.3-2,4.3-3,5.7c-0.8,1-1.4,1.5-1.8,1.7c-0.1-0.1-0.2-0.2-0.3-0.3c-0.1-0.1-0.3,0-0.4,0c-0.5-1-0.1-4.3,1.6-8.7  		c1.8-4.6,3.9-7.2,4.9-7.4c0,0,0,0,0,0c0,0,0,0,0,0c0,0,0.1,0,0.1,0c0.1,0,0.1,0,0.2,0C99.7,10.7,99.5,14.3,97.5,19.4z"/>  	<path class="st0" d="M83.9,19.1c-0.2,0.1-0.3,0.3-0.2,0.4c0.1,0.1,0.2,0.2,0.3,0.2c0,0,0.1,0,0.1,0l1.6-0.6  		c-0.4,1.4-0.7,2.9-0.9,4.4c0,0.2,0.1,0.4,0.3,0.4c0,0,0,0,0.1,0c0.2,0,0.3-0.1,0.3-0.3c0.2-1.6,0.6-3.2,1-4.8l2-0.8  		c-0.2,0.5-0.3,1.1-0.5,1.6l-0.9,0.3c-0.2,0.1-0.3,0.2-0.2,0.4c0,0.2,0.2,0.2,0.3,0.2c0,0,0,0,0.1,0l0.5-0.1c-0.3,1.5-0.5,3-0.5,4.6  		c0,0.2,0.2,0.3,0.3,0.3c0,0,0,0,0,0c0.2,0,0.3-0.2,0.3-0.3c0-1.6,0.2-3.2,0.5-4.8l1.4-0.4c-0.3,1.3-0.5,2.5-0.6,3.7  		c0,0.2,0.1,0.3,0.3,0.3c0,0,0,0,0,0c0.2,0,0.3-0.2,0.3-0.3c0-1.3,0.2-2.6,0.7-4l0.4-0.1c0.2-0.1,0.3-0.2,0.2-0.4  		c-0.1-0.2-0.2-0.2-0.4-0.2c0.1-0.4,0.3-0.8,0.4-1.1l0.2-0.5c0.1-0.2,0.2-0.4,0.3-0.6c0.1-0.1,0.2-0.1,0.3-0.2  		c0.1-0.1,0.2-0.3,0-0.5c0,0,0,0,0,0c0.2-0.6,0.5-1.2,0.8-1.7c0.3,0,0.5-0.1,0.8-0.1c0.2,0,0.3-0.2,0.3-0.4c0-0.2-0.2-0.3-0.4-0.3  		l0,0c-0.1,0-0.2,0-0.3,0.1c0.1-0.1,0.2-0.3,0.2-0.4c0.1-0.2,0.1-0.4-0.1-0.5c-0.2-0.1-0.4-0.1-0.5,0.1c-0.2,0.3-0.4,0.6-0.5,0.9  		c-0.6,0.1-1.2,0.3-1.7,0.5c0,0,0,0,0,0c-0.2-0.1-0.4,0-0.5,0.1c0,0,0,0.1-0.1,0.1c-0.6,0.2-1.2,0.5-1.7,0.8l-0.9,0.4  		c0.1-0.2,0.1-0.3,0.2-0.5c0.1-0.2,0-0.4-0.2-0.4c-0.2-0.1-0.4,0-0.4,0.2c-0.2,0.4-0.3,0.8-0.4,1.2l-1.5,0.7  		c-0.2,0.1-0.2,0.3-0.2,0.4c0.1,0.1,0.2,0.2,0.3,0.2c0,0,0.1,0,0.1,0l0.8-0.4c-0.2,0.6-0.4,1.1-0.5,1.7L83.9,19.1z M90.9,17.3  		c-0.2,0.6-0.4,1.1-0.6,1.6l-1.5,0.4c0.2-0.6,0.4-1.2,0.6-1.8l0.5-0.2c0.4-0.1,0.8-0.3,1.1-0.5L90.9,17.3z M90.8,14.7  		c0.5-0.2,0.9-0.3,1.4-0.5c-0.3,0.6-0.5,1.2-0.8,1.8c-0.5,0.3-1.1,0.6-1.7,0.8C90.1,16.1,90.4,15.3,90.8,14.7z M87.4,16.2l1.5-0.7  		c0.3-0.1,0.6-0.3,0.9-0.4c-0.3,0.7-0.7,1.4-0.9,2.1L86.8,18C87,17.4,87.2,16.8,87.4,16.2z"/>  	<circle class="st0" cx="62.9" cy="82.3" r="6"/>  </g>  </svg>