<?xml version="1.0" standalone="no"?>
			<!DOCTYPE svg PUBLIC "-//W3C//DTD SVG 1.1//EN" "http://www.w3.org/Graphics/SVG/1.1/DTD/svg11.dtd"><svg xmlns="http://www.w3.org/2000/svg" xmlns:xlink="http://www.w3.org/1999/xlink" version="1.1" fill="#FFF" width="100" height="100" viewBox="0 0 100 100" xml:space="preserve">  <path class="st0" d="M88.6,10.4h-4.8c-1,0-1.7,0.8-1.7,1.7v6h-6.3c-0.8,0-1.5,0.5-1.7,1.3l-1,3.9l-1.2-0.9c-0.6-0.5-1.4-0.5-2-0.1  	L68.7,23l-1.9-3.9c-0.3-0.6-0.9-1-1.6-1H18v-6c0-1-0.8-1.7-1.7-1.7h-4.8C5.1,10.4,0,15.6,0,22.1v54.2c0,7.2,5.7,13.1,12.7,13.1h11.2  	c0.5,0,1.1,0,1.8,0.1c0.7,0.1,1.5,0.1,2.3,0.1c0.8,0,1.7-0.1,2.4-0.3c0.5-0.1,0.9-0.5,1.1-1l1.4-3.5l0.6,1.6c0.2,0.6,0.7,1,1.4,1.1  	c0.6,0.1,1.3-0.2,1.7-0.7l1-1.3l1.4,2.8c0.3,0.6,0.9,1,1.6,1h47c6.3,0,11.6-4.8,12.5-11.1c0-0.1,0-0.2,0-0.3  	c0.1-0.6,0.1-1.1,0.1-1.7V22.1C100,15.6,94.9,10.4,88.6,10.4z M3.5,22.1c0-4.6,3.5-8.3,7.9-8.3h3.1v53.5h-3.1  	c-3.1,0-5.9,1.2-7.9,3.3V22.1z M87.3,86H41.4l-2.1-4.4c-0.3-0.5-0.8-0.9-1.4-1c-0.6-0.1-1.2,0.2-1.6,0.7l-0.7,0.9l-1-2.9  	c-0.2-0.7-0.9-1.1-1.6-1.2c-0.7-0.1-1.4,0.4-1.7,1.1l-2.8,6.9c-0.8,0.1-1.8,0-2.8-0.1c-0.7-0.1-1.4-0.1-2-0.1l-3.7,0l-7.4,0  	c-4.6,0-8.4-3.6-9.1-8.2c0.6-4,3.9-6.9,7.8-6.9h4.8c1,0,1.7-0.8,1.7-1.7V21.6h46.2l2.3,4.7c0.2,0.5,0.6,0.8,1.1,0.9  	c0.5,0.1,1,0.1,1.4-0.2l1.7-1.1l2.3,1.8c0.3,0.2,0.7,0.4,1.1,0.4c0.2,0,0.4,0,0.6-0.1c0.6-0.2,1-0.6,1.1-1.2l1.3-5.1h5v47.6  	c0,1,0.8,1.7,1.7,1.7h4.8c2.1,0,4.2,0.9,5.7,2.6c0.6,0.6,1,1.3,1.3,1.9c0.4,0.7,0.6,1.5,0.7,2.5C95.7,82.4,91.9,86,87.3,86z  	 M96.5,70.7c-2.1-2.1-5-3.3-7.9-3.3h-3.1V13.8h3.1c4.4,0,7.9,3.7,7.9,8.3V70.7z M59.4,60c-0.8-0.9-2.1-0.9-3.3-0.3l-2.5-2.9  	c5-5.5,5.1-14.1,0.1-19.8c-5.4-6.2-14.8-6.8-21-1.3c-6.2,5.4-6.8,14.8-1.3,21c5,5.7,13.5,6.6,19.6,2.4l2.5,2.9  	c-0.8,1.1-0.9,2.5-0.1,3.3l9.1,10.3c0.9,1.1,2.8,0.9,4.2-0.3l1-0.9c1.4-1.2,1.7-3.1,0.8-4.2L59.4,60z M49.7,55.2  	c-4.1,3.6-10.2,3.6-14.3,0.2c0.4-0.8,0.8-1.5,1.2-2.2c0.7-1.1,0.3-2.5-0.8-3.1c-1.1-0.6-2.5-0.3-3.1,0.8c-0.1,0.2-0.2,0.4-0.3,0.6  	c-1.9-4.3-0.9-9.4,2.8-12.7c4-3.5,9.9-3.6,14-0.5c-0.1,0-0.3,0.1-0.4,0.1c-1.2,0.3-2,1.6-1.6,2.8c0.3,1,1.2,1.7,2.2,1.7  	c0.2,0,0.4,0,0.6-0.1c0.8-0.2,1.7-0.4,2.5-0.5C54.4,46.5,53.5,51.8,49.7,55.2z M27.1,68.6c0.7,0.5,0.8,1.5,0.3,2.2  	c-0.6,0.8-1.3,1.6-2.1,2.3c-0.2,0.2-0.5,0.4-0.8,0.4c-0.5,0.1-1-0.1-1.4-0.4c-0.6-0.6-0.6-1.6,0-2.2c0.6-0.6,1.2-1.3,1.8-2  	C25.4,68.2,26.4,68.1,27.1,68.6z M31.3,62.4c-0.3,1-0.6,2-0.9,2.9c-0.2,0.5-0.6,0.9-1.2,1c-0.3,0.1-0.6,0-0.8-0.1  	c-0.8-0.3-1.2-1.2-0.9-2c0.3-0.8,0.6-1.7,0.8-2.6c0.2-0.8,1.1-1.3,1.9-1.1C31.1,60.8,31.5,61.6,31.3,62.4z M44.5,42.4  	c0.7,1.1,0.4,2.5-0.6,3.2c-0.4,0.3-0.8,0.5-1.2,0.8c-0.6,0.5-1.3,1-1.8,1.6c-0.4,0.4-1,0.6-1.6,0.6c-0.6,0-1.2-0.2-1.7-0.7  	c-0.9-0.9-0.8-2.4,0.1-3.2c0.7-0.7,1.4-1.3,2.2-1.9c0.5-0.4,1-0.7,1.5-1.1C42.4,41,43.8,41.3,44.5,42.4z M78.2,36.7  	c0.5,0.7,0.3,1.7-0.5,2.1c-0.7,0.5-1.7,0.2-2.1-0.5c-0.4-0.6-1-1.2-1.6-1.6c-0.7-0.5-0.9-1.5-0.4-2.2c0.5-0.7,1.5-0.9,2.2-0.4  	c0.4,0.3,0.9,0.7,1.2,1C77.4,35.7,77.8,36.2,78.2,36.7z M70.5,32.6c0.3,0.3,0.5,0.7,0.5,1.2c0,0.9-0.8,1.5-1.6,1.5  	c-0.4,0-0.9,0-1.3,0c-0.4,0-0.8,0.1-1.2,0.2C66,35.5,65.2,35,65,34.1c-0.1-0.8,0.4-1.6,1.3-1.8c0.5-0.1,1-0.2,1.5-0.2  	c0.6,0,1.1,0,1.7,0C69.9,32.2,70.3,32.3,70.5,32.6z M57.1,37.6c-0.4-0.8-0.1-1.7,0.7-2.1c0.9-0.4,1.8-0.9,2.7-1.3  	c0.6-0.3,1.3-0.1,1.7,0.3c0.1,0.1,0.2,0.3,0.3,0.5c0.3,0.8,0,1.7-0.8,2c-0.9,0.4-1.7,0.8-2.5,1.2C58.4,38.7,57.4,38.4,57.1,37.6z"/>  </svg>