<?xml version="1.0" standalone="no"?>
			<!DOCTYPE svg PUBLIC "-//W3C//DTD SVG 1.1//EN" "http://www.w3.org/Graphics/SVG/1.1/DTD/svg11.dtd"><svg xmlns="http://www.w3.org/2000/svg" xmlns:xlink="http://www.w3.org/1999/xlink" version="1.1" fill="#FFF" width="100" height="100" viewBox="0 0 100 100" xml:space="preserve">  <path class="st0" d="M42,33.7c0-0.2,0-0.3,0-0.5c0-11.6-9.4-21-21-21s-21,9.4-21,21c0,0.2,0,0.3,0,0.5c0,0.4,0,0.8,0,1.3  	c0,13.8,16.1,45,20.1,52.2c0.4,0.7,1.4,0.7,1.8,0C25.9,80,42,48.8,42,35C42,34.5,42,34.1,42,33.7z M21,46.2c-7.2,0-13-5.8-13-13  	s5.8-13,13-13c7.2,0,13,5.8,13,13S28.2,46.2,21,46.2z M98.2,61.1c0,0-3.5-3.6-8.8-6c-5.3-2.4-10.3-2.6-10.3-2.6  	c5.2-14.9,6.3-27.9,3.2-34.3C96.8,27.1,103.5,44.9,98.2,61.1z M76.5,15.8l2.3-5.2c0.4-0.8,1.3-1.2,2.1-0.8c0.8,0.4,1.2,1.3,0.8,2.1  	l-2.3,5.2c4.5,4.3,3.7,18.7-1.8,34.8c-0.3-0.3-4.6-3.8-10.7-6.8l-14.3,32c-2,1.6-3.9,3.4-5.5,5c-0.2,0.2-0.4,0.3-0.5,0.4l17.3-38.7  	c-6.3-2.6-11.8-3.4-12.2-3.5C60.1,25.4,70.2,15.3,76.5,15.8z M45.5,31.5c0-4.4-1.3-8.6-3.4-12.1c9-6.2,20.6-8.2,31.6-4.9  	c-6.9,1.9-15.8,11.4-23.4,25.2l0,0c0,0-1.9-1.9-4.9-3.8c0.1-0.8,0.1-1.7,0.1-2.4c0-0.5,0-1,0-1.3l0-0.2  	C45.5,31.8,45.5,31.7,45.5,31.5z M97.5,88.2v0.2H24.4c0.4-0.8,2-3.8,4.2-7.9c3.4-3.1,7.6-6.2,11.3-6.5c4.8-0.4,6.4,1.2,7.1,2.6  	c1,2-0.5,1.6-1.4,1.4c-1.2-0.3-2.7-0.3-3.7,1.4c-0.4,0.8-0.5,1.5-0.3,2.3c0.7,2.9,4.7,3.8,6.8,1.6c3.5-3.7,9.2-8.8,14.1-9.3  	c4.8-0.4,6.4,1.2,7.1,2.6c1,2-0.5,1.6-1.4,1.4c-1.2-0.3-2.7-0.3-3.7,1.4C64,80.2,64,81,64.1,81.7c0.7,2.9,4.7,3.8,6.8,1.6  	c3.5-3.7,9.2-8.8,14.1-9.3c4.8-0.4,6.4,1.2,7.1,2.6c1.2,2.4-0.5,1.6-1.4,1.4c-1.2-0.3-2.7-0.3-3.7,1.4c-0.4,0.8-0.5,1.5-0.3,2.3  	c0.4,1.6,1.7,2.4,3.2,2.7c2.1,0.4,4,1,5.6,2.1C96.3,86.9,96.9,87.5,97.5,88.2z"/>  </svg>