<?xml version="1.0" standalone="no"?>
			<!DOCTYPE svg PUBLIC "-//W3C//DTD SVG 1.1//EN" "http://www.w3.org/Graphics/SVG/1.1/DTD/svg11.dtd"><svg xmlns="http://www.w3.org/2000/svg" xmlns:xlink="http://www.w3.org/1999/xlink" version="1.1" fill="#FFF" width="100" height="100" viewBox="0 0 100 100" xml:space="preserve">  <path class="st0" d="M35.6,56.9l-8.5-10.7v10.7h-3.8V39h3.3l8.5,10.8V39h3.8v17.9H35.6z M43.5,39h10.6v3.8h-6.5V46h5.7v3.8h-5.7v3.2  	h6.8v3.8H43.5V39z M76.4,56.9h-3.9l-3.7-11.5l-3.7,11.5h-3.9L55.9,39h4.6l3,11.3L66.9,39H71l3.4,11.3L77.5,39h3.9L76.4,56.9z  	 M22.6,17.1c0-5.8-5.1-10.4-11.3-10.4C5.1,6.7,0,11.4,0,17.1c0,0.1,0,0.2,0,0.3c0,0.2,0,0.4,0,0.6c0,6.8,8.7,22.4,10.8,25.9  	c0.2,0.3,0.7,0.3,1,0c2.2-3.5,10.8-19.1,10.8-25.9c0-0.2,0-0.4,0-0.6C22.6,17.3,22.6,17.2,22.6,17.1z M11.3,24.8c-3.9,0-7-3.1-7-7  	c0-3.9,3.1-7,7-7c3.9,0,7,3.1,7,7C18.3,21.7,15.2,24.8,11.3,24.8z M100,66.2c0-5.8-5.1-10.4-11.3-10.4c-6.2,0-11.3,4.7-11.3,10.4  	c0,0.1,0,0.2,0,0.3c0,0.2,0,0.4,0,0.6c0,6.8,8.7,22.4,10.8,25.9c0.2,0.3,0.7,0.3,1,0C91.3,89.5,100,74,100,67.1c0-0.2,0-0.4,0-0.6  	C100,66.4,100,66.3,100,66.2z M88.7,73.9c-3.9,0-7-3.1-7-7c0-3.9,3.1-7,7-7c3.9,0,7,3.1,7,7C95.7,70.8,92.6,73.9,88.7,73.9z  	 M16,51.6c0.4-0.1,0.8-0.2,1.2-0.2c0.8,0,1.5-0.7,1.5-1.5s-0.7-1.5-1.5-1.5c-0.8,0-1.5,0.1-2.3,0.4c-0.8,0.3-1.1,1.1-0.8,1.9  	c0.2,0.6,0.8,0.9,1.4,0.9C15.6,51.7,15.8,51.7,16,51.6z M68.1,79.5h-3.4c-0.8,0-1.5-0.7-1.5-1.5s0.7-1.5,1.5-1.5h3.4  	c0.8,0,1.5,0.7,1.5,1.5S68.9,79.5,68.1,79.5z M58.9,79.5h-3.4c-0.8,0-1.5-0.7-1.5-1.5s0.7-1.5,1.5-1.5h3.4c0.8,0,1.5,0.7,1.5,1.5  	S59.7,79.5,58.9,79.5z M49.7,79.5h-3.4c-0.8,0-1.5-0.7-1.5-1.5s0.7-1.5,1.5-1.5h3.4c0.8,0,1.5,0.7,1.5,1.5S50.5,79.5,49.7,79.5z  	 M40.5,79.5h-3.4c-0.8,0-1.5-0.7-1.5-1.5s0.7-1.5,1.5-1.5h3.4c0.8,0,1.5,0.7,1.5,1.5S41.4,79.5,40.5,79.5z M31.4,79.5h-3.4  	c-0.8,0-1.5-0.7-1.5-1.5s0.7-1.5,1.5-1.5h3.4c0.8,0,1.5,0.7,1.5,1.5S32.2,79.5,31.4,79.5z M22.2,79.5h-3.4c-0.8,0-1.5-0.7-1.5-1.5  	s0.7-1.5,1.5-1.5h3.4c0.8,0,1.5,0.7,1.5,1.5S23,79.5,22.2,79.5z M13.5,77.7c-0.4,0-0.8-0.2-1.1-0.5c-0.9-1.1-1.4-2.5-1.4-4  	c0-0.8,0.7-1.5,1.5-1.5c0.8,0,1.5,0.6,1.5,1.4v0.1c0,0.8,0.3,1.5,0.8,2.1c0.5,0.6,0.4,1.6-0.2,2.1C14.2,77.6,13.8,77.7,13.5,77.7z  	 M12.4,68.8c-0.8,0-1.5-0.7-1.5-1.5v-3.4c0-0.8,0.7-1.5,1.5-1.5c0.8,0,1.5,0.7,1.5,1.5v3.4C13.9,68.1,13.2,68.8,12.4,68.8z  	 M12.4,59.6c-0.8,0-1.5-0.7-1.5-1.5v-3.4c0-0.8,0.7-1.5,1.5-1.5c0.8,0,1.5,0.7,1.5,1.5v3.4C13.9,58.9,13.2,59.6,12.4,59.6z M77.1,78  	c0-0.8-0.7-1.5-1.5-1.5h-1.8c-0.8,0-1.5,0.7-1.5,1.5s0.7,1.5,1.5,1.5h1.8C76.4,79.5,77.1,78.8,77.1,78z M29.5,22.6  	c0-0.8-0.7-1.5-1.5-1.5l-1.8,0c0,0,0,0,0,0c-0.8,0-1.5,0.7-1.5,1.5c0,0.8,0.7,1.5,1.5,1.5l1.8,0c0,0,0,0,0,0  	C28.8,24.1,29.5,23.4,29.5,22.6z M89.7,46.6c-0.8,0-1.5-0.6-1.5-1.5v-3.4c0-0.8,0.7-1.5,1.5-1.5s1.5,0.7,1.5,1.5v3.4  	C91.2,45.9,90.5,46.6,89.7,46.6z M89.7,37.5c-0.8,0-1.5-0.7-1.5-1.5v-3.4c0-0.8,0.7-1.5,1.5-1.5s1.5,0.7,1.5,1.5v3.4  	C91.2,36.9,90.5,37.5,89.7,37.5z M89.6,28.4c-0.7,0-1.3-0.5-1.5-1.2c-0.1-0.8-0.5-1.5-1.1-2c-0.6-0.5-0.7-1.5-0.2-2.1  	c0.5-0.6,1.5-0.7,2.1-0.2c1.2,1,1.9,2.3,2.1,3.8c0.1,0.8-0.4,1.6-1.2,1.7C89.8,28.4,89.7,28.4,89.6,28.4z M82.6,24.4  	C82.6,24.4,82.6,24.4,82.6,24.4l-3.4,0c-0.8,0-1.5-0.7-1.5-1.5c0-0.8,0.7-1.5,1.5-1.5c0,0,0,0,0,0l3.4,0c0.8,0,1.5,0.7,1.5,1.5  	C84,23.7,83.4,24.4,82.6,24.4z M73.5,24.3C73.5,24.3,73.5,24.3,73.5,24.3l-3.4,0c-0.8,0-1.5-0.7-1.5-1.5c0-0.8,0.7-1.5,1.5-1.5  	c0,0,0,0,0,0l3.4,0c0.8,0,1.5,0.7,1.5,1.5C75,23.7,74.3,24.3,73.5,24.3z M64.4,24.3C64.4,24.3,64.4,24.3,64.4,24.3l-3.4,0  	c-0.8,0-1.5-0.7-1.5-1.5c0-0.8,0.7-1.5,1.5-1.5c0,0,0,0,0,0l3.4,0c0.8,0,1.5,0.7,1.5,1.5C65.9,23.6,65.2,24.3,64.4,24.3z M55.3,24.2  	C55.3,24.2,55.3,24.2,55.3,24.2l-3.4,0c-0.8,0-1.5-0.7-1.5-1.5c0-0.8,0.7-1.5,1.5-1.5c0,0,0,0,0,0l3.4,0c0.8,0,1.5,0.7,1.5,1.5  	C56.8,23.6,56.1,24.2,55.3,24.2z M46.2,24.2C46.2,24.2,46.2,24.2,46.2,24.2l-3.4,0c-0.8,0-1.5-0.7-1.5-1.5c0-0.8,0.6-1.5,1.5-1.5  	l3.4,0c0.8,0,1.5,0.7,1.5,1.5C47.7,23.5,47,24.2,46.2,24.2z M37.1,24.1C37.1,24.1,37.1,24.1,37.1,24.1l-3.4,0  	c-0.8,0-1.5-0.7-1.5-1.5c0-0.8,0.7-1.5,1.5-1.5c0,0,0,0,0,0l3.4,0c0.8,0,1.5,0.7,1.5,1.5C38.6,23.5,37.9,24.1,37.1,24.1z M87.2,51  	c0.8-0.3,1.1-1.1,0.8-1.9c-0.3-0.8-1.1-1.1-1.9-0.8c-0.4,0.1-0.8,0.2-1.2,0.2c-0.8,0-1.5,0.7-1.5,1.5s0.7,1.5,1.5,1.5  	C85.7,51.4,86.4,51.2,87.2,51z"/>  </svg>