<?xml version="1.0" standalone="no"?>
			<!DOCTYPE svg PUBLIC "-//W3C//DTD SVG 1.1//EN" "http://www.w3.org/Graphics/SVG/1.1/DTD/svg11.dtd"><svg xmlns="http://www.w3.org/2000/svg" xmlns:xlink="http://www.w3.org/1999/xlink" version="1.1" fill="#FFF" width="100" height="100" viewBox="0 0 100 100" xml:space="preserve">  <path class="st0" d="M19.7,16.2c-3.6,5.8-3.8,18.4-0.2,33.2c0,0-4.3-0.3-9.6,1.5c-5.3,1.8-9,4.9-9,4.9C-2.6,39.7,4.9,23.3,19.7,16.2  	z M29.3,13.2c6.4,2.5,14.1,12.4,20.1,26.4c0,0,3.2-2.9,8.4-4.7c5.3-1.8,10.1-1.5,10.1-1.5C61.1,18.5,45.4,10,29.3,13.2z M42.3,73.1  	c1.2,0,2.4,0.2,3.4,0.4L35.4,42.4c6.3-1.9,11.6-2.2,12-2.2C40.9,25.2,32.1,14.5,26,14.3l-1.8-5.3c-0.3-0.8-1.2-1.3-2-1  	c-0.8,0.3-1.3,1.2-1,2l1.8,5.3c-4.7,3.7-5.4,17.6-1.5,33.6c0.3-0.2,4.8-3.2,10.9-5.5L42.3,73.1z M97.9,87.9  	c-1.7-1.2-3.9-1.9-5.3-2.2c-1.5-0.3-2.9-1.1-3.3-2.8c-0.2-0.8-0.1-1.6,0.3-2.4c1-1.8,2.7-1.9,3.9-1.5c0.9,0.3,2.7,1,1.4-1.4  	c-0.7-1.5-2.4-3.2-7.4-2.7c-5.1,0.5-11.1,5.8-14.7,9.7c-1.9,2-5.2,1.6-6.6-0.5c-0.2-0.3-0.4-0.7-0.5-1.1c-0.2-0.8-0.1-1.6,0.3-2.4  	c0.8-1.4,1.9-1.7,2.9-1.7c0.3,0,0.7,0.1,1,0.2c0.1,0,0.2,0.1,0.3,0.1c1,0.3,2.3,0.7,1.2-1.5c-0.6-1.3-2-2.8-5.7-2.8  	c-0.5,0-1.1,0-1.7,0.1c-5.1,0.5-11.1,5.8-14.7,9.7c-0.8,0.9-1.9,1.3-3,1.3c-1.8,0-3.6-1-4-2.9c-0.2-0.8-0.1-1.6,0.3-2.4  	c0.8-1.3,2.2-1.9,3.8-1.6c1.3,0.3,2.5,0.5,1.6-1.4c-1.7-3.3-6.3-3.2-9.3-2.3c-3.8,1.1-6.7,3.6-9.6,6.2c-1.3,1.2-2.5,2.8-4,3.7  	c-2.3,1.3-5.6,0.5-6.3-2.3c-0.2-0.8-0.1-1.6,0.3-2.4c1-1.8,2.7-1.9,3.9-1.5c0.9,0.3,2.4,0.6,1.4-1.4c-0.7-1.5-3.7-3.1-7.4-2.7  	c-6.4,0.7-12.4,6.7-15.5,12C1.3,87.1,0,90,0,90c0,0,24.3,0,24.3,0H77h23v-0.2C99.4,89,98.7,88.4,97.9,87.9z M99.2,51  	c0.1-0.1,0.7-1.2,0.6-1.2c-0.4,0.2-0.8,0.4-1.1,0.7c-0.2,0.2-0.4,0.4-0.7,0.6c-1.2,1.1-2.9,2.4-4.6,2.6c-2,0.3-4.4,0.6-6.2,1.3  	c-0.9,0.4-1.6,1-2.3,1.6c-1.2,1.1-2.4,2.3-3.5,3.5c-0.6,0.6-1.2,1.2-2,1.4c-0.9-1.1-1.7-2.3-2.4-3.6c-0.8-1.3-1.9-2.8-2.9-4  	c-1.8-2.1-3.3-3.4-6-4.2c-4.1-1.2-8.3-1.9-12.4-3c-1.5-0.4-3.1-0.6-4.6-1c-1.4-0.3-2.7-1-4-1.3c-0.2,0-0.2,0-0.2,0.1  	c0,0,0,0.1,0,0.1c0.3,0.3,0.5,0.6,0.8,0.9c3.1,2.7,7.5,4.6,11.3,6.2c1.5,0.6,3.1,1.2,4.6,1.9c2.6,1.4,3.6,3.6,5.2,5.9  	c1.3,1.7,2.7,3.3,4.3,4.7c-1,0.2-1.7,0.8-2.6,1.1c-1,0.3-1.9,0.5-2.9,0.5c-2.8,0-5.5,0.3-8.3,0.8c-0.1,0-0.2,0.1-0.1,0.2  	c0.9,0.4,1.8,0.8,2.7,0.9c1.7,0.2,3.4-0.5,5.1-0.1c1.9,0.4,3.7,1,5.6,1.3c1.6,0.3,3.1,0.8,4.7,1c1.6,0.2,3.1-0.6,4.6-1.2  	c1.4-0.6,2.9-1.4,4.1-2.4c0.1-0.1,0.2-0.2,0.3-0.2c0.4,0.1,0.8,0.3,1.1,0.4c0.6,0.1,1.2,0.6,1.9,0.6c0.2,0,0.3-0.2,0.3-0.4  	c-0.4-0.8-1.3-1.5-2-2.1c0.1-0.2,0.1-0.5,0.1-0.8c-0.1-0.8-0.4-1.5-1.1-1.9c-0.7-0.4-1.4-0.3-2.2-0.5c1.2-1.4,2.4-2.9,4-3.9  	c1.8-1.2,4.4-1.5,6.5-2.1c0.5-0.1,1.1-0.3,1.5-0.6c0.3-0.2,0.6-0.5,0.9-0.8c0.3-0.4,0.6-0.8,0.9-1.2C98.5,52.2,98.8,51.6,99.2,51z"  	/>  </svg>