<?xml version="1.0" standalone="no"?>
			<!DOCTYPE svg PUBLIC "-//W3C//DTD SVG 1.1//EN" "http://www.w3.org/Graphics/SVG/1.1/DTD/svg11.dtd"><svg xmlns="http://www.w3.org/2000/svg" xmlns:xlink="http://www.w3.org/1999/xlink" version="1.1" fill="#FFF" width="100" height="100" viewBox="0 0 100 100" xml:space="preserve">  <path class="st0" d="M59.7,20.5C63.4,11.9,62,3,56.4,0.6c-5.5-2.4-13,2.6-16.8,11.2c-3.4,7.8-2.5,15.9,1.9,19.1l-5.8,13.4l-2.1-0.9  	C33,43.2,32,44.8,32,45.4c0,0,0,0,0,0.1c0.2,2.1-0.1,4.3-1,6.3L16.6,83c-1.2,2.8-0.7,5.7,1.2,6.5c1.9,0.8,4.4-0.8,5.6-3.6l13.1-31.9  	c0.8-2,2.2-3.7,3.9-5c0,0,0,0,0,0c0.5-0.4,0.9-2.2,0.3-2.5l-2.1-0.9l5.8-13.4C49.7,33.2,56.2,28.4,59.7,20.5z M52.5,6.3  	c-2.7,0.5-5.7,3.3-7.3,7c-0.2,0.5-0.8,0.8-1.4,0.5c-0.5-0.2-0.8-0.8-0.5-1.4c1.9-4.4,5.4-7.6,8.8-8.2c0.6-0.1,1.1,0.3,1.2,0.8  	C53.4,5.7,53,6.2,52.5,6.3z M62.1,40.7l-8,12.2l1.9,1.2c0.5,0.3-0.2,2.1-0.7,2.4c0,0,0,0,0,0c-1.9,1-3.5,2.5-4.7,4.3L32.3,90.2  	c-1.6,2.5-4.4,3.7-6.1,2.6c-1.7-1.1-1.7-4.1-0.1-6.6l19.5-28.4c1.2-1.8,1.9-3.9,2.1-6c0,0,0,0,0-0.1c0-0.6,1.4-1.9,1.9-1.6l1.9,1.2  	l8-12.2c-2-2-1.7-6.2,0.7-10L73,9.6c0.6-0.9,1.5-1.2,2.2-0.8c0.6,0.4,0.7,1.5,0.1,2.3l-11,16.7c-0.5,0.8-0.5,1.7,0,2  	c0.5,0.3,1.3-0.1,1.8-0.8l11-16.7c0.6-0.9,1.5-1.2,2.2-0.8l0.1,0.1c0.6,0.4,0.7,1.5,0.1,2.3l-11,16.7c-0.5,0.8-0.5,1.7,0,2  	c0.5,0.3,1.3-0.1,1.8-0.8l11-16.7c0.6-0.9,1.5-1.2,2.2-0.8c0.6,0.4,0.7,1.5,0.1,2.3L71,36.1C68.5,39.8,64.7,41.8,62.1,40.7z  	 M66.3,67.5C66.2,67.5,66.2,67.5,66.3,67.5c-2.1,0.7-3.9,2-5.3,3.7l-22,26.5c-2,2.3-4.8,3.1-6.4,1.7c-1.5-1.3-1.2-4.3,0.8-6.5  	l23.2-25.5c1.5-1.6,2.4-3.6,2.9-5.7c0,0,0,0,0-0.1c0.1-0.6,1.6-1.7,2.1-1.3l1.7,1.5c1.1-2.7,1.1-5.8,2.5-8.7c2-4.1,5.4-7.6,8.6-10.8  	c4.1-4,8.7-7.4,13.1-11.1c1.8-1.5,3.7-2.9,5.9-4c0.8-0.4,2-0.9,2.9-0.6c0.2,0.1,0.4,0.2,0.5,0.3c0.4,0.5,0,1.3-0.3,1.9  	c-0.8,1.3-10.8,12.4-11.3,13C79,48.8,72.8,55.9,66.5,63.1c0,0-0.4,0.4-0.7,0.8l1.5,1.3C67.8,65.6,66.8,67.3,66.3,67.5z M86,29.3  	c-1.4,1.2-2.9,2.4-4.4,3.6c0,0,0,0,0,0c-0.8-1.5-1.8-3-2.9-4.4L85,19c2,2.2,3.8,4.6,5.3,7.2C88.9,27,87.5,28,86,29.3z M63.2,5.2  	c2.7,0.8,5.4,1.8,7.9,3.1c0,0,0,0,0,0l-6,9.2c-0.5-0.3-1.1-0.5-1.7-0.7C64.4,12.6,64.3,8.5,63.2,5.2z M14.7,81.4  	C7.4,73.1,3,62.3,3,50.4C3,27.3,19.7,8,41.7,4.1c-1.6,1.9-3.1,4.2-4.2,6.8c-0.9,2.1-1.5,4.3-1.9,6.4c-12.8,5.6-21.7,18.3-21.7,33.1  	c0,7.4,2.2,14.2,6,19.9L14.7,81.4z M94.4,34.8c1.7,4.9,2.7,10.1,2.7,15.6c0,25.9-21.1,47-47,47c-2.5,0-5-0.2-7.3-0.6l8.6-10.4  	c19.3-0.7,34.8-16.6,34.8-36.1c0-1.9-0.2-3.8-0.5-5.7l1.3-1.5c0.1-0.1,0.5-0.5,1-1.2C90.7,39,92.8,36.6,94.4,34.8z"/>  </svg>