<?xml version="1.0" standalone="no"?>
			<!DOCTYPE svg PUBLIC "-//W3C//DTD SVG 1.1//EN" "http://www.w3.org/Graphics/SVG/1.1/DTD/svg11.dtd"><svg xmlns="http://www.w3.org/2000/svg" xmlns:xlink="http://www.w3.org/1999/xlink" version="1.1" fill="#FFF" width="100" height="100" viewBox="0 0 100 100" xml:space="preserve">  <path class="st0" d="M97.4,37.8c-1.3-1.3-2.9-2-4.6-2.2c1-2.8,0.4-6.1-1.9-8.4c-1.5-1.5-3.5-2.3-5.5-2.3c0.8-2.8,0.2-5.9-2-8  	c-1.5-1.5-3.3-2.2-5.3-2.3c0.8-2.7,0.1-5.8-2-7.9C73.3,3.6,68.7,3.5,65.6,6c-0.3-1.2-1.1-2.5-1.8-3.3C62.4,1,60.2,0,57.9,0l-17,0  	c-1.9,0-3.9,0.8-5.5,2.1c-3.2-1.9-7.5-1.5-10.3,1.3c-2.3,2.3-3,5.5-2.1,8.4c-2,0.1-4,0.9-5.6,2.5c-2.3,2.3-3,5.6-2.1,8.5  	c-2.1,0.1-4.2,0.9-5.8,2.5c-2.4,2.4-3,5.9-2,8.9c-1.8,0.2-3.5,1-4.8,2.3c-3.2,3.2-3.2,8.4,0,11.5l11.6,11.6c0,0,0.1,0.1,0.1,0.1  	c-5.2,5.4-8.6,8.9-8.6,8.9c3,15.2,14.7,27.3,29.7,30.9c4.8-4.9,9.5-9.8,14.4-14.6c4.3,4.2,8.9,8.9,14.4,14.6  	c0.4,0.4,0.9,0.6,1.4,0.6c0.2,0,0.3,0,0.5-0.1c15.8-3.8,28-16.5,31.1-32.4c0.1-0.6-0.1-1.3-0.5-1.7l-8.1-8.4l8.7-8.7  	C100.4,45.7,100.4,40.8,97.4,37.8z M37.2,6.3c0.4-1.5,2.2-2.4,3.7-2.4l17,0c1.2,0,2.3,0.5,3,1.3c1,1.1,1.5,2.8,1.7,4.3  	c-0.2,0.2-0.4,0.4-0.5,0.5c-3,3.1-6,6.2-9,9.3l-1.7-1.7c1-0.1,1-0.1,1.9-0.3c1.1-0.2,1.8-1.2,1.6-2.2c-0.2-1.1-1.2-1.8-2.2-1.6  	c-3.6,0.6-6.3,0.3-9.3-0.7c-1.7-0.5-3.3-1.5-4.5-2.7C37.8,9.2,36.7,7.9,37.2,6.3z M27.9,6.1c0.9-0.9,2.1-1.3,3.2-1.3  	c0.7,0,1.4,0.2,2,0.5c-0.3,1.1-0.3,2.2,0.1,3.3c1.5,4.3,5.6,6.9,9,8c1.1,0.3,2.2,0.6,3.4,0.8l4.8,4.8c0.9,0.9,1.3,2,1.3,3.2  	c0,1.2-0.5,2.4-1.3,3.2c-1.8,1.8-4.7,1.8-6.5,0L27.9,12.6C26.1,10.8,26.1,7.9,27.9,6.1z M20.2,17c0.9-0.9,2.1-1.3,3.2-1.3  	s2.3,0.4,3.2,1.3l14.5,14.5c1.8,1.8,1.8,4.7,0,6.5c-1.8,1.8-4.7,1.8-6.5,0L20.2,23.4C18.4,21.6,18.4,18.7,20.2,17z M12.3,27.9  	c0.9-0.9,2-1.3,3.2-1.3c1.2,0,2.4,0.5,3.2,1.3l13.1,13.1c1.8,1.8,1.8,4.7,0,6.5c-1.7,1.7-4.5,1.8-6.3,0.1L14.3,36.4  	c-0.1-0.1-0.2-0.2-0.3-0.3l-1.7-1.7C10.5,32.6,10.5,29.7,12.3,27.9z M5.5,45.2c-1.7-1.7-1.7-4.4,0-6c0.8-0.8,1.9-1.2,3-1.2  	c1,0,2.1,0.4,2.9,1.1l11.3,11.3c0.1,0.1,0.2,0.2,0.3,0.2l0.2,0.2c0.8,0.8,1.2,1.9,1.2,3c0,1.1-0.4,2.2-1.2,3c-1.7,1.7-4.4,1.7-6,0  	L5.5,45.2z M66.3,95.9c-5.2-5.4-9.5-9.8-13.6-13.8c0.4-0.4,0.8-0.7,1.1-1.1c2.6-0.4,5.3-0.4,7.9-1.2c2.8-0.9,5.4-1.9,7.8-3.5  	c4.8-3.3,8.6-8,12.6-12.2c1.2-1.3,2.5-2.6,3.7-3.9l7.3,7.6C90.2,81.4,79.8,92.2,66.3,95.9z"/>  </svg>