<?xml version="1.0" standalone="no"?>
			<!DOCTYPE svg PUBLIC "-//W3C//DTD SVG 1.1//EN" "http://www.w3.org/Graphics/SVG/1.1/DTD/svg11.dtd"><svg xmlns="http://www.w3.org/2000/svg" xmlns:xlink="http://www.w3.org/1999/xlink" version="1.1" fill="#FFF" width="100" height="100" viewBox="0 0 100 100" xml:space="preserve">  <path class="st0" d="M49.8,5.9C25.5,6,5.8,25.7,5.8,50.1c0,7.4,1.9,14.5,5.1,20.6c0,0,0,0,0,0c0.3,0.6,0.7,1.2,1,1.8  	c1.6,2.7,3.4,5.2,5.5,7.5c0,0,0-0.1,0-0.1c0,0,0,0.1,0,0.1c6.8,7.4,16.2,12.5,26.7,13.9c0.7,0.1,1.4,0,1.7-0.2  	c0.5-0.4,0.7-1.2,0.7-2c0-0.5,0-1,0-1.5c0-0.1,0-0.3,0-0.4l0,0c0-1.4,0-2.7,0.2-4.1c0.3-3.8,0.4-7.5,0.6-11.2c-2.9,0-5.5,0.1-6,0.1  	c-1.3,0-2.3,0.3-3.3,0.6c-0.3,0.1-0.7,0.2-1,0.3c-0.3,0-0.5,0.1-1.4,0.1c-0.5,0,0.2,0.1-0.7,0.1c0.1,0.1,0.3,0.1-0.1,0.1  	c-1.6,0-2.5-0.8-4-0.7c-0.5,0-1.1,0.5-1.8,0.6c-1.2,0.1-0.7-0.6-1.5-0.6c0,0-1.6,0.6-2.4,0.9c-0.1,0-0.2,0.1-0.2,0.1  	c-0.1,0-0.1,0.1-0.1,0.1c0,0,0.1,0,0.1,0c-0.1,0-0.1,0-0.1,0c-0.1,0-0.1,0-0.1-0.1c0,0-0.3-0.1,0.2-0.1c-0.2,0-0.6-0.1-0.5-0.1  	c-0.1-0.1-0.3-0.1-0.4-0.2c0-0.1-0.2-0.1-0.1-0.2c0.1,0-0.3-0.1,0.2-0.1c0,0-0.6-0.1-0.4-0.1c-0.2,0-0.4-0.1-0.4-0.1  	c-0.1,0-0.2-0.1-0.1-0.1c0,0-0.2-0.1,0.1-0.1c0.2,0-0.4-0.1,0-0.1c-0.4,0-0.6-0.1-0.6-0.1c-0.1,0-0.1-0.1-0.1-0.1  	c0,0-0.1-0.1-0.1-0.1c0,0-0.2-0.1-0.2-0.1c-0.1,0-0.1-0.1-0.2-0.1c0,0-0.1-0.1-0.1-0.1c0,0-0.1-0.1-0.1-0.1c0,0-0.1-0.1,0-0.1  	c0.1-0.1-0.3-0.2-0.2-0.3c0.1-0.1-0.2-0.2,0.5-0.3c-0.3-0.1-0.8-0.2-0.2-0.3c0,0-0.6-0.1,0.1-0.1c0,0-0.6-0.1,0.2-0.1  	c0,0-0.8,0,0.1,0c0,0-0.5,0,0,0c0,0-0.5,0,0,0c0,0-0.5,0,0,0c0,0-0.3,0,0,0c0,0-0.2,0,0.1,0c0,0-0.4,0,0,0c0,0-0.4,0,0,0  	c0,0-0.2,0-0.2,0c-0.1,0-0.2,0-0.2,0c-0.2,0-0.4,0-0.2-0.1c-0.3-0.1-0.3-0.2-0.1-0.3c0-0.1,0-0.1,0.1-0.2c-0.1-0.1-0.1-0.1,0.3-0.2  	c0-0.1-0.3-0.2-0.1-0.3c0-0.1-0.1-0.2,0.2-0.3c0.2-0.1-0.2-0.2,0.1-0.3c-0.2-0.1-0.1-0.2,0-0.3c0-0.1,0.1-0.2,0.4-0.3  	c-0.1-0.1-0.1-0.2,0-0.3c0.1-0.1,0.1-0.2,0.2-0.3c0-0.1,0-0.2,0.1-0.3c0.1-0.1,0.1-0.2,0.2-0.2c0.1-0.1,0.1-0.1,0.2-0.2c0,0,0,0,0,0  	c0,0,0.1-0.1,0.1-0.1c0,0,0.1-0.1,0.1-0.1c0.1,0,0.1-0.1,0.2-0.1c0.8-0.3,2.2-0.9,3.2-1.5c0.2-0.1,0.4-0.3,0.6-0.4  	c1-0.1,0.4-0.3,0.8-0.5c0.2-0.6,0.4-0.5,0.6-0.4c0.2,0.2,0.4,0.5,0.6,0.5c0.1,0,0.6-0.3,1.3-0.8c1.2-0.8,2.8-1.9,3.3-2.4  	c0.1-0.1,0.1-0.1,0.5-0.2c0.1-0.2-0.2-0.4,0.1-0.5c0-0.1-0.4-0.2-0.1-0.3c0-0.1-0.5-0.2,0.1-0.2c0.1,0,0.1,0,0.2,0  	c0,0-0.1-0.1-0.2-0.1c-0.4-0.1-1.3-0.1-1.3-0.2c-0.2,0-0.3-0.1-0.3-0.1c0,0-0.2-0.1,0-0.1c-0.1,0-0.4-0.1-0.4-0.2  	c0-0.1-0.2-0.1,0-0.2c-0.1-0.1-0.4-0.1-0.3-0.2c-0.1-0.1-0.3-0.2-0.1-0.3c-0.1-0.1-0.3-0.2-0.1-0.3c-0.1-0.1-0.2-0.1-0.1-0.2  	c0-0.1-0.1-0.1,0.2-0.2c0.3-0.1-0.2-0.2,0-0.3c-0.1-0.1-0.1-0.1-0.1-0.2c0-0.1,0-0.1,0-0.2c0-0.1,0-0.1,0.1-0.2c0,0,0-0.1,0.1-0.1  	c0.1,0,0-0.1,0.2-0.1c-0.1-0.1-0.2-0.1,0-0.2c0-0.1-0.1-0.1,0-0.1c0.1,0,0.1-0.1,0.1-0.1c0.1,0,0.1-0.1,0.2-0.1c0,0,0-0.1,0.1-0.1  	c0.1,0,0-0.1,0.2-0.1c0,0,0.1,0,0.2,0c0.3-0.1-0.2-0.2,0.4-0.2c0-0.1-0.3-0.1,0-0.2c0-0.1-0.1-0.1,0.1-0.2c0.1-0.1,0.1-0.1,0.3-0.2  	c0.1-0.1,0.1-0.1,0.4-0.2c0.1-0.1,0-0.1,0.2-0.2c0.1,0-0.1-0.1,0.2-0.1c0,0-0.1-0.1,0-0.1c0.1-0.1,0-0.1,0.1-0.2  	c0.6-0.5,0.8-1.1-0.1-2.3c-0.2-0.3-0.4-0.5-0.6-0.7c-0.1-0.1-0.1-0.1-0.2-0.2c0-0.1-0.1-0.1,0.3-0.2c-0.1-0.1-0.6-0.1-0.4-0.2  	c0-0.1-0.3-0.1-0.3-0.2c-0.1-0.1-0.2-0.1-0.2-0.2c0-0.1-0.1-0.1,0-0.2c0-0.1-0.2-0.1,0.1-0.2c0-0.1-0.2-0.1-0.2-0.2  	c0,0-0.1,0-0.1-0.1c0-0.1,0-0.2,0-0.2c0-0.1,0-0.2,0-0.3c0.1-0.1,0-0.2,0.4-0.3c0.2-0.1-0.4-0.1,0.2-0.2c-0.1-0.1-0.5-0.1-0.4-0.2  	c0-0.1-0.1-0.1-0.1-0.2c0,0,0-0.1,0.1-0.1c0.1,0,0.1-0.1,0.2-0.1c0.1-0.1-0.2-0.1,0.3-0.2c0-0.1-0.4-0.1-0.1-0.2  	c0-0.1-0.2-0.2,0-0.3c0.1-0.1,0-0.2,0.1-0.2c0.1-0.1,0.1-0.1,0.2-0.2c0.1-0.1,0.1-0.1,0.3-0.2c0,0,0,0,0.2-0.1c0.1,0,0,0,0.3-0.1  	c0,0-0.2,0,0.1,0c0.1,0-0.2,0,0.2,0c0.1,0,0,0,0,0c0,0-0.1,0,0.2,0c0,0-0.2,0-0.1,0c0,0-0.2,0,0.1,0c0,0-0.4,0,0,0c0,0-0.4,0,0.1,0  	c0,0-0.3,0,0.1,0c0,0-0.2,0,0.1,0c0,0-0.2,0,0.1,0c0,0-0.1,0,0,0c0,0-0.1,0,0.2,0c0,0-0.1,0-0.1,0c0,0-0.1,0,0.1,0  	c-0.1,0-0.1,0-0.1,0c0.1,0,0.1,0,0.2,0c0.1,0,0.2,0,0.3,0c0.1,0,0.2,0,0.3,0c0,0,0.1,0,0.1,0c0.2,0,0.4-0.1,0.6-0.1  	c0.2-0.1,0.3-0.2,0.6-0.3c0.1-0.1-0.2-0.2,0.1-0.4c0,0,0,0,0,0c0-0.1-0.2-0.2-0.1-0.4c-0.1-0.1-0.2-0.3-0.1-0.4c0-0.1-0.1-0.3,0-0.4  	c0-0.1,0-0.1,0.2-0.2c0.7-0.1,0.1-0.1,0.9-0.2c0.2-0.1-0.8-0.1-0.2-0.2c0-0.1-0.5-0.1,0-0.2c0-0.1-0.6-0.1-0.1-0.2  	c0.1-0.1-0.6-0.1,0.5-0.2c-0.4-0.1-1.1-0.1-0.9-0.2c0.1-0.1-0.4-0.1,0.3-0.2c0.1,0-0.7,0,0.1-0.1c0,0-0.6,0,0-0.1c0,0-0.7,0,0.1,0  	c0,0-0.6,0,0,0c0,0-0.6,0-0.2-0.1c0,0-0.3,0-0.3,0c-0.1,0-0.3,0-0.1,0c-0.1,0-0.2,0,0-0.1c-0.1-0.1-0.3-0.1-0.1-0.2  	c-0.1,0-0.3-0.1-0.2-0.1c0,0,0.1-0.1,0.2-0.1c0-0.1-0.1-0.1,0-0.2c0-0.1,0-0.2,0.1-0.3c0-0.1,0.1-0.2,0.3-0.2c0.2-0.1,0-0.1,0.5-0.2  	c0.3-0.1-0.3-0.1,0.5-0.2c0.1-0.1-0.5-0.1,0.1-0.2c0-0.1-0.4-0.1,0.1-0.1c0,0-0.3,0,0-0.1c0,0-0.1,0,0-0.1c0,0-0.2,0,0,0  	c0,0,0,0,0.2,0c0.1,0-0.2,0,0.2,0c0,0-0.1,0,0.1,0c0,0-0.4,0,0.1,0c0,0-0.3,0,0.1,0c0,0-0.4,0,0.1-0.1c0,0-0.3,0,0-0.1  	c0,0-0.1,0,0.1,0c0,0,0-0.1,0.1-0.1c0.7-0.2,1.3-0.3,2-0.4c1.3-0.3,2.5-0.4,3.6-0.8c0.2-0.1,0.5-0.2,1-0.3c0.4-0.2,0.3-0.2,0.5-0.1  	c0.2,0.1,0.4,0.2,0.8,0.2c0.1,0,0.2-0.1,0.3-0.2c0.1-0.1,0.2-0.3,0.6-0.4c0-0.2-0.3-0.4-0.2-0.6c0.1-0.2-0.2-0.4-0.3-0.6  	c-0.2-0.3-0.5-0.6-1-0.5c-0.6,0.1-1.6,0.3-1.9,0.4c-1.5,0.3-0.3-0.4-1.8-0.6c-0.4-0.1-0.8,0.1-1.2,0.3c-0.6,0.3-1.1,0.7-1.4,0.8  	c-0.4,0.1-1.7,0.5-2.5,0.7c-0.1,0-0.2,0-0.2,0.1c-0.1,0-0.2,0,0,0c0,0,0,0,0,0c0.1,0,0.1,0,0.1,0c-0.3,0-0.1,0-0.1,0  	c-0.1,0-0.4-0.1-0.2-0.1c-0.2,0-0.4-0.1-0.2-0.2c0-0.1-0.5-0.1-0.5-0.2c-0.1-0.1-0.2-0.2-0.1-0.2c0,0-0.2-0.1,0-0.1  	c0,0-0.3-0.1-0.2-0.1c-0.1,0-0.2-0.1,0-0.1c0.1,0-0.3-0.1,0-0.1c-0.2,0-0.5-0.1-0.1-0.1c0,0-0.5-0.1-0.2-0.1c0-0.1-0.4-0.2-0.1-0.2  	c0,0-0.4-0.1-0.2-0.1c0.1,0-0.1-0.1,0.1-0.1c0,0-0.1,0-0.2-0.1c-0.1,0-0.1,0,0.1,0c-0.1,0-0.2-0.1-0.1-0.1c-0.1,0-0.2,0-0.2-0.1  	c0,0,0,0,0.1,0c0-0.1-0.3-0.1-0.2-0.2c0.1-0.1-0.2-0.1,0.1-0.2c0.1-0.1-0.3-0.2,0.1-0.3c0.1-0.1-0.5-0.2-0.4-0.3  	c0.2-0.1,0-0.2,0.3-0.3c0.1-0.1-0.2-0.2-0.1-0.3c0.1-0.1-0.1-0.2,0.1-0.2c0-0.1-0.1-0.2,0.3-0.3c0.1-0.1-0.2-0.2,0.1-0.2  	c-0.2-0.1-0.2-0.2-0.1-0.3c0-0.1,0-0.2,0-0.3c0.1-0.1,0-0.2,0.1-0.3c0-0.1-0.1-0.1,0-0.2c0,0-0.1-0.1,0.1-0.1c0.1,0-0.1-0.1,0.1-0.1  	c-0.1,0-0.2-0.1-0.2-0.1c0,0,0-0.1,0.1-0.1c0.1,0,0.1-0.1,0.2-0.1c0.1,0,0.1-0.1,0.1-0.1c0.1,0,0.1-0.1,0.2-0.1h0  	c0.9-0.6,2.6-1.2,3.7-2.1c0.2-0.1,0.3-0.2,0.4-0.4c0.5-0.1,0.2-0.3,0.7-0.4c-0.1-0.1-0.2-0.3,0-0.4c0-0.1-0.1-0.3-0.1-0.4  	c0.1-0.1-0.1-0.3,0-0.5c-0.1-0.2-0.4-0.3-0.2-0.5c0-0.1-0.5-0.2-0.6-0.2c-0.1-0.1-0.2-0.2-0.3-0.3c-0.2-0.2-0.5-0.3-0.6-0.5  	c-0.4-0.2-0.9-0.4-1.1-0.6c0.2-0.2-0.5-0.3,0.2-0.4c-0.4-0.1-1.1-0.3-0.8-0.5c-0.4-0.2-0.7-0.4-0.5-0.7c-0.1-0.4-0.5-0.8,0-1.2  	c0.1-0.4-0.5-0.8,0-1.1c-0.2-0.4-0.3-0.7,0-1.1c0.2-0.4,0.1-0.7,0.3-1.1c0.2-0.3,0.4-0.7,0.6-1c1.6-2.4,4.1-4.4,5.9-6.2  	c0.7-0.7,4.9-5,7.3-7.2l0,0C54.7,5.9,52.5,5.9,49.8,5.9z M94.2,49.7c-0.1,0-0.2,0-0.2-0.1C94,49.6,94.1,49.6,94.2,49.7  	c-0.1-5.6-1.1-10.9-3.1-15.8C86.5,22.1,76.9,12.8,65,8.5c-1.2-0.4-2.5-0.8-3.7-1.2c-3.2-0.8-3.1,0.6-5.6,3.9c0,0,0,0,0,0  	c0,0,0,0,0,0c0,0,0.1,0.1-0.1,0.1c-0.1,0,0.3,0.1-0.1,0.1c0,0,0.2,0.1-0.1,0.1c0,0,0.3,0,0,0c0,0,0.2,0-0.1,0c0,0,0.3,0,0,0  	c0,0,0.2,0,0,0c0,0,0.3,0.1,0,0.1c0,0,0,0.1-0.1,0.1c-0.1,0-0.1,0-0.2,0.1c-0.1,0-0.2,0.1-0.2,0.1c-0.5,0.2-0.9,0.6-1.3,1.3  	c-0.2,0.5-0.4,0.7-1,0.9c0.1,0.1-0.1,0.1-0.3,0.1c-0.4-0.1-0.8-0.2-1.2,0.3c-0.5,0.6-5.8,7-5.9,6.6c0.6,1.9,7.4-2.1,11.4-3.2  	c0.2-0.1,0.4-0.1,0.6-0.2c0.2,0,0.4-0.1,0.4-0.1c0,0,0.1,0,0.1,0c0,0,0,0,0,0h0c0.1,0,0.2,0,0,0c0,0,0,0,0,0c0,0,0,0,0,0  	c0.1,0,0.2,0,0.2,0c-0.1,0-0.1,0-0.2,0c0.1,0,0.6,0-0.1,0c0,0,0,0,0,0c0.1,0,0.7,0-0.1,0c0,0,0.7,0-0.1,0c0,0,0.5,0,0,0  	c0,0,0.6,0,0,0c0,0,0.4,0,0.1,0c0,0,0.5,0,0,0c0,0,0.5,0,0.1,0c0,0,0.6,0,0.1,0c0,0,0.5,0,0.1,0c0,0,0.6,0,0.1,0c0,0,0.6,0,0.1,0  	c0,0,0.7,0,0.1,0c0,0,0.3,0,0.4,0c0.1,0,0.2,0-0.1,0c0.1,0,0.7,0.1,0.2,0.1c0.1,0.1,0.6,0.1,0.4,0.2c-0.1,0.1,0.3,0.2-0.2,0.3  	c0.3,0.1,0.6,0.2,0.3,0.3c0.1,0.1,0.3,0.1-0.1,0.2c0,0.1,0.4,0.1,0,0.2c0.1,0.1,0.5,0.1,0.4,0.2c-0.1,0.1,0.1,0.1-0.2,0.2  	c0,0,0,0,0.1,0.1c0.1,0,0.1,0.1-0.1,0.1c0,0,0,0,0,0c0,0,0,0,0,0c0.1,0.1,0.3,0.1,0.1,0.2c-0.1,0.1,0.2,0.1,0,0.2  	c0.1,0.1,0.3,0.1,0.1,0.2c-0.1,0.1,0.2,0.1,0,0.2c-0.1,0.1,0.1,0.1-0.1,0.2c0.2,0.1,0.3,0.1-0.1,0.2c-0.1,0.1,0.4,0.1,0.1,0.2  	c0.2,0.1,0.3,0.1-0.2,0.2c0.1,0.1,0.5,0.1,0,0.2c0,0.1,0.4,0.2,0.2,0.3c0,0.1,0.3,0.2,0,0.3c0,0.1,0.2,0.1-0.1,0.2  	c0.1,0.1,0.3,0.2,0.1,0.2c0,0,0,0.1-0.1,0.1c0,0-0.1,0.1-0.2,0.1c-0.1,0-0.2,0.1-0.2,0.1c-0.8,0.5-1.7,1.2-2.7,1.5  	c0.1,0.2,0.4,0.5,0.8,0.9c-0.1,0.2,0.5,0.4,0.2,0.6c0.3,0.2,1.1,0.4,1.3,0.6c0.1,0,0.1,0.1,0.2,0.1c0,0,0.1,0.1,0.1,0.1  	c0.1,0,0.1,0.1,0.2,0.1c0.1,0,0.1,0.1,0.2,0.1c0,0,0.1,0.1-0.2,0.1c0.2,0,0.5,0.1,0.5,0.1c0.1,0,0.1,0.1,0.1,0.1  	c0,0,0.1,0.1,0.1,0.1c0.1,0.1,0.2,0.1,0.2,0.2c0.1,0.1,0.2,0.1,0.1,0.2c0.1,0.1,0.3,0.1,0.2,0.2c0,0,0.2,0.1,0,0.1  	c-0.1,0,0.1,0.1-0.2,0.1c0,0,0.1,0,0.2,0c0.1,0,0.1,0-0.1,0c0.1,0,0.3,0,0.1,0.1c0,0,0.2,0.1,0.1,0.1c0.1,0,0.2,0-0.1,0  	c0,0,0.2,0,0,0.1c-0.1,0,0,0.1-0.1,0.1c-0.1,0-0.1,0.1-0.2,0.2c0,0-0.1,0.1-0.2,0.1c0,0-0.1,0.1-0.2,0.1c0,0,0,0-0.1,0  	c0,0-0.1,0-0.2,0c-0.1,0,0.1,0.1,0.1,0.1c0,0.1-0.1,0.1-0.2,0.2c-0.7,0.6-1.5,1.3-2,1.9c-0.1,0.1-0.1,0.2-0.2,0.3  	c-0.1,0.1-0.2,0.2-0.3,0.2c-0.1,0.2-0.1,0.4-0.3,0.6c-0.1,0.1,0.2,0.2,0.1,0.3c-0.2,0.1,0,0.2-0.3,0.4c0.2,0.1,0.4,0.2,0.6,0.4  	c0.2,0.1,0.4,0.2,0.5,0.3c0.4,0.7,1,1.2,1.4,1.3c0-0.1,0.1-0.1,0.1-0.2c0,0,0.9-0.2,0.9-0.2c0.1,0,0.2,0.1,0.2,0.1  	c0.1,0,0.1,0.1,0,0.1c0.1,0.1,0.2,0.1,0.2,0.1c0,0,0.1,0.1,0.1,0.1c0,0.1,0.1,0.2,0.1,0.3c0,0.1,0.1,0.2,0.1,0.3c0,0.1,0,0.2,0,0.3  	c0,0.1,0,0.2,0,0.3c0,0.1,0,0.2-0.3,0.3c-0.1,0.1,0.3,0.2,0.1,0.3c0.2,0.1,0.2,0.2,0.1,0.3c-0.1,0.1-0.1,0.2-0.1,0.3  	c0,0.1-0.1,0.2-0.1,0.3c0,0.1-0.1,0.2-0.2,0.3c-0.1,0.1-0.1,0.2-0.3,0.3c0,0.1,0.1,0.2,0.1,0.3c-0.2,0.1-0.1,0.2-0.3,0.3  	c0,0.1,0,0.2,0,0.3c-0.1,0.1-0.1,0.2-0.2,0.3c0,0.1-0.1,0.2-0.1,0.3c0,0.1-0.1,0.2-0.2,0.3c0,0.1,0,0.2-0.2,0.3c0,0.1,0,0.2-0.1,0.3  	c0,0.1-0.1,0.2-0.1,0.3c0,0.1,0,0.2-0.1,0.3c-0.1,0.3-0.1,0.6-0.4,1c-0.1,0.1-0.1,0.1-0.2,0.2c0.1,0.5,0.5,0.9,0,1  	c0.3,0.2,0.3,0.3-0.3,0.4c0,0,0,0.1,0,0.1c0,0.1-0.1,0.1-0.5,0.3c0.1,0.1,0.2,0.3,0.2,0.4c0.1,0.1,0.1,0.2,0.1,0.3  	c0,0.1,0,0.3-0.1,0.4c-0.1,0.3,1.1,2.3,1.2,2.4c0.2,0.1,0.6-0.3,0.9-0.5c0.1,0,0.1-0.1,0.2-0.1c0.1,0,0.2,0,0.2,0  	c0,0,0.2,0.1,0.2,0.1c0,0,0.2,0.1,0.2,0.2c0,0.1,0.2,0.2,0,0.3c0.1,0.1,0.3,0.1,0.3,0.2c0,0.1,0.1,0.1,0.1,0.2c0,0.1,0.1,0.2,0,0.2  	c-0.1,0.1,0.2,0.1-0.1,0.2c0.1,0.1,0.4,0.1,0.2,0.2c0.1,0.1,0.3,0.1,0.1,0.1c0.1,0.1,0.3,0.2,0.2,0.2c0.1,0.1,0.2,0.1,0.1,0.1  	c0,0.1,0.2,0.1,0.1,0.2c-0.1,0.1,0,0.1-0.1,0.3c-0.1,0.1,0,0.1-0.4,0.2c-0.1,0.1,0.3,0.1-0.1,0.2c0.1,0.1,0.3,0.1-0.1,0.2  	c0,0,0.2,0,0.1,0.1c0,0,0.2,0.1,0.1,0.1c0,0,0.2,0.1-0.1,0.1c0.2,0,0.3,0.1,0.2,0.2c-0.1,0.1,0.1,0.1,0,0.2c0,0.1,0.1,0.1,0,0.2  	c0,0.1,0.1,0.1,0.1,0.2c-0.2,0.1,0,0.1-0.1,0.2c0,0.1,0.1,0.1-0.2,0.2c0.1,0.1,0.3,0.1-0.1,0.2c0.1,0.1,0.3,0.1,0,0.2  	c0.1,0.2,0.2,0.3,0.1,0.3c0,0.1,0.1,0.1,0,0.2c0.1,0,0.1,0,0.2-0.1c-0.1,0-0.1,0-0.2,0.1c0,0,0,0,0,0c0,0.1,0.1,0.1,0,0.2  	c0,0.1,0,0.2-0.7,0.2c-0.3,0-0.2,0.1-0.2,0.1c0,0,0,0-0.6,0.1c0,0,0.3,0,0.2,0c0,0,0.3,0-0.1,0c0.1,0,0.2,0-0.1,0c0.2,0,0.2,0,0.1,0  	c0.1,0,0.2,0-0.1,0h0.1c-0.1,0-0.3,0-0.3,0c0.1,0,0.1,0,0.2,0c0,0-0.1,0-0.1,0c0,0,0.4,0,0.1,0c0,0,0,0-0.1,0c0,0,0,0-0.2,0  	c0,0.1,0.1,0.2,0,0.3c-0.1,0.3,0,0.5,0.2,0.6c0.2,0.3,0.7,0.4,1.4,0.5c0.1,0,0.2,0,0.3,0c0.1,0,0.2,0,0.3,0c0.1,0,0.2,0,0.2,0  	c0,0,0.4,0,0.1,0c0,0,0.4,0,0.1,0c0,0,0.2,0,0.1,0c0,0,0.3,0,0,0c0,0,0.3,0,0.1,0c0,0,0.1,0,0.1,0c0,0,0.1,0-0.1,0c0,0,0.2,0,0.1,0  	c0,0,0.2,0,0,0c0,0,0.2,0,0.1,0c0,0,0.3,0-0.1,0c0,0,0.2,0,0.2,0c0,0,0.2,0-0.1,0c0,0,0.3,0,0.1,0c0,0,0.1,0,0.2,0c0,0,0,0-0.2,0  	c0,0,0.1,0,0.2,0c0.1,0,0.1,0,0,0c0,0,0.2,0,0.2,0c0.1,0,0.1,0-0.1,0c0,0,0.2,0,0.1,0c0,0,0.1,0,0.1,0c0,0,0,0-0.2,0  	c0,0,0.2,0,0.1,0c0,0,0.4,0,0,0c0,0,0.4,0,0.2,0c0,0,0.2,0,0.1,0c0,0,0.3,0-0.1,0c0,0,0.3,0,0,0c0,0,0.4,0-0.1,0c0,0,0.4,0,0,0  	c0,0,0.3,0,0.1,0c0,0,0.3,0-0.1,0c0,0,0.4,0,0.2,0c0.1,0,0.5,0,0.1,0c0,0,0.6,0,0.1,0c0.1,0,0.7,0,0.2,0c0.3,0.1,0.7,0.1,0.6,0.2  	c0,0.1,0.4,0.1,0.4,0.2c0.1,0.1,0.1,0.2,0.2,0.3c0,0,0.1,0.1,0.1,0.1c0,0,0.1,0.1,0.1,0.2c0,0.1,0.1,0.1,0.1,0.2  	c-0.1,0.1,0,0.1,0,0.2c0,0,0,0-0.2,0.2c-0.1,0.1,0,0.2-0.2,0.3c0,0.1,0.1,0.1-0.2,0.2c0,0.1,0.2,0.1-0.3,0.2c-0.1,0.1,0.5,0.1,0,0.2  	c0.1,0.1,0.4,0.1,0.3,0.2c0,0.1,0,0.1,0,0.2c0,0.1,0,0.1-0.1,0.2c-0.1,0.1,0,0.1-0.2,0.2c-0.2,0.1,0.1,0.1-0.2,0.2  	c0,0.1,0.2,0.1,0,0.2c0,0.1,0.2,0.1,0,0.2c0,0.1,0.1,0.1,0,0.2c0,0.1,0.1,0.1,0,0.2c-0.1,0.1,0,0.2-0.1,0.3c-0.1,0.1,0,0.2-0.1,0.2  	c0.1,0,0.1,0.1,0,0.1c-0.1,0-0.1,0.1-0.2,0.1c-0.1,0-0.1,0-0.2,0.1c-0.1,0-0.1,0-0.2,0.1c-0.1,0-0.1,0-0.2,0.1c-0.1,0-0.2,0-0.3,0.1  	c-2.1,0.5-5.9,0.6-7.8,1.3c-1.1-1.2-3.1,0.5-4.9,1.6c-0.2,0.1-0.4,0.2-0.6,0.3c-0.6,0.1-0.4,0.2-1.3,0.3c-0.6,0.3-0.2,0.4-0.5,0.2  	c-0.1-0.1-0.4-0.2-0.6-0.1c-1.3,0.1-3.5,1.9-5.2,2.9c-0.4,0.1-0.7,0.2-1.2,0.2c-0.8,0.3-0.4,0.5-1,0.4c-0.2-0.2,0.1-0.5-0.1-0.7  	c-0.1-0.2-0.3-0.4-0.4-0.7c-0.7,0.2-1.6,2.2-1.3,2.7c0.4,0.9,3.9,0.3,4.6,0.2c1.3-0.2,2.5-0.3,3.8-0.3c0-0.3,0.8-0.3,2-0.2  	c0.1-0.6,0.2-1.2,0.3-1.8c0-0.2,0.4-0.4,0.4-0.6c0-0.1,0.3-0.2,0.4-0.3c-0.1-0.1,0.2-0.2,0.4-0.3c0-0.1,0.1-0.2,0.3-0.2  	c0.2-0.1,0.3-0.1,0.5-0.2c0.2-0.1,0.2-0.1,0.2-0.2c0.3,0.1,0.1,0.2,0.1,0.3c0.3,0.1,0.1,0.2,0.2,0.3c0.1,0.2,0.1,0.4,0.1,0.7  	c0,0.9,0,1.7,0,2.6c0.5,0.1,1.1,0.1,1.6,0.2c2.4,0.2,5.5-0.2,7.8,0.7c1,0.4,3.2,1.1,4.2,1.3c0.9,0.2,2.9-0.6,3.6,0.4  	c0.2,0.2,0.2,0.7-0.6,1.1c0.2,0.4,0.6,0.8,0,0.8c0,0,0.5,0.2,0.2,0.6c-0.2,0.3,0.2,0.8-0.1,1.2c-0.3,0.5,0.3,0.9-0.2,1.3  	c0,0.4,0.4,0.7-0.2,0.8c0.1,0.1,0.1,0.2,0.1,0.3c0,0.2-0.3,0-0.6-0.3c-0.3-0.2-0.6-0.6-0.8-0.8c-0.1,0-0.1-0.1-0.2-0.2c0,0,0,0,0,0  	c-1.5-0.5-2.9,0.3-4.5-1.1c-0.9-0.7-1.7,0.9-3.2,0.1c-0.4-0.3-3.6-0.3-7.1-0.3c0,0.4,0,0.8-0.1,1.3c-0.4,4.7-0.3,9.5-0.2,14.3  	c0,0,0.2,1.9,0.7,3.1c0.3,0.8,1,1.1,2.1,1c10.6-0.8,20.2-5.4,27.4-12.4c0,0,0,0,0,0c8.2-8,13.3-19.2,13.3-31.6  	C94.2,49.9,94.2,49.8,94.2,49.7z M50,100C22.4,100,0,77.6,0,50S22.4,0,50,0s50,22.4,50,50S77.6,100,50,100z M50,2  	C23.5,2,2,23.5,2,50s21.6,48,48,48s48-21.6,48-48S76.5,2,50,2z"/>  </svg>