<?xml version="1.0" standalone="no"?>
			<!DOCTYPE svg PUBLIC "-//W3C//DTD SVG 1.1//EN" "http://www.w3.org/Graphics/SVG/1.1/DTD/svg11.dtd"><svg xmlns="http://www.w3.org/2000/svg" xmlns:xlink="http://www.w3.org/1999/xlink" version="1.1" fill="#FFF" width="100" height="100" viewBox="0 0 100 100" xml:space="preserve">  <path class="st0" d="M23,83.2c0.7-0.7,1.5-1.3,2.3-1.8c1.3-0.9,2.8-1.6,4-2.7c2.1-2,3.7-4.1,6.4-5.5c1.5-0.8,3.8-0.9,5-1.9  	c0.3-0.2,0.5-0.5,0.7-0.8c0.8-1,1.7-1.8,2.8-2.5c1.2-0.8,2.6-1.5,3.7-2.4c2.6-2.2,1.6-6,2.7-9c0.9-2.5,2.2-4.8,3.9-6.8  	c0.7-0.9,1.3-1.6,1.8-2.5c0.6-1.1,1.2-2.2,2.3-2.8c0.7-0.4,1.6-0.5,2.4-0.6c5.6-0.5,11.2,0.4,16.3,2.7c1.3,0.6,2.7,1.3,4,1.9  	c1.5,0.6,3.3,1,4.6,1.9c1.3,0.9,2.5,1.4,3.9,2c4.1,1.6,8.6,7.3,8.1,11.9c0,0.1,0,0.2-0.1,0.2c-0.1,0-0.1,0-0.2,0  	c-0.3-0.2-0.6-0.4-0.9-0.7c0,0.2,0.2,0.3,0.3,0.4c0.1,0.2-0.3,0.3-0.5,0.3c-1.1-0.2-2-1-2.3-2.1c0,0.1-0.1,0.3-0.2,0.3  	c-2.1-0.7-2.8-3-4.8-4c-0.7-0.3-1.4-0.5-2-0.9c-1.7-1-2.4-3-4.4-3.8c-2.1-0.8-4.4-1-6.6-1c-4-0.1-8.2,0.8-12.1,0.4  	c-0.1,4-2.1,8-5.3,10.5c0.9-0.2,1.8-0.8,2.4-1.6c0.8,1.8,0.6,3.9,0.3,5.7c-0.2,1.2-1.1,3-0.6,4.2c0.5,1.2,2,1.9,3.2,2  	c1,0.1,1.8-0.6,2.5-1.3c1.2-1.1,1-2.5,1.9-3.9c0.9-1.4,2.4-2.7,4-2.3c0.3,0.1,0.6,0.2,0.9,0.2c1.4,0.1,2.8-1.2,4.2-1.4  	c1.7-0.2,3.5,0,5.1,0.7c4.1,1.9,6,6.6,4,10.8c-1.1,2.3-3.7,4.3-6.2,4.6c0.1,0.8-0.3,1.7-1,2.2c-1.2,0.9-2.6,0.5-3.6-0.3  	c-0.9,0.6-1.9,0.8-2.9,0.8c-1.6-1.2-3.7-1.9-6.3-1.9c-0.7,0-1.4,0-2.1,0.1c-3.7,0.4-8,2.6-12.8,6.8c0-0.7-0.2-1.5-0.7-2.4  	c-2.5-4.9-8.6-5.1-13-3.8c-4.2,1.2-7.5,3.9-10.3,6.4c0-0.7-0.2-1.5-0.6-2.5C26.6,85.2,25,84,23,83.2z M99.3,99.4  	c0.4,0.5,0.8,1.2,0.7,1.2c-0.1,0-21.7,0-21.7,0H24.7c0,0-24.6,0-24.7,0c-0.1,0,1.2-3,1.4-3.2c3.2-5.4,9.2-11.4,15.8-12.2  	c3.8-0.4,6.8,1.3,7.5,2.8c1,2.1-0.5,1.7-1.5,1.5c-1.2-0.4-2.9-0.3-3.9,1.5c-0.5,0.8-0.5,1.6-0.3,2.4c0.7,2.8,4.1,3.6,6.4,2.3  	c1.6-0.9,2.8-2.6,4.1-3.8c2.9-2.6,5.9-5.2,9.7-6.3c3.1-0.9,7.8-1,9.5,2.3c1,1.8-0.3,1.6-1.6,1.4c-1.5-0.3-3.1,0.2-3.8,1.6  	c-0.5,0.8-0.5,1.6-0.3,2.4c0.5,1.9,2.3,3,4.1,3c1.1,0,2.2-0.4,3-1.3c3.7-3.9,9.8-9.4,15-9.8c0.6-0.1,1.2-0.1,1.8-0.1  	c3.8,0,5.1,1.6,5.8,2.9c1.2,2.3-0.2,1.8-1.2,1.5c-0.1,0-0.2-0.1-0.3-0.1c-0.3-0.1-0.6-0.2-1-0.2c-1,0-2.1,0.3-2.9,1.7  	c-0.5,0.8-0.5,1.6-0.3,2.4c0.1,0.4,0.3,0.8,0.5,1.1c1.4,2.1,4.8,2.5,6.7,0.5c3.7-3.9,9.8-9.4,15-9.8c5.1-0.5,6.8,1.3,7.5,2.8  	c1.3,2.5-0.5,1.7-1.5,1.5c-1.2-0.4-2.9-0.3-3.9,1.5c-0.5,0.8-0.5,1.6-0.3,2.4c0.5,2.1,2.9,2.8,4.7,3.4c1,0.3,2.1,0.9,2.9,1.6  	C98.7,98.8,99,99.1,99.3,99.4z M61,9.4c-0.1,1.1-1.2,1.9-2.3,1.7c-1.1-0.1-1.9-1.2-1.7-2.3c0.3-2.1-1.4-4.5-3.6-5.2  	c-2.2-0.7-5,0.1-6.8,2c-2.8,2.9-2.7,8.5-2.7,12.9c0,0.6,0,1.1,0,1.6c0,0,0,0,0,0c0,0,0,0,0,0c0,0.1,0,0.1,0,0.2l0,44.1  	c0,0.2-0.1,0.3-0.2,0.4c-1.2,0.5-2.3,1.3-3.3,2.2c-0.2,0.2-0.4,0.1-0.4-0.2l0-10.7H14.5v13l21.2,0c0.3,0,0.4,0.4,0.1,0.5  	c-2,0.8-3.7,1.9-5.2,3.4c-0.1,0.1-0.2,0.1-0.3,0.1l-15.8,0v9.4c0,0.1-0.1,0.3-0.2,0.3c-1.2,0.3-2.4,0.7-3.5,1.3  	c-0.1,0.1-0.3,0-0.3-0.2V20.3c0-0.6,0-1.2,0-1.8C10.5,13.4,10.4,7,14.3,2.8c2.8-3,7.2-4.2,10.9-3.1c4.1,1.3,6.9,5.5,6.3,9.6  	c-0.1,1.1-1.2,1.9-2.2,1.7c-1.1-0.1-1.9-1.2-1.7-2.2c0.3-2.1-1.4-4.5-3.6-5.2c-2.2-0.7-5,0.1-6.8,2c-2.7,2.9-2.7,8.2-2.7,12.5H40  	c-0.1-5.1,0-11.3,3.8-15.3c2.8-3,7.2-4.2,10.9-3.1C58.7,1.1,61.5,5.3,61,9.4z M40,39.1H14.5v13H40V39.1z M40,22.1H14.5v13H40V22.1z  	 M46.7,27.4v4.4c0,0.1,0.1,0.2,0.2,0.2h52.9c0.1,0,0.2-0.1,0.2-0.2v-4.4c0-0.1-0.1-0.2-0.2-0.2H46.9C46.8,27.1,46.7,27.2,46.7,27.4z  	 M17.1,27.4v4.4c0,0.1,0.1,0.2,0.2,0.2h19.8c0.1,0,0.2-0.1,0.2-0.2v-4.4c0-0.1-0.1-0.2-0.2-0.2H17.3C17.2,27.1,17.1,27.2,17.1,27.4z  	 M0.2,32h7.9c0.1,0,0.2-0.1,0.2-0.2v-4.4c0-0.1-0.1-0.2-0.2-0.2H0.2c-0.1,0-0.2,0.1-0.2,0.2v4.4C0,31.9,0.1,32,0.2,32z"/>  </svg>