<?xml version="1.0" standalone="no"?>
			<!DOCTYPE svg PUBLIC "-//W3C//DTD SVG 1.1//EN" "http://www.w3.org/Graphics/SVG/1.1/DTD/svg11.dtd"><svg xmlns="http://www.w3.org/2000/svg" xmlns:xlink="http://www.w3.org/1999/xlink" version="1.1" fill="#FFF" width="100" height="100" viewBox="0 0 100 100" xml:space="preserve">  <path class="st0" d="M25.4,6.4c-2.6,0.1-4.2,0.8-4.8,1.9c-0.3,0.5-0.2,0.7,0,0.9c0.3,0.3,0.5,0.4,2.6,1.6c2.4,1.4,3.4,2,4.3,3.1  	c0.9,1,1.2,1.9,1.1,3c-0.1,1-0.5,1.9-1.2,2.7c-5.6,6.1-10.1,13.8-12.6,21.7c-1.3,4.1-1.9,8.4-2.1,12.7c-0.1,2.5,0.2,5.2-0.5,7.7  	c-0.6,2-2.6,3.2-3.9,4.6c-1.4,1.6-2.6,3.3-3.4,5.2c-1.3,2.9-2.1,6.9-1,9.9c0.1,0.2,0.2,0.4,0.4,0.4c0.2,0,0.4-0.2,0.5-0.4  	c2.3-3.5,6-6.5,10.1-7.6c2.3-0.6,4.8-0.6,7.2,0.1c1.2,0.3,2.3,0.8,3.4,1.4c0.8,0.4,1.6,1,2.4,1.5c0.2,0.1,0.4,0.2,0.6,0.1  	c0.1-0.1,0.1-0.3,0.1-0.5c-0.7-4.7-3.7-8.5-6.5-12.2c-1-1.4-1.9-3-1.5-4.8c0.2-0.8,0.3-1.1,0.9-2.3c2.3-4.9,5.1-8.7,9-12.1  	c3.4-3.1,7.2-5.4,12.3-7.6c2.1-0.9,6.1-2.4,6.4-2.4c0.1,0,0,0.3-0.3,2.7c-0.3,2.9-1,5.1-3.1,7.1c-0.1,0.1-0.2,0.2-0.2,0.3  	c0,0.4,0.4,0.5,0.8,0.5c2.8-0.1,6.2-0.5,8.5-2.1c2.9-2,5.5-5.1,7.1-8.3c0.4-0.7,0.8-1.5,0.9-1.7l0.2-0.4c0,0,1.1,0,1.1,0  	c10.7,0.3,19.6,7.2,29.9,9.2c1.5,0.3,5.2,0.5,4.1-2.1c-0.6-1.5-3-3.6-5.3-4.6c-0.1,0-0.1-0.1,0.3-0.2c0.7-0.3,1.1-0.6,1.4-1.2  	c0.3-0.5,0.3-0.6,0.4-1.2c0.1-1.2-0.2-2.7-1-4.6c-0.8-2-1.7-3.3-3.1-4.8c-6.4-6.8-13.4-11.2-21.6-13.6C63.4,8.8,56.6,8.3,50.3,9  	c-1.6,0.2-4.9-0.1-9.8-0.9c-1.6-0.3-2.3-0.4-3-0.5c-2.8-0.4-3.7-0.6-5.6-0.8C29.9,6.5,26.6,6.3,25.4,6.4z M98.4,91.6  	c-0.9-0.7-1.9-1.3-2.9-1.6c-1.8-0.6-4.2-1.3-4.7-3.4c-0.2-0.8-0.1-1.6,0.3-2.4c1.1-1.9,2.7-1.9,3.9-1.5c0.9,0.3,2.7,1.1,1.5-1.5  	c-0.8-1.5-2.4-3.3-7.5-2.8c-5.2,0.5-11.2,5.9-15,9.8c-1.9,2-5.3,1.6-6.7-0.5c-0.2-0.4-0.4-0.7-0.5-1.1c-0.2-0.8-0.1-1.6,0.3-2.4  	c0.8-1.4,1.9-1.8,2.9-1.7c0.3,0,0.7,0.1,1,0.2c0.1,0,0.2,0.1,0.3,0.1c1,0.3,2.3,0.7,1.2-1.5c-0.7-1.3-2-2.8-5.8-2.9  	c-0.5,0-1.1,0-1.8,0.1c-5.2,0.5-11.2,5.9-15,9.8c-0.8,0.9-1.9,1.3-3,1.3c-1.8,0-3.6-1.1-4.1-3c-0.2-0.8-0.1-1.6,0.3-2.4  	c0.8-1.4,2.3-1.9,3.8-1.6c1.3,0.3,2.5,0.5,1.6-1.4c-1.7-3.4-6.4-3.2-9.5-2.3c-3.8,1.1-6.8,3.6-9.7,6.3c-1.3,1.2-2.6,2.9-4.1,3.8  	c-2.3,1.3-5.7,0.5-6.4-2.3c-0.2-0.8-0.1-1.6,0.3-2.4c1.1-1.9,2.7-1.9,3.9-1.5c0.9,0.3,2.5,0.6,1.5-1.5c-0.7-1.5-3.7-3.2-7.5-2.8  	C10.6,79,4.5,85.1,1.4,90.5c-0.1,0.2-1.4,3.2-1.4,3.2c0,0,24.7,0,24.7,0h53.6c0,0,21.7,0,21.7,0c0.1,0-0.3-0.7-0.7-1.2  	C99,92.1,98.7,91.8,98.4,91.6z M96.7,74.9c0,0-0.1,0-0.1,0c-2.7-0.8-5-1.4-7.9-1.1c-3.7,0.3-8,2.6-12.7,6.7c-0.1-1-0.5-1.9-0.8-2.3  	c-1.5-2.9-4.3-4.5-8.4-4.5c-0.7,0-1.4,0-2.1,0.1c-3.7,0.4-8,2.6-12.8,6.8c0-0.7-0.2-1.5-0.7-2.4c-2.5-4.9-8.6-5.1-13-3.8  	c-2.4,0.7-4.5,1.9-6.4,3.2c-0.1-2.9-1.2-5.8-2.6-8.4c0.8-0.9,1.6-1.8,2.6-2.7c2.7-2.5,5.6-4.9,9.2-5.9c3-0.8,7.3-1,8.9,2.2  	c0.9,1.7-0.2,1.6-1.5,1.3c-1.5-0.3-2.9,0.2-3.6,1.5c-0.4,0.8-0.5,1.5-0.3,2.3c0.5,1.8,2.2,2.8,3.9,2.8c1,0,2.1-0.4,2.9-1.2  	c3.5-3.7,9.2-8.8,14.1-9.3C66,60,66.6,60,67.1,60c3.5,0,4.8,1.5,5.5,2.7c1.1,2.1-0.2,1.7-1.1,1.5c-0.1,0-0.2-0.1-0.3-0.1  	c-0.3-0.1-0.6-0.1-0.9-0.2c-1,0-2,0.3-2.8,1.6c-0.4,0.8-0.5,1.5-0.3,2.3c0.1,0.4,0.3,0.7,0.4,1.1c1.3,2,4.5,2.4,6.3,0.5  	c3.5-3.7,9.2-8.8,14.1-9.3c4.8-0.4,6.4,1.2,7.1,2.6c1.2,2.4-0.5,1.6-1.4,1.4c-1.2-0.3-2.7-0.3-3.7,1.4c-0.4,0.8-0.5,1.5-0.3,2.3  	c0.4,1.6,1.9,2.4,3.3,2.9c1,0.4,2.1,1,2.9,1.8c0.1,0.1,0.5,0.7,0.8,1.3C96.9,74.3,97,74.8,96.7,74.9z"/>  </svg>