<?xml version="1.0" standalone="no"?>
			<!DOCTYPE svg PUBLIC "-//W3C//DTD SVG 1.1//EN" "http://www.w3.org/Graphics/SVG/1.1/DTD/svg11.dtd"><svg xmlns="http://www.w3.org/2000/svg" xmlns:xlink="http://www.w3.org/1999/xlink" version="1.1" fill="#FFF" width="100" height="100" viewBox="0 0 100 100" xml:space="preserve">  <path class="st0" d="M91,33.4c-0.2-2.8-2.6-4.9-5.4-4.7l-1.5,0.1l-1.3-18.7c-0.3-5-4.7-8.7-9.6-8.4L17.2,5.7c-5,0.3-8.7,4.7-8.4,9.6  	L10.1,34l-1.5,0.1c-2.8,0.2-4.9,2.6-4.7,5.4l1.2,17.3l87-6.1L91,33.4z M12.4,15c-0.2-3,2.1-5.6,5.1-5.8l27.1-1.9l0.3,4l-5.1,0.4  	c-0.3,0-0.5,0.2-0.4,0.5l0.3,4.8c0,0.3,0.2,0.5,0.5,0.4l12-0.8c0.3,0,0.5-0.2,0.4-0.5l-0.3-4.8c0-0.3-0.2-0.5-0.5-0.4l-5.1,0.4  	l-0.3-4l27.1-1.9c3-0.2,5.6,2.1,5.8,5.1l1.3,18.7l-5,0.4c0-0.3,0-0.6,0-0.9c-0.4-5.9-5.5-10.3-11.4-9.9c-5.9,0.4-10.3,5.5-9.9,11.4  	c0,0.3,0.1,0.6,0.1,0.9l-40.6,2.9L12.4,15z M16.4,51.1c-2.9,0.2-5.5-2-5.7-5s2-5.5,5-5.7c2.9-0.2,5.5,2,5.7,5  	C21.5,48.4,19.3,50.9,16.4,51.1z M30.9,50.6c0,0.7-0.5,1.3-1.2,1.4c-0.7,0-1.3-0.5-1.4-1.2l-0.8-11.6c0-0.7,0.5-1.3,1.2-1.4  	c0.7,0,1.3,0.5,1.4,1.2L30.9,50.6z M37.1,50.1c0,0.7-0.5,1.3-1.2,1.4s-1.3-0.5-1.4-1.2l-0.8-11.6c0-0.7,0.5-1.3,1.2-1.4  	s1.3,0.5,1.4,1.2L37.1,50.1z M43.4,49.7c0,0.7-0.5,1.3-1.2,1.4c-0.7,0-1.3-0.5-1.4-1.2L40,38.2c0-0.7,0.5-1.3,1.2-1.4  	c0.7,0,1.3,0.5,1.4,1.2L43.4,49.7z M49.6,49.2c0,0.7-0.5,1.3-1.2,1.4c-0.7,0-1.3-0.5-1.4-1.2l-0.8-11.6c0-0.7,0.5-1.3,1.2-1.4  	c0.7,0,1.3,0.5,1.4,1.2L49.6,49.2z M55.9,48.8c0,0.7-0.5,1.3-1.2,1.4c-0.7,0-1.3-0.5-1.4-1.2l-0.8-11.6c0-0.7,0.5-1.3,1.2-1.4  	c0.7,0,1.3,0.5,1.4,1.2L55.9,48.8z M62.1,48.4c0,0.7-0.5,1.3-1.2,1.4c-0.7,0-1.3-0.5-1.4-1.2l-0.8-11.6c0-0.7,0.5-1.3,1.2-1.4  	c0.7,0,1.3,0.5,1.4,1.2L62.1,48.4z M68.4,47.9c0,0.7-0.5,1.3-1.2,1.4c-0.7,0-1.3-0.5-1.4-1.2L65,36.5c0-0.7,0.5-1.3,1.2-1.4  	c0.7,0,1.3,0.5,1.4,1.2L68.4,47.9z M72.8,29.6L57,30.7c-0.1-0.3-0.1-0.6-0.1-0.9c-0.3-4.4,3-8.2,7.4-8.5s8.2,3,8.5,7.4  	C72.8,29.1,72.8,29.3,72.8,29.6z M80.3,46.7c-2.9,0.2-5.5-2-5.7-5c-0.2-2.9,2-5.5,5-5.7c2.9-0.2,5.5,2,5.7,5S83.2,46.4,80.3,46.7z  	 M71.1,66l18.8-1.3l0.8,11.2c0.1,1.9-1.3,3.5-3.1,3.6l-12.1,0.8c-1.9,0.1-3.5-1.3-3.6-3.1L71.1,66z M97.5,51.6l0.8,10.8L0.8,69.2  	L0,58.5L97.5,51.6z M9.4,70.3L28.2,69L29,80.2c0.1,1.9-1.3,3.5-3.1,3.6l-12.1,0.8c-1.9,0.1-3.5-1.3-3.6-3.1L9.4,70.3z M2.2,98.3  	l9.5-11.1l18.4-1.5l7-4.9l18.5-5.7l8.4,3.3l7.8,4.7c0,0,17.4-1.2,20.8-1.5c2.3,5,5.4,11.5,7.4,16.7H2.2z"/>  </svg>