<?xml version="1.0" standalone="no"?>
			<!DOCTYPE svg PUBLIC "-//W3C//DTD SVG 1.1//EN" "http://www.w3.org/Graphics/SVG/1.1/DTD/svg11.dtd"><svg xmlns="http://www.w3.org/2000/svg" xmlns:xlink="http://www.w3.org/1999/xlink" version="1.1" fill="#FFF" width="100" height="100" viewBox="0 0 100 100" xml:space="preserve">  <path class="st0" d="M30.9,9.2c0,0.8-0.7,1.5-1.5,1.5H4.6c-0.8,0-1.5-0.7-1.5-1.5s0.7-1.5,1.5-1.5h24.8C30.2,7.7,30.9,8.3,30.9,9.2z  	 M1.5,5.1h31c0.8,0,1.5-0.7,1.5-1.5s-0.7-1.5-1.5-1.5h-31C0.7,2.1,0,2.8,0,3.6S0.7,5.1,1.5,5.1z M32.5,94.9h-31  	c-0.8,0-1.5,0.7-1.5,1.5c0,0.8,0.7,1.5,1.5,1.5h31c0.8,0,1.5-0.7,1.5-1.5C34,95.6,33.3,94.9,32.5,94.9z M3.1,90.8  	c0,0.8,0.7,1.5,1.5,1.5h24.8c0.8,0,1.5-0.7,1.5-1.5c0-0.8-0.7-1.5-1.5-1.5H4.6C3.8,89.4,3.1,90,3.1,90.8z M28.2,45.4v41.2H5.8V45.4  	v-0.2V13.4h22.4v31.8V45.4z M12.1,17.7c0-0.8-0.6-1.5-1.3-1.5s-1.3,0.7-1.3,1.5v27.4v0.2v36.8c0,0.8,0.6,1.5,1.3,1.5  	s1.3-0.7,1.3-1.5V45.4v-0.2V17.7z M18.3,17.7c0-0.8-0.6-1.5-1.3-1.5s-1.3,0.7-1.3,1.5v27.4v0.2v36.8c0,0.8,0.6,1.5,1.3,1.5  	s1.3-0.7,1.3-1.5V45.4v-0.2V17.7z M24.6,17.7c0-0.8-0.6-1.5-1.3-1.5c-0.7,0-1.3,0.7-1.3,1.5v27.4v0.2v36.8c0,0.8,0.6,1.5,1.3,1.5  	c0.7,0,1.3-0.7,1.3-1.5V45.4v-0.2V17.7z M98,95.8c-1.7-1.2-3.7-1.8-5.8-2.2c-1.5-0.3-2.9-1.1-3.3-2.8c-0.2-0.8-0.1-1.6,0.3-2.4  	c1-1.8,2.6-1.8,3.9-1.5c0.9,0.3,2.7,1,1.4-1.4c-0.7-1.5-2.4-3.2-7.4-2.7c-5,0.5-11,5.8-14.6,9.6c-1.9,2-5.2,1.6-6.5-0.5  	c-0.2-0.3-0.4-0.7-0.5-1.1c-0.2-0.8-0.1-1.6,0.3-2.4c0.8-1.4,1.8-1.7,2.9-1.7c0.3,0,0.7,0.1,1,0.2c0.1,0,0.2,0.1,0.3,0.1  	c0.9,0.3,2.3,0.7,1.1-1.5c-0.6-1.3-2-2.8-5.7-2.8c-0.5,0-1.1,0-1.7,0.1c-5,0.5-11,5.8-14.6,9.6c-0.8,0.9-1.9,1.3-3,1.3  	c-1.8,0-3.6-1-4-2.9c-0.2-0.8-0.1-1.6,0.3-2.4c0.8-1.3,2.2-1.9,3.7-1.6c1.3,0.3,2.5,0.5,1.5-1.3c-1.7-3.3-6.2-3.1-9.3-2.3  	c-2.7,0.8-4.9,2.3-7,4c1.3,0.7,2.1,2,2.1,3.5c0,0.6-0.1,1.1-0.3,1.6c1.9,0.3,3.4,2,3.4,4c0,0.5-0.1,1-0.3,1.5H100v-0.2  	C99.4,96.9,98.7,96.3,98,95.8z M65.4,43.6c2.3,1.5,3.4,2.8,3.4,4c0,1-0.7,2-1.3,2.6c-0.6,0.7-1.4,1.3-2.1,2  	c-2.2,1.9-4.7,4.1-4.8,7.5c-0.2,3.9,3.2,6.8,5,8.4c0.3,0.3,0.7,0.4,1.2,0.4c0.5,0,1-0.2,1.3-0.6c0.6-0.7,0.6-1.8-0.2-2.5  	C66,63.9,64,62,64.1,59.9c0.1-1.9,1.7-3.3,3.6-5c0.8-0.7,1.7-1.5,2.4-2.3c1.5-1.6,2.2-3.3,2.2-5c0-3.4-2.8-5.6-5.1-7  	c-1.8-1.1-3.6-2.3-4-3.9c-0.2-1,0.2-2.3,1-3.4c0.9-1.2,2.3-2.1,3.6-3c0.8-0.5,1-1.6,0.5-2.4c-0.5-0.8-1.6-1-2.4-0.5  	c-1.5,1-3.1,2.1-4.4,3.7c-1.6,2-2.2,4.3-1.7,6.3C60.6,40.4,63.2,42.1,65.4,43.6z M75.1,37.4c-0.5-2.1,0.2-4.4,1.7-6.3  	c1.3-1.6,2.9-2.7,4.4-3.7c0.8-0.5,1.9-0.3,2.4,0.5c0.5,0.8,0.3,1.9-0.5,2.4c-1.3,0.9-2.7,1.8-3.6,3c-0.9,1.1-1.3,2.3-1,3.3  	c0.4,1.6,2.2,2.8,4,3.9c2.2,1.4,5,3.6,5.1,7c0,1.7-0.7,3.4-2.2,5c-0.7,0.8-1.6,1.6-2.4,2.3c-1.9,1.7-3.5,3.1-3.6,5  	c-0.1,2.1,1.9,4,3.8,5.6c0.7,0.6,0.8,1.8,0.2,2.5c-0.3,0.4-0.8,0.6-1.3,0.6c-0.4,0-0.8-0.1-1.2-0.4c-1.8-1.6-5.1-4.5-5-8.4  	c0.1-3.4,2.6-5.6,4.8-7.5c0.8-0.7,1.5-1.3,2.1-2c0.6-0.7,1.3-1.7,1.3-2.6c0-1.3-1.1-2.5-3.4-4C78.5,42.1,75.8,40.4,75.1,37.4z  	 M44.6,37.4c-0.5-2.1,0.2-4.4,1.7-6.3c1.3-1.6,2.9-2.7,4.4-3.7c0.8-0.5,1.9-0.3,2.4,0.5c0.5,0.8,0.3,1.9-0.5,2.4  	c-1.3,0.9-2.7,1.8-3.6,3c-0.9,1.1-1.3,2.3-1,3.4c0.4,1.6,2.2,2.8,4,3.9c2.2,1.4,5.1,3.7,5.1,7c0,1.7-0.7,3.4-2.2,5  	c-0.8,0.8-1.6,1.6-2.4,2.3c-1.9,1.7-3.5,3.1-3.6,5c-0.1,2.1,1.9,4,3.8,5.6c0.7,0.6,0.8,1.8,0.2,2.5c-0.3,0.4-0.8,0.6-1.3,0.6  	c-0.4,0-0.8-0.1-1.2-0.4c-1.8-1.6-5.1-4.5-5-8.4c0.1-3.4,2.6-5.6,4.8-7.5c0.8-0.7,1.5-1.3,2.1-2c0.6-0.7,1.3-1.7,1.3-2.6  	c0-1.3-1.1-2.5-3.4-4C48,42.1,45.3,40.4,44.6,37.4z"/>  </svg>