<?xml version="1.0" standalone="no"?>
			<!DOCTYPE svg PUBLIC "-//W3C//DTD SVG 1.1//EN" "http://www.w3.org/Graphics/SVG/1.1/DTD/svg11.dtd"><svg xmlns="http://www.w3.org/2000/svg" xmlns:xlink="http://www.w3.org/1999/xlink" version="1.1" fill="#FFF" width="100" height="100" viewBox="0 0 100 100" xml:space="preserve">  <path class="st0" d="M20.9,44.2c-1,0.3-2,0.7-2.9,1.2c1.2-8.8,5.2-15.8,17.7-18.6c0.1-0.9,0.8-1.7,1.8-1.7h17.5  	c1.5-0.7,2.8-1.7,3.8-2.9c1.8-2.2,2.6-4.9,2.4-7.8c-0.2-2.9-1.6-5.4-3.7-7.1H33.2L29,0h54.5l-4.2,7.2H61.7c1.5,2,2.4,4.4,2.6,6.9  	c0.3,3.7-0.8,7.2-3.1,9.9c-0.3,0.4-0.6,0.7-0.9,1h14.9c1,0,1.7,0.8,1.8,1.7c11.8,2.7,16,9,17.5,17h-2.7c-1.4-6.9-5.1-12.1-15-14.4  	c-0.3,0.6-0.9,1.1-1.7,1.1H37.6c-0.7,0-1.4-0.4-1.7-1.1C25.9,31.7,22.2,37,20.9,44.2z M75.1,46.4c-4.2,0.1-7.6,3.6-7.6,7.9v17.1  	h23.9V55.3c0-3.5,2.1-6.6,5.1-8v-0.9H75.1z M40.1,54.3v17.1h25.4V54.3c0-3.2,1.6-6.1,4-7.9H47.7C43.5,46.5,40.1,50,40.1,54.3z  	 M91.3,74v2.6l-10.6,7.2c-0.4,0.3-1,0.5-1.5,0.5c-0.8,0-1.6,0-2.5,0c0.2,0.6,0.3,1.2,0.3,1.9v7.3c0,2.4-1.4,4.4-3.5,5.3  	c-0.3,0.7-1,1.2-1.8,1.2H5.6c-1.2,0-2.2-1.1-1.9-2.3c0.2-1,1.1-1.6,2.1-1.6h1.4c-0.4-0.8-0.6-1.6-0.6-2.6v-7.3  	c0-0.7,0.1-1.3,0.3-1.9c-0.6,0-0.9,0-0.9,0c-1.5,0-2.4-1.7-2.3-3c0.2-1.7,1.5-2.1,2.7-2.9c2.1-1.4,4.2-2.8,6.3-4.3  	C13.3,74,88.5,73.9,91.3,74z M73.7,84.2c-15.6,0-52,0-63.9,0c-0.4,0.5-0.7,1.2-0.7,1.9v7.3c0,1.1,0.6,2,1.4,2.6h61.3  	c0.3,0,0.6,0.1,0.9,0.2c1-0.5,1.7-1.6,1.7-2.8v-7.3C74.4,85.4,74.1,84.8,73.7,84.2z M38.1,54.3c0-3.2,1.6-6.1,4-7.9H23.8  	c-4.9,0-8.9,4-8.9,8.9v16.1h23.1V54.3z"/>  </svg>