<?xml version="1.0" standalone="no"?>
			<!DOCTYPE svg PUBLIC "-//W3C//DTD SVG 1.1//EN" "http://www.w3.org/Graphics/SVG/1.1/DTD/svg11.dtd"><svg xmlns="http://www.w3.org/2000/svg" xmlns:xlink="http://www.w3.org/1999/xlink" version="1.1" fill="#FFF" width="100" height="100" viewBox="0 0 100 100" xml:space="preserve">  <path class="st0" d="M67.3,22c-0.2-1-0.5-2-0.8-3c4.9-3.4,9.7-5.4,14.4-6c0.4-0.1,0.9,0,1.3,0.3c0.4,0.2,0.7,0.6,0.9,1  	c2,4.6,2.8,10.1,2.2,16.5c-1,11.6-7.1,22.1-15.9,28.9c-0.1-1.1-0.2-2.3-0.4-3.4c7.4-6.3,12.5-15.6,13.4-25.7  	c0.5-5.7-0.1-10.6-1.8-14.6C76.3,16.7,71.8,18.7,67.3,22z M30.8,59.9c0.1-1.1,0.2-2.3,0.4-3.4c-7.5-6.3-12.6-15.6-13.5-25.9  	C17.2,25,17.8,20.1,19.4,16c4.2,0.6,8.7,2.6,13.2,5.9c0.2-1,0.5-2,0.8-2.9c-4.8-3.3-9.6-5.3-14.2-5.9c-0.5-0.1-0.9,0-1.3,0.3  	c-0.4,0.2-0.7,0.6-0.9,1c-2,4.6-2.8,10.1-2.2,16.5C15.8,42.6,21.9,53.1,30.8,59.9z M30.1,67.7C30.1,67.7,30.1,67.6,30.1,67.7  	c-9.6-1.6-18.6-7.6-23.5-16.6c0,0,0,0,0,0C4.4,46.9,3.2,42.9,3,39.2c3.1-0.8,6.8-0.9,10.8-0.1c-0.3-1-0.5-2-0.8-3.1  	C8.8,35.4,5,35.6,1.6,36.6c-0.4,0.1-0.8,0.4-1,0.7c-0.3,0.3-0.4,0.8-0.4,1.2c0,4.3,1.3,9,4,13.9h0C9,61.6,17.8,67.9,27.4,70.1  	C28.4,69.3,29.3,68.5,30.1,67.7z M99.5,37.4c-0.3-0.4-0.6-0.6-1.1-0.7c-3.4-1-7.3-1.2-11.5-0.6c-0.2,1-0.5,2-0.8,3.1  	c4-0.7,7.7-0.7,10.8,0.1c-0.1,3.7-1.3,7.6-3.6,11.8c0,0,0,0,0,0C88.5,60,79.6,66,70,67.6c0,0,0,0.1,0,0.1c0.8,0.8,1.7,1.6,2.6,2.3  	c9.6-2.2,18.3-8.5,23.2-17.6c2.7-4.9,4-9.6,4-13.9C99.9,38.1,99.7,37.7,99.5,37.4z M38.1,45.1c-2.6-9.3-2.1-19.7,2.2-28.9  	c2.6-5.7,5.9-10.2,9.7-13.1c3.8,3,7.1,7.4,9.7,13.1c4.2,9.2,4.8,19.5,2.2,28.8c0.9,0.2,1.8,0.6,2.7,1.1c2.9-10.1,2.3-21.2-2.2-31.1  	c-2.9-6.4-6.6-11.3-11-14.6c-0.7-0.6-1.9-0.6-2.6,0c-4.4,3.3-8.1,8.2-11,14.6c-4.6,10-5.1,21.2-2.2,31.3  	C36.3,45.7,37.2,45.4,38.1,45.1z M84,81.1c0,0.1,0,0.3-0.1,0.4c-0.1,0.1-0.2,0.2-0.3,0.2c-1.2,0.5-2.5,0.7-3.8,0.7  	c0.5,5.9-6,9.9-11,11c-0.1,0.3,0,0.7,0.2,0.9c1,1.1,2.4,2,2.2,3.7c-0.1,1.1-1.2,2-2.3,1.9c-0.6,0-1.1-0.2-1.6-0.4  	c-2.2-0.8-4-1.2-6.3-1.1c-3.6,0.1-7.4,0.1-10.6-1.6c-0.1,0-0.1-0.1-0.2-0.1c-0.1,0-0.1,0.1-0.2,0.1c-3.2,1.7-7,1.6-10.6,1.6  	c-2.3,0-4.1,0.3-6.3,1.1c-0.5,0.2-1.1,0.4-1.6,0.4c-1.1,0-2.1-0.9-2.3-1.9c-0.2-1.7,1.2-2.7,2.2-3.7c0.2-0.3,0.4-0.6,0.2-0.9  	c-5-1-11.6-5-11-11c-1.3,0-2.6-0.2-3.8-0.7c-0.1-0.1-0.3-0.1-0.3-0.2c-0.1-0.1-0.1-0.3-0.1-0.4c-0.1-1.5-0.2-3,0.4-4.4  	c0.1-0.3,0.4-0.6,0.7-0.8c0.3-0.1,0.6-0.2,0.8-0.2c1.7-0.1,3.3-0.3,5,0.1c1.4,0.3,2.9-1.4,4-2.2c1.8-1.3,3.4-2.6,5-4.2  	c0.2-0.2,0.4-0.4,0.5-0.6c0.1-0.2,0.1-0.5,0.1-0.7c0.4-4.7,0.8-9.3,1.4-13.9c0.3-2.4,0.7-4.4,2.8-5.8c1.6-1.1,3.8-1.1,5.6-1.9  	c1.4-0.6,2.8-1.9,3.3-3.5c0.5-1.8-0.5-3.3-1.7-4.7c-0.7-0.8-1.4-1.8-1.3-2.9c0-0.6,0.3-1.2,0.9-1.3c-0.8-2.8-0.3-6.4,2.2-8.1  	c1.2-0.8,2.8-1.2,4.3-1.1c1.5-0.1,3,0.2,4.3,1.1c2.6,1.7,3,5.3,2.2,8.1c0.6,0.1,0.9,0.7,0.9,1.3c0,1.1-0.6,2.1-1.3,2.9  	c-1.1,1.4-2.2,2.8-1.7,4.7c0.4,1.6,1.8,2.8,3.3,3.5c1.8,0.8,3.9,0.8,5.6,1.9c2.1,1.4,2.5,3.4,2.8,5.8c0.6,4.6,1,9.3,1.4,13.9  	c0,0.2,0,0.5,0.1,0.7c0.1,0.2,0.3,0.4,0.5,0.6c1.6,1.6,3.2,2.9,5,4.2c1.1,0.8,2.6,2.5,4,2.2c1.7-0.3,3.3-0.2,5-0.1  	c0.3,0,0.6,0,0.8,0.2c0.3,0.2,0.5,0.5,0.7,0.8C84.2,78.1,84.1,79.6,84,81.1z M39.4,62.2c-0.1-0.3-0.2-0.7-0.5-0.8  	c-0.3,1.5-0.3,3-0.6,4.6c-0.2,1.6-0.5,3.3-0.8,4.9c-0.3,1.6-1,2.5-2.3,3.4c-2.5,1.7-5.5,2.8-8.4,3.6c-0.2,0.2,0.1,0.4,0.4,0.4  	c1.7,0.3,3.4,0.6,5.1,0.7c1.7,0.2,3.7,0.5,5.3,0.2c0.1,0,0.2-0.1,0.3-0.1c0.2-0.1,0.2-0.3,0.3-0.5C40.5,73.6,40.6,67.6,39.4,62.2z  	 M73.5,77.9c-2.9-0.9-5.9-1.9-8.4-3.6c-1.3-0.9-2-1.8-2.3-3.4c-0.3-1.6-0.6-3.3-0.8-4.9c-0.2-1.5-0.2-3.1-0.6-4.6  	c-0.3,0.1-0.4,0.5-0.5,0.8c-1.2,5.3-1.1,11.4,1.1,16.5c0.1,0.2,0.2,0.4,0.3,0.5c0.1,0.1,0.2,0.1,0.3,0.1c1.7,0.3,3.7,0,5.3-0.2  	c1.7-0.2,3.5-0.5,5.1-0.7C73.4,78.3,73.7,78.1,73.5,77.9z"/>  </svg>