<?xml version="1.0" standalone="no"?>
			<!DOCTYPE svg PUBLIC "-//W3C//DTD SVG 1.1//EN" "http://www.w3.org/Graphics/SVG/1.1/DTD/svg11.dtd"><svg xmlns="http://www.w3.org/2000/svg" xmlns:xlink="http://www.w3.org/1999/xlink" version="1.1" fill="#FFF" width="100" height="100" viewBox="0 0 100 100" xml:space="preserve">  <path class="st0" d="M57.4,36.9c0.7-1.3,2.2-1.8,3.5-1.1c0.7,0.4,1.1,1,1.3,1.6c0.5-0.2,1.1-0.2,1.6,0c0.9,0.5,1.3,1.6,0.8,2.6  	c-0.5,0.9-1.6,1.3-2.6,0.8c-0.3-0.2-0.6-0.4-0.8-0.8c-0.8,0.6-1.9,0.7-2.8,0.3C57.3,39.7,56.8,38.2,57.4,36.9z M100,40.9v32.3  	c0,14.5-22.4,26.3-50,26.3c-4.1,0-8.2-0.3-12.2-0.8c-0.2,0-0.3-0.1-0.5-0.2c-0.1,0-0.1,0-0.2,0c-0.8,0-1.4-0.6-1.4-1.4V79.5  	l-24.3,9.8c0,0,0,0,0,0l0,0c0,0-0.1,0-0.1,0c0,0-0.1,0-0.1,0c-0.1,0-0.2,0-0.3,0h0c-0.1,0-0.2,0-0.4-0.1c0,0-0.1,0-0.1,0  	c-0.1,0-0.2-0.1-0.3-0.1c0,0,0,0,0,0c-0.1-0.1-0.2-0.1-0.3-0.2c0,0,0,0,0-0.1c-0.1,0-0.3-0.1-0.4-0.2C3.3,84.2,0,78.8,0,73.1V40.9  	c0-0.1,0-0.2,0-0.3c0.6-6.5,7.8-12.2,19-15.9V9.9c0,0,0,0,0,0v0c0,0,0,0,0,0c0-0.1,0-0.3,0.1-0.4c0,0,0-0.1,0-0.1  	c0-0.1,0.1-0.1,0.1-0.2c0,0,0,0,0.1-0.1c0,0,0.1-0.1,0.1-0.1c0.1-0.1,0.2-0.1,0.2-0.2c0.1,0,0.1-0.1,0.2-0.1c0.1,0,0.1-0.1,0.2-0.1  	c0,0,0.1,0,0.1,0l59.1-7.9c0,0,0,0,0,0c0,0,0.1,0,0.1,0c0.1,0,0.2,0,0.3,0c0,0,0,0,0.1,0c0.1,0,0.2,0.1,0.3,0.1c0,0,0,0,0.1,0  	c0.1,0.1,0.2,0.2,0.3,0.3c0,0,0,0,0,0.1c0.1,0.1,0.1,0.2,0.2,0.4c0,0,0,0,0,0c0,0,0,0,0,0c0,0.1,0.1,0.2,0.1,0.4l0,6.9  	c0,0.4,0,0.8,0,1.1c0,0.9-0.4,1.3-0.7,1.5c-0.8,0.5-1.5,0.1-1.9,0c-0.2-0.1-0.3-0.1-0.4-0.2c-0.3-0.1-0.5-0.1-0.8-0.1  	c-0.5,0-1,0.2-1.4,0.6c-0.5,0.4-0.8,1-0.8,1.6s0.2,1.2,0.6,1.7c0.9,1,2.2,1.1,3.3,0.3c0.4-0.3,1-0.4,1.4-0.1  	c0.5,0.2,0.8,0.7,0.8,1.2v8.1c11.2,3.7,18.4,9.4,19,15.9C100,40.6,100,40.7,100,40.9z M78.2,4.1L57.1,14.7c0.1,0.2,0.2,0.3,0.3,0.5  	c0.3,1.1-0.3,2.2-1.3,2.5c-1.1,0.3-2.2-0.2-2.5-1.3L48,19.2v6c0,0,0,0,0,0c1.7-0.6,3.6,0.4,4.1,2.2c0.6,1.7-0.4,3.6-2.2,4.1  	c-0.7,0.2-1.4,0.2-2,0v12.3c1-0.3,2.1,0.3,2.4,1.3c0.3,1.1-0.3,2.2-1.3,2.5c-0.4,0.1-0.8,0.1-1.1,0v3.8l30.3-18.8V18.5  	c-1.7,0.3-3.5-0.2-4.8-1.6c-0.9-1-1.4-2.3-1.3-3.7s0.7-2.6,1.7-3.5c0.9-0.8,2-1.2,3.1-1.3c0.4,0,0.8,0,1.2,0.1L78.2,4.1z M24.5,10.7  	c5.6,2.9,13.2,5.1,21.8,6.3L71.6,4.4L24.5,10.7z M24.3,49c-1.7-0.8-3.2-1.7-4.6-2.6c-0.5-0.3-0.7-0.9-0.6-1.4c0-0.1,0-0.2,0-0.2  	V27.5C9.1,30.9,2.7,35.9,2.7,41.3c0,4.6,4.5,8.1,8.4,10.4L24.3,49z M38.8,56.8c-0.5-0.2-1-0.4-1.4-0.8c-0.8-0.8-1.1-1.8-0.9-2.8  	c-2.8-0.7-5.4-1.5-7.8-2.4L26,51.4c0,0.1,0,0.2,0,0.3c0,1.8-1.5,3.3-3.3,3.3c0,0-0.1,0-0.1,0c0,0,0,0,0,0c0,0.9-0.7,1.6-1.6,1.6  	s-1.6-0.7-1.6-1.6c0-0.5,0.3-1,0.7-1.3c-0.2-0.3-0.4-0.6-0.5-1l-7.2,1.5v19.4c0.5,0,1.1,0.2,1.5,0.6c0.8,0.8,0.8,2.1,0,2.8  	c-0.4,0.4-1,0.6-1.5,0.6V86l7.5-3c-0.9-1.3-0.8-3.1,0.4-4.2c1.3-1.3,3.4-1.3,4.7,0c0.5,0.5,0.8,1.1,0.9,1.8l9.9-4v-5.2  	c-0.6,0.1-1.2-0.1-1.7-0.6c-0.8-0.8-0.8-2.1,0-2.8c0.5-0.5,1.1-0.6,1.7-0.6v-6.9c0-0.4,0.1-0.7,0.4-1L38.8,56.8z M90.1,77.5l0-22  	c-3.1,2.3-10.2,4.3-10.2,4.3s-0.1,28.9,0,29.5c0.1,1,7.2-2.7,8.1-3.6C90.5,83.2,90.1,80.3,90.1,77.5z M97.3,41.3  	c0-5.4-6.4-10.4-16.3-13.8v5.9c0,0,0,0,0,0c0,0.1,0,0.1,0,0.2c0,0,0,0.1,0,0.1c0,0,0,0.1,0,0.1c0,0,0,0.1,0,0.1c0,0,0,0.1-0.1,0.1  	c0,0,0,0.1-0.1,0.1c0,0-0.1,0.1-0.1,0.1c0,0,0,0.1-0.1,0.1c0,0-0.1,0.1-0.1,0.1c0,0-0.1,0.1-0.1,0.1c0,0,0,0,0,0L47.4,55  	c0,0-0.1,0-0.2,0.1c0,0-0.1,0-0.1,0.1c-0.1,0-0.3,0.1-0.4,0.1c0,0,0,0,0,0c0,0,0,0,0,0c0,0,0,0,0,0c0,0,0,0,0,0c0,0,0,0-0.1,0  	c0,0,0,0,0,0c-0.1,0-0.3,0-0.4-0.1c-0.6-0.1-1.1-0.2-1.7-0.3l-4.4,4.5c3.2,0.3,6.6,0.4,9.9,0.4C75.6,59.8,97.3,51.3,97.3,41.3z  	 M69.7,31.4c0.8,0.4,1.8,0.1,2.2-0.7c0.4-0.8,0.1-1.8-0.7-2.2c-0.8-0.4-1.7-0.1-2.2,0.7C68.6,30,68.9,31,69.7,31.4z M60.8,26.9  	c1.1,0.3,2.2-0.3,2.6-1.4c1.9,0.5,3.8-0.7,4.3-2.6c0.5-1.9-0.6-3.9-2.6-4.4c-1.9-0.5-3.9,0.6-4.4,2.6c-0.1,0.5-0.1,1,0,1.5  	c-0.7,0.2-1.3,0.8-1.5,1.5C59,25.4,59.7,26.6,60.8,26.9z M16.1,59.6c-0.9,0-1.6,0.7-1.6,1.6c0,0.9,0.7,1.6,1.6,1.6  	c0.9,0,1.6-0.7,1.6-1.6C17.7,60.3,17,59.6,16.1,59.6z M26.8,62.8c-1,0-1.8,0.7-2.1,1.5c-0.1,0-0.2,0-0.3,0c-2,0.1-3.5,1.8-3.4,3.8  	s1.8,3.5,3.8,3.4c2-0.1,3.5-1.8,3.4-3.8c0-0.1,0-0.2,0-0.3c0.8-0.4,1.3-1.3,1.3-2.3C29.3,63.8,28.2,62.7,26.8,62.8z"/>  </svg>