<?xml version="1.0" standalone="no"?>
			<!DOCTYPE svg PUBLIC "-//W3C//DTD SVG 1.1//EN" "http://www.w3.org/Graphics/SVG/1.1/DTD/svg11.dtd"><svg xmlns="http://www.w3.org/2000/svg" xmlns:xlink="http://www.w3.org/1999/xlink" version="1.1" fill="#FFF" width="100" height="100" viewBox="0 0 100 100" xml:space="preserve">  <path class="st0" d="M99,49.4c-1-1.8-1.9-3.6-2.9-5.4c-1.5-2.6-3-5.2-4.6-7.7c-2.8-4.4-5.9-8.8-9.8-12.3c-0.7-0.7-1.8-1.3-2.7-0.8  	c-0.4,0.2-0.7,0.7-1.1,0.6c-0.4,0-0.6-0.4-0.8-0.7c-1.4-2.2-3.1-4.2-5.1-6c-0.8-0.7-1.7-1.4-2.7-1.2c-0.7,0.2-1.2,0.8-1.7,1.4  	c-3.3,4.2-6.1,8.4-8.9,12.9c-4.3-5.6-8.3-11.4-12.4-17.1c-1.9-2.7-3.9-5.3-5.8-8c-0.4-0.6-0.8-1.2-1.3-1.9C39,3,38.8,2.6,38.4,2.4  	c-1.4-0.6-4.6,2.9-5.3,3.9c-6.2,8.2-11.6,17-17.4,25.5C11.4,37.8,7.2,43.9,3,50l52.4,0c2.6,0,4.7,2.1,4.7,4.7v1.5h13.4  	c2,0,3.9,1.1,4.9,2.8l6.7,11.3c0.9,1.5,1.4,3.2,1.4,4.9v6c1.6,0.3,2.9,1.7,2.9,3.4v1.9c0,0.2,0,0.4-0.1,0.5h9.6  	c0.6,0,1.1-0.5,1.1-1.1V51.1C99.6,50.6,99.3,50,99,49.4z M54.8,30.1c-0.1,0.1-0.2,0.1-0.4,0.1c-0.9,0.1-1.8-0.1-2.7-0.4  	c-0.2-0.1-0.4-0.1-0.6,0c-0.2,0.1-0.3,0.4-0.3,0.6c0,1.7,1.1,3.2,1.4,4.9c0,0.3,0.1,0.6-0.1,0.8c-0.2,0.3-0.6,0.4-1,0.4  	c-0.4-0.1-0.7-0.3-1-0.5c-1.5-1.1-5.5-5.3-6.4-1.6c-0.2,0.7-0.3,1.6-1,2c-0.4,0.3-1,0.2-1.5,0.1c-2.6-0.7-4.1-3.4-5.6-5.7  	c-0.2-0.3-0.4-0.6-0.8-0.7c-0.5-0.1-0.9,0.2-1.3,0.6c-0.7,0.7-1.5,1.4-2.2,2.1c-0.7,0.7-1.8,1.3-2.5,0.6c-0.3-0.4-0.3-0.9-0.6-1.3  	c-0.7-1.1-2.3-0.6-3.4,0.1c-1.5,0.8-2.9,1.7-4.4,2.5c-0.8,0.5-2.1,0.7-2.3-0.2c-0.1-0.3,0.1-0.7,0.2-1c2-4.2,4.8-7.8,7.2-11.7  	c1.9-3,3.9-5.9,6-8.8c1.7-2.4,3-5.3,5.6-6.9c0.4-0.2,11.9,15.3,13,16.8c1.6,2.1,3.1,4.3,4.4,6.5C54.9,29.6,55,29.9,54.8,30.1z  	 M91.8,42.6C91,45,84,40.1,82.9,39.4c-0.5-0.3-1-0.5-1.5-0.3c-0.6,0.2-0.9,0.9-1.2,1.6c-0.4,1.2-1,2.4-2.3,2c-1.1-0.3-2-1.8-2.8-2.5  	c-0.5-0.5-1.2-1.1-1.9-1.1c-1,0-1.6,1.1-2,2c-0.3,0.7-0.7,1.5-1,2.2c-3.2-3-6.6-6.9-9.4-10.3c2.6-4.3,5.5-8.3,8.4-12.3  	c0.1-0.2,0.3-0.4,0.5-0.5c0.5-0.2,1.4,0.8,1.7,1.2c1.9,2.2,3.7,4.5,5.3,6.9c0.2,0.3,0.4,0.5,0.7,0.6c0.8,0.2,1.2-0.9,1.9-1.2  	c0.8-0.4,1.7,0.4,2.3,1.1c1.8,2.2,3.6,4.5,5.4,6.8c0.9,1.1,1.7,2.3,2.6,3.5C90.1,39.7,92.1,41.8,91.8,42.6z M15,79.8  	c4.5,0,8.3,3.1,9.4,7.2h31c1,0,1.8-0.8,1.8-1.8V54.7c0-1-0.8-1.8-1.8-1.8l-53.5,0c-1,0-1.8,0.8-1.8,1.8v30.5c0,1,0.8,1.8,1.8,1.8  	h3.7C6.7,82.9,10.4,79.8,15,79.8z M39.1,56.1c0-0.5,0.4-0.9,0.9-0.9h13.7c0.5,0,0.9,0.4,0.9,0.9v15.4c0,0.5-0.4,0.9-0.9,0.9H40  	c-0.5,0-0.9-0.4-0.9-0.9V56.1z M21,56.1c0-0.5,0.4-0.9,0.9-0.9h13.7c0.5,0,0.9,0.4,0.9,0.9v15.4c0,0.5-0.4,0.9-0.9,0.9H21.8  	c-0.5,0-0.9-0.4-0.9-0.9V56.1z M3.7,72.4c-0.5,0-0.9-0.4-0.9-0.9V56.1c0-0.5,0.4-0.9,0.9-0.9h13.7c0.5,0,0.9,0.4,0.9,0.9v15.4  	c0,0.5-0.4,0.9-0.9,0.9H3.7z M23,88.9l-1,0.2c0,0.2,0,0.3,0,0.5c0,0.2,0,0.3,0,0.5l1,0.2c0,0.5-0.1,1-0.3,1.5l-1-0.1  	c-0.1,0.3-0.2,0.6-0.3,0.9l0.8,0.5c-0.2,0.5-0.5,0.9-0.8,1.3l-0.9-0.5c-0.2,0.2-0.4,0.5-0.6,0.7l0.6,0.8c-0.4,0.4-0.7,0.7-1.2,1  	l-0.6-0.7c-0.3,0.2-0.5,0.3-0.8,0.4l0.3,0.9c-0.5,0.2-0.9,0.4-1.4,0.5l-0.4-0.9c-0.3,0.1-0.6,0.1-0.9,0.1l0,1  	c-0.3,0-0.5,0.1-0.8,0.1c-0.3,0-0.5-0.1-0.8-0.1l0-1c-0.3,0-0.6-0.1-0.9-0.1l-0.4,0.9c-0.5-0.1-1-0.3-1.4-0.5l0.3-0.9  	c-0.3-0.1-0.6-0.3-0.8-0.4l-0.6,0.7c-0.4-0.3-0.8-0.6-1.2-1l0.6-0.8c-0.2-0.2-0.4-0.5-0.6-0.7l-0.9,0.5c-0.3-0.4-0.5-0.9-0.8-1.3  	l0.8-0.5c-0.1-0.3-0.2-0.6-0.3-0.9l-1,0.1c-0.1-0.5-0.2-1-0.3-1.5l1-0.2c0-0.2,0-0.3,0-0.5s0-0.3,0-0.5l-1-0.2c0-0.5,0.1-1,0.3-1.5  	l1,0.1c0.1-0.3,0.2-0.6,0.3-0.9l-0.8-0.5c0.2-0.5,0.5-0.9,0.8-1.3l0.9,0.5c0.2-0.2,0.4-0.5,0.6-0.7l-0.6-0.8c0.4-0.4,0.7-0.7,1.2-1  	l0.6,0.7c0.3-0.2,0.5-0.3,0.8-0.4l-0.3-0.9c0.5-0.2,0.9-0.4,1.4-0.5l0.4,0.9c0.3-0.1,0.6-0.1,0.9-0.1l0-1c0.3,0,0.5-0.1,0.8-0.1  	c0.3,0,0.5,0.1,0.8,0.1l0,1c0.3,0,0.6,0.1,0.9,0.1l0.4-0.9c0.5,0.1,1,0.3,1.4,0.5l-0.3,0.9c0.3,0.1,0.6,0.3,0.8,0.4l0.6-0.7  	c0.4,0.3,0.8,0.6,1.2,1l-0.6,0.8c0.2,0.2,0.4,0.5,0.6,0.7l0.9-0.5c0.3,0.4,0.5,0.9,0.8,1.3l-0.8,0.5c0.1,0.3,0.2,0.6,0.3,0.9l1-0.1  	C22.9,87.9,23,88.4,23,88.9z M83.5,84.1v-8.9c0-1.2-0.3-2.4-0.9-3.4l-6.7-11.3c-0.5-0.8-1.4-1.4-2.4-1.4H59.7c-0.5,0-1,0.4-1,1V86  	c0,0.5,0.4,1,1,1H62c1.1-4.2,4.9-7.2,9.4-7.2c4.5,0,8.3,3.1,9.4,7.2H81h4.9c0.3,0,0.5-0.2,0.5-0.5v-1.9c0-0.3-0.2-0.5-0.5-0.5H83.5z  	 M78.5,72.4H63.1c-0.5,0-0.9-0.4-0.9-0.9v-8.4c0-0.5,0.4-0.9,0.9-0.9h9.1c0.5,0,1,0.3,1.2,0.7l5.4,9C79,72.1,78.8,72.4,78.5,72.4z  	 M61.6,89.6c0,1.1,0.2,2.2,0.5,3.2h-38c0.3-1,0.5-2.1,0.5-3.2c0-0.4,0-0.7-0.1-1h37C61.6,88.9,61.6,89.2,61.6,89.6z M79.4,88.9  	l-1,0.2c0,0.2,0,0.3,0,0.5c0,0.2,0,0.3,0,0.5l1,0.2c0,0.5-0.1,1-0.3,1.5l-1-0.1c-0.1,0.3-0.2,0.6-0.3,0.9l0.8,0.5  	c-0.2,0.5-0.5,0.9-0.8,1.3l-0.9-0.5c-0.2,0.2-0.4,0.5-0.6,0.7l0.6,0.8c-0.4,0.4-0.7,0.7-1.2,1l-0.6-0.7c-0.3,0.2-0.5,0.3-0.8,0.4  	l0.3,0.9c-0.5,0.2-0.9,0.4-1.4,0.5l-0.4-0.9c-0.3,0.1-0.6,0.1-0.9,0.1l0,1c-0.3,0-0.5,0.1-0.8,0.1c-0.3,0-0.5-0.1-0.8-0.1l0-1  	c-0.3,0-0.6-0.1-0.9-0.1l-0.4,0.9c-0.5-0.1-1-0.3-1.4-0.5l0.3-0.9c-0.3-0.1-0.6-0.3-0.8-0.4l-0.6,0.7c-0.4-0.3-0.8-0.6-1.2-1  	l0.6-0.8c-0.2-0.2-0.4-0.5-0.6-0.7l-0.9,0.5c-0.3-0.4-0.5-0.9-0.8-1.3l0.8-0.5c-0.1-0.3-0.2-0.6-0.3-0.9l-1,0.1  	c-0.1-0.5-0.2-1-0.3-1.5l1-0.2c0-0.2,0-0.3,0-0.5s0-0.3,0-0.5l-1-0.2c0-0.5,0.1-1,0.3-1.5l1,0.1c0.1-0.3,0.2-0.6,0.3-0.9L64,86.2  	c0.2-0.5,0.5-0.9,0.8-1.3l0.9,0.5c0.2-0.2,0.4-0.5,0.6-0.7l-0.6-0.8c0.4-0.4,0.7-0.7,1.2-1l0.6,0.7c0.3-0.2,0.5-0.3,0.8-0.4  	l-0.3-0.9c0.5-0.2,0.9-0.4,1.4-0.5l0.4,0.9c0.3-0.1,0.6-0.1,0.9-0.1l0-1c0.3,0,0.5-0.1,0.8-0.1c0.3,0,0.5,0.1,0.8,0.1l0,1  	c0.3,0,0.6,0.1,0.9,0.1l0.4-0.9c0.5,0.1,1,0.3,1.4,0.5l-0.3,0.9c0.3,0.1,0.6,0.3,0.8,0.4l0.6-0.7c0.4,0.3,0.8,0.6,1.2,1l-0.6,0.8  	c0.2,0.2,0.4,0.5,0.6,0.7l0.9-0.5c0.3,0.4,0.5,0.9,0.8,1.3l-0.8,0.5c0.1,0.3,0.2,0.6,0.3,0.9l1-0.1C79.3,87.9,79.4,88.4,79.4,88.9z"  	/>  </svg>