<?xml version="1.0" standalone="no"?>
			<!DOCTYPE svg PUBLIC "-//W3C//DTD SVG 1.1//EN" "http://www.w3.org/Graphics/SVG/1.1/DTD/svg11.dtd"><svg xmlns="http://www.w3.org/2000/svg" xmlns:xlink="http://www.w3.org/1999/xlink" version="1.1" fill="#FFF" width="100" height="100" viewBox="0 0 100 100" xml:space="preserve">  <path class="st0" d="M98.4,86.7c0,0.6-0.5,1.1-1.1,1.1h-18c-0.6,0-1.1-0.5-1.1-1.1c0-0.6,0.5-1.1,1.1-1.1h18  	C97.9,85.5,98.4,86,98.4,86.7z M100,32.6c-0.8-1.1-1.6-2.3-1.6-2.3h1.6v-0.6l-2.7-3.9h1.7l-3.7-5.4l-3.7,5.4h1.7L90,30.3h2L88.8,35  	h2.6l-2.9,4.2c-0.2,0.1-0.4,0.2-0.6,0.3l-2.6-4.2h1.8l-4.1-6.6L79,35.3h1.8l-3.4,5.5h2.1c-0.6,1.2-1.2,2.4-1.8,3.6  	c-0.1,0.1-0.1,0.2-0.2,0.4c-0.2,0.3-0.5,0.4-0.7,0.6c-0.5,0.3-1.1,0.6-1.6,0.9c-0.2,0.1-0.4,0.2-0.5,0.4c-0.1,0.1-0.1,0.3-0.1,0.5  	c-0.3,2.2-0.2,4.4-0.3,6.6H30.6c0-0.5,0-1,0-1.6c0.1-2.1-0.1-4.1-0.1-6.2c-0.3,0-0.6,0-0.9,0c-0.2-0.1-0.4-0.2-0.6-0.3l-2.5-4.4h1.8  	l-2.6-4.2h1.4l-3.1-5.1L21,37.2h1.4l-2.6,4.2h1.8L20,43.6c-0.1,0-0.2-0.1-0.3-0.1c-0.2-0.1-0.3-0.1-0.5-0.3  	c-0.2-0.2-0.2-0.4-0.3-0.6c-0.3-1.1-0.8-2.1-1-3.2c-0.2-1.3-0.3-2.6-0.3-3.9c0-2.9-0.3-5.7-0.4-8.6c0-0.1,0-0.1,0-0.2  	c0-0.1-0.1-0.1-0.2-0.1c-1-0.2-2-0.5-3-0.8c0,0,0-0.1,0-0.1c0,0,0,0-0.1,0L11,21.6h2.1L10.5,18h1.6l-2.5-3.5H11l-3-4.2l-3,4.2h1.3  	L3.8,18h1.6l-2,2.8C2.3,20,1.1,19.2,0,18.4v81.3h74.5c-0.8-0.9-1.6-1.8-2.4-2.8c-0.2-0.3-0.4-0.5-0.7-0.7C71,96,70.5,95.9,70,95.8  	c-1.7-0.4-3.4-0.9-5.1-1.5c-0.1,0-0.1,0-0.2-0.1c-0.6-0.3-1.3-0.5-1.7-1.1c-0.3-0.4-0.5-0.9-0.7-1.4c-0.5-1.5-1-4.5-2.3-5.5  	c-0.4-0.3-0.8-0.4-1.3-0.4c-1.5-0.2-3.1-0.3-4.6-0.4c0-0.1,0-0.1,0-0.2c0,0,0,0-0.1,0l-2.9-4.1h2.1l-2.6-3.6h1.6L49.8,74h1.3l-3-4.2  	l-3,4.2h1.3L44,77.5h1.6L43,81.2h2.1c0,0-1.6,2.2-1.6,2.2c-0.1,0-0.1,0-0.2,0c-0.2-0.1-0.3-0.2-0.5-0.2l-2.1-3.7h1.8l-2.6-4.2h1.4  	l-3.1-5.1L35,75.2h1.4l-1,1.6c-1.2-1.7-2.1-3.8-2.9-6.2c-1.3-3.9-1.7-8-1.9-12.1c0-1,0-1.9,0-2.9h43.5c-0.4,2.6-1,5.2-2.5,7.4  	c-1.1,1.6-2.8,3.1-4.4,4.2c-0.5,0.4-5.1,2-5.2,2.2c-0.5,1.9-1.6,5.6-1.6,5.6H100V32.6z M85.7,80.7c0-0.6-0.5-1.1-1.1-1.1H70.5  	c-0.6,0-1.1,0.5-1.1,1.1c0,0.6,0.5,1.1,1.1,1.1h14.1C85.2,81.8,85.7,81.3,85.7,80.7z M74.7,93.8h7.8c0.6,0,1.1-0.5,1.1-1.1  	c0-0.6-0.5-1.1-1.1-1.1h-7.8c-0.6,0-1.1,0.5-1.1,1.1C73.5,93.2,74.1,93.8,74.7,93.8z M74.9,17.6c-1.5,0-2.9-0.5-4-1.5  	c-1.1,1.4-2.9,2.2-4.8,2.2c-2.2,0-4.3-1.2-5.3-3c-0.8,0.2-1.7,0.4-2.7,0.4c-0.4,0-0.7,0-1.1-0.1c0.3,0.8,0.5,1.8,0.5,2.7  	c0,4.3-3.5,7.7-7.7,7.7c-0.3,0-0.6,0-0.9-0.1c-0.3,1-0.8,1.8-1.6,2.4c-1,0.8-2.2,1.2-3.5,1.2c-1.7,0-3.3-0.7-4.3-2  	c-1,0.8-2.2,1.3-3.6,1.3c-1.7,0-3.2-0.7-4.3-2c-0.7,0.2-1.6,0.3-2.4,0.3c-3.3,0-5.8-1.6-5.8-3.6c0-1.9,2.2-3.4,5.2-3.6  	c0.5-1.5,1.9-2.6,3.6-2.6c0.2,0,0.5,0,0.7,0.1c0.5-1.6,2.1-2.7,3.8-2.7c1.1,0,2.2,0.5,3,1.3c0.9-1.3,2.3-2.2,3.9-2.5  	c1.4-1.8,3.6-2.9,6-2.9c0.5,0,0.9,0.1,1.3,0.1c0,0,0,0,0-0.1c0-2.8,3.1-5,7-5c0,0,0,0,0.1,0c0.5-3.1,3.3-5.5,6.7-5.5  	c2.3,0,4.4,1.1,5.7,2.9c0.8-0.9,2-1.4,3.3-1.4c2,0,3.7,1.3,4.3,3.1c0.3,0,0.5-0.1,0.8-0.1c1.9,0,3.5,1.2,4.1,2.9  	c3.3,0.2,5.8,1.9,5.8,4.1c0,2.3-2.9,4.1-6.5,4.1c-0.9,0-1.8-0.1-2.7-0.3C78.5,16.8,76.8,17.6,74.9,17.6z M47.5,25.8  	c-3.1-1-5.4-3.9-5.4-7.4c0-0.9,0.2-1.8,0.5-2.7c-0.8,0.5-1.5,1.3-1.8,2.2c-0.1,0.3-0.4,0.5-0.7,0.5c-0.3,0-0.6-0.2-0.8-0.5  	c-0.4-0.9-1.3-1.6-2.3-1.6c-1.3,0-2.3,1-2.4,2.2c0,0.3-0.2,0.5-0.4,0.6c-0.2,0.1-0.5,0.1-0.7,0c-0.3-0.1-0.6-0.2-1-0.2  	c-1.1,0-2.1,0.8-2.2,1.8c0,0.4-0.4,0.7-0.8,0.7c-2.4,0-4.3,1.1-4.3,2c0,1,1.8,2,4.2,2c0.9,0,1.7-0.1,2.4-0.4c0.4-0.1,0.7,0,0.9,0.3  	c0.7,1.1,1.9,1.7,3.3,1.7c1.2,0,2.3-0.5,3.1-1.5c0.2-0.2,0.4-0.3,0.6-0.3c0,0,0.1,0,0.1,0c0.3,0,0.5,0.2,0.6,0.4c0.6,1.2,2,2,3.4,2  	C45.6,28.1,46.8,27.1,47.5,25.8z M74.9,15.8c1.5,0,2.9-0.7,3.7-2c0.2-0.4,0.7-0.5,1.1-0.4c0.8,0.3,1.8,0.4,2.7,0.4  	c2.7,0,4.7-1.2,4.7-2.3c0-1.1-2-2.3-4.8-2.3c0,0,0,0,0,0c-0.5,0-0.8-0.3-0.9-0.8c-0.1-1.2-1.2-2-2.5-2c-0.4,0-0.7,0.1-1.1,0.2  	c-0.3,0.1-0.6,0.1-0.8,0c-0.3-0.1-0.4-0.4-0.4-0.7c-0.1-1.4-1.3-2.5-2.7-2.5c-1.1,0-2.2,0.7-2.6,1.8c-0.1,0.4-0.5,0.6-0.9,0.6  	c-0.4,0-0.7-0.2-0.8-0.6c-0.7-1.9-2.6-3.2-4.7-3.2c-2.7,0-5,2.1-5,4.7c0,0.3-0.1,0.5-0.3,0.7c-0.2,0.2-0.4,0.3-0.7,0.2  	c-0.3,0-0.6,0-0.8,0C55.4,7.6,53,9,53,10.8c0,1.7,2.4,3.2,5.2,3.2c1,0,1.9-0.2,2.8-0.5c0.2-0.1,0.5-0.1,0.7,0  	c0.2,0.1,0.4,0.3,0.5,0.5c0.6,1.6,2.2,2.7,4,2.7c1.6,0,3.1-0.9,3.8-2.3c0.1-0.3,0.4-0.5,0.7-0.5c0,0,0.1,0,0.1,0  	c0.3,0,0.5,0.1,0.7,0.3C72.3,15.2,73.5,15.8,74.9,15.8z M71.2,32.3c0,1.8-1.6,3.2-3.9,3.2c-1,1-2.8,1.7-4.6,1.7  	c-1.9,0-3.6-0.6-4.6-1.7c-0.2,0-0.3,0-0.5,0c-2.5,0-4.3-1.3-4.3-3.1c0-1.4,1.1-2.8,3.6-3c0.5-1.1,1.6-1.9,2.9-1.9  	c0.4,0,0.8,0.1,1.2,0.2c0.8-1,2-1.7,3.3-1.7c1.9,0,3.5,1.3,4,3.1C70,29.6,71.2,30.8,71.2,32.3z M69.5,32.3c0-0.8-0.8-1.4-2.1-1.5  	c-0.4,0-0.7-0.4-0.8-0.8c-0.1-1.3-1.2-2.3-2.4-2.3c-1,0-1.8,0.6-2.2,1.4c-0.1,0.2-0.3,0.4-0.5,0.5c-0.2,0.1-0.5,0-0.7-0.1  	c-0.3-0.2-0.6-0.3-1-0.3c-0.8,0-1.4,0.5-1.5,1.2c-0.1,0.4-0.4,0.7-0.8,0.7c-1.5,0-2.5,0.6-2.5,1.4c0,0.8,1.1,1.4,2.7,1.4  	c0.2,0,0.5,0,0.7,0c0,0,0.1,0,0.1,0c0.2,0,0.5,0.1,0.6,0.3c0.7,0.9,2.1,1.4,3.6,1.4c1.5,0,2.9-0.5,3.6-1.4c0.2-0.2,0.4-0.3,0.7-0.3  	c0.1,0,0.1,0,0.2,0C68.5,33.9,69.5,33.3,69.5,32.3z M60.1,61h7.2c0.5,0,0.9-0.4,0.9-0.9s-0.4-0.9-0.9-0.9h-7.2  	c-0.5,0-0.9,0.4-0.9,0.9S59.6,61,60.1,61z M49.4,64.9h9c0.5,0,0.9-0.4,0.9-0.9c0-0.5-0.4-0.9-0.9-0.9h-9c-0.5,0-0.9,0.4-0.9,0.9  	C48.4,64.5,48.8,64.9,49.4,64.9z M56.1,60.1c0-0.5-0.4-0.9-0.9-0.9h-15c-0.5,0-0.9,0.4-0.9,0.9s0.4,0.9,0.9,0.9h15  	C55.7,61,56.1,60.6,56.1,60.1z"/>  </svg>