<?xml version="1.0" standalone="no"?>
			<!DOCTYPE svg PUBLIC "-//W3C//DTD SVG 1.1//EN" "http://www.w3.org/Graphics/SVG/1.1/DTD/svg11.dtd"><svg xmlns="http://www.w3.org/2000/svg" xmlns:xlink="http://www.w3.org/1999/xlink" version="1.1" fill="#FFF" width="100" height="100" viewBox="0 0 100 100" xml:space="preserve">  <path class="st0" d="M62.2,20.3v-8.2h-5.6V5.2h-4.5V0.3H48v4.9h-4.5v6.9h-5.6v8.2h-3.1v79.3h30.5V20.3H62.2z M47,15.6h6v7h-6V15.6z  	 M47.3,90.5h-6v-7.9h6V90.5z M47.3,77.3h-6v-7.9h6V77.3z M47.3,64h-6v-7.9h6V64z M47.3,50.8h-6v-7.9h6V50.8z M47.3,37.6h-6v-7.9h6  	V37.6z M58.7,90.5h-6v-7.9h6V90.5z M58.7,77.3h-6v-7.9h6V77.3z M58.7,64h-6v-7.9h6V64z M58.7,50.8h-6v-7.9h6V50.8z M58.7,37.6h-6  	v-7.9h6V37.6z M26.3,32l-9-7.9v-3.6h-4.1v3.3l-9,8.2H0v67.7h30.5V32H26.3z M19.9,39h4.6v9.1h-4.6V39z M6,39h4.6v9.1H6V39z M12.8,92  	H6v-9.6h6.8V92z M12.8,77.5H6v-9.6h6.8V77.5z M12.8,62.9H6v-9.6h6.8V62.9z M17.6,48.2H13V39h4.6V48.2z M24.6,92h-6.8v-9.6h6.8V92z  	 M24.6,77.5h-6.8v-9.6h6.8V77.5z M24.6,62.9h-6.8v-9.6h6.8V62.9z M100,26c0-1.6-1.3-2.8-2.8-2.8c-1.6,0-2.8,1.3-2.8,2.8  	c0,0.1,0,0.2,0,0.3h-2V14h-5.7v-2.9c0-1.1-0.9-2-2-2c-1.1,0-2,0.9-2,2V14H77v12.3h-2c0-0.1,0-0.2,0-0.3c0-1.6-1.3-2.8-2.8-2.8  	c-1.6,0-2.8,1.3-2.8,2.8c0,0.1,0,0.2,0,0.3h0v73.3l18.3,0V85.4h6.3v14.3l5.9,0V27C100,27,100,26.4,100,26z M81.6,93.1h-6.1v-7.7h6.1  	V93.1z M81.6,80.3h-6.1v-7.7h6.1V80.3z M81.6,67.6h-6.1V60h6.1V67.6z M81.6,54.9h-6.1v-7.7h6.1V54.9z M81.6,42.2h-6.1v-7.7h6.1V42.2  	z M87.7,29.1h-5.8v-7.9h5.8V29.1z M94,80.3h-6.1v-7.7H94V80.3z M94,67.6h-6.1V60H94V67.6z M94,54.9h-6.1v-7.7H94V54.9z M94,42.2  	h-6.1v-7.7H94V42.2z"/>  </svg>