<?xml version="1.0" standalone="no"?>
			<!DOCTYPE svg PUBLIC "-//W3C//DTD SVG 1.1//EN" "http://www.w3.org/Graphics/SVG/1.1/DTD/svg11.dtd"><svg xmlns="http://www.w3.org/2000/svg" xmlns:xlink="http://www.w3.org/1999/xlink" version="1.1" fill="#FFF" width="100" height="100" viewBox="0 0 100 100" xml:space="preserve">  <g>  	<path class="st0" d="M51,13V8.6h14.2c1,0,1.8-0.8,1.8-1.8v-1h11.7l-5.1-2.9L78.7,0H64.1c-1,0-1.8,0.8-1.8,1.8v1.1H51v-2  		C51,0.4,50.6,0,50.1,0c-0.5,0-0.9,0.4-0.9,0.9v12.1L30.8,33.2c-0.4,0.4-0.1,1.1,0.5,1.1h37.6c0.6,0,0.8-0.7,0.5-1.1L51,13z"/>  	<path class="st0" d="M33.1,100h9.5V79.7c0-4.1,3.4-7.5,7.5-7.5c4.1,0,7.5,3.4,7.5,7.5V100h9.5V37.3h-34V100z"/>  	<path class="st0" d="M3.6,52.6L3.6,52.6L1.9,100h27.7l0-47.4H3.6z M20.6,77.3H11v-9.2c0-2.7,2.2-4.8,4.8-4.8s4.8,2.2,4.8,4.8V77.3z  		"/>  	<polygon class="st0" points="23.4,42.3 18.5,42.3 18.5,37.3 18.5,37.3 12.3,37.3 12.2,37.3 12.2,42.3 7.4,42.3 7.4,37.3 1.1,37.3   		1.1,49.9 11.3,49.9 19.5,49.9 29.6,49.9 29.6,37.3 23.4,37.3 	"/>  	<polygon class="st0" points="92.6,37.3 92.6,42.3 87.8,42.3 87.8,37.3 87.7,37.3 81.5,37.3 81.5,37.3 81.5,42.3 76.6,42.3   		76.6,37.3 70.4,37.3 70.4,49.9 80.5,49.9 88.7,49.9 98.9,49.9 98.9,37.3 	"/>  	<path class="st0" d="M96.4,52.6H70.4l0,47.4h27.7L96.4,52.6L96.4,52.6z M88.7,76.8h-8.9v-8.5c0-2.5,2-4.5,4.5-4.5s4.5,2,4.5,4.5  		V76.8z"/>  </g>  </svg>