<svg xmlns="http://www.w3.org/2000/svg" xml:space="preserve" width="72" height="72" viewBox="365 320 155 155"><circle cx="436.8" cy="395" r="69.7" fill="#68A9AB"/><path fill="#FFF" d="M436.8 327.3c37.4 0 67.7 30.3 67.7 67.7 0 37.4-30.3 67.7-67.7 67.7-37.4 0-67.7-30.3-67.7-67.7 0-37.4 30.3-67.7 67.7-67.7m0-4c-39.5 0-71.7 32.2-71.7 71.7s32.2 71.7 71.7 71.7 71.7-32.2 71.7-71.7-32.2-71.7-71.7-71.7z"/><path fill="#FFF" d="M404.6 354.8v22.4h-5.2V359H395v-4.2h9.6zm8.6 21.4c-1.5-.9-2.6-2.2-3.4-4-.8-1.7-1.2-3.8-1.2-6.2 0-2.4.4-4.5 1.2-6.2.8-1.7 2-3.1 3.4-4 1.5-.9 3.1-1.4 5-1.4s3.5.5 5 1.4c1.5.9 2.6 2.2 3.4 4s1.2 3.8 1.2 6.2c0 2.4-.4 4.5-1.2 6.2-.8 1.7-2 3.1-3.4 4-1.5.9-3.1 1.4-5 1.4s-3.6-.5-5-1.4zm8.1-4.8c.8-1.2 1.2-3 1.2-5.4 0-2.5-.4-4.3-1.2-5.4-.8-1.2-1.9-1.8-3.2-1.8-1.3 0-2.4.6-3.2 1.8-.8 1.2-1.2 3-1.2 5.4 0 2.5.4 4.3 1.2 5.4.8 1.2 1.8 1.8 3.2 1.8 1.4 0 2.5-.6 3.2-1.8zm13.6 4.8c-1.5-.9-2.6-2.2-3.4-4-.8-1.7-1.2-3.8-1.2-6.2 0-2.4.4-4.5 1.2-6.2.8-1.7 2-3.1 3.4-4 1.5-.9 3.1-1.4 5-1.4s3.5.5 5 1.4c1.5.9 2.6 2.2 3.4 4s1.2 3.8 1.2 6.2c0 2.4-.4 4.5-1.2 6.2-.8 1.7-2 3.1-3.4 4-1.5.9-3.1 1.4-5 1.4s-3.6-.5-5-1.4zm8.2-4.8c.8-1.2 1.2-3 1.2-5.4 0-2.5-.4-4.3-1.2-5.4-.8-1.2-1.9-1.8-3.2-1.8-1.3 0-2.4.6-3.2 1.8-.8 1.2-1.2 3-1.2 5.4 0 2.5.4 4.3 1.2 5.4.8 1.2 1.8 1.8 3.2 1.8 1.3 0 2.4-.6 3.2-1.8zm10.1-6.2c-1-1.1-1.6-2.6-1.6-4.5s.5-3.4 1.6-4.5c1-1.1 2.4-1.7 4-1.7s3 .6 4 1.7 1.5 2.6 1.5 4.5-.5 3.4-1.5 4.5-2.4 1.7-4 1.7-3-.6-4-1.7zm5.7-1.8c.4-.6.6-1.5.6-2.7 0-1.2-.2-2.1-.6-2.7-.4-.6-1-.9-1.7-.9s-1.3.3-1.7.9c-.4.6-.6 1.5-.6 2.6s.2 2 .6 2.6c.4.6 1 .9 1.7.9.7.1 1.3-.2 1.7-.7zm11.6-8.6h3.8L459 377.2h-3.8l15.3-22.4zm-1 21.9c-.8-.5-1.5-1.2-2-2.2-.5-.9-.7-2-.7-3.3s.2-2.3.7-3.3c.5-.9 1.1-1.7 2-2.2.8-.5 1.8-.8 2.9-.8 1.6 0 3 .6 4 1.7s1.6 2.6 1.6 4.5-.5 3.4-1.6 4.5c-1 1.1-2.4 1.7-4 1.7-1.1.1-2.1-.1-2.9-.6zm4.6-2.8c.4-.6.6-1.5.6-2.6s-.2-2-.6-2.6-1-.9-1.7-.9-1.3.3-1.7.9c-.4.6-.6 1.5-.6 2.7 0 1.2.2 2.1.6 2.7.4.6 1 .9 1.7.9.7-.2 1.3-.5 1.7-1.1zM419.6 392c.4.5.6 1.1.6 1.9 0 1-.4 1.8-1.1 2.4-.7.6-1.8.8-3.2.8h-5.3v-11.9h4.9c1.3 0 2.3.3 3 .8.7.5 1.1 1.3 1.1 2.3 0 .7-.2 1.2-.5 1.7s-.8.8-1.4 1c.9.2 1.5.5 1.9 1zm-7.7-1.3h3.6c.9 0 1.6-.2 2.1-.6.5-.4.7-.9.7-1.6s-.2-1.3-.7-1.6c-.5-.4-1.2-.6-2.1-.6h-3.6v4.4zm7.1 3.2c0-1.5-1-2.2-3.1-2.2h-4v4.5h4c2.1 0 3.1-.8 3.1-2.3zm4.4-8.6h1.2v9.9l7.6-9.9h1.1v11.9h-1.2v-9.8l-7.6 9.8h-1.1v-11.9zm12.6-1.6c-.1-.1-.2-.3-.2-.5s.1-.4.2-.5.3-.2.5-.2.4.1.5.2c.1.1.2.3.2.5s-.1.4-.2.5c-.1.1-.3.2-.5.2s-.4-.1-.5-.2zm1.4 1.6h1.3v11.9h-1.3v-11.9zm1.6-1.6c-.1-.1-.2-.3-.2-.5s.1-.4.2-.5c.1-.1.3-.2.5-.2s.4.1.5.2.2.3.2.5-.1.4-.2.5c-.1.1-.3.2-.5.2s-.4-.1-.5-.2zm10.6 8.3c.4.5.7 1.1.7 1.8s-.2 1.3-.6 1.8c-.4.5-1 .9-1.7 1.2s-1.5.4-2.3.4c-.8 0-1.6-.1-2.3-.4-.8-.3-1.5-.6-2.1-1.1l.5-.9c.5.4 1.1.8 1.8 1s1.3.3 2 .3c.6 0 1.2-.1 1.8-.3.5-.2 1-.5 1.3-.9s.5-.8.5-1.4c0-.7-.3-1.2-.8-1.6s-1.3-.6-2.3-.6h-2.5v-1h2.5c.8 0 1.5-.2 2-.5.5-.4.7-.9.7-1.5 0-.7-.3-1.3-.9-1.7-.6-.4-1.4-.6-2.3-.6-.6 0-1.1.1-1.7.2-.6.2-1.1.4-1.6.7l-.4-1c1.2-.7 2.5-1.1 3.8-1.1.8 0 1.5.1 2.2.4.7.3 1.2.6 1.6 1.1.4.5.6 1.1.6 1.7 0 .6-.2 1.2-.5 1.6-.4.5-.8.8-1.5 1 .4.5 1 .9 1.5 1.4zm14.7 4.1v3.8h-1.2v-2.7h-10.4v2.7h-1.2v-3.8h.6c.8 0 1.3-.7 1.6-1.9.3-1.2.5-2.9.6-5.1l.1-3.9h8V396h1.9zm-9.2-2.4c-.2 1.2-.6 2-1.1 2.4h7.3v-9.7h-5.7l-.1 2.9c-.1 1.8-.2 3.3-.4 4.4zm-53.2 12.7h-6.3v10.8h-1.2v-11.9h7.6v1.1zm7.5 7.6h-6.6l-1.4 3.2H400l5.4-11.9h1.2l5.4 11.9h-1.3l-1.3-3.2zm-.5-1-2.9-6.4-2.9 6.4h5.8zm13.5-6.6c.9.7 1.3 1.7 1.3 3s-.4 2.3-1.3 3-2.1 1.1-3.6 1.1h-3.2v3.8h-1.3v-11.9h4.5c1.6-.1 2.8.2 3.6 1zm-.9 5.1c.6-.5.9-1.2.9-2.2 0-1-.3-1.7-.9-2.2-.6-.5-1.5-.8-2.7-.8h-3.2v6h3.2c1.2 0 2.1-.2 2.7-.8zm11.8 2.5h-6.6l-1.4 3.2H424l5.4-11.9h1.2l5.4 11.9h-1.3l-1.4-3.2zm-.4-1-2.9-6.4-2.9 6.4h5.8zm15.4-7.7v11.9h-1.2v-5.5h-7.4v5.5h-1.3v-11.9h1.3v5.3h7.4v-5.3h1.2zm11.8 1.1h-4.2v10.8h-1.2v-10.8h-4.2v-1.1h9.6v1.1zm4.1 10.1c-1-.5-1.7-1.2-2.2-2.2s-.8-1.9-.8-3.1c0-1.1.3-2.2.8-3.1s1.3-1.6 2.2-2.2 2-.8 3.2-.8 2.2.3 3.2.8c.9.5 1.7 1.2 2.2 2.2.5.9.8 2 .8 3.1s-.3 2.2-.8 3.1c-.5.9-1.3 1.6-2.2 2.2-.9.5-2 .8-3.2.8s-2.3-.3-3.2-.8zm5.7-1c.8-.4 1.4-1 1.8-1.8.4-.8.6-1.6.6-2.5 0-.9-.2-1.8-.6-2.5-.4-.8-1-1.3-1.8-1.8-.8-.4-1.6-.6-2.6-.6-.9 0-1.8.2-2.6.6-.8.4-1.4 1-1.8 1.8-.4.8-.7 1.6-.7 2.5 0 .9.2 1.8.7 2.5.4.8 1 1.3 1.8 1.8.8.4 1.6.6 2.6.6 1 .1 1.9-.2 2.6-.6zm5.9-3.5h4.5v1.1h-4.5V412zm-55 20c.4.5.6 1.1.6 1.9 0 1-.4 1.8-1.1 2.4-.7.6-1.8.8-3.2.8h-5.3v-11.9h4.9c1.3 0 2.3.3 3 .8.7.5 1.1 1.3 1.1 2.3 0 .7-.2 1.2-.5 1.7s-.8.8-1.4 1c.9.2 1.5.5 1.9 1zm-7.7-1.3h3.6c.9 0 1.6-.2 2.1-.6.5-.4.7-.9.7-1.6s-.2-1.3-.7-1.6c-.5-.4-1.2-.6-2.1-.6h-3.6v4.4zm7.1 3.2c0-1.5-1-2.2-3.1-2.2h-4v4.5h4c2.1 0 3.1-.8 3.1-2.3zm12 .1h-6.6l-1.4 3.2h-1.3l5.4-11.9h1.2l5.4 11.9h-1.3l-1.4-3.2zm-.4-1-2.9-6.4-2.9 6.4h5.8zm15.4-7.7v11.9H446v-5.5h-7.4v5.5h-1.3v-11.9h1.3v5.3h7.4v-5.3h1.2zm6 11.2c-1-.5-1.7-1.2-2.2-2.2s-.8-1.9-.8-3.1c0-1.1.3-2.2.8-3.1s1.3-1.6 2.2-2.2 2-.8 3.2-.8 2.2.3 3.2.8c.9.5 1.7 1.2 2.2 2.2.5.9.8 2 .8 3.1s-.3 2.2-.8 3.1c-.5.9-1.3 1.6-2.2 2.2-.9.5-2 .8-3.2.8s-2.2-.3-3.2-.8zm5.8-1c.8-.4 1.4-1 1.8-1.8.4-.8.6-1.6.6-2.5 0-.9-.2-1.8-.6-2.5-.4-.8-1-1.3-1.8-1.8-.8-.4-1.6-.6-2.6-.6-.9 0-1.8.2-2.6.6-.8.4-1.4 1-1.8 1.8-.4.8-.7 1.6-.7 2.5 0 .9.2 1.8.7 2.5.4.8 1 1.3 1.8 1.8.8.4 1.6.6 2.6.6 1 .1 1.8-.2 2.6-.6z"/></svg>