<svg xmlns="http://www.w3.org/2000/svg" xml:space="preserve" width="52" height="52" viewBox="320 260 110 110"><path fill="#6FB353" d="M375.5 368c-28.7 0-52.1-23.4-52.1-52.1s23.4-52.1 52.1-52.1c28.7 0 52.1 23.4 52.1 52.1S404.2 368 375.5 368z"/><path fill="#FFF" d="M375.5 265.8c27.7 0 50.1 22.4 50.1 50.1S403.1 366 375.5 366c-27.7 0-50.1-22.4-50.1-50.1s22.4-50.1 50.1-50.1m0-4c-29.8 0-54.1 24.3-54.1 54.1s24.3 54.1 54.1 54.1 54.1-24.3 54.1-54.1-24.3-54.1-54.1-54.1z"/><path fill="#FFF" d="M357.7 304.8v21h-4L343.3 313v12.8h-4.8v-21h4l10.4 12.8v-12.8h4.8zm21.3 17.1v3.9h-16.3v-21h15.9v3.9h-11v4.6h9.8v3.8h-9.8v4.9H379zm35.3-17.1-6.9 21h-5.2l-4.6-14.2-4.8 14.2h-5.2l-6.9-21h5l4.7 14.8 4.9-14.8h4.5l4.8 14.9 4.9-14.9h4.8z"/></svg>