<svg xmlns="http://www.w3.org/2000/svg" width="71" height="70" fill="none"><path fill="#606060" d="M66.6 20.3H38.5c-1.9 0-3.5 1.5-3.5 3.5v12.5h9.7c1 0 1.9.3 2.7.8.7.3 1.2.9 1.6 1.5.6.8.9 1.8.9 2.9v23.8h16.7c1.9 0 3.5-1.5 3.5-3.5v-38c0-1.9-1.5-3.5-3.5-3.5Z"/><path fill="#606060" d="M47.299 1.5h-2V35h2V1.5Zm12.699 0h-2V35h2V1.5Z"/><path fill="#C1C1C1" d="M62.7 1.5c0 .9-.7 1.5-1.5 1.5H44.1c-.9 0-1.5-.7-1.5-1.5 0-.9.7-1.5 1.5-1.5h17c.9 0 1.6.7 1.6 1.5Z"/><path fill="#606060" d="M56.2 21.6c0 .1-.1.1-.1.1h-7c-.1 0-.1-.1-.1-.1v-3.2c0-.1.1-.1.1-.1h7c.1 0 .1.1.1.1v3.2Zm-37.298 9.9h-2.3v7.1h2.3v-7.1Zm12.9 0h-2.3v7.1h2.3v-7.1Z"/><path fill="#606060" d="M33 31.5c0 .9-.7 1.6-1.6 1.6H16.9c-.9 0-1.6-.7-1.6-1.6 0-.9.7-1.6 1.6-1.6h14.5c.9 0 1.6.7 1.6 1.6Z"/><path fill="#C1C1C1" d="M48.2 66.5c0 1.9-1.5 3.5-3.5 3.5H3.5C1.6 70 0 68.5 0 66.5v-25C0 39.6 1.5 38 3.5 38h41.2c1.9 0 3.5 1.5 3.5 3.5v25Z"/><path fill="#606060" d="M4.1 41.1c1-.9 1.3-1.9 1.3-3.1H3.5C1.6 38 0 39.5 0 41.5V43c1.6 0 3-.9 4.1-1.9Zm41.8.5c.7.5 1.5.8 2.4 1v-1.1c0-1.9-1.5-3.5-3.5-3.5h-1.3c.3 1.4 1.1 2.8 2.4 3.6ZM4.3 66.8c-1-1.3-2.6-1.9-4.2-1.8v1.5c0 1.9 1.5 3.5 3.5 3.5H5c0-1.1 0-2.3-.7-3.2Zm39.6.1c-.8.9-1 2-1.1 3.1h1.9c1.9 0 3.5-1.5 3.5-3.5V65c-1.6-.2-3.2.6-4.3 1.9Zm-9.3-13.8c.1.4-.1.7-.5.8l-9.2 2.4c-.4.1-.7-.1-.8-.5l-.9-3.6c-.1-.4.1-.7.5-.8l9.2-2.4c.4-.1.7.1.8.5l.9 3.6Z"/><path fill="#FFDE00" d="M37.8 46.2c.5 1.8-.6 3.6-2.4 4-1.8.5-3.6-.6-4-2.4-.5-1.8.6-3.6 2.4-4 1.7-.4 3.5.6 4 2.4Z"/><path fill="#606060" d="M36.4 46.6c.3 1-.3 2-1.3 2.3-1 .3-2-.3-2.3-1.3-.3-1 .3-2 1.3-2.3 1-.4 2 .2 2.3 1.3Zm-17 13c-.1.4-.4.6-.8.5l-9.8-2.3c-.4-.1-.6-.4-.5-.8l.3-1.2c.1-.4.4-.6.8-.5l9.8 2.3c.4.1.6.4.5.8l-.3 1.2Z"/><path fill="#FFDE00" d="M62.1 29.3c.1.3-.1.6-.4.7l-7.6 2c-.3.1-.6-.1-.7-.4l-.8-3c-.1-.3.1-.6.4-.7l7.6-2c.3-.1.6.1.7.4l.8 3ZM59 70c2.65 0 4.8-1.97 4.8-4.4 0-2.43-2.15-4.4-4.8-4.4-2.652 0-4.8 1.97-4.8 4.4 0 2.43 2.148 4.4 4.8 4.4Z"/><path fill="#606060" d="M61.4 65.6c0 1.2-1.1 2.2-2.4 2.2-1.3 0-2.4-1-2.4-2.2 0-1.2 1.1-2.2 2.4-2.2 1.3-.1 2.4 1 2.4 2.2Z"/></svg>