<svg xmlns="http://www.w3.org/2000/svg" width="55" height="71" fill="none"><path fill="#C1C1C1" d="M30.126 37.5h-5.8v15.1h5.8V37.5Z"/><path fill="#C1C1C1" d="M27.227 49.1a4.5 4.5 0 1 0 0-9 4.5 4.5 0 0 0 0 9Zm27-44c-.2-.3-.6-.4-.9-.4h-5.6c-.6 0-1.1.4-1.2 1 0 0-.4 2.3-2.1 3.5.1-2.1.2-4.3.2-6.5 0-.9 0-1.8-.1-2.7h-34.5c0 .9-.1 1.8-.1 2.7 0 2.2.1 4.4.2 6.5-1.6-1.2-2.1-3.4-2.1-3.5-.1-.6-.6-1-1.2-1h-5.6c-.3 0-.7.1-.9.4-.2.3-.4.6-.3.9 0 .6 1.1 14.2 8.3 22.6 2.2 2.6 5.4 4.5 8.5 5.4 2.6 3.4 6 5.4 10.5 5.4 4.2 0 7.5-2 10.1-5.3 3.2-.8 6.5-2.8 8.9-5.5 7.3-8.4 8.3-22 8.3-22.6-.1-.3-.2-.6-.4-.9ZM10.127 27c-5.5-6.3-7.2-16.2-7.6-19.8h3.3c.5 1.4 1.7 4 4.5 5 .6 7.2 2 13.6 4.3 18.3-1.7-.9-3.3-2.1-4.5-3.5Zm34.2 0c-1.3 1.5-3 2.8-4.8 3.7 2.4-4.8 4-11.2 4.6-18.5 2.8-1 4-3.5 4.5-5h3.3c-.5 3.6-2.2 13.5-7.6 19.8Z"/><path fill="#FFDE00" d="m27.526 7.2 2 4c0 .1.1.2.2.2l4.4.6c.3 0 .4.4.2.5l-3.2 3.1c-.1.1-.1.2-.1.3l.7 4.3c0 .3-.2.4-.5.3l-3.9-2.1h-.3l-3.9 2.1c-.2.1-.5-.1-.5-.3l.7-4.3c0-.1 0-.2-.1-.3l-3.2-3.1c-.2-.2-.1-.5.2-.5l4.4-.6c.1 0 .2-.1.2-.2l2-4c.2-.3.6-.3.7 0Z"/><path fill="#606060" d="M44.227 51.2h-34v17.5h34V51.2Z"/><path fill="#606060" d="M47.327 67h-40.2v3.1h40.2V67Z"/><path fill="#FFDE00" d="M38.126 55.7h-21.8v8.1h21.8v-8.1Z"/></svg>