<svg xmlns="http://www.w3.org/2000/svg" width="71" height="63" fill="none"><path fill="#606060" d="M30.1 14.1h34.1c3.3 0 5.9 2.6 5.9 5.9v25.6c0 3.3-2.6 5.9-5.9 5.9h-1.8c-.3 4.4.8 7.2 3.7 10.7-7.5-.2-13.2-3.8-15.7-10.7H30.1c-3.3 0-5.9-2.6-5.9-5.9V20c0-3.2 2.7-5.9 5.9-5.9Z"/><path fill="#919191" d="M21.8 20c0-4.6 3.7-8.3 8.3-8.3h9.4V5.1c0-2.8-2.3-5.1-5.1-5.1H5.1C2.3 0 0 2.3 0 5.1v22c0 2.8 2.3 5.1 5.1 5.1h1.5c.3 3.8-.7 6.2-3.2 9.2 6.4-.2 11.3-3.3 13.5-9.2h4.8V20h.1Z"/><path fill="#FFDE00" d="m47.5 25.9 2 4.1c0 .1.1.2.2.2l4.6.7c.3 0 .4.4.2.6l-3.3 3.2c-.1.1-.1.2-.1.3l.8 4.6c0 .3-.2.5-.5.3l-4.1-2.2c-.1-.1-.2-.1-.3 0l-4.1 2.2c-.2.1-.5-.1-.5-.3l.8-4.6c0-.1 0-.2-.1-.3l-3.3-3.2c-.2-.2-.1-.5.2-.6l4.6-.7c.1 0 .2-.1.2-.2l2-4.1c.2-.2.5-.2.7 0Z"/></svg>