<svg xmlns="http://www.w3.org/2000/svg" width="70" height="70" fill="none"><path fill="#606060" d="M65.96 54.5c.1-.2.1-.5.1-.8V26.9h-28.2s0 4.6-.1 5c-.4 2.2-1.9 4.3-1.4 6.7.3 1.4 1.1 2.6 1.3 4 .1 1.6-.3 3.1-.4 4.7-.2 3.1.8 6.3 2.7 8.8 1.9 2.4 5.7 1.5 8.4 1.4 5.3 0 10.7-.1 15.8 1.6.4-1.4.9-2.8 1.6-4 0-.2.2-.4.2-.6Z"/><path fill="#C1C1C1" d="M57.76 16s-2.7-1.2-6.3-1.2c-3.5 0-6.2 1.2-6.2 1.2s-10.1 4.8-3.8 25c.9 2.9 3.6 5.1 6.2 6.7 2.6 1.7 5.3 1.7 7.9 0 2.6-1.6 5.3-3.8 6.2-6.7 6.1-20.2-4-25-4-25Z"/><path fill="#606060" d="M57.16 10.8c-2.5-.7-6.4-1.1-11.4 1.2 0 0-3.3 2.1-3 4.6-1.5.4-2.7 1.9-3.3 3.2-1 1.8-1.4 3.9-1.5 6-.1 1.6-.1 3.1.1 4.7 0 .4 0 1 .2 1.3.1.1.6.1.7.3.5.7.4 1.9.5 2.8.2 1.1.6 2.2 1 3.3-1.3-4.4-.6-10.3 1.8-14.2 1.5-2.4 2.7-4.3 1-7 .7 1.1 1.5 2.3 2.7 2.7 2 .8 4.1-.1 6.1 0 2.2.1 4.6.5 6.5 1.6 1.8 1.1 2.7 3.2 3.1 5.2.4 2.3-.8 4.5-.5 6.8.4 2.7 1.8 4.4.8 7.2-1.2 3.1-2.6 5.8-2.1 9.3.2 1.5.6 3.1.3 4.7-.1.7-.4 1.4-.9 1.9-.2.2-1.9 1.2-2.1.9 2.1 2.4 6.1 2.2 8.4.2 2-1.7 2.9-4.6 2.5-7.2-.2-1-.5-2-.4-3 .2-1.4 1.1-2.5 1.6-3.7.6-1.7.3-3.6-.3-5.4-.6-1.6-1.4-3.1-1.4-4.8 0-1.1.4-2.2.6-3.4.5-3-.5-5.7-1.3-8.5-.4-1.4-.8-2.8-1.4-4.1-1.6-3.4-4.5-6-8.3-6.6Z"/><path fill="#FFDE00" d="M62.66 29.4c-.1 0-.3 0-.4-.1-.4-.2-.7-.5-1.2-.6-.4-.1-.8-.1-1.2-.2-1.3-.1-2.5 0-3.8.1 0 0-2.9.3-3.9 1.4 0 0-.2.2-.8.4-.6-.1-.8-.4-.8-.4-1-1.1-3.9-1.4-3.9-1.4-1.5-.1-3.1-.2-4.7 0-.8.1-1.4.6-2.1.7-.1 0-.3 0-.4.1-.3.2-.1.7 0 1 .1.2.2.4.4.7.4.7.4 1.7.5 2.5.6 3.2 4.1 3 4.1 3 5.3.2 5.8-4.2 5.8-4.2.1-.2.3-.4.5-.5.1 0 .4-.1.6-.1h.2c.3 0 .5.1.6.1.2.1.3.2.5.5 0 0 .6 4.4 5.8 4.2 0 0 3.5.2 4.1-3 .1-.5.1-1 .2-1.4.1-.8.5-1.4.6-2.1 0-.1 0-.3-.1-.4-.1-.2-.4-.2-.6-.3Zm-13.4 4.2s-1.4 3.2-6.3 2.2c0 0-1.6-.2-2-2.7 0 0-1.1-3.4 2.3-3.7 0 0 5.4-.1 6.1 1 0 0 .8.6-.1 3.2Zm12.6-.5c-.4 2.5-2 2.7-2 2.7-4.9 1-6.3-2.2-6.3-2.2-1-2.6-.1-3.2-.1-3.2.7-1 6.1-1 6.1-1 3.4.3 2.3 3.7 2.3 3.7Z"/><path fill="#C1C1C1" d="M68.26 62.4c-.2-1.2-.4-2.5-1.1-3.6-1.4-2.1-4.1-2.9-6.5-3.7-1.6-.6-3.1-1.3-4.3-2.4-1.4-1.3-2-2.8-2.3-4.6h-5.6c-.3 1.8-.9 3.3-2.3 4.6-1.2 1.1-2.8 1.8-4.3 2.4-2.4.9-5.1 1.6-6.5 3.7-.7 1.1-.9 2.3-1.1 3.6-.3 2.6-.2 5.1-.5 7.6h34.6c.2-2.5.3-5.1-.1-7.6Z"/><path fill="#C1C1C1" d="M35.96 54.1c-.9-1.9-2.9-3.1-4.8-3.9-1.9-.8-4-1.4-5.7-2.6-2.3-1.5-3.6-4-3.1-6.8h-7.8c.4 2.8-.9 5.2-3.1 6.8-1.7 1.2-3.8 1.8-5.7 2.6-1.9.8-3.8 2-4.8 3.9-.3.7-1.2 8.1-.9 8.1h37c.2-.1-.7-7.4-1.1-8.1Zm-3.7-30.4c-1.3-.2-2.5 1.3-2.7 3.3-.3 2 .5 3.7 1.8 3.9 1.3.2 2.5-1.3 2.7-3.3.3-1.9-.5-3.7-1.8-3.9Zm-27.6 0c-1.3.2-2.1 1.9-1.8 3.9.3 2 1.5 3.5 2.7 3.3 1.3-.2 2.1-1.9 1.8-3.9-.2-1.9-1.5-3.4-2.7-3.3Z"/><path fill="#C1C1C1" d="M18.56 5.4c-.1 0-.1 0 0 0-.1 0-.1 0 0 0-3.1.2-16.2 2-13 22.2l.8 8.4s.7 1.9 3 3.7c0 0 4 3.4 7.4 4.9 0 0 .7.2 1.7.6 1-.4 1.7-.6 1.7-.6 3.4-1.5 7.4-4.9 7.4-4.9 2.5-1.8 2.6-3.7 2.6-3.7l1.3-8.4c3.1-20.2-9.9-22.1-12.9-22.2Z"/><path fill="#606060" d="M30.36 7.8c4.1 5.8 2.3 16.9 2.3 16.9l-.9 2.6-.3 2.4h-.7s1.3-7.8-1.2-10c0 0-.2-6.6-3.1-7.1 0 0-5.2-.8-8-.5-1.9 0-4.6-.1-7.7.9-2.7.8-3.2 6.7-3.2 6.7-2.5 2.3-1.2 10-1.2 10h-.7l-.3-2.4-.9-2.4S3.16 13.5 6.96 8c0 0 2.5-4 10.6-4.2 0 0 7.1.7 4.5-3.8 0 0 4.1.7 4.1 4.2 0 0 2.7 0 2.2-3.2-.2 0 4.3 3.1 2 6.8Z"/><path fill="#606060" d="M24.96 34.4c3.1-.4 4.5-2.9 5.8-4.8h.7l-1.3 6.4s-.1 1.9-2.5 3.7c0 0-4 3.4-7.4 4.9 0 0-.7.2-1.7.6-1-.4-1.7-.6-1.7-.6-3.4-1.5-7.4-4.9-7.4-4.9-2.3-1.8-3-3.7-3-3.7l-.6-6.4h.6c.7 1.1 3.8 4.7 6.3 4.8 0 0 4-.2 6.1 1.4-.2-.1 1.7-1.5 6.1-1.4Z"/><path fill="#FFDE00" d="M25.46 48.8c0-.1-.1-.2 0-.4 0-.1.1-.2.2-.3.4-.6.4-1.5.4-2.2 0-.7-.1-1.7-.9-1.8-.5-.1-.8.1-1.2.3-1.4.6-2.7 1.4-3.9 2.3-.1-.2-.3-.4-.6-.4h-1.9c-.3 0-.5.2-.6.4-1.2-.9-2.5-1.7-3.9-2.3-.4-.2-.8-.3-1.2-.3-.8.1-.9 1.2-.9 1.8 0 .7 0 1.6.4 2.2.1.1.2.2.2.3v.4s0 .1-.1.1c-.4.7-.4 1.4-.4 2.1 0 .7-.1 1.6.8 1.8.5.1.8-.1 1.2-.3 1.4-.6 2.7-1.4 3.9-2.3.1.2.3.4.6.4h1.9c.3 0 .5-.2.6-.4 1.2.9 2.5 1.7 3.9 2.3.4.2.8.3 1.2.3.9-.1.8-1.1.8-1.8 0-.8 0-1.4-.4-2.1l-.1-.1Z"/></svg>