<?xml version="1.0" standalone="no"?>
			<!DOCTYPE svg PUBLIC "-//W3C//DTD SVG 1.1//EN" "http://www.w3.org/Graphics/SVG/1.1/DTD/svg11.dtd"><svg xmlns="http://www.w3.org/2000/svg" xmlns:xlink="http://www.w3.org/1999/xlink" version="1.1" fill="#FFF" width="100" height="100" viewBox="0 0 100 100" xml:space="preserve">  <path class="st0" d="M15.8,88h14.3v5.6c0,1.2-1,2.1-2.1,2.1h-10c-1.2,0-2.1-1-2.1-2.1V88z M69.9,93.6c0,1.2,1,2.1,2.1,2.1h10  	c1.2,0,2.1-1,2.1-2.1V88H69.9V93.6z M100,30.6v16.4c0,1.4-1.1,2.5-2.5,2.5h-5.1c-1.4,0-2.5-1.1-2.5-2.5V30.6c0-1.4,1.1-2.5,2.5-2.5  	h0.8c-0.3-2.6-1.1-4.6-2.4-5.9c-1-1-2.3-1.6-3.8-1.9v62.5c0,1.7-1.4,3.2-3.2,3.2H16.2c-1.7,0-3.2-1.4-3.2-3.2V20.3  	c-1.5,0.3-2.8,0.9-3.8,1.9c-1.3,1.3-2.1,3.4-2.4,5.9h0.8c1.4,0,2.5,1.1,2.5,2.5v16.4c0,1.4-1.1,2.5-2.5,2.5H2.5  	c-1.4,0-2.5-1.1-2.5-2.5V30.6c0-1.4,1.1-2.5,2.5-2.5h1.2C4,24.7,5.1,21.9,7,20c1.6-1.6,3.6-2.5,6.1-2.8v-5.4C13,6.9,17,3,21.8,3  	h56.4C83,3,87,6.9,87,11.8v5.4c2.4,0.3,4.5,1.2,6.1,2.8c1.9,1.9,3,4.7,3.3,8.2h1.2C98.9,28.1,100,29.3,100,30.6z M26.5,10.3  	c0,2.3,1.8,4.1,4.1,4.1h38.9c2.3,0,4.1-1.8,4.1-4.1c0-2.3-1.8-4.1-4.1-4.1H30.5C28.3,6.2,26.5,8,26.5,10.3z M26.5,74.5  	c0-2.4-2-4.4-4.4-4.4s-4.4,2-4.4,4.4c0,2.4,2,4.4,4.4,4.4S26.5,76.9,26.5,74.5z M36.8,74.5c0-2.4-2-4.4-4.4-4.4s-4.4,2-4.4,4.4  	c0,2.4,2,4.4,4.4,4.4S36.8,76.9,36.8,74.5z M71.9,74.5c0-2.4-2-4.4-4.4-4.4c-2.4,0-4.4,2-4.4,4.4c0,2.4,2,4.4,4.4,4.4  	C69.9,78.8,71.9,76.9,71.9,74.5z M82.2,74.5c0-2.4-2-4.4-4.4-4.4c-2.4,0-4.4,2-4.4,4.4c0,2.4,2,4.4,4.4,4.4  	C80.2,78.8,82.2,76.9,82.2,74.5z M82.3,20.2c0-1.5-1.2-2.8-2.8-2.8h-59c-1.5,0-2.8,1.2-2.8,2.8v38.6c0,1.4,1.2,2.6,2.6,2.6h59.4  	c1.4,0,2.6-1.2,2.6-2.6V20.2z"/>  </svg>