<?xml version="1.0" standalone="no"?>
			<!DOCTYPE svg PUBLIC "-//W3C//DTD SVG 1.1//EN" "http://www.w3.org/Graphics/SVG/1.1/DTD/svg11.dtd"><svg xmlns="http://www.w3.org/2000/svg" xmlns:xlink="http://www.w3.org/1999/xlink" version="1.1" fill="#FFF" width="100" height="100" viewBox="0 0 100 100" xml:space="preserve">  <path class="st0" d="M63.8,45.9c0,1.8,1.8,3.2,4.1,3.2c2.1,0,3.8-1.3,4.1-2.9c2.8-0.7,5.3-2,6.9-4.1c-0.1,0.8-0.3,1.6-0.4,2.4  	c-3.4,6.6-9.2,10.9-15.8,10.9c-6.7,0-12.7-4.6-16.1-11.4c-1.2-8.5-0.9-16.8,6.4-22.2c2.2-1.6,4.6-2.7,7.2-3.8  	c0.9-0.4,1.8-0.8,2.6-1.2c0.1,0,4.9-2.7,7.7-5.4c0.9,2.1,2,4,3.2,5.8c0.9,1.5,1.9,3.1,2.7,4.7c2,4.3,3,9,3,13.8c0,1-0.1,2.1-0.2,3.1  	c-0.9,3.2-3.9,5.3-7.4,6.2c-0.5-1.4-2-2.4-3.9-2.4C65.7,42.6,63.8,44.1,63.8,45.9z M28.8,42.1c-0.3,3.1,0.4,4.7,2.7,7  	c0.9,0.9,2.5,2.4,2.5,4.4c0,1.5-0.9,2.7-1.6,3.7c-0.3,0.4-0.5,0.7-0.8,1.1c-1.6,2.6-0.9,6.5,1.5,8.4c2.4,1.9,6.3,1.8,8.6-0.2  	c3.8-3.5,5-10.2,3.4-19.8c-1.6-9.4-2-19.9,6.9-26.6c2.4-1.8,5.1-3,7.6-4.1c0.9-0.4,1.7-0.8,2.6-1.2c1.7-0.8,3.3-2,4.8-3.1  	c1.6-1.2,3.1-2.4,4.2-4.1c0.7,1.4,1.5,2.7,2.2,4.1c1.5,3.2,3.8,6,5.3,9.3c2.1,4.6,3.2,9.6,3.2,14.7c0,3.2-0.4,6.2-0.9,9.1  	c-0.6,4.1-1.2,8-0.5,12.4c0.7,4.4,3.5,8.2,7.7,10c1.9,0.8,3.9,0.8,5.8-0.1c2.1-1,3.7-3,4.3-5.3c1-4-1.7-7-3.4-8.4l-0.3-0.3  	c-0.8-0.7-1.9-1.5-2-2.8c-0.2-1.8,1.3-2.9,2.4-3.8c0.3-0.2,0.6-0.4,0.9-0.7c2-1.7,2.2-4.8,1.6-7c-0.7-2.6-2.3-4.8-4.1-7l-0.3-0.3  	c-1.7-2.2-3.5-4.4-4.4-7.1c-0.6-1.6-1-3.3-1.4-4.8c-0.5-2.3-1.1-4.5-2.2-6.7c-1.7-3.3-4.1-6.2-7-8.3C73.6,1.5,68.5,0,63.4,0  	c-4.1,0-8.3,1-11.9,3.1c-4.6,2.6-8.3,7-10.4,12.2c-0.8,1.9-1.2,4-1.7,6.1c-0.8,3.6-1.6,7.4-4.2,10.5c-0.7,0.8-1.4,1.6-2.1,2.3  	C31,36.5,29.1,38.5,28.8,42.1z M62.7,57c-2.8,0-5.5-0.7-7.9-2.1v6.8c0.1,0.2-1.9,0.7-3.5,1.1l7.3,17.1h8.6l7.3-17.1  	c-0.1,0-0.2-0.1-0.4-0.1c-0.4-0.1-3.6-0.4-3.6-0.9c0,0,0-6.8,0-6.8C68.2,56.2,65.5,57,62.7,57z M10.4,35.4c0.1,0.4,0.5,0.7,1,0.6  	l21.7-5.3c0.4-0.1,0.6-0.6,0.2-0.9l-8.3-7l4.1-10.4c0.2-0.4-0.2-0.8-0.6-0.7L6.8,16.9c-0.4,0.1-0.7,0.5-0.6,1L10.4,35.4z M25.2,99.9  	c2.4-0.4,4.8-1.6,7.1-3.2c3.5-2.5,6.9-5.2,10.3-8c0.4,3.5,0.9,7.2,1.2,10.8c0,0.3,0.3,0.6,0.6,0.6h37.8c0.3,0,0.6-0.3,0.6-0.6  	c0-1.2,0-2.5,0.2-3.7c0,0,0.4,1.5,0.8,3.7c0.1,0.3,0.3,0.5,0.6,0.5L95,99.9c0.4,0,0.7-0.3,0.6-0.7c-0.6-3.9-1.2-7.8-2-11.7  	c-0.8-4.4-2.2-9-4.4-13.2c-2.3-4.3-5.5-7.9-9.9-10c-1-0.4-1.9-0.7-2.9-1l-7.1,16.6h3.3c0.6,0,1,0.5,1,1V92c0,0.6-0.5,1-1,1H53.2  	c-0.6,0-1-0.5-1-1V80.9c0-0.6,0.5-1,1-1h3.3l-7.1-16.6c0,0,0,0,0,0c-6.6,2.2-11.1,7.9-15,13.4c-2.7,3.7-5.5,7.4-8.4,11  	c0.1-2.7-0.8-5.1-1.7-7.7c-0.8-2.5-1.8-4.9-2.8-7.3c-0.6-1.5-1.4-3-1.9-4.6c-0.9-2.3-1.2-3.6-0.3-6.1c0.5-1.3,1.1-2.8,1-4.2  	c-0.1-0.9-0.7-1.8-1.6-2.1c0.3-0.6,0.3-1.3,0-1.8c-0.3-0.6-0.8-1-1.5-1.1c0.3-1.1-0.5-2.3-1.6-2.5c-0.1,0-0.3-0.1-0.3-0.2  	c-0.1-0.1-0.1-0.2-0.1-0.3c0-0.6-0.3-1.2-0.9-1.5c-0.5-0.2-1.1-0.2-1.6,0c-0.3,0.1-0.5,0.3-0.7,0.5c-0.1,0.1-0.6,0.5-0.6,0.6  	c0-0.7-0.2-1.5-0.4-2.2c-0.1-0.2-0.2-0.4-0.3-0.7L3.8,18.2c-0.1-0.5-0.7-0.8-1.2-0.7c-0.5,0.1-0.8,0.7-0.7,1.2L8.8,47  	c0,0.2,0,0.4,0,0.6c0,1.1-0.5,2.2-0.8,3.3c-1.3,4.4,0.6,7.4,2.2,11.3c4.2,10,2.5,21.2,5.7,31.4c1.2,3.8,3.3,5.7,5.9,6.2H25.2z"/>  </svg>