<?xml version="1.0" standalone="no"?>
			<!DOCTYPE svg PUBLIC "-//W3C//DTD SVG 1.1//EN" "http://www.w3.org/Graphics/SVG/1.1/DTD/svg11.dtd"><svg xmlns="http://www.w3.org/2000/svg" xmlns:xlink="http://www.w3.org/1999/xlink" version="1.1" fill="#FFF" width="100" height="100" viewBox="0 0 100 100" xml:space="preserve">  <path class="st0" d="M91.7,51.2c2.1,3.9,3.3,9,3.3,14.3V85L77.7,73.7V27.5c0-0.8-0.1-1.6-0.1-2.4L91.7,51.2z M76.2,27.5v45.6H17.4  	V27.5c0-5.6,4.6-10.2,10.2-10.2h11.5c0.1-2.6,2.2-4.6,4.8-4.6h5.9c2.6,0,4.7,2.1,4.8,4.6H66C71.7,17.3,76.2,21.9,76.2,27.5z  	 M42.2,20c0,2.6,2.1,4.6,4.6,4.6c2.6,0,4.6-2.1,4.6-4.6s-2.1-4.6-4.6-4.6C44.2,15.4,42.2,17.4,42.2,20z M39.3,69.2  	c-2.2-1.3-4.1-2.9-5.6-4.8c-1.2-1.5-2.9-2.4-4.8-2.4l-6.2,0c-1.4,0-1.8,0.8-1.4,1.4c0.9,1.3,2,2.5,3.2,3.6c1.7,1.5,3.9,2.3,6.2,2.3  	L39.3,69.2z M71,61.9l-6.2,0c-1.9,0-3.6,0.9-4.8,2.4c-1.6,1.9-3.5,3.6-5.6,4.8l8.6,0c2.3,0,4.5-0.8,6.2-2.3c1.2-1.1,2.3-2.3,3.2-3.6  	C72.8,62.7,72.4,61.9,71,61.9z M72.5,35.6c0-3.8-3.1-6.8-6.8-6.8H28c-3.8,0-6.8,3.1-6.8,6.8v19.8c0,1.3,1.1,2.4,2.4,2.4h46.6  	c1.3,0,2.4-1.1,2.4-2.4V35.6z M71.2,83.9l5-9H17.4l5,9c0.7,1.3,2.1,2.1,3.6,2.1h41.7C69.1,86,70.5,85.2,71.2,83.9z M95,85.5v3.1  	H78.5c-2.8,0-5.6,0.6-8.9,2c-0.3,0.1-0.5,0.2-0.7,0.3c-0.2,1-1.2,1.8-2.3,1.8h-1.4c-1.7,1-3.3,2-4.7,3.1c0.5,0.4,0.8,1.1,0.8,1.8  	c0,1.3-1,2.3-2.3,2.3h-2.8h-4H8.5H7.3c-0.8,0-1.5-0.4-1.9-1C5.1,98.6,5,98.2,5,97.7c0-1.3,1-2.3,2.3-2.3h0.8c1.3-1.6,2.9-3,4.5-4.4  	c0-0.2-0.1-0.4-0.1-0.5c0-1.3,1-2.3,2.3-2.3h1.8c1.5-0.9,3.2-1.8,5-2.5c0.9,1,2.1,1.7,3.5,1.9c-0.1,0-0.2,0.1-0.2,0.1  	c-0.4,0.2-0.8,0.4-1.3,0.6h42.9c0.3,0,0.5,0.1,0.7,0.1c0.4-0.2,0.7-0.3,1.1-0.5c3.6-1.5,6.8-2.2,10-2.2c0,0,0.1,0,0.1,0H95z  	 M59.5,92.8H15.4c-1.1,0.8-2.1,1.7-3,2.6h44C57.4,94.4,58.4,93.6,59.5,92.8z M78.4,84h12.3l-13-8.5l-5.1,9.1c0,0-0.1,0.1-0.1,0.1  	C74.5,84.3,76.4,84,78.4,84z M30.5,4h0.1h4.1l6.2,7.8c0.9-0.5,1.9-0.7,3-0.7h0.4L38.6,4h16.1L64,15.8h2c0.7,0,1.4,0.1,2.1,0.2  	L58.6,4H63h0.1V3.8l3-3.8h-3H30.5h-3l3,3.8V4z"/>  </svg>