<?xml version="1.0" standalone="no"?>
			<!DOCTYPE svg PUBLIC "-//W3C//DTD SVG 1.1//EN" "http://www.w3.org/Graphics/SVG/1.1/DTD/svg11.dtd"><svg xmlns="http://www.w3.org/2000/svg" xmlns:xlink="http://www.w3.org/1999/xlink" version="1.1" fill="#FFF" width="100" height="100" viewBox="0 0 100 100" xml:space="preserve">  <path class="st0" d="M0,38.4c-0.3-1.1,0.8-2,1.9-1.7c3.1,0.8,6.6,1.2,9.6,1.9c5,1.1,10.1,2.3,15.1,3.4c4.5,1,9.1,2.1,13.6,3.1  	c-0.5,0.1-0.8,0.2-0.8,0.2c-0.9,0.2-21.2,4.4-28.5,9.4c-0.8,0.5-1.5,1.1-2.3,1.6c-1.4-1.1-2.3-3-2.3-5c0-1.2,0.3-2.3,0.8-3.3  	C4.2,45.8,0.9,42.1,0,38.4z M54.8,39.6c0.5,0.3,1.3,0.7,2.4,1.1c3.4-1,7.1-2,10.8-3.1c-5.1-0.9-10.1-1.9-15.1-3  	c-0.3-0.1-0.5,0.1-0.6,0.4C52.1,37.1,53.2,38.6,54.8,39.6z M99.6,59.9c-2.8,2-5.9,3.7-9,5c-4,1.6-8.2,1.7-12.6,1.2  	c-2.2-0.3-4.4-0.7-6.6-1.2c-0.3,3.8-3.1,6.7-6.4,6.7c-3.6,0-6.5-3.3-6.5-7.4c0-0.9,0.1-1.7,0.4-2.4c-1.3-0.3-2.5-0.5-3.7-0.6  	c-0.7-0.2-1.3-0.3-2-0.5c-0.7,0.4-1.3,0.8-2,1.1c-4.2,2.4-8.4,4.6-12.7,6.6c-3.7,1.6-7,3.9-10.8,5.2c-4.3,1.5-8.5,2.3-13.1,2.3  	c-3.8,0.1-7.7-0.6-11.4-1.7c-1-0.3-2-0.7-2.6-1.5c-1.1-1.4-0.6-3.4,0.1-5c1.3-3,3.2-5.7,5.6-7.9c1.6-1.5,3.5-2.8,5.3-4.1  	c7.2-5,28-9.3,28-9.3s15.1-3.8,30.8-8.5c0.2-0.1,0.4-0.2,0.6-0.3c0.2-0.2,0.3-0.4,0.3-0.6c1.4-3.6,2.4-7.3,3.8-10.9  	c0.2-0.5,0.4-1,0.7-1.4c0.4-0.5,0.9-1,1.5-1.4c0.4-0.3,6.5-4.7,6.2-2.8c-1,6.4-2.2,12.8-3.6,19.1l16.5,3c0.4,0.1,0.6,0.6,0.4,1  	c-1.7,2-5.1,3-8.3,3.1c-1.2,0-5.5-0.6-10.6-1.5c-0.2,0.2-0.5,0.4-0.7,0.6c-2.7,2-5.6,3.9-8.5,5.7c5,1.1,9.9,2.3,14.9,3.4  	c4.8,1.1,10.9,1.8,15.7,3.2C100.1,58.4,100.2,59.5,99.6,59.9z M26.8,59c0-0.1-0.1-0.1-0.2-0.2c-0.2-0.1-0.5,0-0.7,0.1  	c-1.5,0.5-3.2,0.5-4.8,0.6c-2.3,0.1-4.6-0.1-6.8-0.4c-1.1-0.2-2.2-0.5-3.2-0.7c0,0-0.1,0-0.2-0.1c-1.3,0.9-2.6,1.9-3.7,2.9  	c-0.8,0.8-1.6,1.6-2.3,2.4c1.1,0.5,2.2,0.9,3.5,1.1c2.5,0.4,5.1,0.7,7.6,0.6c2.4-0.1,4.9-0.4,7-1.6c1-0.6,2-1.4,2.7-2.3  	C26,61.1,27.2,59.6,26.8,59z"/>  </svg>