<?xml version="1.0" standalone="no"?>
			<!DOCTYPE svg PUBLIC "-//W3C//DTD SVG 1.1//EN" "http://www.w3.org/Graphics/SVG/1.1/DTD/svg11.dtd"><svg xmlns="http://www.w3.org/2000/svg" xmlns:xlink="http://www.w3.org/1999/xlink" version="1.1" fill="#FFF" width="100" height="100" viewBox="0 0 100 100" xml:space="preserve">  <path class="st0" d="M36,71.7c1.9,1.1,3.3,3.1,3.3,5.5c0,2.4-1.3,4.4-3.3,5.5c1.9,1.1,3.3,3.1,3.3,5.5c0,3.5-2.8,6.3-6.3,6.3H15.2  	h-0.1h-3.7C5.1,94.5,0,89.4,0,83.1V60.3C0,54,5.1,48.8,11.4,48.8h3.7h0.1h17.7c3.5,0,6.3,2.8,6.3,6.3c0,2.4-1.3,4.4-3.3,5.5  	c1.9,1.1,3.3,3.1,3.3,5.5C39.3,68.5,37.9,70.6,36,71.7z M3.6,49.6C5.8,48,8.5,47,11.4,47h8.9c2-8.9,1.4-18.9-7.2-22.3  	c-2.1-0.8-5.5-1.2-6.3,2c-0.2,0.9-0.1,1.8-0.1,2.7c0.3,4.4,0.6,8.5-0.8,12.8C5.1,44.7,4.3,47.2,3.6,49.6z M37.7,32.3  	c-1.1,1-1.1,2.7-0.2,3.6l14.3,14.6l-1.1,1.1c-0.8,0.8-0.9,2.1-0.2,2.8c0.7,0.8,2,0.8,2.8,0l1.2-1.1l1.1,1.1c1,1,2.6,0.9,3.6-0.1  	c1.1-1,1.1-2.7,0.2-3.6l-1-1l16.9-15.9c0.8-0.8,0.9-2.1,0.2-2.8c-0.7-0.8-2-0.8-2.8,0l-17,15.9L41.3,32.1  	C40.4,31.2,38.8,31.2,37.7,32.3z M57.7,24.1v-7.6c0-1.4-1.1-2.6-2.6-2.6c-1.4,0-2.6,1.1-2.6,2.6v7.6c0,1.4,1.1,2.6,2.6,2.6  	C56.5,26.6,57.7,25.5,57.7,24.1z M88.6,52.6c1.4,0,2.6-1.1,2.6-2.6c0-1.4-1.1-2.6-2.6-2.6H81c-1.4,0-2.6,1.1-2.6,2.6  	c0,1.4,1.1,2.6,2.6,2.6H88.6z M55.1,5.1c-15.7,0-29.6,8.1-37.6,20.4c1.3,1.1,2.4,2.4,3.2,4c7-11.7,19.8-19.5,34.4-19.5  	c22.1,0,40.1,18,40.1,40.1s-18,40.1-40.1,40.1c-5,0-9.9-0.9-14.3-2.7c0,0.3,0.1,0.5,0.1,0.8c0,1.5-0.4,2.8-1.1,4  	c4.8,1.8,10,2.7,15.4,2.7C79.9,94.9,100,74.8,100,50S79.9,5.1,55.1,5.1z M55.1,73.4c-1.4,0-2.6,1.1-2.6,2.6v7.6  	c0,1.4,1.1,2.6,2.6,2.6c1.4,0,2.6-1.1,2.6-2.6v-7.6C57.7,74.5,56.5,73.4,55.1,73.4z"/>  </svg>