<?xml version="1.0" standalone="no"?>
			<!DOCTYPE svg PUBLIC "-//W3C//DTD SVG 1.1//EN" "http://www.w3.org/Graphics/SVG/1.1/DTD/svg11.dtd"><svg xmlns="http://www.w3.org/2000/svg" xmlns:xlink="http://www.w3.org/1999/xlink" version="1.1" fill="#FFF" width="100" height="100" viewBox="0 0 100 100" xml:space="preserve">  <path class="st0" d="M75.3,45.7l-11-2.8c0.9-2.3,3.1-3.9,5.7-3.9c3.4,0,6.1,2.8,6.1,6.1c0,0.3,0,0.6-0.1,0.8  	C75.8,45.9,75.5,45.8,75.3,45.7z M100,33.7c0,0-0.4,8.9-3.9,23.4c-1.8,7.3-4.8,14.4-8.5,20.9c-1.5,2.6-2.9,3.9-5.1,4.5  	c-0.9,0.2-1.9,0.3-3.1,0.3c-4.1,0-8.3-0.2-12.4-0.4c1.5-2.3,2.8-4.6,4-7c0.5-1,1-2,1.4-3c0,0.1,0,0.2,0.1,0.4  	c0.2,0.5,0.7,0.8,1.2,0.8c0.2,0,0.4,0,0.6-0.1c0.9-0.5,1.9-1,2.7-1.5c0.6-0.4,0.8-1.2,0.4-1.9c-0.4-0.6-1.2-0.8-1.9-0.4  	c-0.8,0.5-1.6,1-2.5,1.4c0,0,0,0-0.1,0.1c4.7-10.6,5.9-18.3,6.1-19.4c0.2-0.7,0.1-1.5,0-2.2c0.5-1.7,0.8-3.2,0.8-4.4  	c0-0.2,0-0.4,0-0.6c0-0.1,0-0.1,0-0.2c0-5-4.4-9-9.9-9c-4.6,0-8.4,2.8-9.5,6.6l-19.8-5.1c0.2-1.9,0.3-3.8,0.4-5.8  	c0.1-1.6,1.7-2.9,3.6-2.8l52.1,2.4C98.6,30.6,100.1,32,100,33.7z M82.9,64.6c-0.6-0.5-1.4-0.4-1.9,0.2c-0.5,0.6-1.1,1.2-1.6,1.8  	l-0.3,0.3c-0.5,0.5-0.6,1.4,0,1.9c0.3,0.3,0.6,0.4,1,0.4c0.3,0,0.7-0.1,0.9-0.4c0.1-0.1,0.2-0.2,0.3-0.3c0.6-0.6,1.2-1.3,1.8-2  	C83.6,65.9,83.5,65.1,82.9,64.6z M86.7,57.9c-0.7-0.3-1.5-0.1-1.8,0.6c-0.4,0.9-0.9,1.7-1.4,2.5c-0.4,0.6-0.2,1.5,0.5,1.9  	c0.2,0.1,0.5,0.2,0.7,0.2c0.5,0,0.9-0.2,1.2-0.7c0.5-0.9,1-1.8,1.5-2.7C87.7,59.1,87.4,58.3,86.7,57.9z M88.9,52  	c-0.7-0.2-1.5,0.2-1.7,0.9c-0.2,0.5-0.3,1-0.5,1.4c-0.3,0.7,0.1,1.5,0.8,1.7c0.2,0.1,0.3,0.1,0.5,0.1c0.6,0,1.1-0.3,1.3-0.9  	c0.2-0.5,0.4-1,0.5-1.5C90,53,89.6,52.3,88.9,52z M39.8,60.8c3.4,0,6.1-2.8,6.1-6.1c0-3.4-2.8-6.1-6.1-6.1c-3.4,0-6.1,2.8-6.1,6.1  	C33.7,58,36.4,60.8,39.8,60.8z M69.3,74.6c-3.4,6.7-7.9,12.9-13,18.5c-2,2.2-3.7,3.2-6,3.2c-0.9,0-1.9-0.1-3.1-0.4  	c-14.6-3.5-28.4-8.9-42.4-14.2c-1.2-0.5-2.4-0.9-3.4-1.8c-2.2-2-1.8-4.4,0.2-6.2c10-9.4,16.3-24,20-37c0.4-1.6,2.3-2.5,4.1-2  	l49,12.7c1.8,0.5,3,2.2,2.5,3.8C77.3,51.3,76,61.2,69.3,74.6z M29.9,54c0,0.2,0,0.4,0,0.6c0,5.9,7.6,19.3,9.5,22.4  	c0.2,0.3,0.7,0.3,0.8,0c1.9-3.1,9.5-16.5,9.5-22.4c0-0.2,0-0.4,0-0.6c0-0.1,0-0.1,0-0.2c0-5-4.4-9-9.9-9s-9.9,4-9.9,9  	C29.9,53.8,29.9,53.9,29.9,54z M10.5,73.7c-0.5-0.6-1.3-0.7-1.9-0.2c-0.4,0.4-0.8,0.7-1.2,1.1c-0.5,0.5-0.6,1.4-0.1,1.9  	c0.3,0.3,0.6,0.4,1,0.4c0.3,0,0.7-0.1,0.9-0.4c0.3-0.3,0.7-0.6,1.1-1C10.9,75.2,11,74.3,10.5,73.7z M17.8,69.8  	c-0.3-0.7-1.1-1-1.8-0.8c-1,0.4-2.1,0.9-3.1,1.5c-0.7,0.4-0.9,1.2-0.5,1.9c0.3,0.4,0.7,0.7,1.2,0.7c0.2,0,0.5-0.1,0.7-0.2  	c0.9-0.5,1.9-1,2.8-1.3C17.7,71.3,18.1,70.5,17.8,69.8z M25,68.1c-1.1-0.3-2.4-0.4-3.7-0.3c-0.8,0.1-1.3,0.7-1.3,1.5  	c0.1,0.8,0.8,1.3,1.5,1.3c1-0.1,1.9,0,2.8,0.2c0.1,0,0.2,0,0.3,0c0.6,0,1.2-0.4,1.3-1C26.2,69,25.7,68.2,25,68.1z M31.2,76  	c0.7-0.3,1-1.1,0.7-1.8c-0.3-0.7-0.6-1.3-0.9-1.7c-0.3-0.5-0.6-0.9-1-1.3c-0.5-0.6-1.4-0.6-1.9-0.1c-0.6,0.5-0.6,1.4-0.1,1.9  	c0.3,0.3,0.5,0.6,0.8,1c0.2,0.4,0.5,0.8,0.7,1.4c0.2,0.5,0.7,0.8,1.2,0.8C30.8,76.1,31,76.1,31.2,76z M36.1,79.9  	c-0.8-0.4-1.5-0.9-2.1-1.6c-0.5-0.6-1.3-0.6-1.9-0.2c-0.6,0.5-0.7,1.3-0.2,1.9c0.8,1,1.9,1.8,3.1,2.3c0.2,0.1,0.4,0.1,0.6,0.1  	c0.5,0,1-0.3,1.2-0.8C37.1,81,36.8,80.2,36.1,79.9z M44.8,80.1c-0.3-0.7-1.1-1-1.8-0.6c-0.9,0.4-1.8,0.7-2.7,0.9  	c-0.7,0.1-1.2,0.8-1.1,1.6c0.1,0.7,0.7,1.1,1.3,1.1c0.1,0,0.2,0,0.2,0c1.2-0.2,2.3-0.6,3.5-1.1C44.9,81.6,45.2,80.8,44.8,80.1z  	 M50.9,74.4c-0.6-0.5-1.4-0.4-1.9,0.1c-0.8,0.9-1.5,1.6-2.2,2.2c-0.5,0.5-0.6,1.4-0.1,1.9c0.3,0.3,0.6,0.4,1,0.4  	c0.3,0,0.7-0.1,0.9-0.4c0.8-0.7,1.5-1.5,2.3-2.4C51.5,75.7,51.4,74.9,50.9,74.4z M56,67.8c-0.6-0.5-1.4-0.4-1.9,0.2  	c-0.6,0.7-1.2,1.5-1.8,2.3l-0.2,0.3c-0.5,0.6-0.4,1.4,0.2,1.9c0.2,0.2,0.5,0.3,0.8,0.3c0.4,0,0.8-0.2,1.1-0.5l0.2-0.3  	c0.6-0.7,1.2-1.5,1.7-2.2C56.7,69.2,56.6,68.3,56,67.8z M62.1,62.2c-0.4-0.6-1.3-0.7-1.9-0.3c-0.9,0.6-1.7,1.4-2.6,2.2  	c-0.5,0.5-0.5,1.4,0,1.9c0.3,0.3,0.6,0.4,1,0.4c0.3,0,0.7-0.1,1-0.4c0.8-0.8,1.6-1.4,2.3-2C62.4,63.6,62.6,62.8,62.1,62.2z  	 M68.5,60.3c-0.1-0.8-0.7-1.3-1.5-1.2c-0.6,0.1-1.2,0.2-1.7,0.3c-0.7,0.2-1.2,0.9-1,1.7c0.2,0.6,0.7,1,1.3,1c0.1,0,0.2,0,0.3,0  	c0.4-0.1,0.9-0.2,1.3-0.2C68,61.7,68.5,61.1,68.5,60.3z M37,21.2h1.5c1.7,0,3.2-1.4,3.2-3.2V6.9c0-1.7-1.4-3.2-3.2-3.2H37  	c-1.7,0-3.2,1.4-3.2,3.2V18C33.8,19.7,35.2,21.2,37,21.2z M80,21.2h1.5c1.7,0,3.2-1.4,3.2-3.2V6.9c0-1.7-1.4-3.2-3.2-3.2H80  	c-1.7,0-3.2,1.4-3.2,3.2V18C76.9,19.7,78.3,21.2,80,21.2z M38.8,36.3c0.2-1.7,0.3-3.5,0.4-5.4c0.1-1.3,0.7-2.5,1.8-3.4  	c1-0.8,2.3-1.2,3.7-1.2l48.6,2.2V17.4c0-2.2-1.8-4-4-4h-2.9V18c0,2.7-2.2,5-5,5H80c-2.7,0-5-2.2-5-5v-4.6H43.4V18c0,2.7-2.2,5-5,5  	H37c-2.7,0-5-2.2-5-5v-4.6h-2.9c-2.2,0-4,1.8-4,4v15.5c0.4,0,0.8,0.1,1.1,0.2L38.8,36.3z"/>  </svg>