<?xml version="1.0" standalone="no"?>
			<!DOCTYPE svg PUBLIC "-//W3C//DTD SVG 1.1//EN" "http://www.w3.org/Graphics/SVG/1.1/DTD/svg11.dtd"><svg xmlns="http://www.w3.org/2000/svg" xmlns:xlink="http://www.w3.org/1999/xlink" version="1.1" fill="#FFF" width="100" height="100" viewBox="0 0 100 100" xml:space="preserve">  <path class="st0" d="M33.8,18V6.9c0-1.7,1.4-3.2,3.2-3.2h1.5c1.7,0,3.2,1.4,3.2,3.2V18c0,1.7-1.4,3.2-3.2,3.2H37  	C35.2,21.2,33.8,19.7,33.8,18z M80,21.2h1.5c1.7,0,3.2-1.4,3.2-3.2V6.9c0-1.7-1.4-3.2-3.2-3.2H80c-1.7,0-3.2,1.4-3.2,3.2V18  	C76.9,19.7,78.3,21.2,80,21.2z M38.8,36.3c0.2-1.7,0.3-3.5,0.4-5.4c0.1-1.3,0.7-2.5,1.8-3.4c1-0.8,2.3-1.2,3.7-1.2l48.6,2.2V17.4  	c0-2.2-1.8-4-4-4h-2.9V18c0,2.7-2.2,5-5,5H80c-2.7,0-5-2.2-5-5v-4.6H43.4V18c0,2.7-2.2,5-5,5H37c-2.7,0-5-2.2-5-5v-4.6h-2.9  	c-2.2,0-4,1.8-4,4v15.5c0.4,0,0.8,0.1,1.1,0.2L38.8,36.3z M69.3,74.6c-3.4,6.7-7.9,12.9-13,18.5c-2,2.2-3.7,3.2-6,3.2  	c-0.9,0-1.9-0.1-3.1-0.4c-14.6-3.5-28.4-8.9-42.4-14.2c-1.2-0.5-2.4-0.9-3.4-1.8c-2.2-2-1.8-4.4,0.2-6.2c10-9.4,16.3-24,20-37  	c0.4-1.6,2.3-2.5,4.1-2l49,12.7c1.8,0.5,3,2.2,2.5,3.8C77.3,51.3,76,61.2,69.3,74.6z M54.8,64.8l-6.9-4.1c-0.1-0.1-0.2-0.3-0.2-0.4  	l-0.5-8c-0.1-1.3-1.7-2-2.7-1.1l-6,5.2c-0.1,0.1-0.3,0.2-0.5,0.1l-7.7-2c-1.3-0.3-2.4,1-1.9,2.2l3.1,7.4c0.1,0.2,0.1,0.3,0,0.5  	l-4.3,6.7c-0.7,1.1,0.2,2.6,1.5,2.5l8-0.7c0.2,0.1,0.3,0.1,0.4,0.2l5.1,6.2c0.9,1,2.5,0.6,2.8-0.7l1.8-7.8c0.1-0.1,0.2-0.2,0.3-0.4  	l7.4-2.9C55.8,67.3,56,65.5,54.8,64.8z M96.7,30.5l-52.1-2.4c-1.9-0.1-3.5,1.2-3.6,2.8c-0.1,2-0.3,3.9-0.4,5.8l34.6,9  	c1.3,0.4,2.4,1.2,3.2,2.3c0.7,1.1,1,2.4,0.7,3.7c-0.2,1.3-1.7,11-8.1,23.8c-1.2,2.4-2.5,4.7-4,7c4.1,0.2,8.3,0.4,12.4,0.4  	c1.2,0,2.2-0.1,3.1-0.3c2.2-0.5,3.6-1.9,5.1-4.5c3.7-6.5,6.7-13.6,8.5-20.9c3.5-14.5,3.9-23.4,3.9-23.4  	C100.1,32,98.6,30.6,96.7,30.5z"/>  </svg>