<?xml version="1.0" standalone="no"?>
			<!DOCTYPE svg PUBLIC "-//W3C//DTD SVG 1.1//EN" "http://www.w3.org/Graphics/SVG/1.1/DTD/svg11.dtd"><svg xmlns="http://www.w3.org/2000/svg" xmlns:xlink="http://www.w3.org/1999/xlink" version="1.1" fill="#FFF" width="100" height="100" viewBox="0 0 100 100" xml:space="preserve">  <path class="st0" d="M85,0H15c-5,0-9.1,4.1-9.1,9.1v81.8c0,5,4.1,9.1,9.1,9.1H85c5,0,9.1-4.1,9.1-9.1V9.1C94.1,4.1,90,0,85,0z  	 M24.9,14.2L24.9,14.2L24.9,14.2L24.9,14.2z M15.3,18.8c0-1.2,0.5-2.3,1.3-3.1l1.3,1.9c-0.2,0.4-0.4,0.8-0.4,1.2v6.3  	c0,1.3,1.1,2.4,2.4,2.4h6.3c1.3,0,2.4-1.1,2.4-2.4v-2.7l2.2-3.1v5.8c0,2.5-2,4.5-4.5,4.5h-6.3c-2.5,0-4.5-2-4.5-4.5V18.8z  	 M24.9,42.9L24.9,42.9L24.9,42.9L24.9,42.9z M15.3,47.5c0-1.2,0.5-2.3,1.3-3.1l1.3,1.9c-0.2,0.4-0.4,0.8-0.4,1.2v6.3  	c0,1.3,1.1,2.4,2.4,2.4h6.3c1.3,0,2.4-1.1,2.4-2.4v-2.7l2.2-3.1v5.8c0,2.5-2,4.5-4.5,4.5h-6.3c-2.5,0-4.5-2-4.5-4.5V47.5z  	 M24.9,71.7L24.9,71.7L24.9,71.7L24.9,71.7z M30.6,82.5c0,2.5-2,4.5-4.5,4.5h-6.3c-2.5,0-4.5-2-4.5-4.5v-6.3c0-1.2,0.5-2.3,1.3-3.1  	l1.3,1.9c-0.2,0.4-0.4,0.8-0.4,1.2v6.3c0,1.3,1.1,2.4,2.4,2.4h6.3c1.3,0,2.4-1.1,2.4-2.4v-2.7l2.2-3.1V82.5z M33.1,70.6l-6.5,9  	c-0.4,0.6-1.1,0.9-1.8,0.9c0,0,0,0,0,0c-0.7,0-1.4-0.4-1.8-0.9l-4.9-7.1c-0.7-1-0.4-2.4,0.6-3c1-0.7,2.4-0.4,3,0.6l3.1,4.5l4.7-6.4  	c0.7-1,2-1.2,3-0.5C33.5,68.3,33.8,69.6,33.1,70.6z M33.1,41.9l-6.5,9c-0.4,0.6-1.1,0.9-1.8,0.9c0,0,0,0,0,0c-0.7,0-1.4-0.4-1.8-0.9  	l-4.9-7.1c-0.7-1-0.4-2.4,0.6-3c1-0.7,2.4-0.4,3,0.6l3.1,4.5l4.7-6.4c0.7-1,2-1.2,3-0.5C33.5,39.5,33.8,40.9,33.1,41.9z M33.1,13.2  	l-6.5,9c-0.4,0.6-1.1,0.9-1.8,0.9c0,0,0,0,0,0c-0.7,0-1.4-0.4-1.8-0.9l-4.9-7.1c-0.7-1-0.4-2.4,0.6-3c1-0.7,2.4-0.4,3,0.6l3.1,4.5  	l4.7-6.4c0.7-1,2-1.2,3-0.5C33.5,10.8,33.8,12.2,33.1,13.2z M82.7,84.3H39.2c-1.2,0-2.1-1-2.1-2.2c0-1.2,0.9-2.2,2.1-2.2h43.5  	c1.2,0,2.1,1,2.1,2.2C84.7,83.3,83.8,84.3,82.7,84.3z M82.7,74.3H39.2c-1.2,0-2.1-1-2.1-2.2c0-1.2,0.9-2.2,2.1-2.2h43.5  	c1.2,0,2.1,1,2.1,2.2C84.7,73.3,83.8,74.3,82.7,74.3z M82.7,55.5H39.2c-1.2,0-2.1-1-2.1-2.2c0-1.2,0.9-2.2,2.1-2.2h43.5  	c1.2,0,2.1,1,2.1,2.2C84.7,54.6,83.8,55.5,82.7,55.5z M82.7,45.6H39.2c-1.2,0-2.1-1-2.1-2.2c0-1.2,0.9-2.2,2.1-2.2h43.5  	c1.2,0,2.1,1,2.1,2.2C84.7,44.6,83.8,45.6,82.7,45.6z M82.7,26.8H39.2c-1.2,0-2.1-1-2.1-2.2c0-1.2,0.9-2.2,2.1-2.2h43.5  	c1.2,0,2.1,1,2.1,2.2C84.7,25.9,83.8,26.8,82.7,26.8z M82.7,16.9H39.2c-1.2,0-2.1-1-2.1-2.2s0.9-2.2,2.1-2.2h43.5  	c1.2,0,2.1,1,2.1,2.2S83.8,16.9,82.7,16.9z"/>  </svg>