<?xml version="1.0" standalone="no"?>
			<!DOCTYPE svg PUBLIC "-//W3C//DTD SVG 1.1//EN" "http://www.w3.org/Graphics/SVG/1.1/DTD/svg11.dtd"><svg xmlns="http://www.w3.org/2000/svg" xmlns:xlink="http://www.w3.org/1999/xlink" version="1.1" fill="#FFF" width="100" height="100" viewBox="0 0 100 100" xml:space="preserve">  <path class="st0" d="M56.6,19.9c1,0,2-0.1,2.9-0.4c1.3,1.6,3.2,2.5,5.2,2.5c1.7,0,3.2-0.6,4.4-1.7c1.2,1.6,3.2,2.6,5.2,2.6  	c2.5,0,4.7-1.4,5.8-3.5c0.9,0.3,1.9,0.4,2.9,0.4c4.3,0,7.6-2.5,7.6-5.7c0-3.2-3.4-5.7-7.6-5.7c0,0,0,0-0.1,0  	c-0.5-3.6-3.6-6.3-7.4-6.3c-2.6,0-4.9,1.3-6.2,3.4c-0.9-1-2.2-1.7-3.6-1.7c-2.2,0-4,1.4-4.7,3.5c-0.3-0.1-0.6-0.1-0.9-0.1  	c-2.1,0-3.9,1.4-4.5,3.3c-3.7,0.2-6.4,2.2-6.4,4.7C49.4,17.8,52.5,19.9,56.6,19.9z M56.6,12.6C56.6,12.6,56.6,12.6,56.6,12.6  	c0.5,0,0.9-0.4,1-0.9c0.1-1.3,1.3-2.3,2.7-2.3c0.4,0,0.8,0.1,1.2,0.3c0.3,0.1,0.6,0.1,0.9,0c0.3-0.2,0.5-0.5,0.5-0.8  	c0.1-1.6,1.4-2.9,3-2.9c1.2,0,2.4,0.8,2.8,2c0.1,0.4,0.5,0.7,0.9,0.7c0.4,0,0.8-0.3,0.9-0.7c0.7-2.2,2.8-3.7,5.2-3.7  	c3,0,5.5,2.4,5.5,5.4c0,0.3,0.1,0.6,0.3,0.8c0.2,0.2,0.5,0.3,0.8,0.3c0.3,0,0.6-0.1,0.9-0.1c3.1,0,5.7,1.7,5.7,3.7s-2.6,3.7-5.7,3.7  	c-1.1,0-2.1-0.2-3.1-0.6c-0.2-0.1-0.5-0.1-0.8,0c-0.2,0.1-0.4,0.3-0.5,0.6c-0.7,1.8-2.4,3.1-4.4,3.1c-1.8,0-3.4-1-4.2-2.6  	c-0.2-0.3-0.4-0.5-0.8-0.6c0,0-0.1,0-0.1,0c-0.3,0-0.6,0.1-0.8,0.4c-0.9,1.2-2.3,1.9-3.8,1.9c-1.7,0-3.2-0.8-4-2.2  	c-0.2-0.4-0.7-0.6-1.2-0.4c-0.9,0.3-1.9,0.5-3,0.5c-3,0-5.2-1.4-5.2-2.6C51.4,14,53.6,12.6,56.6,12.6z M60.9,80.9  	c-0.7,0-1.3-0.6-1.3-1.3s0.6-1.3,1.3-1.3h18.5c0.7,0,1.3,0.6,1.3,1.3s-0.6,1.3-1.3,1.3H60.9z M98.9,85.6c0,0.7-0.6,1.3-1.3,1.3H75.8  	c-0.7,0-1.3-0.6-1.3-1.3s0.6-1.3,1.3-1.3h21.8C98.4,84.3,98.9,84.9,98.9,85.6z M85.6,93c0,0.7-0.6,1.3-1.3,1.3h-14  	c-0.7,0-1.3-0.6-1.3-1.3s0.6-1.3,1.3-1.3h14C85,91.7,85.6,92.2,85.6,93z M38,70.1H23c-0.6,0-1-0.4-1-1s0.4-1,1-1h15c0.6,0,1,0.4,1,1  	S38.6,70.1,38,70.1z M43.7,65.1h-9.3c-0.6,0-1-0.4-1-1s0.4-1,1-1h9.3c0.6,0,1,0.4,1,1S44.2,65.1,43.7,65.1z M32.7,75  	c0-0.6,0.4-1,1-1H43c0.6,0,1,0.4,1,1s-0.4,1-1,1h-9.3C33.1,76,32.7,75.5,32.7,75z M68.4,97.8c0.4,0.6,0,1.4-0.8,1.4H0V82.9  	c0-0.4,0-0.7,0-1c0,0,0,0,0-0.1V50.4c0.3-3.7,0.2-7.4,0-11.2V27c0,0,0,0,0.1-0.1c0.2-0.1,0.4-0.2,0.6-0.2c1.8-0.3,3.6-0.2,5.5,0  	c0,0,3-4.2,3-4.2h-4l4.9-6.9h-3l4.7-6.7H9.3l5.7-8l5.7,8h-2.5l4.7,6.7h-3l4.9,6.9h-4l5.6,7.9c1.9,0.5,3.8,1,5.7,1.6l1.7-2.9h-3.2  	l4.6-7.5h-2.4l5.5-9l5.5,9h-2.4l4.6,7.5h-3.2l4.4,7.7c3.6,1.7,9.1,4.9,13.2,8.6c0.8,0.7,2.1,2.2,0.9,3.2c-0.5,0.4-1.1,0.5-1.7,0.7  	c-1.5,0.3-3,0.7-4.6,1C38,53.1,18.7,59,6.5,71.2C5.7,72,4.9,73,4.3,74c11.8,1.1,23.4,3.5,34.7,7.5C48.6,85,61,89.1,67.9,97  	C68.1,97.3,68.3,97.5,68.4,97.8z M100,43.7v28.4H51.2c-1.4-2,0.4-4.3,2.2-6c1.6-1.5,3.2-2.9,4.9-4.3l5-9.3h-3.3l5.2-8.5h-2.8  	L68.7,34L75,44.1h-2.8l3.9,6.4c0.3-0.1,0.6-0.3,0.8-0.4l4.4-6.4h-4l4.9-7.1h-3l4.7-6.9h-2.5l5.7-8.2l5.7,8.2h-2.5l4.7,6.9h-3  	c0,0,4.6,6.6,4.6,6.7C97,43.6,98.8,43.1,100,43.7C100,43.7,100,43.7,100,43.7z"/>  </svg>