<svg xmlns="http://www.w3.org/2000/svg" width="682.667" height="682.667" version="1.0" viewBox="0 0 512 512"><g fill="#f2f5f7"><path d="m73.8 62.7-.3 15.8-16 .5c-15.6.5-16.2.6-22.5 3.7-10.6 5.2-18.2 13.9-21.9 25.1-2 5.7-2.1 8.4-2.1 40.7V183h459v127.2c0 121-.1 127.5-1.9 131.3-2.2 5-7.9 10.1-12.8 11.5-2.7.8-62.5 1-206.9.8l-203.1-.3-3.6-2.8c-2-1.5-4.9-4.4-6.4-6.4l-2.8-3.6-.3-118.4L32 204H11l.2 119.2.3 119.3 2.3 5.8c4.8 11.8 14.8 20.9 27.1 24.7 6.2 2 10 2 210.1 2 200.2 0 203.9 0 210.2-2 12.1-3.7 22.2-13 27.1-25l2.2-5.5v-332l-3.2-6.7c-4.2-9-11.9-17-20.2-21.1-6.4-3.1-7-3.2-22.6-3.7l-16-.5-.3-15.8-.3-15.8-10.2.3-10.2.3-.2 15.5-.1 15.5-31.1.3-31.1.2V47h-20.9l-.3 15.7-.3 15.8h-62l-.3-15.8-.3-15.8-10 .3-10.1.3-.1 15.5-.2 15.5-31.2.3-31.3.2V47h-21v32l-31.2-.2-31.3-.3-.2-15.5-.1-15.5-10.1-.3-10-.3-.3 15.8zm0 52.6.3 15.8 10-.3 10.1-.3.1-15.5.2-15.5 31.3-.3L157 99v32h21V99l31.3.2 31.2.3.2 15.5.1 15.5 10.1.3 10 .3.3-15.8.3-15.8 31.3-.3L324 99v32h21V99l31.1.2 31.1.3.1 15.5.2 15.5 10.2.3 10.2.3.3-15.8.3-15.8h13c12 0 13.3.2 17.5 2.5 2.4 1.4 5.8 4.5 7.5 6.8l3 4.4.3 24.4.3 24.4H31.9l.3-24.3.3-24.4 2.7-4.1c5.4-8.1 11.2-10.2 26.8-9.9l11.5.2.3 15.8z"/><path d="m139.8 206.9-3.3 2.9-.3 23.9c-.4 26 .1 28.8 5.4 31.2 1.6.7 10.9 1.1 26.4 1.1h24l3.2-2.9 3.3-2.9v-50.4l-3.3-2.9-3.2-2.9h-49l-3.2 2.9zM178 235v10h-21v-20h21v10zm45-28.1-3 2.9v50.4l2.9 2.9 2.9 2.9h25.1c25 0 25 0 27.8-2.4l2.8-2.4v-26.1c0-25.8 0-26.1-2.3-28.3-2.2-2.3-2.7-2.3-27.8-2.6l-25.5-.3-2.9 3zm38 28.1v10h-20.5v-20H261v10zm47.4-29.9c-4.9 2.4-5.4 5-5.4 29.9 0 25.2.5 27.5 5.7 29.9 1.5.7 11.2 1.1 26.3 1.1h24l3.2-2.9 3.3-2.9v-50.4l-3.3-2.9-3.2-2.9-24.3.1c-14.1 0-25.1.5-26.3 1zM345 235v10h-21v-20h21v10zm45-28.1-3 2.9v50.4l3 2.9 2.9 3 25.5-.3c25.1-.3 25.6-.3 27.8-2.6 2.3-2.2 2.3-2.5 2.3-28.2s0-26-2.3-28.2c-2.2-2.3-2.7-2.3-27.8-2.6l-25.5-.3-2.9 3zm38 28.1v10h-21v-20h21v10zM59.4 288c-1.2.4-3.1 2.1-4.3 3.6-2 2.6-2.1 3.7-2.1 27V343l2.9 3.2 2.9 3.3h50.4l2.9-3.3 2.9-3.2v-49.2l-3.4-3.4-3.4-3.4-23.3.1c-12.9 0-24.4.4-25.5.9zm34.8 30.5v10l-10.1.3-10.1.3v-21.2l10.1.3 10.1.3v10zm47.6-29.9c-5.3 2.8-5.8 5.2-5.8 29.9 0 33-1.5 31.5 31.5 31.5 24.9 0 27.1-.4 30-6 1.2-2.3 1.5-7.3 1.5-25.5 0-33 1.5-31.5-31.7-31.5-18.2.1-23.4.4-25.5 1.6zm36.2 29.9V329h-21v-21h21v10.5zm46.8-29.8c-1.4.9-3.1 2.7-3.7 4-.7 1.5-1.1 11.4-1.1 26.3v24l2.9 3.2 2.9 3.3h50.4l2.9-3.3 2.9-3.2v-49l-2.9-3.2-2.9-3.3-24.4-.3c-21.3-.2-24.6 0-27 1.5zm36.2 29.8v10.6l-10.1-.3-10.1-.3.1-9.8c0-5.3 0-9.9.1-10.2 0-.3 4.5-.5 10-.5h10v10.5zm47.8-29.9c-5.3 2.8-5.8 5.2-5.8 29.9 0 33-1.5 31.5 31.5 31.5 18.2 0 23.2-.3 25.5-1.5 5.6-2.9 6-5.1 6-30 0-33 1.5-31.5-31.7-31.5-18.2.1-23.4.4-25.5 1.6zm36.2 29.9V329h-21v-21h21v10.5zm46.8-29.8c-1.4.9-3.1 2.7-3.7 4-1.5 3.3-1.5 48.4 0 51.7 2.4 5.3 5.2 5.8 31.2 5.4l23.9-.3 2.9-3.3 2.9-3.2v-49l-2.9-3.2-2.9-3.3-24.4-.3c-21.3-.2-24.6 0-27 1.5zm36.2 29.8v10.6l-10.2-.3-10.3-.3-.3-8.9c-.2-4.9-.1-9.5.2-10.3.4-1 3.1-1.3 10.6-1.3h10v10.5zM55.9 374l-3 2.9.3 25.5c.3 25.1.3 25.6 2.6 27.8 2.2 2.3 2.5 2.3 28.3 2.3h26.1l2.4-2.8c2.4-2.8 2.4-2.8 2.4-27.8v-25.1l-2.9-2.9-2.9-2.9H58.8l-2.9 3zm38.6 28v10H74v-20h20.5v10zm46.8-29.8c-1.1.5-2.9 2.4-3.8 4.2-1.4 2.7-1.6 6.2-1.3 26.9l.3 23.9 3.3 2.9 3.2 2.9h49l3.2-2.9 3.3-2.9.3-23.6c.3-25.8-.2-29.1-5.4-31.5-3.2-1.4-49-1.4-52.1.1zM178 402v10h-21v-20h21v10zm44.9-28.1-2.9 2.9v25.1c0 25 0 25 2.4 27.8l2.4 2.8h26.1c25.8 0 26.1 0 28.3-2.3 2.3-2.2 2.3-2.5 2.3-28.3v-26.1l-2.8-2.4c-2.8-2.4-2.8-2.4-27.8-2.4h-25.1l-2.9 2.9zM261 402v10h-20.5v-20H261v10zm47.4-29.9c-4.9 2.5-5.4 5-5.4 30.4v23.7l3.4 3.4 3.4 3.4h24.5c33.7 0 32 1.8 31.5-32.9l-.3-23.3-3.3-2.9-3.2-2.9-24.3.1c-14.1 0-25.1.5-26.3 1zM345 402v10h-21v-20h21v10z"/></g></svg>