<svg xmlns="http://www.w3.org/2000/svg" width="682.667" height="682.667" version="1.0" viewBox="0 0 512 512">
    <g fill="#f2f5f7" class="fill">
        <path d="M254.6 17.1c-6.2 1.5-15.3 6.8-19.7 11.6-2.2 2.4-5.5 7.4-7.2 11.1l-3.2 6.7v219.1l3.8 7.6c4.4 9.1 10.2 14.6 19.7 19.2l6.5 3.1 52.8.3 52.7.3v51l2.5 2.4c1.6 1.6 3.5 2.5 5.7 2.5 2.9 0 6.1-2.8 31.3-27.9l28-28 19-.3c19-.3 19-.3 25.7-3.5 9.3-4.4 15.1-10 19.6-19.1l3.7-7.6V46.4l-3.7-7.6c-4.5-9.1-10.3-14.7-19.6-19.1l-6.7-3.2-103.5-.2c-60.4-.1-105.1.3-107.4.8zm209.7 16.5c5.7 1.9 12.8 9.3 14.5 15.2 1.7 5.7 1.7 208.7 0 214.4-.6 2.2-3.1 6.2-5.5 8.8-6.5 7.2-9.7 8-33.2 8h-19.5l-22.3 22.2-22.3 22.2v-19.7c0-19.7 0-19.8-2.5-22.2l-2.4-2.5h-55.2c-40.4 0-56.3-.3-59.3-1.2-5.5-1.6-13.8-9.9-15.4-15.4-1.7-6-1.7-208.8 0-214.8 1.5-5.1 9.9-13.7 14.8-15.3 2.4-.8 33.7-1.1 103.6-1.2 89-.1 100.6.1 104.7 1.5z"/>
        <path d="M338 49.6c-17.7 3.8-34.8 17.1-42.9 33.4-5.4 11-7.1 19.4-7.1 35.3 0 12.3.1 12.9 2.5 15.2 2.4 2.5 2.6 2.5 21.3 2.5 24.8 0 23.5.9 24.2-16.8.5-14.1 1.2-16 7.4-20.6 2.3-1.8 4.5-2.2 14.4-2.4 6.7-.2 13.2.1 15.3.7 4.6 1.4 9.6 6.9 10.5 11.7 1.4 7.5-.6 10.5-19 29.3-10.6 10.8-18.4 19.7-20.3 23.1-4.1 7.2-7.2 17.7-7.9 26.5-.6 6.2-.4 7.3 1.6 9.7l2.1 2.8h39.8l2-2.6c1.2-1.5 2.1-4 2.1-5.6 0-5.1 2.9-8.9 19-25.3 17.1-17.4 20.4-21.7 24.3-31.5 6.9-17.5 6.1-34.6-2.4-51.9-8.2-16.7-25.1-29.8-43.4-33.6-9-1.9-34.6-1.9-43.5.1zm40.2 15.5c25.3 5.3 42 30.8 36.7 56.1-2.5 11.9-6 17-24.6 35.9-12.1 12.4-17.9 19.1-19.4 22.3l-2 4.6h-16.1l.6-3.3c.3-1.7 2-6.1 3.8-9.7 2.5-5.2 6.6-10 20.8-24.5 20.2-20.6 21.5-22.8 21.5-35.5 0-9.1-3.3-16.8-9.7-22.5-7.8-7.1-11.2-8-29.8-8-14.7 0-17 .2-21.1 2.1-11.6 5.4-18 15.3-18.7 29l-.5 8.4H304v-6.5c0-23.2 14.8-42.9 36.3-48.1 6.5-1.6 30.9-1.8 37.9-.3zm-39.7 153.4c-2.5 2.4-2.5 2.6-2.5 21.5 0 25.7-1.7 24 24 24s24 1.7 24-24 1.7-24-24-24c-18.9 0-19.1 0-21.5 2.5zM368 240v8h-16v-16h16v8zM120.4 104.9c-4.7 1.2-13.3 6.2-16 9.4-1.4 1.7-3.7 5.3-5.2 8.1l-2.7 5.1-.3 144.2L96 416h16l.2-142.9c.3-142.6.3-143 2.4-145.7 1.1-1.5 3.3-3.7 4.8-4.8 2.7-2 4.1-2.1 45.7-2.4l42.9-.3V104l-42.2.1c-23.3.1-43.7.4-45.4.8z"/>
        <path d="M128 144v8h16v-16h-16v8zm32 0v8h16v-16h-16v8zm32 0v8h16v-16h-16v8zM72.4 168.9c-4.7 1.2-13.3 6.2-16 9.4-1.4 1.7-3.7 5.3-5.2 8.1l-2.7 5.1-.3 120.3L48 432H34.4c-13.1 0-13.6.1-16 2.6l-2.6 2.5.4 17.7.3 17.7 3.4 6.3c3.8 7 6.9 10 14.5 14l5.1 2.7h433l5.1-2.7c7.6-4 10.7-7 14.5-14l3.4-6.3.3-17.7.4-17.7-2.6-2.5c-2.4-2.5-2.9-2.6-16.1-2.6H464V312h-16v119.9l-66.7.3-66.8.3-5 2.3c-2.7 1.3-7.1 4.1-9.7 6.3-8.3 6.9-8.1 6.9-43.8 6.9-35.7 0-35.5 0-43.8-6.9-2.6-2.2-6.9-5-9.7-6.3l-5-2.3-66.7-.3-66.8-.3V314.4c0-96.9.2-118 1.4-120.7 1.7-4.3 6.8-8.5 11.1-9.3l3.5-.6v-7.9c0-8.7 0-8.8-7.6-7zm123 280.5c1.9.8 5.9 3.4 8.9 5.9 10 8.2 10.2 8.2 51.7 8.2s41.7 0 51.7-8.2c9.6-7.8 3.1-7.3 92.4-7.3h80.1l-.4 10.9c-.3 11.8-1.2 14.1-7.2 18.5l-2.7 2.1H42.1l-2.7-2.1c-6-4.4-6.9-6.7-7.2-18.5l-.4-10.9h80.1c66.7 0 80.7.2 83.5 1.4zM128 176v8h80v-16h-80v8z"/>
        <path d="M144.1 217.4c-5.3 1.9-11.1 7.4-13.7 13-4.4 9.5-2.7 18.3 5.1 26.2 10.2 10.3 25.2 9.6 34.7-1.6 8.4-9.7 7.7-22.2-1.7-31.5-7-7.1-15.7-9.3-24.4-6.1zm13.4 17.1c5 4.9 1.5 13.5-5.5 13.5-4.1 0-8-3.9-8-8s3.9-8 8-8c1.9 0 4 .9 5.5 2.5zM192 224v8h16v-16h-16v8zm0 32v8h16v-16h-16v8zm-47.9 25.4c-5.3 1.9-11.1 7.4-13.7 13-4.4 9.5-2.7 18.3 5.1 26.2 10.2 10.3 25.2 9.6 34.7-1.6 8.4-9.7 7.7-22.2-1.7-31.5-7-7.1-15.7-9.3-24.4-6.1zm13.4 17.1c5 4.9 1.5 13.5-5.5 13.5-1.9 0-4-.9-5.5-2.5-1.6-1.5-2.5-3.6-2.5-5.5s.9-4 2.5-5.5c1.5-1.6 3.6-2.5 5.5-2.5s4 .9 5.5 2.5zM192 288v8h24v-16h-24v8zm0 32v8h152v-16H192v8zm-47.9 25.4c-5.3 1.9-11.1 7.4-13.7 13-4.4 9.5-2.7 18.3 5.1 26.2 10.2 10.3 25.2 9.6 34.7-1.6 8.4-9.7 7.7-22.2-1.7-31.5-7-7.1-15.7-9.3-24.4-6.1zm13.4 17.1c5 4.9 1.5 13.5-5.5 13.5-1.9 0-4-.9-5.5-2.5-1.6-1.5-2.5-3.6-2.5-5.5s.9-4 2.5-5.5c1.5-1.6 3.6-2.5 5.5-2.5s4 .9 5.5 2.5zM192 352v8h152v-16H192v8zm208 28v36h16v-72h-16v36zm-208 4v8h112v-16H192v8zm128 0v8h48v-16h-48v8z"/>
    </g>
</svg>
